<?xml version="1.0" standalone="no"?>
<!DOCTYPE svg PUBLIC "-//W3C//DTD SVG 1.1//EN" "http://www.w3.org/Graphics/SVG/1.1/DTD/svg11.dtd" >
<svg xmlns="http://www.w3.org/2000/svg" xmlns:xlink="http://www.w3.org/1999/xlink" version="1.1">
<metadata></metadata>
<defs>
<font id="drawing_with_markersregular" horiz-adv-x="1148" >
<font-face units-per-em="2048" ascent="1638" descent="-410" />
<missing-glyph horiz-adv-x="510" />
<glyph horiz-adv-x="0" />
<glyph horiz-adv-x="0" />
<glyph unicode="&#xd;" horiz-adv-x="0" />
<glyph unicode=" "  horiz-adv-x="510" />
<glyph unicode="&#x09;" horiz-adv-x="510" />
<glyph unicode="&#xa0;" horiz-adv-x="510" />
<glyph unicode="!" horiz-adv-x="280" d="M66 18q0 30 20 56q26 38 62 38q30 0 50 -24q20 -22 20 -62v-20q-4 -30 -10 -52q-6 -24 -42 -24h-14q-32 4 -54 20q-22 14 -28 48q-4 10 -4 20zM84 504q8 266 12 460q2 194 12 344q6 80 16 150q8 70 24 134q20 74 58 76q4 0 8 -2q44 -10 36 -110q-56 -140 -68 -376 q-10 -236 -10 -572q16 4 22 14q4 12 10 24q-8 -72 -10 -118q-4 -46 -12 -74q-8 -14 -20 -18q-4 -2 -12 -2q-10 0 -22 4q-40 14 -44 66z" />
<glyph unicode="&#x22;" horiz-adv-x="406" d="M18 1734q0 10 18 28q18 20 36 18q18 0 36 -18q12 -22 24 -54t20 -66q16 -68 10 -130q-4 -64 -46 -86h-4q-6 -2 -12 -2q-16 -2 -32 12q-26 20 -12 60q10 0 18 -8q8 -10 14 -2q12 14 -2 110q-16 96 -48 120q-20 6 -20 18zM206 1490q0 16 14 36q8 -4 14 -14q8 -10 14 -4 q16 10 24 108t-18 128q-36 18 10 46q16 10 30 10q24 0 40 -28q6 -24 10 -58t4 -70q-2 -68 -22 -128q-20 -62 -64 -72h-8q-22 0 -38 20q-8 12 -10 26z" />
<glyph unicode="#" horiz-adv-x="1210" d="M80 908v2q0 20 34 22q78 -16 180 -26t210 -18q132 -8 256 -14q124 -4 208 -10q46 -4 76 -8q32 -4 42 -8q18 -18 24 -32q2 -6 2 -12t-2 -10q-12 -24 -62 -30q-52 -8 -96 -10q4 4 42 10q36 6 54 14q-74 20 -184 26q-110 8 -230 12q-178 6 -336 14q-160 8 -200 42 q-16 12 -18 36zM106 626v12q0 22 22 22q12 0 28 -4q24 -16 66 -26q42 -12 96 -20q100 -16 232 -24q130 -6 258 -8q132 -2 242 -2q110 2 166 0q-136 -26 -336 -50q-178 -24 -348 -24q-22 0 -44 2q-102 2 -192 14q-90 14 -156 44q-24 16 -34 64zM252 56q32 260 42 468t32 394 q14 100 34 196t54 194q2 28 14 28q8 0 22 -14q34 -34 24 -84q-24 -62 -46 -184q-22 -124 -40 -268q-8 -76 -16 -156q-8 -78 -14 -154q-10 -138 -16 -252q-4 -114 -4 -164q-16 -62 -46 -62h-6q-34 6 -34 58zM728 148v4q0 36 34 30q-2 34 -4 90t-4 128q-2 134 0 308 q2 172 12 342q10 142 28 270q18 126 46 216q16 12 30 12q12 0 26 -10q18 -12 18 -28q0 -10 -6 -20q-28 -112 -44 -232q-18 -122 -28 -250q-20 -236 -14 -482q4 -244 22 -468q-24 -20 -44 -20q-6 0 -10 2q-24 6 -50 44q-8 22 -12 64z" />
<glyph unicode="$" horiz-adv-x="1350" d="M18 974v6q2 54 28 108q28 52 74 100q90 88 238 156q148 66 320 94q102 16 206 16q42 0 86 -4q150 -10 286 -60q38 -20 38 -62q0 -6 -2 -14q-6 -50 -38 -58q-10 -2 -22 4t-26 24q-100 48 -222 56q-124 8 -248 -10q-82 -14 -160 -36t-146 -52q-128 -56 -212 -128t-84 -140 q-2 -78 38 -136q40 -56 106 -96q70 -40 160 -68t184 -48q60 -12 120 -22q58 -12 112 -22q98 -20 162 -46q66 -24 66 -66q4 -70 -70 -110q-72 -42 -166 -68q-50 -14 -102 -24q-50 -12 -92 -24q-14 -10 -22 -12h-4q-6 0 -10 4q-14 12 0 58q16 46 52 56q26 10 64 20l76 20 q56 16 98 32q44 16 36 34q-2 8 -142 22t-308 60q-92 26 -178 64q-88 38 -156 94q-64 52 -102 122q-38 68 -38 156zM690 1658q0 16 30 36q26 18 44 18q22 0 32 -28q32 -100 52 -242t30 -302q6 -102 8 -208q4 -106 4 -206q2 -188 -4 -338q-4 -152 -8 -222q10 14 16 18 q8 4 12 0q10 -6 10 -36q0 -10 -2 -22q-4 -50 -10 -70q-14 -42 -38 -84q-20 -38 -40 -38h-6q-12 4 -22 26q-12 20 -20 68q20 250 28 524q8 276 -12 542q-10 142 -30 278q-20 138 -50 262q-24 10 -24 24z" />
<glyph unicode="%" horiz-adv-x="1582" d="M26 1172q0 -26 10 -52q26 -60 72 -90q44 -32 98 -38q102 -12 210 38t160 116q48 62 48 156q-2 92 -74 150q76 -2 154 4q80 4 156 14q146 16 276 44q132 26 218 50q-14 -18 -96 -124q-84 -108 -194 -260q-60 -84 -124 -174q-62 -92 -124 -186q-50 -76 -96 -152t-86 -148 q-72 -134 -112 -244t-26 -174q12 -50 46 -62q24 -8 48 -8q8 0 18 2q88 14 184 88t190 172q50 50 98 104t92 104q20 -24 50 -36q32 -10 68 -12q66 0 136 34q68 34 98 98q16 32 18 72v6q0 36 -18 78q-14 36 -44 40q-30 2 -44 -52q16 -34 16 -62q0 -30 -10 -52q-24 -54 -84 -74 t-96 6q-18 16 0 46q20 32 42 36q2 40 -22 72q-22 32 -54 20q-16 -6 -34 -28q-18 -24 -34 -68q-42 -48 -100 -108q-58 -62 -120 -122q-114 -112 -216 -196q-100 -86 -122 -68q-20 14 28 124q50 110 140 268q50 86 108 180t120 192q118 186 244 362q124 178 224 298 q84 46 60 98q-16 30 -54 30q-28 0 -66 -14q-222 -84 -468 -100t-482 -24q-40 -2 -52 30t-50 42q-66 16 -88 -46q-20 -62 40 -84q-36 -14 -74 -40q-40 -26 -76 -58q-66 -60 -106 -134q-24 -44 -24 -84zM136 1186q0 26 18 48q32 42 70 62q34 -6 66 10q30 16 30 42q6 36 32 64 t50 30h4q38 0 70 -36q32 -40 48 -88q8 -32 8 -64q-2 -32 -18 -52q-26 -32 -62 -54q-26 -16 -56 -26q-10 -4 -22 -6q-54 -16 -104 -16q-20 0 -40 4q-68 8 -82 36q-12 24 -12 46z" />
<glyph unicode="&#x26;" horiz-adv-x="1370" d="M106 278q0 54 28 120q62 142 184 280q80 90 174 164q92 76 176 114q-56 -2 -108 14q-54 18 -100 48q-84 56 -130 140q-44 82 -18 146q42 106 182 164q90 38 184 38q48 0 98 -10q76 -18 144 -64q68 -48 110 -134q38 -44 20 -74q-16 -30 -50 -20q-16 6 -32 18 q-14 14 -28 38q-30 62 -72 96q-44 34 -92 48q-40 12 -82 12t-82 -8q-74 -16 -132 -52t-72 -72q-20 -50 36 -106q54 -56 136 -96q54 -26 110 -40q58 -14 104 -8q54 22 88 18t58 -14q24 -38 4 -66q-18 -28 -54 -30q-98 -16 -204 -84q-106 -66 -198 -154q-50 -46 -92 -96 q-44 -48 -78 -96q-64 -88 -90 -162q-26 -72 6 -102q34 -34 76 -42q42 -10 90 -2q78 14 162 64t160 118q114 100 186 208q74 108 54 152q-12 26 -46 -6q-36 -30 -72 -36q-48 -6 -60 36t48 70q56 26 136 80t156 106q40 30 76 54q36 26 62 42q48 4 72 -36q8 -10 8 -18 q0 -24 -46 -34q-74 -58 -142 -96q-66 -36 -138 -80q16 2 36 -6q18 -8 26 -34q20 -68 -30 -166q-52 -98 -146 -196q-50 -52 -108 -102q-60 -50 -124 -90q-146 -96 -294 -126q-34 -8 -66 -8q-100 0 -166 74q-38 42 -38 104zM634 -82q0 30 4 66q12 86 26 166q10 70 38 70 q2 0 6 -2q34 -8 22 -68q-4 -24 -14 -116q-10 -90 4 -160q10 16 24 52q12 36 16 40v-4q0 -58 -18 -112t-46 -56h-2q-12 0 -24 12q-14 12 -28 42q-8 30 -8 70zM664 1678q0 14 2 30q4 68 18 150q8 58 28 58q6 0 14 -6q32 -24 36 -52v-20q0 -32 -6 -98q-10 -94 -12 -158 q-10 -20 -34 -20t-34 24q-12 40 -12 92z" />
<glyph unicode="'" horiz-adv-x="212" d="M22 1716q2 10 16 28q18 20 38 20q16 0 34 -16q16 -20 30 -50q14 -32 24 -66q20 -66 20 -130q-2 -64 -42 -88q-4 -2 -8 -2q-4 -2 -10 -2q-14 0 -30 10q-26 18 -16 60q10 0 18 -8q10 -8 16 0q10 14 -12 110q-22 94 -56 116q-22 4 -22 18z" />
<glyph unicode="(" horiz-adv-x="658" d="M42 352q0 64 4 132q18 244 78 500q62 264 164 510q102 244 228 400q24 30 56 30q10 0 22 -4q40 -10 40 -34v-8q-2 -10 -12 -20q-12 -10 -32 -18q-118 -160 -210 -372q-92 -214 -150 -436q-40 -146 -62 -288q-24 -144 -30 -272q-12 -240 40 -402q50 -164 176 -178 q16 -12 20 -22q6 -8 4 -14q-4 -14 -34 -14q-10 0 -22 2q-52 4 -90 24q-60 14 -100 70t-62 144q-28 114 -28 270z" />
<glyph unicode=")" horiz-adv-x="630" d="M42 1894v2q0 24 10 32q8 10 20 8q12 0 30 -10q30 -20 30 -42q102 -156 176 -332q76 -178 124 -366q80 -318 80 -640v-68q-10 -356 -128 -642q-12 -42 -42 -42q-6 0 -14 2q-40 10 2 72q102 376 90 716t-102 640q-48 162 -116 312q-66 150 -144 290q-16 44 -16 68z" />
<glyph unicode="*" horiz-adv-x="1102" d="M62 1334q0 10 2 18q4 34 26 42h8q32 0 46 -16q14 -18 24 -36q34 -18 156 -20q120 0 264 2q62 2 122 4h118q102 -2 174 -10q70 -10 76 -36v-4q0 -18 -28 -34q-32 -16 -80 -28q-58 -14 -120 -22q-60 -8 -84 -10q6 4 98 22q92 20 108 28q-82 4 -182 2q-98 -2 -198 -4 q-184 -2 -338 4q-154 8 -182 60q-10 16 -10 38zM236 1646v4q-2 22 14 52q18 34 40 36q10 0 20 -8q10 -10 20 -30q14 -98 122 -258q110 -160 236 -312q84 -100 160 -184t122 -128q-72 52 -150 112q-80 62 -156 132q-144 128 -262 278q-120 148 -166 306zM354 902q0 30 2 56 q4 -6 10 -48q4 -44 12 -50q56 136 100 336q44 198 84 364q20 90 40 158t42 102q14 24 52 24h12q28 -2 28 -22q0 -12 -12 -30q-32 -92 -62 -202t-56 -224q-48 -208 -84 -380q-38 -174 -60 -210q-24 -20 -42 -24h-12q-10 0 -18 4q-28 20 -34 84q-2 32 -2 62z" />
<glyph unicode="+" d="M156 682v12q0 24 24 24q12 0 28 -4q42 -28 112 -44q70 -14 156 -24q156 -16 328 -14t262 -2q-74 -14 -152 -28q-78 -16 -158 -26q-132 -20 -262 -20h-30q-146 4 -274 60q-22 16 -34 66zM526 358q4 -4 14 -42q12 -36 22 -52q8 66 6 146q0 80 -6 162q-10 152 -20 286 t22 184q12 16 36 22h4q20 -2 24 -32q-6 -82 -6 -172q0 -88 2 -174q6 -162 16 -290q4 -54 4 -92q0 -52 -8 -72q-16 -20 -28 -28q-10 -4 -16 -4q-4 0 -8 2q-24 10 -38 60q-14 52 -20 96z" />
<glyph unicode="," horiz-adv-x="192" d="M26 -224q0 16 12 36q10 -4 16 -14t14 -4q14 10 24 108q8 98 -18 128q-36 18 8 46q18 10 32 10q22 0 38 -28q8 -24 12 -58q2 -12 2 -26q2 -22 0 -44q0 -68 -20 -128q-20 -62 -66 -72h-8q-20 0 -36 20q-10 12 -10 26z" />
<glyph unicode="-" horiz-adv-x="830" d="M54 704v4q2 26 36 28q70 -10 144 -12q76 -4 148 -6q136 -2 244 -2q110 -2 142 -16q20 -20 24 -32q2 -8 4 -14q0 -6 -4 -10q-12 -24 -64 -32q-52 -6 -98 -8q6 4 42 10q38 6 56 14q-122 32 -248 28q-128 -4 -232 -6q-56 0 -102 4q-44 4 -76 20q-16 8 -16 30z" />
<glyph unicode="." horiz-adv-x="194" d="M22 8q0 24 14 46q22 32 54 32q22 -2 40 -20q16 -18 16 -52v-2q0 -34 -8 -58q-6 -18 -34 -18h-12q-26 4 -44 16t-24 40q-2 8 -2 16z" />
<glyph unicode="/" horiz-adv-x="1114" d="M42 -82q0 10 2 22q48 126 122 288q76 162 166 338q108 214 230 428q120 216 232 396q60 96 116 178q54 80 100 140q6 36 38 36q8 0 18 -2q32 -8 30 -46q0 -18 -8 -44q-86 -106 -178 -244q-92 -140 -184 -294q-58 -98 -116 -202q-58 -102 -110 -200q-100 -186 -182 -348 q-80 -162 -130 -270q16 -2 14 -18t-8 -36q-36 -56 -50 -98q-12 -42 -26 -64q-12 -12 -28 -12q-12 2 -26 10q-22 14 -22 42z" />
<glyph unicode="0" horiz-adv-x="1320" d="M72 564q0 -94 18 -182q22 -122 80 -212q42 -66 102 -110t142 -62q44 -8 86 -8q36 0 72 6q78 14 150 52q134 72 246 216q110 142 188 316q50 114 84 236q32 120 46 238q8 68 8 132q0 138 -38 258q-54 174 -206 232q-38 14 -76 14h-4q-40 0 -78 -14q-68 -22 -112 -74 t-32 -102q42 60 116 86q76 26 116 10q72 -28 114 -90q44 -60 62 -142q32 -152 -8 -356q-42 -202 -132 -392q-72 -156 -170 -286q-98 -128 -204 -194q-58 -36 -116 -48q-58 -14 -116 -2q-112 28 -168 142q-54 114 -60 266q-4 82 8 168q10 88 32 174q44 162 128 294 q82 134 198 184q58 26 140 2t150 -82q36 -32 64 -70q28 -40 42 -84q14 -24 26 -32q14 -8 24 -6q36 4 44 68q8 62 -46 84q-22 40 -54 78q-30 38 -70 68q-74 58 -170 80t-206 -22q-62 -26 -118 -72q-54 -46 -100 -108q-86 -116 -138 -270q-50 -156 -60 -314q-4 -36 -4 -70z " />
<glyph unicode="1" horiz-adv-x="346" d="M42 134q0 52 6 114q8 120 26 264q12 92 26 194q14 100 28 204q26 190 46 380t20 346q0 42 48 50q12 4 24 4q28 0 42 -18q6 -10 6 -22v-2q0 -10 -6 -26q4 -42 -12 -166q-14 -126 -36 -292q-12 -90 -24 -184q-14 -96 -26 -192q-24 -182 -42 -342q-16 -160 -16 -254 q0 -8 4 -8q2 2 20 14q12 -18 -2 -70q-14 -50 -20 -102q8 -30 -48 -34h-4q-50 0 -56 56q-4 38 -4 86z" />
<glyph unicode="2" horiz-adv-x="1252" d="M38 376v4q0 112 60 172q22 24 54 36q32 14 72 12q106 -6 200 -104t192 -208q52 -58 104 -112q54 -52 112 -86q70 -42 148 -46q76 -4 164 54q20 6 56 -16q30 -16 30 -34q0 -4 -2 -8q-2 -8 -18 -16t-50 -12q-92 -52 -176 -52h-14q-90 6 -170 46q-68 36 -128 88t-114 110 q-102 106 -184 202q-80 96 -142 100q-52 2 -78 -48q-28 -52 -26 -120q2 -36 10 -74q10 -38 30 -70q18 -32 44 -54q26 -24 62 -36q60 -18 130 8q70 24 140 86q130 112 234 318q106 208 124 444q14 180 -48 340q-64 160 -174 216q-58 30 -128 22t-144 -68q-22 -68 -78 -88 q-54 -22 -70 14q-8 14 -2 40q4 28 28 66q50 84 74 130q26 46 52 66q22 -14 32 -48q12 -34 6 -44q100 32 184 20t152 -56q124 -84 184 -252q60 -170 44 -354q-14 -140 -56 -276q-44 -134 -106 -248q-120 -216 -282 -338q-164 -122 -308 -78q-58 18 -102 58q-42 40 -70 90 q-52 94 -52 204z" />
<glyph unicode="3" horiz-adv-x="1030" d="M24 1374q6 -40 54 -42t62 50q40 40 98 72t124 54q120 42 236 44q116 0 152 -58q46 -78 -10 -194q-58 -114 -152 -214q-64 -68 -132 -118q-68 -52 -122 -70q-20 -24 -26 -44q-6 -18 -4 -32q8 -32 48 -38t58 12q150 50 272 -6q124 -56 162 -166q42 -126 -4 -250 q-46 -122 -122 -210q-42 -48 -86 -82q-42 -34 -78 -50q-50 -32 -34 -36q6 -2 14 -2q20 0 50 8q38 10 84 30q44 20 76 46q64 52 134 130q68 78 98 186q12 52 12 108v18q-2 68 -30 146q-48 140 -162 198t-214 60q26 24 80 74q56 50 110 118q28 36 54 76t44 84q26 66 26 138 q0 70 -44 140q-34 54 -92 80q-56 24 -128 26h-16q-126 2 -272 -54q-156 -60 -274 -142q-28 -26 -38 -50q-8 -18 -8 -32v-8z" />
<glyph unicode="4" horiz-adv-x="1136" d="M42 842q0 36 20 94q36 110 88 236q26 68 54 134q26 68 42 122q6 56 40 56q4 0 10 -2q44 -10 56 -66q-18 -46 -42 -104q-22 -56 -48 -116q-46 -110 -82 -204q-36 -92 -26 -102q18 -20 162 -32q144 -10 326 -6q98 4 198 14q100 8 188 26q14 12 26 14q10 0 18 -6 q12 -10 12 -34q0 -16 -6 -38q-14 -54 -66 -52q-174 -30 -382 -34h-96q-148 0 -264 10q-82 8 -138 20q-58 12 -76 30q-12 12 -14 40zM598 38v6q16 284 68 588t64 604q-2 8 -8 -6q-6 -12 -20 -26q-12 66 -8 112q4 44 12 106q4 34 8 76q4 44 6 100q4 72 38 72q4 0 8 -2 q42 -8 50 -70q10 -112 10 -222v-56q-4 -138 -16 -274q-24 -252 -62 -502t-46 -502q4 -32 -2 -50q-4 -18 -14 -24q-8 -6 -18 -6q-18 0 -40 20q-32 28 -30 56z" />
<glyph unicode="5" horiz-adv-x="1074" d="M34 52q0 26 30 60q32 34 96 50q64 14 104 -22q-16 -2 -30 -14q-16 -10 -6 -22q14 -18 126 22q110 42 232 120q66 44 124 94q60 50 100 106q28 40 42 80q16 42 12 84q-4 54 -38 100q-36 44 -92 74q-106 60 -254 70t-268 -38q-58 -74 -102 -40q-42 34 -12 126 q38 118 70 292q34 172 60 338q-12 44 -8 68t16 32q8 6 18 6q22 0 54 -28q44 -42 32 -76q-14 -44 -30 -104q-14 -60 -28 -124q-24 -120 -46 -234q-22 -116 -42 -164q96 30 192 36q98 6 186 -8q166 -26 282 -110t124 -198q0 -14 2 -28q0 -80 -38 -152q-42 -84 -114 -158 q-88 -86 -206 -152q-118 -64 -232 -102q-62 -22 -118 -32q-58 -12 -104 -14h-16q-72 0 -104 30q-14 14 -14 32zM144 1462q2 18 8 40q14 36 46 58q30 20 80 30q92 20 238 24q146 6 338 38q-22 8 -60 14q-36 6 -42 10q20 2 52 2q16 2 32 2q18 0 36 -2q50 -2 92 -16 q36 -12 36 -42v-8q-4 -32 -66 -46q-62 -12 -154 -18q-48 -4 -100 -4q-54 -2 -106 -4q-100 -4 -184 -12q-84 -10 -116 -36q-14 -24 -28 -50q-16 -26 -62 -30q-32 6 -38 32q-2 8 -2 18z" />
<glyph unicode="6" horiz-adv-x="1128" d="M72 422q0 102 30 216q24 96 66 196q42 102 94 202q96 184 212 354q114 168 204 284q14 12 30 12q18 0 40 -16q40 -30 30 -56q-4 -10 -14 -16q-12 -8 -34 -10q-68 -90 -152 -216q-82 -126 -160 -266q-50 -92 -94 -188q-44 -94 -78 -184q-64 -168 -76 -308t60 -210 q30 -30 72 -52q42 -20 92 -32q70 -16 148 -18q78 0 152 14q140 26 240 94q98 68 82 166q-12 66 -118 66t-228 -46q-80 -30 -154 -76q-72 -46 -112 -100q8 -38 86 -46q80 -10 152 -24q-64 -38 -116 -46q-50 -10 -90 0q-74 16 -106 70t-22 82q32 96 158 172q126 78 268 106 q74 14 144 12t122 -26q38 -18 62 -48q24 -28 32 -72q6 -32 6 -62q0 -44 -12 -82q-20 -64 -66 -114q-92 -96 -250 -134q-90 -20 -180 -20q-68 0 -134 12q-84 16 -160 50q-74 34 -128 90q-86 86 -96 212q-2 28 -2 58z" />
<glyph unicode="7" horiz-adv-x="1044" d="M70 1510q0 8 2 14l24 102q16 64 74 64h2q182 -56 362 -54t352 6q68 32 104 -14q20 -24 20 -48q0 -22 -16 -44q-12 -30 -32 -88q-18 -58 -44 -134q-46 -144 -104 -332q-60 -190 -116 -374q-58 -190 -104 -350t-62 -236q-4 -36 -30 -34q-14 0 -38 12q-62 32 -40 88 q38 110 86 258q50 148 98 308q32 102 62 204q32 104 58 198q52 176 84 306q32 128 30 162q-114 -16 -250 -2q-136 12 -238 30q-56 10 -94 16q-40 8 -54 12q-14 -16 -2 -44t8 -48q-34 -66 -90 -50q-52 16 -52 72z" />
<glyph unicode="8" d="M74 1402q0 44 18 86q16 36 50 68q32 32 76 56q82 48 190 68q48 8 94 8q58 0 116 -14q38 -10 56 -18q20 -8 22 -14q6 -12 -26 -18t-64 -2q-68 2 -150 -20q-84 -24 -148 -62q-34 -20 -60 -44q-28 -24 -40 -50q-24 -54 2 -116q26 -64 82 -136q36 -46 82 -94q48 -50 98 -100 q92 -94 186 -192t154 -194q46 -76 62 -150t-16 -142q-30 -62 -84 -124t-120 -108q-96 -68 -194 -84q-16 -4 -30 -4q-76 0 -114 70q-18 32 14 160t96 302q36 92 78 194q42 100 90 202q90 190 192 358q100 168 192 256q42 38 78 4q30 -26 30 -50q0 -6 -2 -14q-4 -10 -14 -18 q-10 -6 -28 -10q-82 -74 -174 -230q-90 -156 -176 -336q-44 -94 -84 -190q-40 -94 -74 -180q-64 -162 -100 -274q-36 -114 -30 -124q20 -30 86 0q68 30 134 82q46 34 82 72t50 68q22 48 -6 112q-26 62 -84 136q-38 46 -84 98q-46 50 -96 104q-94 98 -188 202t-154 202 q-46 78 -64 152q-6 28 -6 52z" />
<glyph unicode="9" horiz-adv-x="960" d="M36 1098q0 -86 54 -144q46 -48 102 -66t116 -14q112 10 226 80q116 70 196 154q-70 -248 -132 -514t-128 -524q-2 -58 38 -76q10 -4 18 -4q24 0 30 42q10 32 42 98q32 64 46 126q-22 -16 -24 -2q-4 16 6 48q20 78 42 166q20 90 44 184q44 174 92 350t96 316q16 12 16 22 q0 16 -24 30q-42 28 -72 -20q-36 -68 -94 -128t-124 -108q-126 -90 -252 -126q-128 -34 -178 14q-52 52 -24 148q26 96 94 192q86 118 202 202q118 84 204 56q46 -14 46 -78q-2 -64 -22 -134q-10 -40 -24 -76t-24 -64q0 -48 26 -46q24 2 50 38q30 34 48 80q18 44 24 94 q12 90 -12 172q-26 82 -80 104q-44 20 -92 20h-10q-54 -4 -106 -22q-76 -28 -146 -84t-128 -126q-108 -132 -148 -284q-14 -52 -14 -96z" />
<glyph unicode=":" horiz-adv-x="192" d="M10 10q0 28 18 54q24 34 58 34q28 0 46 -22q20 -22 20 -58v-4q-2 -38 -10 -64q-6 -22 -38 -22h-14q-30 4 -50 18t-28 46q-2 10 -2 18zM12 864q0 8 2 18q6 32 26 46t50 18h16q30 0 36 -20q10 -28 10 -68q2 -38 -16 -60q-8 -8 -18 -14q-12 -8 -28 -8h-2q-34 0 -58 34 q-20 26 -18 54z" />
<glyph unicode=";" horiz-adv-x="200" d="M18 -224q0 16 14 36q8 -2 14 -12t14 -6q16 12 24 108q8 98 -18 130q-36 18 8 44q18 10 32 10q24 0 38 -26q8 -26 12 -58q2 -14 2 -28q2 -20 2 -44q-2 -68 -22 -128t-66 -72h-8q-20 0 -36 22q-10 10 -10 24zM24 864q0 8 2 18q6 32 26 46t50 18h16q30 0 36 -20 q10 -28 10 -68q2 -38 -16 -60q-8 -8 -18 -14q-12 -8 -28 -8h-2q-34 0 -58 34q-18 26 -18 54z" />
<glyph unicode="&#x3c;" horiz-adv-x="766" d="M20 562q0 -72 126 -134q128 -62 304 -98q10 -2 20 -2q50 0 76 36q30 42 -36 72q-34 4 -72 12t-78 20q-72 22 -130 48q-58 28 -66 52q46 34 100 76t112 88q104 82 206 166q100 84 158 146q8 18 14 52v14q0 24 -12 38q-8 10 -26 14h-8q-16 0 -36 -6q-20 -8 -42 -42 q-22 -36 -54 -70q-50 -52 -114 -102q-62 -50 -126 -98q-120 -88 -216 -160q-98 -70 -100 -116v-6z" />
<glyph unicode="=" horiz-adv-x="964" d="M26 564q0 22 24 22q12 0 28 -4q42 -26 112 -42t156 -24q156 -16 328 -14q172 0 264 -4q-74 -12 -152 -28q-80 -14 -160 -26q-130 -18 -262 -18h-30q-146 2 -272 58q-24 18 -34 66q-2 8 -2 14zM76 802v2q0 22 34 22q80 -16 168 -26q90 -10 176 -18q160 -12 290 -20 q128 -6 160 -22q20 -18 24 -32q4 -6 4 -12t-4 -12q-10 -22 -64 -30q-52 -6 -98 -10q6 4 44 10q36 8 54 16q-64 16 -144 24q-78 8 -160 12q-152 8 -286 14q-136 8 -182 46q-16 12 -16 36z" />
<glyph unicode="&#x3e;" horiz-adv-x="696" d="M42 1042q0 12 8 30q16 38 46 38q16 2 36 -12q48 -16 108 -30t122 -28q116 -26 210 -56q96 -30 98 -76v-2q0 -44 -96 -132q-100 -90 -206 -192q-58 -56 -108 -110q-48 -56 -74 -106q-14 -78 -64 -84h-6q-44 0 -38 84q4 54 52 116q48 64 114 126q96 96 194 174 q96 80 102 108q-20 10 -100 26q-82 16 -170 34q-56 12 -106 24q-48 12 -72 22q-50 10 -50 46z" />
<glyph unicode="?" horiz-adv-x="842" d="M26 1328q0 -22 6 -32q14 -28 44 -12t40 54q34 64 84 114q50 48 108 78q104 54 208 36t152 -126q36 -78 28 -160q-6 -82 -44 -162q-68 -146 -202 -274t-242 -202q-26 -20 -40 -44q-14 -26 -20 -52q-8 -50 4 -96t24 -56q14 -50 40 -50q6 0 12 2q38 14 46 58q4 12 2 32 q0 20 -6 32q-36 -18 -36 28q2 44 26 62q88 60 174 130q84 72 158 150q134 148 198 316q28 76 28 154q0 94 -42 190q-30 68 -80 110q-50 40 -112 58q-50 16 -104 16q-46 0 -96 -10q-106 -24 -192 -86q-48 -34 -86 -78q-38 -42 -62 -94q-16 -46 -18 -76v-10zM174 72q0 24 8 40 q10 22 42 22h20q34 -6 52 -18q20 -12 28 -48q6 -30 -6 -56q-4 -12 -12 -24q-26 -36 -64 -38h-2q-30 2 -44 32t-20 58q-2 18 -2 32z" />
<glyph unicode="@" horiz-adv-x="1700" d="M66 680q0 82 12 168q28 184 110 334q68 132 172 236q102 104 220 176q220 132 460 134h6q234 0 392 -170q82 -86 108 -192q14 -58 14 -116q0 -52 -10 -102q-42 -208 -244 -406t-534 -302q-22 4 -28 22t-2 34q-20 -26 -48 -56q-26 -30 -56 -58q-58 -50 -122 -74 q-66 -24 -126 14q-44 30 -50 102q-4 74 18 164q12 48 32 98q18 50 40 98q44 90 98 160q52 68 100 86q54 20 116 -8q64 -28 110 -76q26 -26 44 -56q16 -28 22 -56q12 -12 14 -22t-2 -18q-12 -22 -56 -22t-52 24q-10 38 -56 98q-44 58 -102 42q-36 -12 -86 -100 q-52 -88 -88 -188q-30 -80 -42 -144q-12 -66 10 -78t72 14q52 28 98 70q28 26 50 56q20 30 18 54q38 86 86 74q46 -14 40 -74q-8 -12 -16 -32q-8 -18 4 -26q56 12 122 46q68 34 140 86q130 94 242 232t134 282q12 72 -8 144q-18 70 -78 134q-138 146 -350 134 q-210 -12 -402 -132q-104 -64 -192 -154q-88 -88 -146 -194q-36 -64 -58 -142q-24 -78 -34 -164q-20 -158 12 -324q30 -166 124 -296q78 -108 202 -180q124 -70 300 -80q66 -6 54 -54q-8 -36 -48 -36q-16 0 -38 6q-192 8 -330 80q-138 74 -226 188q-56 76 -94 164 q-36 88 -54 184t-18 194z" />
<glyph unicode="A" horiz-adv-x="1136" d="M40 14v4q52 252 90 448t58 382q12 100 18 204q4 102 4 214l6 32q8 32 34 44q12 6 26 4q16 -2 36 -14v-58q6 34 16 74l20 80q18 78 36 144q16 66 18 92q8 30 34 30q12 0 28 -8q50 -22 60 -52q72 -258 126 -538q52 -278 112 -540q32 -140 68 -272t80 -248v-8q0 -26 -38 -24 q-42 0 -68 32q-4 8 -24 26q-22 20 -18 30q0 4 8 6q8 0 26 -4q-82 192 -132 426t-92 466q-24 126 -50 246q-24 120 -54 226q-8 14 -10 14q-4 2 -14 0q-68 -254 -124 -514t-98 -494q-22 -126 -42 -238q-20 -114 -36 -212q1 -5 1 -10q0 -32 -37 -32q-6 0 -14 2q-54 6 -54 40z M60 766q0 20 20 40q22 22 54 22q10 0 22 -2q96 -42 284 -78t362 -42h37q73 0 137 6q78 10 126 34q-108 -112 -354 -112h-2q-244 0 -618 78q-26 4 -42 14t-22 22q-4 10 -4 18z" />
<glyph unicode="B" horiz-adv-x="1288" d="M38 1476q0 34 32 64q68 54 154 88q84 32 172 40q34 4 66 4q128 0 244 -54q146 -66 198 -228q15 -48 15 -96q0 -59 -23 -116q-44 -102 -120 -174q-40 -38 -84 -64t-86 -36q264 -8 430 -136q166 -126 198 -270q6 -34 6 -66q0 -72 -34 -136q-52 -96 -144 -164 q-142 -104 -336 -136q-58 -10 -112 -10q-124 0 -224 52q-48 25 -48 69q0 16 6 35q22 72 84 110q-32 -58 -42 -102q-1 -6 -1 -12q0 -35 41 -50q51 -19 125 -19q19 0 39 1q98 6 200 38q152 48 268 142q93 77 93 172q0 22 -5 44q-30 134 -166 230t-312 124q-68 12 -139 12 q-26 0 -53 -2q-98 -6 -188 -38v-14q0 -105 28 -232q30 -136 72 -246q10 -17 10 -28q0 -18 -27 -17q-7 0 -15 1q-60 8 -76 38q-62 176 -74 416q-1 25 -1 50q0 215 93 418q19 43 44 43q9 0 18 -5q24 -16 24 -42q0 -11 -4 -24q-18 -46 -52 -134q-32 -86 -36 -126h13q33 0 71 8 q46 8 94 28q90 34 174 96q84 60 134 136q32 50 44 104q5 22 5 43q0 32 -11 65q-26 82 -100 132q-76 50 -168 70q-62 12 -124 12q-79 0 -158 -20q-142 -34 -182 -130q-12 -12 -21 -12q-15 0 -25 30q-4 12 -4 24z" />
<glyph unicode="C" horiz-adv-x="1340" d="M22 670q0 34 4 70q30 268 218 478q190 212 446 332q138 66 286 100q140 32 276 32h14q32 -16 52 -46q6 -14 8 -26q0 -18 -18 -36q-30 2 -60 2q-61 0 -124 -8q-94 -12 -186 -40q-172 -50 -330 -144q-156 -94 -274 -216q-96 -100 -156 -212q-62 -112 -72 -226 q-3 -25 -3 -50q0 -77 29 -144q38 -88 106 -158q82 -84 194 -142t222 -88q60 -18 116 -26q54 -10 100 -12q-6 18 -4 26q0 8 8 10q14 4 46 -14q30 -18 44 -14q9 -16 9 -34t-9 -38q-16 -40 -64 -40q-56 8 -122 22t-136 34q-128 38 -256 100q-128 64 -220 158q-74 80 -116 184 q-28 74 -28 166z" />
<glyph unicode="D" horiz-adv-x="1396" d="M16 1616q0 14 8 28q20 32 52 48h16q140 0 284 -30q152 -32 294 -94q266 -114 462 -322q194 -208 226 -484q4 -36 4 -72q0 -94 -32 -172q-42 -106 -120 -188q-96 -98 -228 -162q-132 -66 -264 -104q-72 -22 -140 -36t-128 -24q-50 2 -64 42q-8 20 -8 37q0 20 10 37 q29 -7 67 -7q16 0 33 1q62 2 132 16q132 26 278 94q148 66 250 174q66 72 104 160q28 69 28 150q0 23 -2 46q-12 116 -74 230q-64 112 -164 210q-66 62 -144 118q-78 58 -164 104q-162 84 -344 130q-147 36 -291 36q-33 0 -65 -2q-16 18 -16 36zM440 1284q16 18 36 18 q8 0 18 -2q32 -8 56 -68q30 -312 82 -636q52 -322 96 -660q-16 -18 -36 -18q-6 0 -10 2q-26 6 -34 30q-52 334 -112 662t-96 672z" />
<glyph unicode="E" horiz-adv-x="1270" d="M42 540v24v11q0 208 72 411q76 216 188 386q60 92 124 166q66 74 128 124q16 14 30 18q8 4 16 4q4 0 8 -2q32 -8 32 -52q0 -46 -38 -58q-78 -66 -146 -148t-122 -172q-100 -170 -154 -356q-49 -167 -49 -319q0 -17 1 -33q4 -190 194 -324t514 -146h12q90 0 120 60 q21 44 21 84q0 20 -5 40q52 -28 62 -92q2 -15 2 -31q0 -47 -36 -85q-24 -28 -66 -44q-42 -18 -104 -18q-344 0 -572 144t-232 408zM114 812q86 16 178 28q92 10 184 22q172 24 332 66t274 142q-30 -78 -92 -128q-62 -52 -144 -84q-154 -64 -354 -88q-198 -24 -376 -72 q0 38 -2 114zM326 1476q0 18 14 46q22 42 70 42q10 0 20 -2h132h144h45l227 8q134 8 236 46q10 -4 10 -10v-4q-6 -8 -10 -22q-164 -86 -408 -116q-158 -20 -310 -20q-80 0 -160 6q-10 10 -10 26z" />
<glyph unicode="F" d="M104 1650q2 12 8 20q14 14 36 24q60 -54 146 -82t182 -36q64 -6 128 -6l224 18q176 28 252 48q44 -8 50 -36q2 -6 2 -12q0 -18 -16 -28q-210 -94 -446 -94h-10q-242 4 -434 78q10 -82 18 -190t12 -228q10 -224 16 -462q4 -236 6 -400q16 32 28 78t22 100q14 100 18 212 q2 55 2 101t-2 83q10 -50 18 -124t12 -158q1 -24 1 -49q0 -134 -19 -271q-24 -162 -96 -242q-2 0 -28 2t-28 34q-6 138 -6 338q0 198 -2 406q-2 202 -8 388q-8 188 -26 308q-10 66 -22 106q-14 42 -32 50q-6 14 -6 24zM112 880v6q0 84 54 126q58 42 122 64q-42 -32 -70 -72 q-12 -17 -12 -35q0 -23 20 -49q30 -40 160 -54q75 -8 153 -8q56 0 115 4q94 6 176 22q82 14 126 38q14 -8 14 -22q0 -12 -16 -24q-82 -32 -192 -58t-222 -38q-82 -10 -156 -10t-140 10q-130 20 -132 100z" />
<glyph unicode="G" horiz-adv-x="1302" d="M42 730q0 56 8 112q38 226 184 422t366 306q116 60 250 88q94 20 192 20q42 0 86 -4q10 1 20 1q46 0 94 -23q50 -24 50 -38v-2q-4 -6 -24 -6q-18 0 -60 8q-35 1 -68 1q-287 0 -482 -107q-218 -120 -340 -290q-66 -92 -106 -190t-58 -188q-11 -60 -11 -117t11 -111 q24 -108 78 -200q44 -74 106 -134q60 -60 132 -100q132 -78 284 -82h6q146 0 266 94q42 34 64 78q22 42 26 90q2 20 2 40q0 97 -56 198q-66 122 -170 190q-68 46 -144 56q-12 1 -23 1q-64 0 -123 -37q-6 -4 -6 -10q0 -20 50 -66q68 -60 236 -66q-94 -32 -166 -32h-8 q-74 2 -122 24q-90 40 -98 120q-1 10 -1 19q0 65 51 95q86 52 170 56q14 1 28 1q68 0 130 -25q148 -56 244 -208q98 -154 102 -314v-11q0 -80 -28 -153q-30 -80 -100 -136q-74 -62 -160 -88q-76 -22 -154 -22h-22q-168 6 -330 106q-162 98 -262 258q-68 104 -98 228 q-16 72 -16 148z" />
<glyph unicode="H" d="M46 788v18q0 30 14 40q4 2 10 2h4q10 -2 22 -12q28 -18 78 -34q48 -16 112 -30q116 -26 264 -44q150 -16 294 -26q120 -8 224 -12t172 -4q-80 -14 -182 -26q-104 -10 -214 -16q-76 -4 -152 -4q-132 0 -266 12q-212 16 -350 78q-24 12 -30 58zM180 20q4 118 4 227v71v268 v92q0 182 6 346q10 204 62 414q-2 46 32 46q6 0 12 -2q40 -7 40 -82q0 -16 -2 -34q-22 -70 -34 -210q-14 -140 -18 -304q-4 -86 -4 -174v-174q0 -156 6 -284q4 -128 12 -184q-14 -78 -64 -92q-8 -2 -14 -2q-36 0 -38 78zM780 130v8q0 38 38 30q-2 38 -4 102q-4 64 -6 144 q-2 150 -2 344q2 194 14 386q8 158 28 300q20 144 52 244q10 26 32 26q18 2 44 -16q30 -22 30 -38q0 -14 -24 -24q-30 -124 -50 -260t-30 -280q-14 -200 -14 -404q0 -68 2 -136q8 -276 28 -526q-10 -40 -34 -40q-10 0 -20 4q-40 18 -72 66q-8 24 -12 70z" />
<glyph unicode="I" horiz-adv-x="1126" d="M10 1654v12q6 24 30 32h2q42 0 56 -20q16 -22 26 -44q28 -18 122 -24q94 -8 214 -10q64 -2 134 -2q68 -2 136 -2q156 -4 274 -16q118 -10 124 -42q2 -6 2 -12q0 -42 -80 -52q-90 -10 -136 -10q6 4 38 12t50 16q-90 8 -198 12t-218 8q-204 8 -372 28q-168 18 -196 76 q-10 20 -8 38zM136 48q0 22 50 28q31 -3 74 -3q58 0 138 5q142 6 276 14q88 4 160 6h26q50 0 74 -6q50 -22 50 -50q0 -10 -4 -18q-11 -23 -40 -23q-18 0 -44 9q-37 12 -108 12q-32 0 -70 -2q-124 -10 -246 -22q-82 -8 -150 -14q-38 -2 -66 -2q-20 0 -34 2q-58 6 -80 46 q-6 10 -6 18zM532 702q0 178 14 372q20 288 40 542q2 50 32 50h6q34 -6 46 -52q-22 -132 -38 -280t-24 -296q-9 -147 -9 -285q0 -120 7 -233q14 -244 66 -370q2 -13 2 -24q0 -28 -12 -38q-2 -2 -4 -2q-20 -12 -48 -14q-34 90 -52 208t-22 254q-4 82 -4 168z" />
<glyph unicode="J" horiz-adv-x="1340" d="M30 1554q0 10 4 20q13 36 52 36h8q67 -20 179 -20q49 0 105 4q188 12 398 34q112 12 224 22q110 10 208 16q18 10 36 10q22 2 42 -14q16 -12 16 -26q0 -16 -24 -36q-32 -22 -84 -34q-38 -9 -70 -9q-12 0 -22 1q-16 -2 -26 12q-10 12 0 32q-88 -18 -184 -34t-192 -28 q-176 -22 -344 -30q-84 -4 -158 -4q-72 0 -136 4q-32 18 -32 44zM80 286q0 10 2 20q4 44 36 84q30 38 76 70q86 58 204 84q75 18 139 18q36 0 69 -6q22 -14 18 -26q-6 -14 -58 -22q-32 5 -63 5q-61 0 -117 -21q-86 -32 -140 -84q-28 -28 -46 -60q-18 -30 -20 -60v-7 q0 -73 86 -125q88 -54 198 -58h16q40 0 78 8q46 10 84 34q106 66 106 238q-2 172 -22 384q-12 116 -20 234q-4 53 -4 105q0 66 6 129q10 138 58 260t158 208q26 16 42 16q20 2 28 -20q4 -12 4 -20q0 -24 -28 -36q-94 -72 -132 -188q-36 -116 -40 -254q-1 -32 -1 -65 q0 -82 7 -169q12 -120 22 -240q8 -76 14 -152q4 -74 4 -142q-2 -126 -32 -224q-32 -98 -116 -148q-72 -44 -150 -54q-34 -4 -66 -4q-44 0 -86 8q-136 28 -230 116q-84 78 -84 164z" />
<glyph unicode="K" horiz-adv-x="1110" d="M12 742q0 10 2 20q9 50 36 50h4q64 48 138 114t152 140q144 138 282 288q140 152 234 268q16 16 32 16q22 0 42 -26q16 -22 16 -38q0 -22 -28 -36q-52 -46 -116 -112q-62 -66 -132 -144q-128 -142 -268 -292q-138 -150 -258 -236q94 -16 188 -78q96 -64 182 -142 q46 -42 88 -86q42 -42 78 -82q68 -74 114 -126q46 -50 58 -50q34 2 44 34q12 34 14 56q10 -50 10 -91q0 -33 -6 -61q-14 -62 -68 -62h-2q-30 0 -72 44q-42 42 -98 108q-34 42 -76 90t-90 98q-90 92 -206 174t-264 120q-30 8 -30 42zM14 54q36 264 52 586q14 320 32 592 q10 148 22 270q14 120 36 200q22 22 46 22q10 0 20 -2q34 -12 36 -64q-16 -40 -28 -102q-14 -62 -24 -138q-18 -140 -32 -318q-12 -178 -24 -360q-8 -150 -18 -294q-8 -142 -20 -260q16 2 26 20q8 16 16 28q-16 -70 -18 -138q-2 -34 -6 -56q-4 -24 -8 -38q-4 -20 -30 -20 q-10 2 -28 6q-50 14 -50 66z" />
<glyph unicode="L" horiz-adv-x="884" d="M22 62q6 90 18 224q12 136 34 292q26 190 66 396q40 204 98 384q32 96 68 180t78 150q8 12 20 12t28 -12q26 -18 26 -58q0 -10 -2 -22q-54 -80 -108 -254q-52 -172 -96 -372q-44 -194 -76 -382q-30 -190 -44 -316q-8 -66 -10 -108q0 -42 4 -48q32 12 146 52 q116 38 254 54q49 5 98 5q24 0 48 -1q72 -4 134 -30q50 -50 56 -88q2 -4 2 -8q-2 -30 -52 -16q-97 47 -202 47q-64 0 -130 -17q-176 -44 -330 -118q-26 -12 -46 -12q-14 0 -26 6q-30 14 -56 60z" />
<glyph unicode="M" horiz-adv-x="1614" d="M32 36q0 40 16 100q32 116 96 272q36 84 76 176q42 92 84 186q66 142 128 284t104 258q8 44 52 64q14 5 25 5q25 0 33 -29q2 -18 16 -34q12 -18 -2 -38q-14 -72 -20 -152q-8 -78 -12 -156q-2 -55 -2 -106q0 -86 6 -164q10 -124 34 -174q10 -2 32 24t56 72q62 86 150 230 q90 142 188 304q82 134 162 268q80 136 150 248q20 28 46 28q12 0 26 -8q35 -17 35 -45q0 -4 -1 -9q18 -238 20 -490t10 -484q6 -126 16 -242q8 -114 28 -216q-2 -77 -42 -77q-6 0 -12 1q-50 14 -60 68q0 96 -16 240q-14 144 -24 390q-6 134 -8 304q-2 85 -2 181t2 203 q-118 -184 -248 -400q-128 -216 -246 -396q-64 -98 -122 -176q-60 -80 -110 -132q-26 -16 -54 -16q-26 0 -44 34q-58 76 -64 224q-3 58 -3 129q0 105 7 237q-122 -288 -216 -484q-96 -194 -140 -328q-26 -72 -32 -128q-3 -23 -3 -44q0 -32 7 -60q-12 -26 -52 -30h-8 q-32 0 -48 32q-14 20 -14 56z" />
<glyph unicode="N" horiz-adv-x="1324" d="M44 58q28 182 44 424q14 240 18 482q1 65 1 128.5t-1 125.5q-2 124 -6 232q-5 2 -5 12q0 16 13 50q23 54 52 54h2q22 -12 24 -26t12 -32q-2 24 2 40t-4 36q4 58 40 68q5 1 11 1q32 0 71 -49q64 -122 128 -252t130 -262q122 -244 250 -468t260 -374q4 128 12 268t18 280 q18 262 36 502q18 238 26 390q0 10 14 10q12 0 34 -10q48 -18 64 -54q6 -10 6 -20v-4q-2 -12 -12 -26q-10 -76 -42 -448q-34 -370 -74 -944q-6 -54 -40 -72q-36 -20 -56 6q-96 94 -202 256q-108 162 -208 340q-54 94 -104 186t-94 176q-82 156 -140 262t-76 114 q-6 -110 -12 -238q-8 -126 -16 -260q-14 -250 -30 -496q-16 -248 -38 -428q2 -40 -44 -44h-4q-42 0 -60 64z" />
<glyph unicode="O" horiz-adv-x="1364" d="M12 568q0 198 74 380q86 208 248 368q88 86 194 154t230 116q28 10 74 10q44 -2 56 -22q6 -10 2 -22q-4 -14 -20 -30q-202 -22 -370 -168q-170 -148 -268 -356q-54 -112 -82 -234q-24 -115 -24 -229v-17q2 -76 26 -140q24 -66 64 -120q76 -100 198 -154q101 -46 215 -46 q21 0 43 2q68 4 136 30t130 68q118 78 200 202q84 124 94 264q5 53 5 103q0 159 -49 287q-64 166 -172 280q-72 76 -154 130q-84 52 -170 88q-158 64 -300 68h-12q-131 0 -188 -44q-28 -24 -40 -54t-10 -62q2 -34 16 -70q16 -36 42 -68q46 -64 114 -110q70 -48 132 -60 q-84 2 -152 34q-70 30 -120 78q-92 90 -112 204q-3 22 -3 42q0 86 63 138q72 58 164 76q50 10 104 10q42 0 86 -6q188 -28 378 -158q192 -128 318 -320q82 -128 126 -276q30 -104 30 -214q0 -46 -6 -94q-22 -204 -122 -338q-98 -136 -228 -208q-70 -38 -144 -60t-144 -28 q-36 -4 -72 -4q-138 0 -256 48q-146 62 -234 176q-48 62 -76 138q-28 74 -32 160q-2 30 -2 58z" />
<glyph unicode="P" horiz-adv-x="1132" d="M22 1628v2q2 32 58 34q48 4 100 4q66 0 138 -6q124 -12 242 -46q222 -62 386 -200q166 -136 170 -352v-14q0 -130 -68 -226q-74 -100 -186 -158q-60 -32 -128 -50q-66 -18 -134 -26q-36 -2 -70 -2q-92 0 -178 22q-120 32 -200 108q-62 62 -62 122q0 18 6 36 q26 78 110 112q36 14 80 16h13q38 0 79 -10q-70 0 -134 -42q-66 -42 -76 -96q-6 -24 2 -46q8 -24 34 -46q34 -30 86 -50q54 -22 118 -32q54 -9 110 -9q68 0 140 13q134 22 230 96q62 48 100 122q32 67 32 156v20q-2 78 -52 152q-50 72 -130 134q-150 116 -368 178 q-147 42 -279 42q-64 0 -125 -10q-42 18 -44 52zM234 50q14 150 18 312q6 162 6 324q2 302 2 574q2 270 36 426q12 24 42 24q10 0 20 -2q46 -10 48 -64q-22 -66 -34 -174t-18 -238q-10 -244 -12 -528q0 -286 -14 -512q18 4 28 22q8 18 16 30q-14 -74 -22 -142 q-6 -44 -12 -70q-4 -18 -8 -28q-12 -20 -36 -20q-10 0 -20 2q-38 12 -40 64z" />
<glyph unicode="Q" horiz-adv-x="1470" d="M50 710q0 34 2 70q12 158 82 296q68 136 174 244q86 90 188 158q102 66 212 110q174 70 342 70h52q192 -14 302 -142q42 -48 42 -108q0 -38 -16 -78q-40 -110 -148 -178q-56 -38 -130 -56q-40 -10 -84 -10q-34 0 -70 6q64 0 140 34t132 86q30 28 52 60q22 30 30 64 q8 30 2 62t-30 60q-26 30 -82 52q-54 22 -126 32q-42 5 -87 5q-103 0 -225 -25q-174 -36 -328 -148q-128 -92 -220 -242q-94 -150 -116 -372q-3 -28 -3 -55q0 -48 9 -95q14 -76 46 -146q58 -130 164 -228t228 -130q63 -16 128 -16h14q74 0 140 20q126 36 222 128 q96 90 124 220q23 105 23 211q0 122 -31 247q-56 230 -190 398q-70 92 -160 158t-194 98q-14 20 -14 34q-2 12 4 20q12 12 37 12q11 0 25 -2q42 -6 70 -24q110 -66 202 -152q94 -86 164 -184q132 -184 180 -402q24 -103 24 -207q0 -117 -30 -235q-20 -80 -62 -148t-102 -120 q-110 -98 -268 -132q-66 -16 -134 -16q-96 0 -198 28q-68 18 -134 54q-68 34 -130 86q-112 94 -186 244q-58 124 -58 284zM752 520q0 28 16 36q6 2 14 2q16 0 34 -16q16 -12 38 -50q22 -40 54 -98q58 -110 150 -258t230 -278q6 -8 6 -16q0 -24 -38 -38q-12 -4 -24 -4 q-32 0 -50 42q-50 50 -98 110q-48 58 -92 122q-84 116 -146 232q-64 116 -92 198q0 8 -2 16z" />
<glyph unicode="R" horiz-adv-x="1246" d="M16 1460q2 24 22 54q94 64 204 100q112 36 222 46q42 2 84 2q158 0 292 -54q170 -72 200 -226q9 -45 9 -85q0 -59 -19 -109q-30 -86 -94 -150q-78 -78 -186 -130q-108 -50 -210 -78q-54 -16 -102 -26q-48 -12 -84 -16q102 -46 200 -112q98 -68 188 -144 q166 -140 294 -288q126 -148 184 -230q-12 -36 -46 -66q-10 -10 -20 -10q-16 0 -22 38q-40 48 -98 114q-58 68 -130 142q-132 140 -294 276q-160 138 -310 200q12 -144 40 -282t66 -254q4 -10 10 0q8 10 12 34q10 -26 16 -88t16 -84q-12 -36 -40 -62q-12 -11 -26 -11 q-18 0 -40 19q-50 150 -98 348q-48 190 -48 409v17q2 124 24 254t72 264q30 28 62 28q34 0 44 -44q-6 -40 -28 -106t-40 -130q-8 -34 -14 -64t-4 -54q18 4 56 10t88 16q92 20 202 56q110 38 184 108q50 48 72 112q14 37 14 80q0 33 -8 70q-24 106 -152 168q-107 50 -248 50 q-28 0 -58 -2q-94 -6 -198 -38q-102 -30 -206 -90q-34 -40 -48 -6q-6 12 -6 24z" />
<glyph unicode="S" horiz-adv-x="1102" d="M36 1398q0 52 24 106q40 88 132 134t204 54q24 2 50 2q36 0 74 -4q62 -6 122 -22q114 -32 202 -100q88 -66 118 -164q7 -24 7 -46q0 -31 -13 -60q-22 -50 -66 -76q-23 -14 -45 -14q-15 0 -29 6q-26 12 -26 35q0 11 6 25q11 -4 22 -4q22 0 44 16q28 22 28 80v8 q-4 74 -112 136q-110 64 -242 84q-63 10 -124 10h-20q-70 -4 -128 -26q-40 -16 -70 -42q-32 -28 -48 -66q-14 -34 -14 -68q0 -38 18 -76q32 -74 106 -148q48 -50 108 -100t126 -100q124 -94 252 -192q126 -98 216 -202q70 -80 106 -164q22 -54 22 -108q0 -32 -8 -64 q-24 -102 -106 -166q-84 -66 -194 -96q-60 -16 -124 -22q-34 -2 -66 -2t-64 2q-124 10 -234 58q-110 50 -176 136q-16 28 -12 58q4 28 24 58q38 4 70 14q7 2 14 2q25 0 48 -22q26 -20 10 -54q-14 -32 -18 -46q30 -24 72 -44t92 -34q94 -28 202 -30h11q101 0 187 34 q58 24 100 68q44 42 62 108q6 23 6 47q0 49 -28 99q-42 72 -122 150q-52 50 -116 100q-62 50 -130 102q-126 98 -252 198q-124 100 -204 204q-64 80 -86 164q-8 27 -8 53v11z" />
<glyph unicode="T" horiz-adv-x="1280" d="M20 1618v8q4 26 28 36q10 2 18 2q32 0 48 -18q18 -20 32 -42q18 -8 56 -12q38 -2 92 -2q100 4 236 16t268 24q168 14 296 14h14q115 0 126 -32q2 -8 2 -14q0 -24 -28 -40q-36 -18 -84 -30q-30 -8 -62 -12q-30 -4 -50 -8q6 6 38 18q34 12 52 24q-98 -2 -214 -10t-234 -16 q-78 -4 -152 -8t-140 -6q-126 0 -214 12q-90 12 -114 50q-14 24 -14 46zM504 128q0 48 4 106q6 122 22 270q10 96 20 200q12 104 24 210q22 198 38 386q18 188 18 328q0 44 55 44h5h4q44 0 44 -28q0 -12 -8 -28q1 -7 1 -17q0 -20 -3 -53q-2 -48 -8 -116q-12 -130 -32 -308 q-20 -180 -38 -360q-20 -186 -34 -348q-16 -160 -16 -242q2 -8 4 -8q4 2 18 14q10 -18 -2 -62q-12 -46 -18 -92q8 -26 -40 -30h-6q-44 2 -48 50q-4 36 -4 84z" />
<glyph unicode="U" horiz-adv-x="1056" d="M52 784v76q4 182 16 362q14 180 24 330q-2 26 2 40q6 14 14 18q5 2 10 2q26 0 62 -42q35 -44 35 -80q0 -7 -1 -14q-18 -128 -40 -306q-22 -176 -30 -356q-2 -47 -2 -94q0 -123 12 -236q14 -158 68 -254q28 -52 70 -82t100 -32h10q59 0 110 22q56 24 104 68q88 84 148 222 q60 140 96 298q22 104 34 210t16 202v44q0 151 -24 260q-28 122 -84 122q-70 -2 -96 -72q-14 -35 -13 -76q0 -38 11 -80q14 -48 44 -94t80 -84q-56 20 -96 54t-68 76q-52 80 -54 172v15q0 80 38 139q24 32 58 54q36 20 84 20h2q106 0 158 -144t52 -356v-4q0 -112 -14 -234 q-14 -124 -42 -246q-44 -186 -120 -350t-182 -260q-56 -52 -122 -80q-58 -24 -124 -26q-8 0 -16 2q-138 4 -210 126q-72 120 -98 304q-16 100 -20 212q-2 74 -2 152z" />
<glyph unicode="V" horiz-adv-x="1204" d="M40 1422v68v8q0 32 20 32q12 0 30 -10q36 -20 36 -52q0 -17 -10 -36q8 -110 40 -274q30 -162 70 -332q40 -166 82 -318q44 -150 78 -242q20 -48 36 -76q14 -28 24 -26q8 0 22 28t36 76q38 90 96 240q56 150 122 324q54 142 110 288t108 276q26 62 52 154q24 92 66 148 q14 6 28 6q28 0 48 -28q12 -18 14 -38q0 -26 -18 -54q-68 -132 -144 -334t-150 -416q-38 -112 -76 -222q-38 -108 -74 -204q-68 -180 -124 -298q-56 -116 -94 -116q-44 0 -102 102q-58 104 -116 264q-30 86 -60 186q-28 98 -54 202q-48 196 -76 394q-20 154 -20 280z" />
<glyph unicode="W" horiz-adv-x="1624" d="M44 300q0 40 2 82q6 160 36 334q26 144 66 286q40 140 94 254q17 27 36 27q11 0 22 -9q28 -20 28 -58v-10q0 -16 -8 -32q-6 -16 -20 -32q-32 -84 -66 -208q-32 -124 -58 -252q-14 -70 -24 -136t-16 -126q-8 -73 -8 -131q0 -29 2 -53q6 -74 36 -80h4q35 0 126 124 q98 132 210 306q58 92 118 186q58 94 108 174q15 24 35 24q14 0 31 -12q28 -19 28 -52q0 -15 -6 -32q-12 -68 -20 -144q-6 -76 -6 -150q2 -136 38 -240t128 -116h9l159 102q86 108 156 270q40 88 72 186q34 96 60 192q20 80 36 154q14 76 24 144q9 71 9 129q0 43 -5 79 q-10 84 -54 92q-6 1 -11 1l-65 -29q-38 -34 -42 -96q-19 25 -19 66q0 20 5 44q14 74 64 110q18 10 38 16q10 2 20 2q12 0 26 -4q78 -18 108 -118q26 -84 26 -200q0 -24 -2 -50q-2 -78 -16 -168q-14 -88 -36 -182q-26 -112 -64 -224t-84 -216q-86 -188 -196 -316 q-103 -120 -212 -120h-10q-62 2 -104 32q-42 28 -72 72q-30 48 -46 108q-14 62 -22 124q-7 64 -7 124q0 50 5 96q8 102 8 122q-12 -26 -72 -132q-62 -106 -144 -232q-36 -52 -74 -106q-36 -52 -74 -100q-66 -86 -128 -144q-54 -50 -90 -52q-4 0 -6 2q-26 2 -44 34 q-18 34 -28 88q-14 72 -14 176z" />
<glyph unicode="X" horiz-adv-x="1252" d="M16 194q0 16 14 36q182 230 358 444q178 214 340 454q86 130 168 274q82 142 156 304q10 26 24 26t34 -32q22 -36 22 -68q0 -24 -12 -44q-94 -168 -174 -300q-82 -132 -158 -240q-138 -204 -266 -354q-128 -152 -278 -326q-18 -24 -4 -22q16 2 38 4q-62 -52 -94 -120 q-34 -68 -94 -80q-8 -2 -16 -2q-26 -2 -46 18q-12 12 -12 28zM190 1572v8q0 80 32 82q2 0 4 -2q38 -4 48 -82q20 -150 102 -340q82 -192 188 -380q54 -98 112 -192q60 -94 114 -174q104 -152 186 -250q82 -96 108 -96h2q32 0 32 49v11q-2 62 -12 130q20 -32 38 -76 q16 -46 26 -94q8 -40 8 -76q0 -28 -6 -52q-10 -58 -56 -62h-2h-2q-20 0 -56 32q-40 34 -94 94q-98 114 -230 300q-130 188 -248 396q-122 214 -206 422q-86 208 -88 352z" />
<glyph unicode="Y" horiz-adv-x="1044" d="M20 1492v14q0 46 30 70q20 16 36 16q10 0 18 -8q6 -6 10 -20q2 -12 -2 -32q20 -72 56 -160q34 -88 82 -174q90 -162 228 -282q114 -101 259 -101q31 0 63 5q34 6 34 -30q0 -12 -6 -30q-18 -68 -63 -68h-3h-22q-164 0 -308 126q-152 132 -256 308q-56 94 -96 190t-60 176z M54 -108q0 34 16 64q18 18 34 38t26 40q36 62 46 94q2 9 4 9q4 0 4 -61q72 84 140 194q70 108 136 238q122 240 228 538t188 620q20 26 34 26t22 -30q12 -38 12 -72q0 -14 -2 -28q-36 -186 -98 -378q-62 -190 -138 -372q-50 -118 -104 -228q-54 -112 -108 -212 q-102 -186 -200 -324q-100 -140 -174 -206q-22 -20 -36 -20q-18 0 -26 32q-4 20 -4 38z" />
<glyph unicode="Z" horiz-adv-x="1286" d="M52 98v10q4 40 26 92q42 100 136 234t208 280q138 178 278 354q138 176 216 306q42 72 58 124q9 26 9 46t-9 34q-21 15 -71 15q-11 0 -23 -1q-68 -2 -154 -20q-128 -28 -266 -80t-208 -102q-14 -29 -30 -29q-17 0 -38 31q-20 28 -20 52q0 28 26 50q66 18 150 48 q84 32 174 62q58 20 118 38q58 18 114 30q90 22 166 22h20q84 -4 124 -54q26 -34 26 -82t-18 -108q-36 -110 -124 -250t-198 -286q-134 -178 -272 -346q-138 -166 -220 -280q-44 -62 -64 -104q-22 -40 -10 -56q12 -15 49 -15q17 0 39 3q72 10 172 34q54 12 114 26 q60 16 122 28q94 20 188 32q56 7 106 7q33 0 64 -3q56 -6 100 -24q46 -18 74 -52q16 -18 22 -38q2 -12 2 -26q0 -8 -2 -18q-26 -70 -92 -80q-10 -2 -20 -2q-50 0 -68 48q2 14 18 32q18 20 28 38q-12 20 -44 28q-24 6 -58 6h-18q-82 -4 -200 -32t-240 -58q-154 -38 -284 -54 q-31 -4 -57 -4q-85 0 -121 40q-18 20 -18 54z" />
<glyph unicode="[" horiz-adv-x="592" d="M34 1698v102q0 82 2 90q14 4 38 4h18q40 -2 86 -6l136 -16q68 -10 90 -10q18 -4 30 -10q12 -8 18 -16q16 -28 -6 -56q-22 -30 -54 -4q-68 8 -158 20q-88 14 -116 12q-12 -174 -8 -420q2 -248 14 -502q6 -134 12 -264q8 -130 16 -246q14 -216 28 -362q14 -148 20 -168 q12 -12 70 -6t126 14q36 6 72 10q36 6 64 8q42 6 48 -50q2 -6 2 -12q0 -44 -50 -30q-88 0 -152 -4q-62 -2 -104 -8q-80 -8 -106 -14q-10 -2 -18 -2q-16 0 -28 8q-4 8 -10 52t-12 112q-10 130 -20 330q-10 202 -18 426q-6 150 -12 298q-4 150 -8 288q-8 254 -10 432z" />
<glyph unicode="\" d="M34 1588q-2 38 30 44q10 2 18 2q32 0 38 -34q70 -92 160 -234q92 -140 188 -306q118 -202 236 -422t214 -420q50 -110 94 -208q42 -96 74 -178q2 -12 2 -24q0 -28 -22 -42q-14 -8 -26 -8q-16 0 -28 10q-14 22 -26 66q-14 42 -50 96q-6 20 -8 38q-2 16 14 18 q-42 88 -104 216q-64 126 -142 276q-50 96 -104 196q-56 102 -114 202q-108 190 -220 364t-216 304q-8 24 -8 44z" />
<glyph unicode="]" horiz-adv-x="614" d="M34 -160q0 18 16 32q26 22 60 -24q68 -14 150 -36q84 -22 112 -24q4 186 16 410q10 222 24 450q10 146 20 290q8 142 18 272q18 242 32 416t20 224q-16 20 -100 10t-168 -6q-18 -4 -32 0q-12 4 -20 12q-20 22 2 58q14 26 40 26q10 0 20 -6q204 -22 276 -14q70 6 72 -10 q-18 -184 -40 -450q-20 -268 -40 -550q-18 -274 -32 -532t-22 -436q-4 -98 -6 -164t0 -92q-12 -8 -36 -8q-22 0 -52 6q-68 12 -138 32q-48 14 -84 26q-38 10 -54 14q-18 10 -30 22t-18 24q-6 16 -6 28z" />
<glyph unicode="^" horiz-adv-x="810" d="M40 1060q0 2 2 6q0 36 30 52q32 18 58 54q42 54 80 120q38 68 72 136q64 126 118 228q52 102 96 102q60 0 100 -94q42 -92 74 -204q22 -74 42 -142q22 -70 44 -110q26 -56 26 -90q0 -24 -14 -36q-32 -26 -96 66q-6 28 -32 124t-58 192q-20 64 -42 116q-20 50 -38 68 q-26 -10 -82 -122t-118 -238q-40 -84 -78 -158q-40 -74 -70 -112q-24 -16 -70 -24h-6q-36 0 -38 66z" />
<glyph unicode="_" d="M16 56q0 8 4 16q10 20 36 24q78 -24 170 -38q90 -16 186 -24q180 -14 362 -8q184 6 326 20q40 -6 40 -38q0 -12 -6 -28q-14 -42 -46 -42q-10 2 -22 6q-30 12 -126 14q-98 2 -222 2h-140l-140 4q-134 4 -248 18t-166 46q-10 16 -8 28z" />
<glyph unicode="`" horiz-adv-x="422" d="M56 1708q0 30 38 42q14 4 24 4q24 0 16 -28q4 -40 78 -102t92 -58q10 2 6 14t2 18q42 -6 50 -36t-12 -44q-14 -10 -30 -12q-6 -2 -14 -2q-24 0 -54 14q-58 26 -108 72q-28 24 -50 50t-34 48q-4 10 -4 20z" />
<glyph unicode="a" horiz-adv-x="926" d="M18 282q0 98 26 210q18 74 46 150q26 74 60 142q64 126 146 214q84 86 166 88h8q114 0 168 -82q56 -86 76 -156q-5 -53 -26 -53q-2 0 -4 1q-18 4 -18 29q0 11 4 27q-24 74 -70 114q-44 36 -105 36h-13q-76 -6 -156 -116q-82 -112 -140 -258q-26 -62 -44 -126 q-20 -62 -30 -122q-14 -71 -14 -130q0 -32 4 -60q12 -82 72 -96q21 -5 41 -5q82 0 149 85q84 104 136 250q34 98 54 198q20 98 20 172q6 24 21 24q14 0 37 -22q48 -42 52 -88q-4 -46 -6 -108v-130q2 -122 18 -234q18 -110 60 -134q28 -16 52 -16q12 0 24 4q32 14 52 40 q34 18 34 -16v-4q-2 -40 -26 -62q-34 -32 -82 -36h-5q-44 0 -89 34q-20 16 -36 48t-28 74q-22 76 -34 164q-10 88 -12 136q-2 -18 -12 -46q-8 -30 -24 -68q-28 -70 -78 -150q-48 -82 -116 -136q-44 -36 -96 -54q-32 -10 -64 -10q-22 0 -44 4q-122 24 -146 166q-8 52 -8 108z " />
<glyph unicode="b" horiz-adv-x="786" d="M56 498v206t38 338q20 98 56 202q38 104 94 204q-4 30 24 30h6q36 -4 54 -40q6 -12 6 -28q2 -14 -2 -32q-38 -46 -68 -114q-32 -70 -56 -146q-44 -144 -62 -282q-9 -69 -9 -113.5t9 -64.5q20 80 96 154q69 67 166 67q13 0 26 -1q64 -6 116 -28q50 -24 90 -60 q72 -66 102 -164q18 -64 18 -128q0 -30 -4 -62q-16 -98 -54 -172q-36 -74 -88 -126q-96 -96 -214 -124q-72 -18 -132 -18q-40 0 -74 8q-38 8 -64 30t-42 50q-25 45 -25 97q0 10 1 21q4 64 38 102q8 8 22 24q-19 -51 -19 -97q0 -35 11 -67q26 -74 98 -88q16 -3 34 -3 q58 0 132 31q96 38 172 120q40 44 70 100q30 54 40 118q5 31 5 61q0 90 -45 173q-62 112 -194 120q-8 1 -16 1q-35 0 -66 -15q-38 -16 -70 -46q-58 -56 -88 -134q-20 -55 -20 -97q0 -18 4 -35q-8 -26 -20 -38t-24 -16q-28 -6 -52 26q-24 30 -20 56z" />
<glyph unicode="c" horiz-adv-x="874" d="M12 448q0 60 14 126q40 180 158 310t280 174q70 20 146 20q18 0 36 -2q96 -6 196 -46q30 -20 30 -50q0 -12 -6 -26q-16 -46 -36 -8q-86 44 -170 50q-18 1 -36 1q-66 0 -126 -17q-144 -42 -250 -158q-104 -118 -138 -256q-16 -63 -16 -117q0 -27 4 -53q10 -76 44 -136 q64 -108 186 -158q101 -40 195 -40q20 0 39 2q40 4 74 24q36 20 38 54q2 20 18 24t26 -24v-8q0 -42 -36 -82q-40 -42 -100 -50q-40 -4 -78 -4q-122 0 -230 48q-140 62 -210 190q-36 68 -48 152q-4 30 -4 60z" />
<glyph unicode="d" horiz-adv-x="1054" d="M82 322q0 20 2 42q8 124 60 250t136 214q54 60 122 96q68 34 146 36q98 0 178 -54q80 -52 122 -152q7 -17 8 -36q0 -13 -4 -28q-8 -38 -24 -38q-6 0 -14 8q-8 10 -14 32q-16 82 -90 136t-164 54q-50 -2 -94 -22q-44 -22 -82 -58q-60 -58 -104 -142q-44 -86 -64 -178 q-21 -83 -21 -158q0 -49 9 -94q22 -116 114 -134q16 -3 32 -4q85 0 162 92q94 108 154 252q34 78 54 158t26 146q17 178 17 330q0 30 -1 60q-2 67 -2 125q0 97 6 169q2 48 36 48q8 0 16 -2q52 -12 64 -50q4 -12 0 -28q-4 -14 -18 -28q-8 -52 -18 -192q-8 -140 -12 -310 q-4 -124 -4 -249v-83q2 -168 14 -284q8 -62 18 -102q10 -42 26 -52q23 -18 45 -18q15 0 29 8q36 20 58 50q18 30 36 -16q4 -14 4 -26q0 -32 -32 -54q-28 -22 -80 -42q-18 -8 -36 -8q-32 0 -62 24q-38 30 -54 114q-18 86 -24 174q-4 60 -6 110q0 52 -2 82q-4 -34 -38 -120 q-36 -84 -92 -172q-32 -46 -70 -88q-36 -42 -78 -72q-42 -26 -86 -40q-24 -7 -49 -7q-21 0 -43 5q-60 12 -104 46q-42 36 -68 86q-24 48 -34 110q-6 40 -6 84z" />
<glyph unicode="e" horiz-adv-x="938" d="M8 478q0 22 12 32q8 4 20 2t28 -16q39 -3 76 -3q104 0 190 25q116 32 196 90q98 70 146 158q44 81 44 145v11q-2 38 -18 64q-16 28 -48 40q-11 4 -23 4q-51 0 -119 -68q-84 -84 -152 -214q-30 -56 -54 -116q-26 -60 -42 -118q-28 -100 -28 -188v-22q4 -98 60 -154 q44 -44 100 -62q41 -12 83 -12q16 0 31 2q108 10 208 76t146 144q4 40 21 40q7 0 17 -8q20 -14 22 -38q0 -16 -10 -36q-50 -84 -164 -162q-114 -80 -240 -92q-18 -2 -36 -2q-50 0 -100 16q-66 18 -122 74q-44 42 -68 100q-22 58 -28 124q-2 25 -2 51q0 71 16 147 q22 106 64 204q52 118 126 216q76 96 158 142q44 26 88 32q14 2 28 2q30 0 60 -12q48 -16 74 -52q28 -36 34 -82q4 -21 4 -43q0 -70 -38 -153q-50 -110 -162 -200q-94 -74 -228 -124q-131 -46 -298 -46h-14q-6 -2 -11 -2q-28 0 -41 46q-6 22 -6 38z" />
<glyph unicode="f" horiz-adv-x="928" d="M28 896v6q0 30 18 30q8 0 20 -6q46 -28 160 -58q114 -28 244 -42q52 -4 105 -4h35q70 0 130 12q32 6 36 -32q2 -4 2 -6q0 -32 -48 -36q-128 -10 -264 -10h-84q-180 4 -326 70q-26 24 -28 76zM98 72v6q0 20 2 44q0 28 20 68q10 -28 12 -50q0 -22 12 -8q14 16 24 118 q8 104 26 252q10 78 24 168q12 88 32 178q30 136 76 268t116 234q68 98 160 156t216 58h2q24 0 42 -8t30 -18q22 -22 22 -48q0 -4 -2 -10q-6 -32 -40 -28q-16 1 -32 1q-90 0 -162 -39q-84 -46 -148 -130q-66 -88 -112 -206q-44 -120 -74 -248q-20 -84 -34 -168t-26 -162 q-18 -148 -28 -262t-22 -158q0 -20 -6 -36t-14 -24q-20 -22 -46 -22q-12 0 -26 6q-44 14 -44 68z" />
<glyph unicode="g" horiz-adv-x="976" d="M54 332q0 56 12 118q24 116 78 226q58 114 144 204t194 126q46 16 94 16q6 0 12 -2q56 -2 104 -20q94 -36 152 -120q38 -58 38 -130q0 -34 -10 -74q-4 -16 -12 -26q-8 -8 -18 -12q-11 -4 -22 -4q-22 0 -46 16q-28 20 -28 43q0 6 2 13q31 41 31 81q0 20 -7 39 q-20 62 -78 94q-38 22 -88 26q-11 1 -22 1q-39 0 -80 -17q-80 -34 -146 -114q-68 -80 -114 -178q-70 -146 -86 -292q-3 -30 -3 -56q0 -99 49 -132q34 -24 78 -24q45 0 100 26q108 50 190 154q56 70 90 154q27 71 27 141q0 14 -1 27q12 20 28 20q14 0 32 -16q36 -32 40 -104 q-12 -20 -16 -58q-2 -19 -2 -42t2 -50q4 -98 18 -236q14 -136 18 -276q1 -30 1 -58q0 -88 -9 -170q-12 -110 -52 -196q-38 -82 -108 -132q-68 -50 -178 -52h-6q-64 0 -114 28q-54 28 -90 76q-70 86 -80 210q-2 23 -2 44q0 93 42 158q18 40 50 72q10 11 15 11q3 0 3 -5 q0 -11 -12 -42q-30 -58 -36 -118q-2 -22 -2 -44q0 -36 6 -70q20 -104 84 -174q66 -70 136 -70q74 0 124 36q50 38 80 98q32 64 46 148t14 172q1 28 1 55q0 136 -17 259q-16 133 -16 177v9q-32 -48 -120 -124q-90 -74 -194 -108q-50 -14 -100 -14h-12q-56 2 -106 36 q-36 26 -60 66q-22 40 -34 90q-8 42 -8 90z" />
<glyph unicode="h" horiz-adv-x="792" d="M50 120q24 324 42 542q20 218 28 386q4 92 6 178q1 42 1 84.5t-1 85.5q16 60 46 60q8 0 18 -4q40 -24 40 -152v-24q-2 -50 -8 -130q-6 -78 -14 -164q-12 -128 -26 -242q-12 -112 -18 -132q64 116 146 184q71 57 138 57q10 0 20 -1q42 -4 78 -34q38 -28 68 -86 q44 -90 68 -250q13 -99 13 -229q0 -83 -5 -179q38 -14 46 -52q2 -10 2 -18q2 -24 -20 -40q-14 -10 -30 -10q-24 0 -48 22q-37 32 -37 91q0 8 1 17q6 80 6 162t-6 156q-12 138 -48 234q-38 98 -102 110q-6 1 -12 1q-43 0 -110 -47q-76 -54 -128 -196q-28 -78 -42 -186 q-12 -77 -12 -171q0 -35 2 -73q14 -42 -16 -50q-28 -10 -54 20q-12 14 -22 34q-8 20 -10 46z" />
<glyph unicode="i" horiz-adv-x="278" d="M18 266v20q0 46 2 94q2 58 8 116q8 114 22 214q16 98 28 154q6 52 32 52q12 0 24 -8q40 -24 40 -70q0 -12 -2 -24q-8 -20 -24 -108q-14 -90 -28 -198q-16 -132 -24 -250q-2 -35 -2 -61q0 -60 10 -69q14 -10 26 4t28 18q13 -27 13 -52t-13 -48q-22 -38 -58 -38 q-6 -2 -14 0q-36 12 -52 84q-16 70 -16 170zM124 1400q0 28 18 52q24 36 60 36q26 -2 38 -28q14 -28 18 -54q4 -16 4 -30q0 -20 -6 -34q-10 -20 -42 -20q-8 0 -14 2q-30 2 -48 14t-26 42q-2 10 -2 20z" />
<glyph unicode="j" horiz-adv-x="656" d="M18 -320q0 76 54 116q62 46 118 54q44 6 48 -10q4 -18 -50 -30q-38 -8 -66 -46q-21 -31 -21 -74q0 -10 1 -20q6 -62 82 -134q78 -74 166 -80h8q34 0 66 14q36 14 66 52q40 50 42 180q1 26 1 53q0 109 -13 235q-14 156 -36 318q-20 162 -34 284q-6 64 -8 114v23q0 31 4 51 q16 24 38 24q16 0 36 -12q30 -16 30 -44q0 -19 -12 -42q6 -114 22 -236q18 -122 36 -242q34 -226 44 -426q2 -24 2 -46q-2 -166 -70 -262q-42 -58 -92 -88q-52 -30 -104 -36q-18 -2 -36 -2q-106 0 -200 76q-108 88 -120 212q-2 12 -2 24zM370 1280q0 16 4 28q10 26 54 26h6 q32 0 52 -12q22 -10 32 -44q4 -14 4 -30q0 -26 -14 -50q-24 -40 -62 -44h-4q-26 0 -42 26q-16 30 -24 58q-6 24 -6 42z" />
<glyph unicode="k" horiz-adv-x="816" d="M20 554v4q0 30 24 62q24 34 66 70q78 66 202 142t244 166q22 14 40 16q24 0 42 -26q14 -19 14 -32q0 -20 -30 -30q-44 -32 -102 -72q-60 -38 -118 -78q-112 -74 -204 -140q-90 -64 -90 -85q0 -20 58 -75q62 -58 146 -122q104 -80 212 -142q93 -55 136 -55q7 0 12 1 q26 6 42 38q18 32 34 40q50 -6 50 -54q0 -8 -2 -20q-12 -66 -74 -88q-18 -6 -40 -6q-40 0 -94 18q-86 30 -180 86q-92 56 -180 124q-86 70 -142 136q-30 34 -46 66q-18 30 -20 56zM52 70q10 40 18 172q6 132 14 300q4 92 8 188t10 188q10 174 26 314t42 184q20 36 40 36 q10 0 18 -8q28 -24 34 -82q-22 -34 -38 -122q-14 -90 -26 -210q-8 -80 -12 -168q-6 -90 -12 -182q-8 -174 -14 -348t-12 -312q-12 -42 -38 -42q-8 0 -16 4q-38 18 -42 88z" />
<glyph unicode="l" horiz-adv-x="326" d="M32 228q6 -12 12 -28q6 -18 20 -22q8 108 20 232q14 124 26 250q26 232 42 444q7 89 7 162q0 99 -13 166q10 48 44 54h8q28 0 48 -30q5 -43 5 -96q0 -39 -3 -84q-4 -104 -18 -226q-22 -226 -56 -494q-32 -266 -40 -516q0 -2 -2 -6q-8 -42 -42 -46q-4 -2 -10 -2 q-26 0 -38 24q-6 26 -6 88q0 64 -4 130z" />
<glyph unicode="m" horiz-adv-x="1308" d="M38 70v16q0 34 2 78q2 54 6 116q8 114 26 240q18 124 48 214q10 36 26 48q14 10 36 -6q4 -6 6 -24t4 -30q8 20 26 62t44 76q16 18 32 30q18 10 38 12q30 0 54 -16q26 -16 48 -44q32 -38 58 -94q26 -54 46 -116q38 -116 62 -222q22 -104 34 -126q8 6 30 114q20 106 54 242 q26 110 58 216t68 172q20 36 42 56q20 20 40 20h2q52 -2 90 -52t68 -136q56 -158 90 -398q36 -240 76 -462q10 -24 12 -40v-8q0 -10 -2 -14q-8 -12 -20 -12q-10 0 -22 6q-30 12 -46 40q-12 90 -30 200q-18 108 -40 220q-26 132 -56 250q-28 118 -56 192q-14 38 -26 60 q-14 24 -24 24q-26 0 -70 -124q-44 -122 -86 -284q-28 -106 -54 -212q-24 -108 -40 -186q-10 -50 -42 -50q-6 0 -14 2q-44 14 -56 60q-16 56 -38 136q-20 82 -44 162q-34 124 -74 222q-37 94 -76 94h-2q-48 -2 -100 -116q-52 -116 -84 -272q-18 -84 -30 -172 q-10 -88 -10 -170q9 -20 9 -35q0 -18 -13 -29q-22 -18 -48 2q-10 8 -20 24q-8 18 -12 44z" />
<glyph unicode="n" horiz-adv-x="760" d="M20 196q2 48 6 108t10 126q12 124 34 258q20 134 56 242q8 48 32 64q22 16 52 -12q10 -12 4 -32q-6 -18 -10 -40q10 24 50 76t106 88q34 18 76 28q22 4 46 4q20 0 44 -2q74 -14 114 -64t56 -126q12 -62 12 -136v-4q0 -72 -6 -152q-12 -150 -32 -304q-11 -92 -11 -170 q0 -52 5 -96q24 -4 34 -28q10 -26 4 -46q-14 -38 -40 -36q-14 0 -32 12q-50 38 -52 70q-4 80 -4 156q0 165 18 312q21 176 21 297q0 28 -1 53q-2 72 -22 116q-22 44 -70 52q-18 3 -36 3q-44 0 -86 -21q-56 -30 -104 -92q-88 -114 -138 -322q-52 -206 -56 -452q2 -13 2 -22 q0 -30 -19 -31q-6 0 -13 3q-40 16 -50 120z" />
<glyph unicode="o" horiz-adv-x="898" d="M20 400q0 74 16 156q14 74 44 136t70 110q74 92 168 138q88 42 165 42h13q24 -2 42 -26q20 -24 8 -34q-6 -4 -20 -4q-12 2 -34 10q-32 0 -68 -10q-38 -12 -76 -32q-72 -40 -138 -122q-66 -84 -94 -226q-14 -68 -14 -128q0 -105 42 -186q66 -130 214 -142q15 -1 29 -1 q125 0 215 79q102 88 146 194q28 66 36 146q2 32 2 62q0 51 -6 102q-22 150 -100 266q-71 102 -179 102q-13 0 -27 -2q-62 -8 -96 -26q-34 -16 -48 -38q-18 -27 -18 -54q0 -16 6 -32q16 -46 18 -64v-6q0 -29 -37 -28h-5q-48 2 -60 46q-10 37 -10 69q0 78 58 131 q80 74 208 78h8q76 0 136 -34q62 -32 106 -90q38 -46 64 -104q26 -56 42 -120q26 -106 26 -212v-18q-2 -116 -32 -186q-72 -174 -204 -262q-116 -78 -256 -78h-36q-190 14 -272 168q-52 100 -52 230z" />
<glyph unicode="p" horiz-adv-x="992" d="M32 890q0 38 30 66q26 24 82 46q21 8 40 8q34 0 64 -24q24 -20 40 -66q14 -48 22 -106q12 -88 12 -180q2 -92 4 -136q4 34 30 120q24 88 70 178q24 48 56 92q30 44 68 74q36 30 78 44q26 8 54 8q18 0 34 -2q150 -24 198 -164q32 -90 32 -186q0 -58 -10 -118 q-20 -108 -70 -210q-50 -100 -126 -166q-48 -42 -104 -66t-120 -24q-100 2 -176 66t-118 162q-12 21 -12 46q0 12 2 24q8 42 26 40q6 -2 14 -10q6 -8 12 -24q14 -82 86 -148q70 -64 168 -64q50 2 92 22t78 54q56 56 94 138t52 168q11 60 11 116q0 66 -15 126 q-28 110 -116 128q-9 2 -18 2q-73 0 -144 -102q-80 -114 -134 -264q-30 -80 -50 -162q-18 -82 -24 -148q-11 -121 -11 -255q0 -38 1 -77q4 -174 4 -310q0 -16 8 -14q6 0 20 8q-12 -50 -20 -94t-10 -64q0 -16 -6 -26q-4 -8 -10 -14q-10 -8 -24 -8q-20 0 -48 24q-25 20 -25 44 q0 19 15 40q10 60 14 246q3 125 3 264q0 69 -1 142q0 94 -2 186t-4 176q-6 154 -18 262q-10 108 -26 120q-23 15 -44 15q-16 0 -32 -9q-36 -18 -56 -48q-12 -20 -21 -20q-10 0 -17 30q-2 14 -2 24z" />
<glyph unicode="q" horiz-adv-x="1032" d="M62 532q2 -52 10 -98t24 -80q70 -172 198 -250q112 -70 250 -70q18 2 36 2q186 12 272 158q52 90 52 208q0 76 -20 162q-28 118 -114 222q-88 102 -186 160q-54 30 -106 44q-35 11 -66 11q-15 0 -30 -3q-66 -10 -106 -48q-42 -40 -54 -84q-2 -9 -2 -20q0 -24 12 -60 q14 -40 42 -40q9 0 20 4q16 4 6 24q-10 18 -26 40q2 28 28 72q26 46 84 52q12 1 24 1q87 0 164 -51q88 -58 150 -146q32 -48 56 -100q24 -54 34 -108q12 -53 12 -101q0 -106 -58 -187q-84 -116 -200 -126q-14 -1 -28 -1q-125 0 -212 67q-98 76 -142 178q-38 92 -38 201 q0 35 4 71q16 150 88 256q40 56 94 90t122 34h8q47 0 88 -22q44 -24 62 -70q10 -34 -10 -58t-16 -48q10 -26 42 -20q34 6 58 32q12 41 12 76q0 74 -50 126q-66 70 -190 70h-22q-94 -4 -162 -52q-70 -46 -114 -118q-56 -86 -78 -194q-22 -98 -22 -186v-20zM472 392 q0 -8 2 -20q6 -18 22 -52q22 -46 58 -96q34 -52 74 -102q74 -94 150 -168q78 -72 116 -78h14q48 0 74 46q10 20 12 34q0 24 -28 34q-20 8 -40 0q-20 -6 -32 -24q-32 0 -98 62q-64 62 -126 138q-32 42 -60 84q-26 42 -42 76q-16 32 -50 62q-22 18 -34 18q-8 0 -10 -8 q-2 -2 -2 -6z" />
<glyph unicode="r" horiz-adv-x="632" d="M22 798q0 46 2 86q6 90 34 120q25 25 43 25q19 0 29 -29q10 -26 10 -48q0 -24 -12 -44q-6 -28 -10 -80q-4 -50 -4 -106q0 -86 6 -158q6 -70 17 -70h1q4 36 26 162t66 242q28 78 66 134q40 56 90 60h8q24 0 46 -12q24 -14 46 -38q40 -48 64 -122t38 -136q6 -34 10 -60 t6 -38q-6 -30 -56 -46q-12 -3 -20 -3q-17 0 -17 14q0 8 5 19q2 24 -2 62q-6 38 -14 78q-14 58 -40 106q-22 44 -55 44h-5q-58 -4 -112 -146q-52 -144 -80 -322q-18 -120 -20 -238v-23q0 -103 16 -179q10 -38 -24 -50q-8 -4 -16 -2q-24 0 -38 26q-20 72 -38 170t-34 204 q-10 70 -16 140q-8 70 -12 134q-4 66 -4 124z" />
<glyph unicode="s" horiz-adv-x="726" d="M16 264q0 26 8 46q20 48 68 98q4 29 31 29q11 0 27 -5q31 -11 31 -26q0 -9 -11 -18q-62 -50 -80 -92q-8 -21 -8 -40t8 -36q22 -50 98 -80q76 -28 162 -28q48 0 94 8t84 28q36 18 62 44q26 28 38 66q8 28 -12 60q-22 32 -62 66q-74 62 -182 136q-110 74 -180 162 q-36 46 -56 94q-12 35 -12 71q0 16 2 33q10 60 44 102q36 42 84 64q64 32 140 32q30 0 62 -6q114 -16 182 -88q20 -20 26 -36t4 -28q-6 -30 -36 -32q-28 -4 -24 24q-38 38 -82 58q-46 22 -90 26q-20 3 -40 3q-59 0 -110 -27q-68 -36 -80 -106q-1 -9 -1 -17q0 -32 17 -65 q22 -40 64 -80q74 -76 182 -152q110 -76 176 -154q36 -42 52 -84q10 -24 10 -48q0 -18 -6 -36q-14 -52 -48 -92q-32 -38 -78 -66q-48 -26 -104 -40t-116 -14h-2q-106 0 -200 42q-94 44 -122 130q-14 40 -14 74z" />
<glyph unicode="t" horiz-adv-x="828" d="M26 1056v4q2 28 22 28q6 0 16 -4q28 -12 74 -28q48 -18 108 -36q110 -32 246 -54q59 -9 114 -9q72 0 138 15q22 24 34 -6q4 -10 4 -20q0 -16 -12 -30q-6 -6 -18 -12q-8 -4 -22 -4h-4q-170 8 -350 14t-326 80q-24 26 -24 62zM282 28v4q20 134 34 278q12 144 22 286 q16 264 32 498t54 372q22 22 44 22q8 0 18 -2q30 -12 32 -62q-24 -60 -40 -152t-28 -206q-22 -208 -36 -456t-38 -454q16 2 24 18l14 28q-14 -68 -24 -130q-8 -62 -18 -88q-12 -16 -32 -18q-10 0 -22 4q-34 12 -36 58z" />
<glyph unicode="u" horiz-adv-x="730" d="M28 460v34q2 98 16 196t36 182v6q0 34 14 34q8 0 22 -12q28 -23 28 -61q0 -14 -4 -29q-12 -46 -24 -130t-14 -180q-1 -27 -1 -53q0 -113 21 -217q26 -126 112 -140q14 -3 27 -3q79 0 141 93q74 108 122 256q22 62 38 128q16 64 26 124q22 112 24 192q1 16 1 28 q0 51 -13 54q-5 1 -9 1l-55 -51q-30 -56 -30 -104v-6q-22 18 -28 70q-1 12 -1 24q0 42 11 82q6 28 18 54q14 26 30 42q18 16 38 22q10 4 20 4q12 0 28 -4q60 -18 68 -172q2 -28 2 -58q0 -128 -30 -280q-30 -148 -88 -288q-60 -140 -144 -222q-44 -44 -96 -64 q-36 -16 -76 -16q-18 0 -36 4q-112 18 -156 164q-38 134 -38 296z" />
<glyph unicode="v" horiz-adv-x="736" d="M20 854q0 30 2 56q7 25 19 25q10 0 25 -17q32 -38 32 -84v-16q0 -56 12 -136q12 -90 32 -186q30 -144 68 -262q40 -118 66 -122q24 2 62 66q40 66 82 158q22 50 44 106q24 56 42 110q46 126 70 224q13 51 13 76q0 22 -11 22q4 20 8 44l8 52q8 48 20 88t36 40 q28 -2 48 -38t20 -82v-6q-2 -70 -32 -186q-30 -118 -76 -246q-24 -68 -52 -134t-58 -126q-56 -110 -116 -188q-58 -78 -112 -90q-38 12 -76 82q-40 72 -72 176q-50 156 -82 344q-22 144 -22 250z" />
<glyph unicode="w" horiz-adv-x="1332" d="M16 808v6q30 34 54 72q22 38 34 100q4 32 14 52q10 18 24 28q30 22 56 -2q13 -12 13 -29.5t-13 -40.5q0 -90 10 -192q10 -100 28 -198q34 -182 86 -318q54 -138 106 -140q46 0 80 114q36 116 64 262q18 96 34 188q16 94 32 156q12 52 62 66q8 2 16 2q35 0 46 -54 q16 -78 34 -168q20 -90 42 -180q40 -166 82 -296q44 -128 74 -128q46 2 84 150q40 148 72 346q18 108 32 220q16 110 28 212q-20 24 12 38q14 8 26 8q16 0 30 -12q12 -8 18 -24q2 -10 2 -22v-20q-24 -134 -44 -264q-18 -130 -36 -244q-36 -216 -84 -358q-48 -140 -144 -140 q-44 0 -84 62q-38 62 -70 154q-18 48 -34 102q-14 56 -28 110q-30 124 -50 224q-18 100 -22 108q-10 -22 -24 -142q-14 -118 -46 -246q-16 -68 -40 -132q-22 -62 -54 -106q-22 -30 -50 -48q-26 -18 -58 -18q-104 0 -168 134t-96 300q-18 90 -28 178t-14 160q-22 -56 -66 -64 q-6 -1 -12 -1q-28 0 -30 35z" />
<glyph unicode="x" horiz-adv-x="940" d="M20 62q4 26 34 70q12 19 20 19q10 0 12 -31q26 48 68 128t98 176q100 178 234 376q136 196 274 322h12q28 2 42 -20q6 -12 6 -22q0 -18 -16 -40q-158 -164 -272 -318q-114 -156 -214 -332q-54 -92 -106 -196t-106 -222q-12 -10 -24 -10q-16 0 -30 18q-28 32 -32 82z M92 1016q0 22 22 48q14 18 24 18q16 0 26 -34q40 -62 106 -166q68 -106 146 -220q40 -62 82 -122t84 -114q78 -100 146 -170q70 -70 116 -78q38 6 38 -32q0 -8 -2 -18q-6 -46 -44 -46q-12 0 -26 4q-48 14 -144 124t-202 250q-44 60 -88 122t-84 120q-74 106 -126 188 q-54 80 -66 102q-8 10 -8 24z" />
<glyph unicode="y" horiz-adv-x="1026" d="M42 862v8q4 50 50 52q8 0 20 -2q46 -8 110 -78t132 -164q66 -92 130 -192q62 -100 108 -176q24 -38 42 -68q18 -28 26 -42q10 -12 10 -28q0 -14 -8 -30q-14 -36 -34 -36h-2q-8 2 -14 8q-6 8 -12 22q-42 52 -86 126q-44 72 -90 152q-84 146 -170 274q-88 128 -170 134 q-8 -2 -14 -2q-28 0 -28 42zM266 -634q0 8 2 16q8 18 52 158q44 138 108 336q34 106 74 222q38 116 78 232q78 220 154 414q78 196 136 294q-3 10 -3 17q0 27 33 29h4q38 0 56 -34q6 -12 8 -30v-6q0 -14 -4 -30q-76 -140 -146 -290q-68 -152 -128 -304q-110 -284 -186 -548 t-114 -444q-8 -28 -20 -44q-12 -18 -26 -26q-16 -8 -30 -8q-16 0 -30 12q-20 14 -18 34z" />
<glyph unicode="z" horiz-adv-x="764" d="M44 88q0 52 50 128q78 116 192 248l100 112t96 108q86 98 140 176q39 58 39 95q0 13 -5 23q-28 26 -122 32q-38 3 -78 3q-59 0 -120 -7q-68 -6 -128 -20q-62 -14 -94 -34q-14 -14 -24 -18q-8 -6 -16 -4q-20 4 -18 46q2 40 30 58q44 18 168 48q100 26 204 26q22 0 46 -2 q68 -4 130 -22q60 -20 104 -62q20 -20 16 -56t-26 -84q-40 -86 -130 -200q-88 -112 -182 -222q-118 -140 -210 -248q-78 -92 -78 -122q0 -5 2 -8q5 -7 25 -6q23 0 65 8q80 16 182 30q54 6 108 10h21q42 0 81 -6q46 -6 80 -24q36 -18 56 -50q8 -16 8 -36v-4q0 -18 -4 -32 q-24 -36 -60 -36h-12q-44 8 -52 50q2 8 14 12t22 14q-13 36 -79 36h-7q-74 -2 -164 -16q-112 -18 -220 -28q-22 -2 -41 -2q-72 0 -95 36q-14 22 -14 50z" />
<glyph unicode="{" horiz-adv-x="616" d="M30 996v6q0 34 38 30q68 16 136 70q68 52 54 132q-6 32 -32 74q-26 40 -58 88q-58 88 -104 196t8 224q40 90 146 104q38 4 72 4q60 0 106 -14q38 -10 40 -40q2 -32 -32 -30q-70 34 -144 24q-76 -8 -114 -88q-40 -90 4 -186q46 -94 102 -180q30 -46 56 -88q24 -42 32 -76 q18 -84 -36 -140q-52 -54 -98 -92q60 -10 118 -48t76 -108q18 -60 -14 -142q-30 -82 -78 -172l-96 -176q-48 -90 -70 -168q-12 -44 -14 -80q0 -38 14 -70q18 -38 48 -60t64 -30q68 -18 140 4q72 20 112 54q0 48 42 32q26 -12 26 -34q0 -14 -10 -32q-22 -48 -72 -72 q-50 -22 -112 -26h-16q-84 0 -166 34q-92 36 -124 98q-30 62 -26 128q4 68 26 136q20 58 50 114q28 56 60 108q56 100 104 184t36 136q-14 76 -94 108q-78 32 -148 20q-48 2 -52 44z" />
<glyph unicode="|" horiz-adv-x="230" d="M38 786v62q0 230 12 428q6 106 16 200q8 94 22 168q-14 42 32 54q6 2 12 2q36 0 50 -70q-48 -248 -58 -566q-8 -318 0 -602q4 -154 10 -288q6 -132 12 -230q14 6 20 -10q6 -14 12 -32v-4q-8 -66 2 -108q8 -44 6 -70q-10 -26 -42 -28h-4q-36 2 -48 50q-18 132 -30 302 q-12 168 -18 354q-6 192 -6 388z" />
<glyph unicode="}" horiz-adv-x="740" d="M48 -132q4 32 42 22q58 -44 138 -18t100 70q16 34 14 82q-4 50 -16 106q-24 104 -62 214q-38 112 -40 178q-2 86 24 148q26 64 78 94q-56 20 -106 68t-56 122q-6 62 48 132q52 70 128 144q38 38 80 78q40 38 78 78q70 72 114 140q44 70 30 132q-10 40 -36 68 q-24 28 -58 42q-62 30 -138 22q-74 -6 -122 -32q-8 -48 -46 -24q-38 26 -4 70q54 74 168 78h14q106 0 190 -56q38 -26 64 -64q28 -38 38 -86q6 -26 6 -52q0 -38 -12 -76q-22 -64 -66 -124q-66 -90 -158 -170t-158 -150q-36 -36 -58 -70q-22 -32 -22 -62q2 -78 74 -124 q70 -46 142 -46q46 -12 42 -52q-2 -42 -44 -28q-70 -6 -110 -66q-40 -58 -42 -140q0 -32 14 -80q14 -46 32 -100q32 -102 60 -214q26 -112 -10 -194q-16 -38 -76 -72q-58 -32 -122 -44q-30 -6 -58 -6h-8q-32 0 -54 12q-36 18 -36 44v6z" />
<glyph unicode="~" horiz-adv-x="786" d="M28 746q0 -32 10 -64q16 -44 46 -44h8q38 8 24 66q-8 44 4 92t58 54q34 4 82 -30q48 -32 106 -68q32 -18 66 -32t68 -16q56 -6 112 22q58 26 114 110q24 12 32 22t8 18v2q-2 18 -40 20q-38 0 -56 -26q-50 -72 -100 -92t-98 -8q-58 12 -112 52q-52 38 -102 68 q-24 16 -50 24q-14 4 -28 6q-8 0 -18 -2q-80 -18 -114 -90q-20 -42 -20 -84z" />
<glyph />
<glyph unicode="&#xa1;" horiz-adv-x="332" d="M76 1622q0 10 2 20q8 34 30 48q22 16 54 20h14q36 0 42 -24q8 -28 10 -72q0 -40 -20 -62q-16 -18 -38 -22q-6 -2 -12 -2q-38 0 -62 38q-20 26 -20 56zM80 966v30q2 70 8 136q14 82 56 80h2q46 -4 48 -104q-38 -146 -22 -382t56 -570q16 6 20 18l8 24q0 -72 2 -118 q2 -40 0 -66v-10q-10 -24 -38 -22q-8 0 -16 2q-40 8 -52 58q-20 266 -42 460q-20 194 -26 342q-4 64 -4 122z" />
<glyph unicode="&#xa2;" d="M154 776q0 22 4 46q10 88 50 168q40 78 104 146q114 124 282 196q164 70 320 70h10q26 2 38 -32q4 -10 4 -18q0 -18 -18 -28q-86 6 -172 -14t-166 -60q-148 -70 -254 -190q-106 -118 -122 -240q-14 -120 64 -202q76 -82 178 -126q54 -22 110 -36q54 -12 98 -14 q-14 38 18 20t42 -14q30 -28 12 -56q-18 -30 -58 -30q-52 8 -118 26q-66 16 -132 44q-122 52 -214 146q-80 80 -80 198zM348 -154q10 134 34 310t58 372q22 128 48 258t54 256q50 234 106 440q54 206 104 338q-6 44 32 46h2q36 0 38 -80q-62 -154 -118 -354 q-54 -200 -100 -410q-26 -114 -48 -228q-22 -112 -42 -220q-30 -164 -52 -304t-34 -238q16 4 18 -12q4 -18 4 -38q-20 -64 -18 -108q0 -44 -8 -70q-12 -20 -30 -18q-8 0 -14 2q-30 10 -34 58z" />
<glyph unicode="&#xa3;" horiz-adv-x="1334" d="M22 134v2q2 58 56 112q54 52 162 64q60 6 116 -6q56 -14 110 -40q102 -48 202 -122q98 -74 202 -130q86 -48 176 -68t190 12q28 32 60 16q24 -14 24 -34q0 -6 -2 -10q-4 -12 -18 -24t-42 -20q-76 -24 -146 -24q-36 0 -72 8q-102 18 -194 64q-58 30 -114 68 q-54 38 -106 74q-98 70 -188 120t-180 36q-64 -10 -90 -52q-28 -42 -2 -70q10 -12 30 -20q22 -6 54 -6q108 6 172 78q62 74 96 188q40 138 54 318q14 178 34 356q10 96 26 186t42 168q38 114 104 192t176 100q26 6 52 6q28 0 52 -6q50 -14 88 -42q90 -66 120 -186t-14 -200 q-8 -14 -20 -24q-10 -10 -22 -14q-34 -16 -56 2q-24 18 18 34q14 44 14 90q2 46 -10 88q-22 80 -78 132q-56 50 -134 34q-104 -22 -156 -136q-50 -116 -76 -280q-14 -88 -24 -184q-12 -98 -22 -196q-16 -152 -42 -298q-24 -146 -72 -258q-48 -108 -124 -176t-196 -74 q-54 -2 -98 10q-42 12 -70 32q-32 22 -46 52q-16 28 -16 58zM278 780q-2 12 6 16q2 2 6 2t10 -2q10 -2 26 -14q276 0 482 8q204 8 266 -8q28 -16 36 -30q8 -10 8 -20q0 -4 -2 -8q-8 -28 -66 -48q-60 -20 -112 -32q6 4 48 20t60 30q-226 12 -420 6q-196 -6 -306 10 q-16 2 -34 40q-8 20 -8 30z" />
<glyph unicode="&#xa4;" horiz-adv-x="1068" d="M24 236q0 24 18 60q28 52 56 96q0 -6 -16 -44q-14 -40 -10 -50q58 50 138 130q80 78 168 170q106 110 214 222t192 194q46 46 84 78q36 30 60 46q4 2 10 2q14 0 36 -14q16 -8 16 -18t-18 -20q-74 -66 -166 -158q-92 -94 -188 -194q-62 -64 -124 -130q-60 -64 -118 -124 q-104 -110 -180 -188t-100 -92q-18 -2 -30 -2h-16q-16 4 -22 16q-4 8 -4 20zM158 642q0 34 8 68q24 138 100 248q40 58 90 102t104 64q78 32 130 2q50 -32 62 -88q8 -28 -16 -58t-26 26q-8 44 -44 58t-86 -8q-90 -38 -154 -140q-62 -102 -80 -210q-8 -56 -2 -108t32 -90 q32 -50 78 -74t98 -28q98 -6 196 50t142 154q18 44 28 100q8 54 8 110q-4 104 -46 188q-42 82 -128 86q-44 12 -18 38q26 24 60 24q80 -10 134 -108q54 -100 64 -222q4 -26 4 -54q0 -38 -6 -76q-8 -64 -32 -118q-34 -72 -88 -124t-118 -82q-84 -40 -174 -40q-34 0 -70 6 q-126 22 -198 130q-52 78 -52 174zM194 1072q4 18 14 52q12 32 28 38h2q6 0 12 -4q8 -6 16 -22q20 -62 88 -164q66 -102 156 -216q48 -62 100 -126q52 -62 104 -122q98 -112 184 -202q88 -90 136 -128q-74 40 -160 104q-84 66 -168 144q-158 146 -300 322q-140 176 -212 324 z" />
<glyph unicode="&#xa5;" horiz-adv-x="1716" d="M72 472q36 -28 126 -50t198 -34q56 -8 114 -12q56 -4 110 -6h40q72 0 128 6q72 10 80 34q2 2 2 4q-2 22 -46 148q-50 136 -114 304q-36 92 -72 182t-68 164q-20 -6 -34 -4t-34 4q-12 -42 -58 -128t-104 -184q-30 -52 -62 -106q-32 -52 -62 -100q-56 -90 -98 -152 q-40 -64 -46 -70zM94 1006q0 12 10 22q6 4 12 6q16 0 42 -26q38 -34 42 -52q56 0 166 -4q0 -8 -4 -10t-12 -10q-48 2 -146 4q-24 -12 -42 -16h-10q-14 0 -26 10q14 8 18 10q2 2 20 12q-32 6 -58 30q-12 14 -12 24zM110 488q4 4 16 24q14 20 34 52q36 58 92 148 q54 90 106 182q54 94 96 174q42 82 52 118q20 -2 30 -6q8 -4 28 4q28 -70 60 -154q34 -82 66 -168q60 -160 106 -288q42 -122 42 -142v-2q-8 -22 -90 -28q-44 -4 -92 -4t-102 4q-134 8 -268 30q-132 24 -176 56zM130 1238v2q4 18 12 8q62 12 56 110q-8 100 -10 206 q-2 46 4 88q4 42 20 74q24 46 80 64q22 8 52 6q44 0 106 -16q4 14 10 -2q6 -14 -10 -14q-98 20 -150 0q-50 -22 -72 -68q-16 -32 -20 -72q-4 -42 -4 -86q2 -104 8 -198q4 -82 -40 -106q-8 -4 -16 -6h-10q-16 0 -16 10zM182 1310q0 2 2 4q4 16 12 6q16 16 24 48q8 30 12 72 q8 74 14 166t44 156q26 42 72 64q46 24 120 14q4 6 8 8q4 0 6 -8q6 -14 -14 -16q-66 8 -108 -12q-40 -22 -66 -62q-20 -34 -30 -76q-12 -44 -18 -88q-12 -86 -18 -166q-6 -82 -34 -120h-10q-16 0 -16 10zM204 1174q0 2 2 4q4 16 12 8q16 14 24 46q8 30 12 72q8 74 14 166 t44 156q26 42 72 66q44 22 120 12q4 8 8 8q2 0 6 -8q6 -14 -14 -16q-66 10 -108 -12t-66 -62q-20 -34 -30 -76q-12 -42 -18 -88q-12 -86 -18 -166t-34 -118q-6 -2 -10 -2q-16 0 -16 10zM206 1214q2 2 2 4q4 16 12 6q16 16 24 48q8 30 12 72q8 74 14 166t46 156q24 42 70 64 q46 24 120 14q4 6 8 8q4 0 6 -8q6 -14 -14 -16q-66 8 -108 -12q-40 -22 -66 -62q-20 -34 -30 -76q-12 -44 -18 -88q-12 -86 -18 -166q-6 -82 -34 -120h-10q-16 0 -16 10zM218 1172v4q6 16 12 8q36 -4 54 8q16 14 20 40q2 26 -6 64t-20 82q-24 80 -46 166t0 140q20 50 88 64 q16 2 36 2q68 0 182 -34q4 12 12 -2q6 -14 -12 -14q-144 44 -210 30q-64 -12 -80 -62q-10 -30 -6 -70t14 -86q22 -82 48 -166q28 -84 20 -134q-6 -26 -24 -38l-6 -6q-14 -6 -36 -6q-6 0 -14 2q-26 -4 -26 8zM236 1244q0 2 2 4q4 16 12 8q62 10 58 96q-2 86 -8 182 q-4 42 -2 80q0 40 10 72q14 46 50 72q38 26 114 16q2 8 6 8t8 -8q6 -14 -14 -16q-56 8 -88 -8q-30 -18 -46 -50q-32 -70 -18 -182t2 -194q-4 -34 -18 -58q-10 -18 -30 -26l-12 -4t-10 -2q-16 2 -16 10zM238 1274q0 2 2 4q4 16 12 8q62 10 58 96q-2 86 -8 182q-4 42 -2 80 q0 40 10 72q14 46 50 72q38 26 114 18q4 6 6 6q4 0 8 -8q6 -14 -14 -16q-56 8 -88 -8q-30 -18 -46 -50q-32 -70 -18 -182t2 -192q-4 -36 -18 -60q-10 -18 -30 -26l-12 -4t-10 -2q-16 2 -16 10zM280 -22q0 -38 50 -54q34 -12 68 -12q26 0 50 8q6 16 6 78v22q-2 84 -8 180 q-4 52 -10 102q-4 52 -8 94h-22q6 -40 10 -92q4 -50 8 -102q8 -96 10 -176q4 -80 0 -90q-34 -14 -90 4q-54 16 -42 56q14 42 50 20q36 -20 54 -48q4 -2 8 2q6 4 6 12q-40 48 -80 58t-56 -40q-4 -12 -4 -22zM332 1322q38 -60 114 -88q46 -18 94 -18q26 0 52 4q2 2 4 2 q40 8 78 32t68 64q-4 4 -8 10q-80 -92 -198 -96t-196 102q-2 -4 -8 -12zM348 1584q0 -4 2 -8q14 -32 60 -32q50 46 80 24q8 2 10 10q2 6 -6 8q-14 12 -48 2q-26 32 -26 60q-2 6 -8 6q-2 0 -4 -2q-10 -6 -6 -16q2 -28 32 -52q-4 -2 -12 -8q-34 24 -36 52q-6 6 -12 0 q-6 -4 0 -12q0 -28 36 -46q-2 -4 -10 -10q-32 8 -42 36q-6 2 -10 -6v-6zM386 884q0 14 14 28q20 18 36 -6q16 -26 20 -36q0 10 24 38q14 16 26 18q8 0 14 -10q18 -24 -20 -64q-36 -42 -48 -78q-6 54 -44 82q-22 14 -22 28zM472 1364q0 2 6 8q26 -28 58 -34q32 -4 64 36 q4 -10 4 -14q2 -2 -2 -12q-20 -18 -42 -22q-6 -2 -14 -2q-6 0 -14 2q-38 4 -58 30q-2 6 -2 8zM518 1738q0 4 14 8q88 20 150 20q44 0 76 -10q78 -22 110 -76q20 -36 28 -80q6 -44 4 -90q0 -88 -10 -164q-10 -78 18 -102q8 8 12 -8q2 -2 2 -4q0 -10 -16 -10q-4 0 -10 2 q-32 22 -22 108t6 178q-2 50 -14 96q-10 46 -40 78q-36 42 -106 58q-70 14 -190 -12q-6 2 -10 6q-2 0 -2 2zM522 1776q0 2 2 4q6 16 10 2q114 36 182 36q20 0 36 -2q68 -14 88 -64q12 -30 8 -70q-2 -40 -12 -84q-18 -82 -46 -166q-28 -82 -20 -134q2 -24 18 -38 q18 -14 54 -10q6 10 12 -6v-4q0 -12 -26 -10h-14q-28 0 -42 10q-18 14 -24 40q-8 50 20 134t48 166q10 44 14 84t-6 70q-16 50 -80 64q-66 14 -210 -32q-12 0 -12 10zM556 1756v6q4 8 8 8q4 -2 8 -8q74 10 120 -12q46 -24 70 -66q40 -64 46 -156t14 -166q4 -42 10 -72 q8 -32 26 -48q8 10 12 -6v-4q0 -10 -14 -10h-10q-16 22 -24 56t-12 76q-10 78 -18 168q-10 88 -48 150q-24 40 -66 62q-40 20 -106 12q-18 2 -16 10zM560 1800v6q4 6 8 6q2 0 6 -6q76 8 122 -14q44 -22 70 -64q38 -64 44 -156q8 -92 14 -168q4 -40 12 -72q8 -30 26 -46 q8 10 12 -8v-2q0 -10 -16 -10h-10q-26 38 -34 118q-6 82 -18 166q-6 46 -16 88q-12 44 -32 76q-24 42 -66 62q-42 22 -108 14q-16 0 -14 10zM562 1570v2q0 6 6 6q14 14 50 4q24 30 24 58q2 6 8 6q2 0 4 -2q10 -6 6 -14q-2 -28 -30 -54q2 -2 12 -6q32 22 34 50q6 6 12 0 q6 -4 0 -12q0 -28 -36 -46l10 -10q32 10 42 36q6 2 10 -6q4 -6 -2 -12q-12 -30 -48 -34h-10q-50 46 -82 26q-8 0 -10 8zM562 1726q0 2 2 6q6 14 10 2q62 16 106 16q30 0 52 -8q56 -18 78 -64q18 -32 22 -74q6 -42 4 -88q-2 -106 -10 -204q-6 -100 56 -110q8 8 12 -8v-4 q0 -10 -16 -10q-4 0 -10 2q-62 16 -56 110q6 96 8 198q0 46 -4 86q-4 42 -20 74q-22 46 -74 66q-50 22 -148 2q-12 0 -12 8zM566 1834v2q0 10 14 10h10q44 -10 70 -48q26 -36 42 -86q32 -92 60 -204q30 -110 122 -164q16 -2 16 -10q-2 -4 -2 -6q-4 -8 -6 -8q-4 0 -8 8 q-56 24 -88 70q-32 48 -52 104q-26 66 -40 138q-16 70 -42 120q-14 26 -34 44t-50 22q-8 -8 -12 8zM592 1716q2 2 2 6q4 6 6 6q4 2 8 -8q56 -22 88 -70q32 -46 54 -102q12 -36 22 -74t20 -74q18 -68 42 -118q26 -50 80 -60q8 10 12 -6v-4q0 -10 -14 -10q-6 0 -10 2 q-44 10 -70 46q-26 38 -42 88q-32 92 -60 204q-30 110 -122 162q-16 2 -16 12zM618 2v-28q0 -58 8 -74q24 -6 50 -6q32 0 68 10q62 22 44 78v2q-16 46 -56 38q-40 -10 -78 -58q0 -8 4 -14q6 -4 10 0q16 26 54 48q36 20 48 -22q12 -40 -42 -56t-88 -2q-4 8 -2 88q4 80 10 178 q4 50 10 102q4 50 10 90q-2 2 -6 2h-4q-8 -2 -12 -2q-6 -42 -10 -92l-8 -104q-8 -96 -10 -178zM690 926v2q0 4 4 10q40 -40 118 -120q14 8 66 6q50 -4 52 -26v-2q-2 -32 -36 -28q-34 2 -60 20q4 -18 4 -22q2 -4 4 -20q-20 2 -30 18q-10 18 -18 42q-34 36 -102 104 q0 12 -2 16zM784 1064q0 18 20 38q32 28 56 -12t34 -54q-2 14 36 60q24 26 40 26q14 0 24 -14q8 -10 8 -24q0 -16 -14 -38q-22 -36 -52 -78q-16 -20 -30 -42t-18 -42q-4 30 -18 54q-12 24 -28 42q-30 36 -50 64q-8 10 -8 20zM794 754q0 24 66 30t80 -2q92 104 278 310 q2 -8 4 -26q-88 -98 -262 -294q-8 -26 -18 -52t-32 -30q2 16 6 30q2 14 4 32q-24 -20 -74 -24q-50 -6 -52 26zM818 -8q0 12 4 24q18 48 86 52q68 2 86 -64q0 -8 -6 -12t-8 -2q-12 60 -68 60q-58 -2 -72 -42t50 -66q64 -24 98 -12q4 8 34 98q28 90 54 196q18 70 28 136t8 108 q2 -2 8 -4t14 -6v-26q0 -32 -6 -76q-10 -64 -28 -134q-26 -106 -58 -200q-32 -92 -40 -110q-18 -4 -34 -4q-44 0 -94 22q-56 24 -56 62zM932 1468q0 106 74 190t176 92h24q104 0 194 -76q102 -86 114 -210q2 -12 2 -22q0 -60 -36 -120q-40 -72 -98 -118q-30 -24 -62 -40 q-32 -14 -60 -16h-18q-150 0 -228 100q-82 106 -82 220zM946 1470q0 -108 80 -208q74 -96 214 -96h18q50 2 108 48q58 44 96 108q20 34 30 72q8 28 8 54v18q-12 118 -108 200q-86 74 -186 72h-22q-98 -8 -168 -88t-70 -180zM958 1410q0 4 4 6q32 12 60 36q12 -2 14 -8t-8 -6 q-6 -4 -18 -10q24 -78 60 -128q36 -52 76 -74q76 -44 158 8q82 50 132 194q-2 6 -4 8l-4 8q-4 12 2 14h2q4 0 8 -2q14 -30 36 -52q4 -2 4 -6q0 -2 -4 -6q-6 -6 -12 4l-16 16q-28 -80 -68 -130q-38 -52 -84 -74q-38 -20 -76 -20q-46 0 -94 28q-86 52 -134 198q-8 -4 -22 -8 q-6 -10 -10 -2q-2 4 -2 6zM974 378q66 120 194 360q30 -8 68 -8q38 -2 52 10l186 -342q-60 -10 -182 -30q-18 50 -52 150q-24 -50 -74 -150q-64 4 -192 10zM1054 1718q0 4 2 10q6 20 14 4q46 22 92 22q18 0 38 -4q66 -14 112 -86q4 -12 4 -18q0 -8 -8 -10h-4q-12 2 -8 12 q-34 78 -104 80t-126 -26q-12 2 -12 16zM1078 1566q0 -4 2 -8q2 -14 10 -18q8 -6 20 -8h6q14 0 16 8q4 12 4 28v2q0 14 -8 22t-18 8q-14 0 -24 -14q-8 -10 -8 -20zM1092 1694q0 6 4 18q46 74 112 86q18 4 38 4q46 0 90 -22q10 18 16 -4q2 -6 2 -10q0 -12 -14 -14 q-54 28 -124 24q-70 -2 -106 -80q6 -10 -8 -10h-2q-8 0 -8 8zM1116 1692q0 8 16 16q44 14 86 14q38 0 74 -10q78 -24 108 -90q10 6 10 -2q0 -4 -2 -10q-6 -14 -14 -14q-4 0 -10 2q-24 56 -100 92q-74 34 -152 -4q0 -10 -12 0q-4 4 -4 6zM1212 722q2 142 8 424h24 q-6 -140 -14 -422q-6 0 -18 -2zM1234 1064q4 10 4 16v10q94 -104 278 -310q16 8 80 0q66 -6 66 -28q0 -34 -50 -28t-76 26q4 -20 6 -34q2 -12 4 -28q-22 2 -32 30q-10 26 -16 52zM1236 1672q0 6 16 16q38 46 82 46q14 0 30 -6q62 -20 96 -84q10 6 12 -2q0 -4 -4 -10 q-6 -16 -14 -16q-4 0 -8 2q-28 56 -82 90q-52 36 -110 -42q-2 -12 -14 -2q-4 4 -4 8zM1290 1550q4 -14 12 -18q8 -6 20 -8h6q12 0 16 8q2 12 2 28v2q0 14 -6 22q-8 8 -20 8q-14 0 -24 -14q-6 -10 -6 -20v-8zM1302 462v6q10 2 12 0q4 -4 10 0q-2 -38 10 -104q10 -66 28 -136 q26 -108 54 -200t32 -100q36 -10 100 14t50 64q-16 42 -72 42q-58 2 -68 -60q-4 -2 -8 2q-6 4 -6 12q18 66 86 64q68 -4 86 -52q4 -12 4 -24q0 -38 -56 -62q-50 -20 -94 -20q-18 0 -34 4q-10 16 -38 110q-30 94 -56 202q-18 72 -30 138q-10 60 -10 100z" />
<glyph unicode="&#xa7;" horiz-adv-x="1186" d="M48 1214q0 58 24 124q24 70 78 124q52 56 124 88q88 40 198 40q56 0 116 -10q180 -32 356 -196q24 -8 24 -26q0 -10 -8 -24q-22 -38 -52 -34q-10 0 -18 10q-10 8 -14 26q-66 74 -144 112t-156 48q-146 18 -268 -40q-124 -58 -154 -148q-30 -86 -2 -156q30 -70 92 -130 q94 -90 228 -170q136 -78 220 -168q44 -50 66 -104q20 -56 2 -120q-20 -70 -64 -114q-46 -44 -104 -68q-84 -34 -178 -34q-26 0 -54 2q-122 14 -180 44q-44 24 -56 60q-10 38 36 54q24 8 68 6q42 -2 108 -20q-62 -4 -56 -20q6 -14 38 -18q30 -4 66 -8t74 -2q68 2 128 28 q60 28 78 102q16 56 -8 104t-70 90q-88 80 -222 156t-224 176q-60 68 -82 150q-10 32 -10 66zM120 804v8q0 68 34 134q22 44 64 76q40 32 94 54q98 40 224 40h6q130 -2 256 -52q104 -40 194 -118t144 -194q2 -10 2 -20q2 -30 -26 -48q-38 -22 -50 0q-4 8 -2 22q0 12 8 32 q-36 78 -98 136q-62 56 -136 90q-62 30 -130 44q-68 16 -132 20q-122 6 -222 -26q-98 -32 -132 -96q-32 -66 -24 -128q10 -62 46 -120q38 -62 98 -120q62 -58 128 -110q126 -98 234 -178t96 -136q-16 -70 -94 -86q-58 -14 -124 -14q-22 0 -44 2q-50 2 -96 8q-48 6 -84 10 q-12 0 -18 4q-8 2 -10 8q-12 26 24 62q34 36 56 -4q22 2 52 2q28 -2 60 -2q56 -2 106 4t58 38q2 14 -102 84q-106 70 -222 176q-64 56 -118 122q-56 66 -88 136q-30 68 -32 140z" />
<glyph unicode="&#xa8;" horiz-adv-x="462" d="M16 1682q0 24 16 44q20 30 50 30q24 0 40 -18q18 -18 16 -52q0 -34 -6 -58q-4 -12 -20 -16q-6 -2 -14 -2h-12q-26 4 -44 16q-18 10 -24 38q-2 10 -2 18zM268 1710q0 8 2 16q6 32 26 42q14 8 32 8q8 0 18 -2q24 -4 40 -16q16 -14 18 -54q0 -38 -14 -60q-14 -18 -36 -22h-8 h-2q-34 0 -58 32q-18 26 -18 56z" />
<glyph unicode="&#xa9;" d="M64 728v32q0 66 18 136q42 156 154 286q114 130 244 158q106 24 192 -16q84 -38 94 -120q12 -64 -34 -40q-48 24 -84 50q28 2 40 12q10 12 2 18q-28 32 -86 34t-114 -12q-64 -14 -120 -56t-102 -100q-82 -108 -112 -248q-32 -140 24 -242q44 -80 112 -124q70 -46 150 -60 q150 -30 304 36t222 202q50 100 32 252q-20 150 -92 264q-40 62 -94 104t-120 50q-42 24 -24 40q14 12 66 12h24q126 -14 210 -146t104 -292q8 -50 8 -98q0 -36 -4 -72q-10 -84 -40 -152q-44 -92 -120 -156q-78 -62 -170 -94q-98 -32 -198 -32q-80 0 -162 20 q-188 48 -278 202q-40 70 -46 152zM312 796q0 14 2 30q16 136 148 216q90 54 190 54q46 0 92 -10q34 -8 38 -48v-10q2 -30 -24 -16q-160 32 -256 -26q-96 -56 -112 -164q-18 -114 58 -160q74 -46 148 -44q-8 26 12 22q22 -4 24 -8q26 -24 8 -50q-18 -24 -40 -22h-10 q-46 0 -110 22q-70 26 -118 82q-26 30 -40 70q-10 30 -10 62z" />
<glyph unicode="&#xad;" horiz-adv-x="752" d="M34 770v2q0 28 34 28h4q72 -2 144 -2h142q126 2 224 0q96 -4 128 -18q20 -18 24 -32q4 -8 4 -14t-4 -10q-10 -24 -64 -30q-52 -8 -98 -10q6 4 44 10t54 14q-64 18 -130 24q-64 4 -124 4q-114 0 -208 -8t-152 10q-22 6 -22 32z" />
<glyph unicode="&#xae;" horiz-adv-x="1038" d="M58 1160q0 -52 20 -104q52 -144 186 -194q72 -28 150 -28q62 0 128 20q78 22 152 70q76 48 136 122q72 88 116 218q34 104 34 192q0 24 -2 46q-6 58 -32 102q-24 44 -72 62q-42 12 -78 6q-36 -4 12 -34q44 -14 70 -46q24 -32 32 -74q20 -98 -28 -226q-50 -130 -110 -204 q-80 -100 -210 -146q-130 -44 -242 -16q-60 14 -108 52t-72 102q-30 82 28 202q60 118 162 212q56 52 118 88q62 38 124 50q54 12 100 -8q48 -20 42 -74q-14 -64 18 -38q32 28 32 62q6 68 -44 106q-38 30 -108 30q-20 0 -42 -4q-66 -6 -138 -42q-72 -34 -138 -90 q-120 -100 -192 -244q-44 -88 -44 -170zM402 1242v12q2 60 12 112q18 100 70 160q32 38 80 38q26 0 56 -10q84 -32 64 -122t-108 -166q4 -22 86 14q82 38 128 38q18 2 18 -20v-6q-2 -28 -30 -26q-44 -18 -106 -46t-108 -28q-20 2 -34 10q-14 10 -20 30q-8 50 40 102 q46 52 62 94q6 18 2 34q-6 14 -30 26q-38 16 -66 -38q-30 -54 -44 -128q-8 -50 -8 -102q0 -50 12 -84q-8 -36 -28 -44h-6q-18 -2 -34 44q-8 52 -8 106z" />
<glyph unicode="&#xaf;" d="M12 1620q0 10 4 16q12 20 36 24q80 -24 170 -38q92 -16 188 -24q180 -14 362 -8t326 20q38 -6 38 -38q0 -12 -4 -26q-16 -44 -46 -42q-10 0 -22 4q-32 12 -128 14t-220 2h-140q-72 2 -142 4q-132 4 -246 18t-168 46q-8 16 -8 28z" />
<glyph unicode="&#xb0;" horiz-adv-x="434" d="M40 1650v4q2 70 62 122q42 34 96 24t82 -36q22 -2 4 -52q-16 -52 -40 -32q-22 32 -48 44q-28 12 -40 0q-44 -38 -28 -104q14 -68 84 -74q76 -6 104 72q30 80 -6 148q-12 24 -32 42q-18 20 -46 30q-12 4 -28 2q-18 0 -24 -20q-12 20 10 48q20 26 52 28h6q52 -4 86 -36 t50 -78q24 -68 10 -150q-16 -80 -68 -126q-22 -20 -50 -30q-12 -4 -26 -6q-12 -2 -26 -2h-10q-44 2 -78 20t-56 46q-40 50 -40 116z" />
<glyph unicode="&#xb4;" horiz-adv-x="360" d="M22 1568q0 8 2 16q10 30 52 36q4 -8 0 -18q-2 -12 6 -14q18 -4 92 58t80 102q-8 28 14 28q10 0 24 -4q50 -14 34 -62q-12 -24 -34 -48q-22 -26 -50 -52q-50 -44 -108 -70q-14 -6 -26 -10q-16 -4 -28 -4q-24 0 -44 14q-14 10 -14 28z" />
<glyph unicode="&#xb5;" horiz-adv-x="904" d="M56 -554q0 18 14 42q16 86 34 208q16 122 32 262q10 90 18 186q10 96 18 188q18 176 30 334q12 160 18 270q0 62 56 30q54 -34 40 -90q-10 -46 -20 -142t-14 -206q0 -58 2 -116t6 -112q12 -98 38 -168q26 -68 76 -76q96 -12 170 98q74 108 122 254q22 62 36 128 q16 64 28 124q20 110 24 188q2 78 -14 82q-32 10 -62 -50q-32 -60 -32 -110q-22 18 -26 70q-6 52 8 106q8 28 20 54q12 24 30 42q16 16 38 22q8 2 18 4q14 0 28 -6q42 -12 60 -90q12 -58 12 -132q0 -28 -2 -58q-4 -60 -12 -128q-10 -66 -28 -134q-30 -130 -84 -250 q-54 -122 -128 -202q-46 -48 -100 -76q-56 -28 -118 -24q-68 2 -106 50q-38 50 -48 112q-10 -44 -22 -116t-24 -152q-16 -122 -28 -236t-12 -154q-14 -60 -50 -60q-8 0 -16 2q-28 8 -30 32z" />
<glyph unicode="&#xb6;" horiz-adv-x="1052" d="M96 1032q0 60 58 166q66 126 180 246q60 64 132 120q70 54 146 88q72 32 148 42q18 2 38 2q54 0 108 -18q56 -18 74 -56q16 -38 12 -102q-8 -114 -58 -324q-50 -208 -42 -540q0 -14 -4 -106q-4 -90 -4 -178q-2 -74 2 -122t18 -28q-4 -36 -8 -94q-6 -58 -4 -86 q6 -20 -16 -42q-12 -10 -22 -10t-20 8q-12 10 -20 36q-10 26 -10 74q-6 56 -10 124q-2 68 -4 146q0 142 4 302q6 158 12 302q4 118 10 216q4 96 6 154q-32 60 6 68q36 8 52 18q20 24 20 98q2 72 -56 80q-86 14 -180 -32q-92 -48 -174 -122q-80 -74 -146 -160 q-64 -86 -98 -156q-20 -38 -28 -68q-10 -32 -6 -50q12 -78 142 -88q130 -8 294 30q88 22 176 54q88 34 164 76q38 10 44 -28q2 -6 2 -10q0 -30 -42 -28q-270 -146 -462 -172t-300 16q-58 22 -90 58q-34 36 -42 78q-2 8 -2 18zM430 458v44q0 114 2 232q4 144 8 272 q4 130 -6 206q-8 56 32 92q14 12 26 12q22 0 36 -38q4 -180 0 -394q-4 -212 -2 -394q2 -98 8 -182q6 -82 20 -140q60 -30 32 -74q-6 -8 -10 -12q-14 -12 -30 -12q-18 0 -40 16t-36 52t-24 88q-16 96 -16 232z" />
<glyph unicode="&#xbc;" horiz-adv-x="1118" d="M40 56q0 10 4 24q48 126 114 266q66 142 144 288q142 272 306 530q162 256 294 428q6 36 38 36q8 0 16 -2q32 -6 32 -44q0 -20 -8 -48q-86 -104 -170 -222t-162 -242q-144 -226 -264 -450q-120 -222 -196 -388q48 22 30 -6t-24 -48q-38 -54 -50 -98q-12 -42 -28 -64 q-12 -10 -26 -10q-12 0 -26 8q-22 14 -24 42zM70 914q0 22 2 50q4 56 12 120q16 120 38 258q20 140 20 260q0 28 50 38h14q34 2 28 -44q2 -32 -14 -144q-18 -114 -36 -236q-12 -82 -20 -156q-8 -76 -8 -122q0 -4 10 6q8 10 18 16q-4 -26 -14 -52t-14 -52q2 -18 -10 -24 q-4 -2 -12 -2q-6 -2 -16 2q-42 8 -46 38q-2 20 -2 44zM584 488q0 18 8 46q14 60 38 126l24 72q12 34 20 62q2 28 30 28q4 0 10 -2q36 -4 40 -32q-8 -24 -20 -52t-24 -58q-22 -56 -40 -102t-14 -50q8 -10 78 -14t158 2q48 2 96 8t92 14q28 22 28 -26v-4q-2 -54 -36 -52 q-88 -16 -192 -18q-32 -2 -62 -2q-66 0 -118 4q-42 4 -70 10t-38 14q-8 8 -8 26zM864 102v2q8 142 34 292q26 152 34 302q-2 4 -4 -2q-4 -8 -10 -14q-10 50 -2 82q6 32 10 114q2 36 32 36h6q38 -6 40 -36q8 -70 8 -140q0 -128 -24 -250q-34 -192 -40 -386q4 -40 -20 -40 q-8 0 -20 4q-42 14 -44 36z" />
<glyph unicode="&#xbd;" horiz-adv-x="1236" d="M58 62q0 10 2 22q48 126 114 268t144 286q144 272 306 530t294 428q6 38 40 38q6 0 16 -2q30 -8 30 -46q0 -18 -8 -46q-86 -106 -170 -224q-82 -118 -160 -240q-146 -228 -266 -450q-118 -224 -196 -388q48 20 30 -8q-18 -26 -24 -48q-36 -54 -48 -96q-14 -42 -28 -64 q-12 -12 -26 -12t-28 10q-22 12 -22 42zM160 920q0 24 2 52q4 54 12 120q16 120 36 258q22 140 22 260q0 28 50 36q6 2 12 2q36 0 28 -46q2 -20 -6 -80q-6 -58 -18 -136q-18 -116 -36 -244q-18 -126 -18 -196q2 -4 10 6q10 10 18 16q-2 -26 -14 -52q-10 -26 -12 -52 q2 -20 -12 -26q-4 -2 -10 -2t-18 2q-42 10 -44 40q-2 20 -2 42zM570 224q0 48 24 80q12 18 32 28q18 10 44 8q28 0 52 -14q26 -16 50 -38q46 -40 90 -94q46 -54 96 -82q34 -20 70 -20q36 -2 78 26q12 4 36 -30q8 -10 8 -18q0 -18 -36 -22q-44 -26 -86 -26h-2q-44 2 -82 20 q-30 16 -60 38q-28 24 -54 52q-48 48 -88 92q-38 44 -66 46q-46 2 -42 -62q2 -64 62 -84q28 -10 60 0t64 36q58 48 106 140q46 94 52 204q4 46 -4 90q-6 44 -22 78q-30 66 -82 90q-54 24 -118 -28q-14 -46 -58 -38t-10 66q24 40 40 60t28 28q10 -6 16 -18q6 -14 2 -22 q48 16 88 10t74 -26q62 -40 94 -120t26 -166q-8 -124 -68 -234q-58 -112 -132 -174q-40 -34 -82 -48q-42 -16 -78 -6q-22 6 -40 18t-34 28q-40 44 -46 108q-2 12 -2 24z" />
<glyph unicode="&#xbe;" d="M58 90q0 10 2 24q48 124 114 266t144 288q144 272 306 528q162 258 294 430q6 36 40 36q6 0 16 -2q30 -6 30 -44q0 -20 -8 -48q-160 -196 -308 -428q-150 -234 -270 -452q-64 -118 -118 -226q-54 -106 -96 -196q48 22 30 -6t-24 -48q-36 -54 -48 -98q-14 -42 -28 -64 q-12 -10 -26 -10t-28 8q-22 14 -22 42zM58 1564q0 20 36 40q36 14 76 22q42 8 82 10q14 2 26 2q62 0 114 -18q64 -20 82 -76q12 -38 4 -72t-26 -60q-36 -52 -92 -84q-54 -34 -78 -46q48 -14 88 -56q38 -44 44 -116q10 -114 -54 -172t-120 -84q-2 0 -6 -2q-16 -6 -34 -6 q-24 0 -48 10q-48 20 2 36q54 8 128 62q74 52 66 152q-4 58 -52 94q-50 36 -128 32q-14 -10 -36 18q-24 28 18 58q28 2 64 16q34 14 68 36q52 32 86 76q34 46 22 88q-16 50 -110 52q-94 0 -160 -38q-20 -34 -52 0q-10 14 -10 26zM602 522q0 18 6 46q16 58 38 126l24 72 q12 34 20 62q4 26 30 28q4 0 10 -2q36 -6 42 -32q-8 -24 -20 -52t-24 -58q-24 -56 -42 -102t-12 -52q8 -8 76 -12q70 -4 158 2q48 2 96 8q48 4 92 14q28 22 28 -26v-4q0 -54 -36 -52q-46 -8 -100 -14q-54 -4 -106 -6h-46q-72 0 -132 6q-78 8 -94 22q-8 8 -8 26zM882 134v4 q8 140 34 292t32 302q-2 4 -4 -2q-2 -8 -10 -14q-8 50 -2 82q8 32 12 114q0 36 30 36h8q36 -6 40 -36q6 -70 6 -140q0 -128 -22 -252q-36 -190 -40 -384q4 -40 -22 -40q-8 0 -18 4q-44 14 -44 34z" />
<glyph unicode="&#xbf;" horiz-adv-x="882" d="M44 344v8q2 94 36 182q64 166 212 312q146 146 310 258q24 18 24 62q0 46 -36 28q-6 12 -6 32t2 32q10 44 46 58q6 2 12 2q28 0 42 -50q10 -10 24 -56q12 -46 2 -96q-4 -26 -18 -52t-40 -44q-58 -40 -128 -96q-68 -58 -134 -126q-120 -126 -194 -278q-72 -152 -6 -298 q48 -108 154 -126q104 -18 208 36q56 30 106 78q50 50 86 114q8 38 38 54q32 16 46 -12q6 -12 6 -32q0 -6 -2 -10q0 -30 -18 -76q-24 -52 -62 -94q-38 -44 -84 -78q-88 -62 -194 -86q-48 -10 -94 -10q-54 0 -106 16q-62 18 -112 58q-50 42 -80 110q-40 90 -40 180zM534 1614 q0 32 22 60q26 36 64 38h2q30 -2 44 -32q12 -30 18 -58q4 -18 4 -32q0 -24 -8 -40q-10 -22 -44 -22h-18q-34 6 -54 18q-18 12 -26 48q-4 10 -4 20z" />
<glyph unicode="&#xc0;" horiz-adv-x="1086" d="M22 14v4q28 136 52 254t44 226q36 198 54 378q20 182 18 390l8 32q6 32 32 44q12 6 26 4q16 -2 36 -14v-58q8 34 16 74l20 80q20 78 36 144q18 66 20 92q6 30 32 30q12 0 28 -8q52 -22 60 -50q40 -140 72 -288q32 -146 62 -294q56 -274 114 -538q56 -264 138 -480 q2 -4 2 -6q0 -28 -38 -26q-44 0 -70 32q-2 8 -24 26q-20 20 -18 30q2 4 10 6q6 0 24 -4q-44 104 -78 220q-34 118 -60 242q-52 230 -92 466q-40 238 -98 436q-6 14 -10 14q-2 2 -14 0q-68 -254 -124 -514q-54 -260 -96 -494q-24 -126 -44 -238q-20 -114 -36 -212 q8 -42 -36 -42q-6 0 -12 2q-54 6 -54 40zM40 766q0 20 20 40q22 22 54 22q12 0 22 -2q98 -42 284 -78q188 -36 364 -42q94 -2 172 8q80 8 128 32q-108 -112 -354 -112h-2q-246 0 -618 78q-28 4 -44 14t-22 22q-4 10 -4 18zM286 1978q0 30 38 42q14 4 22 4q24 0 16 -28 q6 -40 80 -102t92 -58q8 2 6 14q-4 12 0 20q42 -8 50 -38q4 -8 4 -16q-2 -18 -16 -28q-18 -14 -42 -14t-54 14q-58 26 -108 72q-28 24 -50 50t-36 48q-2 10 -2 20z" />
<glyph unicode="&#xc1;" horiz-adv-x="1106" d="M32 14v4q28 136 52 254t44 226q36 198 54 378q20 182 18 390l8 32q6 32 32 44q12 6 26 4q16 -2 36 -14v-58q8 34 16 74l20 80q20 78 36 144q18 66 20 92q6 30 32 30q12 0 28 -8q52 -22 60 -50q40 -140 72 -288q32 -146 62 -294q56 -274 114 -538q56 -264 138 -480 q2 -4 2 -6q0 -28 -38 -26q-44 0 -70 32q-4 8 -24 26q-20 20 -18 30q0 4 8 6q8 0 26 -4q-44 104 -78 220q-34 118 -62 242q-50 230 -90 466q-42 238 -98 436q-6 14 -10 14q-2 2 -14 0q-68 -254 -124 -514q-54 -260 -98 -494q-22 -126 -42 -238q-20 -114 -36 -212 q8 -42 -36 -42q-6 0 -12 2q-54 6 -54 40zM50 766q0 20 20 40q22 22 54 22q10 0 22 -2q98 -42 284 -78q188 -36 362 -42q96 -2 174 8q80 8 128 32q-110 -112 -354 -112h-2q-246 0 -618 78q-28 4 -44 14t-22 22q-4 10 -4 18zM324 1818q0 8 4 16q8 30 50 36q4 -6 0 -18 q-2 -12 6 -14q18 -4 92 58t80 102q-8 28 14 28q10 0 24 -4q38 -12 38 -42q0 -10 -2 -20q-14 -22 -36 -48t-50 -50q-50 -46 -108 -72q-30 -14 -54 -14t-42 14q-14 10 -16 28z" />
<glyph unicode="&#xc2;" horiz-adv-x="1092" d="M22 14v4q28 136 52 254t44 226q36 198 54 378q20 182 18 390l8 32q6 32 32 44q12 6 26 4q16 -2 36 -14v-58q8 34 16 74l20 80q20 78 36 144q18 66 20 92q6 30 32 30q12 0 28 -8q52 -22 60 -50q40 -140 72 -288q32 -146 62 -294q56 -274 114 -538q56 -264 138 -480 q2 -4 2 -6q0 -28 -38 -26q-44 0 -70 32q-2 8 -24 26q-20 20 -18 30q2 4 10 6q6 0 24 -4q-44 104 -78 220q-34 118 -60 242q-52 230 -92 466q-40 238 -98 436q-6 14 -10 14q-2 2 -14 0q-68 -254 -124 -514q-54 -260 -96 -494q-24 -126 -44 -238q-20 -114 -36 -212 q8 -42 -36 -42q-6 0 -12 2q-54 6 -54 40zM40 766q0 20 20 40q22 22 54 22q12 0 22 -2q52 -22 134 -44t178 -40q178 -30 362 -36q184 -4 274 40q-108 -112 -354 -112h-2q-246 0 -618 78q-28 4 -44 14t-22 22q-4 10 -4 18zM220 1790q0 16 48 28q52 48 100 124q48 78 80 84 q2 2 6 0q30 0 60 -46q34 -52 68 -108q22 -14 22 -28q0 -10 -18 -22q-38 -22 -52 8q-16 22 -44 62q-26 40 -38 52q-16 -6 -38 -52q-22 -44 -52 -82q-12 -16 -28 -30q-14 -12 -30 -16t-28 -4q-26 0 -46 16q-10 8 -10 14z" />
<glyph unicode="&#xc3;" horiz-adv-x="1112" d="M36 14v4q28 136 54 254q24 118 42 226q38 198 56 378q20 182 18 390l6 32q8 32 34 44q12 6 26 4q16 -2 36 -14v-58q6 34 16 74l20 80q20 78 36 144t18 92q8 30 34 30q12 0 28 -8q50 -22 60 -50q38 -140 72 -288q32 -146 62 -294q56 -274 112 -538q58 -264 140 -480v-6 q2 -28 -38 -26q-42 0 -68 32q-4 8 -24 26q-20 20 -18 30q0 4 8 6q8 0 26 -4q-44 104 -78 220q-34 118 -62 242q-50 230 -92 466q-40 238 -96 436q-8 14 -10 14q-4 2 -14 0q-68 -254 -124 -514q-54 -260 -98 -494q-22 -126 -42 -238q-20 -114 -36 -212q8 -42 -36 -42 q-6 0 -14 2q-54 6 -54 40zM56 766q0 20 20 40q22 22 54 22q10 0 22 -2q96 -42 284 -78t362 -42q94 -2 174 8q78 8 126 32q-108 -112 -354 -112t-618 78q-28 4 -44 14t-22 22q-4 10 -4 18zM220 1830q2 32 18 68q26 60 88 68q6 2 12 2q42 0 78 -42q38 -50 82 -64q24 -8 50 2 q28 12 58 56q12 16 42 12q28 -2 30 -18q0 -6 -8 -16q-10 -8 -30 -18q-34 -50 -68 -66q-34 -18 -64 -14q-58 8 -102 54t-68 40q-30 -6 -42 -34q-14 -28 -10 -54q8 -44 -20 -44t-40 30q-6 18 -6 38z" />
<glyph unicode="&#xc4;" horiz-adv-x="1116" d="M44 14v4q28 136 52 254t44 226q36 198 56 378q18 182 18 390l6 32q8 32 34 44q10 6 26 4t36 -14v-58q6 34 16 74l20 80q18 78 36 144q16 66 18 92q8 30 34 30q12 0 28 -8q50 -22 60 -50q72 -260 126 -540q52 -278 112 -540q32 -140 68 -272t80 -248v-6q0 -28 -38 -26 q-42 0 -68 32q-4 8 -24 26q-22 20 -18 30q0 4 8 6q8 0 26 -4q-44 104 -78 220q-34 118 -62 242q-52 230 -92 466q-40 238 -96 436q-8 14 -10 14q-4 2 -14 0q-68 -254 -124 -514t-98 -494q-22 -126 -42 -238q-20 -114 -36 -212q6 -42 -36 -42q-6 0 -14 2q-54 6 -54 40z M64 766q-2 20 20 40q22 22 54 22q10 0 22 -2q52 -22 134 -44t176 -40q178 -30 362 -36q186 -4 274 40q-108 -112 -354 -112h-2q-244 0 -618 78q-26 4 -42 14t-22 22q-4 10 -4 18zM276 1904q0 24 16 46q20 30 52 30q22 0 40 -20q16 -18 16 -50q-2 -36 -8 -58q-6 -18 -28 -20 h-8t-10 2q-26 2 -44 14t-24 40q-2 8 -2 16zM528 1932q0 8 2 18q8 32 28 42q12 6 30 6h18q24 -4 40 -18t18 -54v-8q0 -32 -14 -50q-16 -22 -44 -24h-2q-32 0 -56 34q-20 26 -20 54z" />
<glyph unicode="&#xc5;" horiz-adv-x="1116" d="M50 14q0 2 2 4q28 136 52 254t42 226q38 198 56 378q20 182 18 390l8 32q6 32 32 44q12 6 26 4q16 -2 36 -14v-58q6 34 16 74l20 80q20 78 36 144t20 92q6 30 32 30q12 0 28 -8q52 -22 60 -50q38 -140 72 -288q32 -146 62 -294q56 -274 114 -538q56 -264 138 -480v-6 q2 -28 -38 -26q-42 0 -68 32q-4 8 -24 26q-20 20 -18 30q0 4 8 6q8 0 26 -4q-44 104 -78 220q-34 118 -62 242q-50 230 -92 466q-40 238 -96 436q-6 14 -10 14q-2 2 -14 0q-68 -254 -124 -514q-54 -260 -98 -494q-22 -126 -42 -238q-20 -114 -36 -212q8 -42 -36 -42 q-6 0 -14 2q-54 6 -54 40zM70 766q0 20 20 40q22 22 54 22q10 0 22 -2q52 -22 134 -44t178 -40q176 -30 362 -36q184 -4 272 40q-108 -112 -354 -112t-618 78q-28 4 -44 14t-22 22q-4 10 -4 18zM336 1910q0 46 42 82q28 24 70 14q40 -10 60 -28q14 -2 0 -38q-16 -38 -32 -24 q-16 22 -32 28q-18 8 -28 -2q-28 -28 -16 -66q14 -38 60 -42q54 -4 72 46q20 52 -4 98q-8 14 -22 28q-12 12 -32 18q-8 4 -20 -2q-12 -8 -18 -20q-8 12 8 46q16 30 40 30h2q22 -2 38 -12q18 -10 32 -24q34 -42 34 -110v-14q-6 -76 -50 -118q-16 -14 -36 -20q-16 -6 -34 -6 h-8q-84 6 -116 84q-12 28 -10 52z" />
<glyph unicode="&#xc6;" horiz-adv-x="1928" d="M50 24v4q28 136 52 254t44 226q36 198 56 378q20 182 18 390l6 32q8 32 34 44q12 6 26 4q16 -2 36 -14v-58q12 62 32 142q22 80 38 146q8 34 14 62q6 26 6 40q8 30 34 30q12 0 28 -8q50 -22 60 -50q38 -140 72 -288q32 -146 62 -294q56 -274 112 -538q58 -264 140 -480 v-6q0 -28 -38 -26q-42 0 -68 32q-4 8 -24 28q-20 18 -18 28q0 4 8 6q8 0 26 -4q-44 104 -78 220q-34 118 -62 242q-50 230 -92 466q-40 238 -96 436q-8 14 -10 16q-4 0 -14 -2q-68 -254 -124 -514q-54 -260 -98 -494q-22 -124 -42 -238t-36 -212q6 -42 -36 -42q-6 0 -14 2 q-54 6 -54 40zM70 776q0 20 20 40q30 28 76 20q60 -26 210 -34q152 -10 340 -4q98 2 198 8q102 4 198 14q180 14 324 38q142 24 196 50q-38 -40 -136 -76q-96 -38 -230 -68q-86 -20 -186 -34q-98 -16 -202 -26q-170 -18 -344 -18h-42q-196 2 -352 36q-28 4 -44 14t-22 22 q-4 10 -4 18zM700 532v22q0 216 72 422q76 218 188 388q60 92 126 166q64 74 126 124q18 14 30 18q10 2 16 2q4 0 8 -2q32 -8 32 -52q2 -46 -38 -58q-146 -124 -252 -294q-106 -172 -162 -354q-30 -98 -44 -194t-12 -186q4 -190 194 -324t514 -146q100 -4 132 62 q32 64 16 124q52 -30 64 -94q2 -12 2 -24q0 -50 -36 -92q-26 -26 -68 -44t-104 -18q-344 0 -572 144q-228 146 -232 410zM988 1466q0 20 14 46q26 50 90 40q62 2 132 0h144q136 0 270 8q136 8 238 46q10 -4 10 -8v-6q-6 -8 -10 -22q-164 -84 -408 -116q-158 -20 -310 -20 q-80 0 -160 6q-12 10 -10 26z" />
<glyph unicode="&#xc7;" horiz-adv-x="1380" d="M30 672q0 34 4 68q16 144 82 274q64 128 164 236q188 202 458 318q264 114 522 114h14q32 -16 52 -46q8 -14 8 -26q0 -18 -16 -36q-142 8 -286 -24q-146 -32 -282 -94q-164 -76 -300 -190q-138 -112 -226 -244q-46 -70 -74 -144q-30 -74 -36 -148q-10 -106 26 -194 q38 -88 106 -158q44 -44 98 -82t114 -68q108 -56 222 -86q112 -28 200 -32q-8 18 -6 26q0 8 8 10q14 4 46 -14q30 -18 44 -14q18 -32 2 -72q-18 -40 -66 -40q-88 12 -194 38q-108 28 -214 70q-128 52 -240 132q-112 82 -174 198q-34 62 -48 136q-8 44 -8 92z" />
<glyph unicode="&#xc8;" horiz-adv-x="1230" d="M28 542v22q0 216 72 422q76 216 188 388q60 90 126 164q64 74 128 126q16 12 30 18q8 2 14 2q4 0 8 -2q32 -8 32 -52q2 -46 -38 -58q-78 -66 -146 -148q-66 -82 -120 -172q-102 -170 -156 -356q-52 -186 -48 -352q6 -190 196 -324t512 -146q102 -4 132 62q32 64 16 124 q52 -30 64 -94q2 -12 2 -24q0 -50 -36 -92q-24 -26 -66 -44q-44 -18 -106 -18q-344 0 -572 144t-232 410zM100 812q86 16 178 28q92 10 184 24q172 22 332 64t276 142q-32 -78 -94 -128q-62 -52 -144 -84q-154 -62 -352 -88q-200 -24 -378 -72q0 38 -2 114zM312 1476 q0 18 14 46q26 50 92 40q62 2 132 0h142q136 0 272 8q134 8 238 46q8 -4 10 -8q0 -4 -2 -6q-4 -8 -8 -22q-166 -86 -408 -116q-160 -20 -312 -20q-80 0 -158 6q-12 10 -12 26zM592 1966q0 32 40 44q14 4 22 4q24 0 16 -28q6 -40 78 -102q74 -62 94 -58q8 2 4 12q-2 12 2 20 q42 -6 50 -36q2 -10 2 -16q0 -18 -14 -30q-18 -12 -42 -12t-54 14q-58 26 -110 70q-26 26 -48 50q-22 26 -36 48q-4 12 -4 20z" />
<glyph unicode="&#xc9;" horiz-adv-x="1214" d="M20 542v22q-2 216 72 422q76 216 188 388q60 90 124 164q66 74 128 126q16 12 30 18q8 2 16 2q4 0 8 -2q32 -8 32 -52q0 -46 -38 -58q-78 -66 -146 -148t-122 -172q-100 -170 -154 -356t-48 -352q4 -190 194 -324t514 -146q100 -4 132 62q32 64 16 124q52 -30 62 -94 q2 -12 2 -24q2 -50 -36 -92q-24 -26 -66 -44t-104 -18q-344 0 -572 144t-232 410zM92 812q86 16 178 28q92 10 184 24q172 22 332 64t274 142q-30 -78 -92 -128q-62 -52 -144 -84q-154 -62 -354 -88q-198 -24 -376 -72q0 38 -2 114zM304 1476q0 18 14 46q26 50 90 40 q62 2 132 0h144q136 0 272 8q134 8 236 46q10 -4 10 -8v-6q-6 -8 -10 -22q-164 -86 -408 -116q-158 -20 -310 -20q-80 0 -160 6q-10 10 -10 26zM608 1782q0 8 4 16q8 30 50 38q4 -8 0 -20q-2 -12 6 -14q18 -4 92 58t80 102q-8 28 14 28q10 0 24 -4q38 -12 38 -42 q0 -10 -2 -20q-14 -22 -36 -48t-50 -50q-50 -46 -108 -72q-30 -14 -54 -14t-42 14q-14 10 -16 28z" />
<glyph unicode="&#xca;" horiz-adv-x="1228" d="M14 542v22q0 216 72 422q76 216 188 388q60 90 126 164q64 74 128 126q16 12 28 18q10 2 16 2q4 0 8 -2q32 -8 32 -52q2 -46 -38 -58q-78 -66 -146 -148q-66 -82 -122 -172q-100 -170 -154 -356q-52 -186 -48 -352q4 -190 194 -324q192 -134 514 -146q102 -4 132 62 q32 64 16 124q52 -30 64 -94q2 -12 2 -24q0 -50 -36 -92q-26 -26 -68 -44t-104 -18q-344 0 -572 144t-232 410zM86 812q86 16 178 28q92 10 184 24q172 22 332 64t276 142q-32 -78 -94 -128q-62 -52 -144 -84q-154 -62 -352 -88q-200 -24 -378 -72q0 38 -2 114zM298 1476 q0 18 14 46q26 50 92 40q62 2 132 0h142q136 0 272 8q134 8 238 46q8 -4 10 -8q0 -4 -2 -6q-4 -8 -8 -22q-166 -86 -408 -116q-160 -20 -312 -20q-80 0 -158 6q-12 10 -12 26zM554 1786q0 14 46 26q54 48 102 124q48 78 78 84q4 2 8 2q28 -2 58 -48q34 -52 68 -108 q22 -14 22 -28q0 -10 -18 -22q-38 -22 -50 8q-18 22 -44 62q-28 40 -40 52q-14 -6 -36 -52q-22 -44 -52 -82q-14 -16 -28 -28q-16 -14 -32 -18q-14 -4 -28 -4q-26 0 -46 18q-8 6 -8 14z" />
<glyph unicode="&#xcb;" horiz-adv-x="1248" d="M26 542v22q0 216 72 422q76 216 188 388q60 90 124 164q66 74 128 126q16 12 30 18q10 2 16 2q4 0 8 -2q32 -8 32 -52q2 -46 -38 -58q-78 -66 -146 -148q-66 -82 -122 -172q-100 -170 -154 -356t-48 -352q4 -190 194 -324t514 -146q100 -4 132 62q32 64 16 124 q52 -30 62 -94q4 -12 4 -24q0 -50 -36 -92q-26 -26 -68 -44t-104 -18q-344 0 -572 144t-232 410zM98 812q86 16 178 28q92 10 184 24q172 22 332 64t276 142q-32 -78 -94 -128q-62 -52 -144 -84q-154 -62 -354 -88q-198 -24 -376 -72q0 38 -2 114zM310 1476q0 18 14 46 q26 50 90 40q62 2 132 0h144q136 0 272 8q134 8 236 46q10 -4 10 -8q2 -4 0 -6q-4 -8 -10 -22q-164 -86 -408 -116q-158 -20 -310 -20q-80 0 -160 6q-10 10 -10 26zM566 1866q0 24 16 46q20 30 52 30q22 0 40 -20q16 -18 16 -48v-2q-2 -36 -8 -58q-6 -20 -34 -20h-12 q-26 4 -44 16q-16 12 -24 38q-2 10 -2 18zM818 1894q0 8 2 18q8 32 28 42q12 6 30 6q10 0 20 -2q22 -2 38 -16t18 -54v-8q0 -32 -14 -52q-16 -20 -42 -22h-2q-34 0 -58 34q-20 26 -20 54z" />
<glyph unicode="&#xcc;" horiz-adv-x="1172" d="M40 1654q0 6 2 12q4 24 28 32h2q42 0 58 -20q14 -22 24 -44q16 -10 52 -16t84 -10q94 -6 220 -8t250 -4q156 -4 274 -14q118 -12 124 -44q2 -6 2 -12q0 -42 -80 -50q-90 -12 -134 -12q4 4 36 12t50 16q-90 8 -198 12t-218 8q-204 8 -372 28q-168 18 -196 76q-8 20 -8 38z M166 48q0 22 50 28q72 -6 214 2q140 6 274 14q88 4 160 6h28q50 0 74 -6q48 -22 48 -50q0 -8 -4 -18q-18 -38 -82 -12q-56 16 -180 8q-124 -10 -246 -22q-82 -8 -150 -14q-38 -2 -66 -2q-20 0 -34 2q-58 6 -80 46q-6 10 -6 18zM504 1986q0 30 38 42q14 4 22 4q24 0 16 -28 q6 -40 80 -102t92 -58q8 2 6 14q-4 12 0 18q42 -6 50 -36q4 -8 4 -16q-2 -18 -16 -28q-18 -14 -42 -14t-54 14q-58 26 -108 72q-28 24 -50 50t-36 48q-2 10 -2 20zM564 688q0 168 10 342q8 150 20 300q12 148 24 286q2 50 30 50h6q34 -4 46 -52q-22 -132 -38 -280t-24 -296 q-14 -274 0 -518q12 -244 64 -370q2 -14 2 -24q0 -32 -16 -40q-20 -12 -48 -12q-64 164 -72 420q-4 96 -4 194z" />
<glyph unicode="&#xcd;" horiz-adv-x="1176" d="M30 1654q0 6 2 12q6 24 30 32h2q42 0 56 -20q16 -22 26 -44q16 -10 50 -16q36 -6 86 -10q92 -6 220 -8q126 -2 250 -4q156 -4 274 -14q118 -12 124 -44q2 -6 2 -12q0 -42 -80 -50q-90 -12 -136 -12q6 4 38 12t50 16q-90 8 -198 12l-220 8q-202 8 -370 28q-168 18 -196 76 q-10 20 -10 38zM158 48q0 22 50 28q72 -6 212 2q142 6 276 14q88 4 158 6h28q50 0 74 -6q50 -22 50 -50q0 -8 -4 -18q-18 -38 -84 -12q-36 10 -106 10q-70 -2 -152 -8q-124 -10 -246 -24q-82 -8 -132 -8q-22 0 -38 2q-58 6 -80 46q-6 10 -6 18zM516 1824q0 8 2 18 q10 30 52 36q4 -8 0 -20q-2 -12 6 -14q18 -4 92 58t80 102q-8 28 14 28q10 2 24 -4q38 -10 38 -42q0 -10 -4 -20q-12 -22 -34 -48t-50 -50q-50 -46 -108 -72q-30 -14 -54 -12q-24 0 -44 12q-14 10 -14 28zM556 688q0 168 10 342q8 150 20 300q12 148 22 286q2 50 32 50h6 q34 -4 46 -52q-22 -132 -38 -280t-24 -296q-16 -274 -2 -518t66 -370q0 -14 2 -24q0 -32 -16 -40q-20 -12 -48 -12q-64 164 -74 420q-2 96 -2 194z" />
<glyph unicode="&#xce;" horiz-adv-x="1172" d="M22 1654q0 6 2 12q4 24 28 32h4q42 0 56 -20q14 -22 26 -44q36 -22 170 -28t294 -8q126 -2 246 -6q120 -2 198 -14q42 -8 68 -16q24 -10 28 -24v-12q0 -42 -80 -50q-88 -12 -134 -12q4 4 36 12t52 16q-92 8 -200 12t-218 8q-202 8 -370 28q-168 18 -196 76q-10 20 -10 38 zM150 48q0 22 50 28q48 -4 128 -2q82 2 174 8q140 6 270 14q54 2 94 2q56 0 82 -6q50 -22 50 -50q0 -8 -4 -18q-20 -38 -84 -12q-56 16 -178 8q-124 -10 -248 -22q-80 -8 -148 -14q-40 -2 -66 -2q-22 0 -36 2q-58 6 -80 46q-4 10 -4 18zM420 1762q0 16 48 26q52 48 100 126 t78 84h8q28 0 58 -46q34 -52 70 -110q22 -14 20 -26q0 -12 -18 -22q-38 -24 -50 6q-18 24 -44 64q-28 40 -40 50q-14 -6 -36 -50t-52 -84q-14 -16 -28 -28t-32 -16q-14 -4 -26 -4q-28 0 -48 16q-8 8 -8 14zM546 688q0 168 10 342q8 150 20 300q12 148 24 286q2 50 30 50h6 q36 -4 46 -52q-22 -132 -38 -280q-14 -148 -22 -296q-16 -274 -2 -518t64 -370q2 -14 2 -24q0 -32 -14 -40q-20 -12 -48 -12q-64 164 -74 420q-4 96 -4 194z" />
<glyph unicode="&#xcf;" horiz-adv-x="1198" d="M30 1654q0 6 2 12q6 24 30 32h2q42 0 56 -20q16 -22 26 -44q16 -10 50 -16q36 -6 86 -10q92 -6 220 -8q126 -2 250 -4q156 -4 274 -14q118 -12 124 -44q2 -6 2 -12q0 -42 -80 -50q-90 -12 -136 -12q6 4 38 12t50 16q-90 8 -198 12l-220 8q-202 8 -370 28q-168 18 -196 76 q-10 20 -10 38zM158 48q0 22 50 28q72 -6 212 2q142 6 276 14q88 4 158 6h28q50 0 74 -6q50 -22 50 -50q0 -8 -4 -18q-18 -38 -84 -12q-36 10 -106 10q-70 -2 -152 -8q-124 -10 -246 -24q-82 -8 -132 -8q-22 0 -38 2q-58 6 -80 46q-6 10 -6 18zM438 1876v6q0 32 14 52 q16 22 44 22h2q34 0 58 -32q18 -26 18 -54q0 -10 -2 -18q-6 -32 -26 -42q-14 -8 -32 -8q-8 0 -18 2q-24 4 -40 18q-16 12 -18 54zM556 688q0 168 10 342q8 150 20 300q12 148 22 286q2 50 32 50h6q34 -4 46 -52q-22 -132 -38 -280t-24 -296q-16 -274 -2 -518t66 -370 q0 -14 2 -24q0 -32 -16 -40q-20 -12 -48 -12q-64 164 -74 420q-2 96 -2 194zM754 1838v2q2 36 8 58q6 20 34 20h12q26 -4 44 -16q16 -12 24 -38q2 -10 2 -18q0 -24 -16 -46q-22 -30 -52 -30q-22 0 -40 20q-16 18 -16 48z" />
<glyph unicode="&#xd0;" horiz-adv-x="1780" />
<glyph unicode="&#xd1;" horiz-adv-x="1304" d="M22 58q14 98 26 216q12 116 18 244q14 236 16 482q4 248 -6 450q-14 6 10 62q22 56 52 54q24 -12 26 -26t12 -32q-2 24 0 40q4 16 -4 36q6 58 40 68q36 10 84 -48q62 -122 126 -252q66 -130 132 -262q122 -244 250 -468q126 -224 258 -374q10 238 28 508q20 272 36 506 q10 126 18 236q8 108 12 190q0 10 14 10q12 0 34 -10q48 -18 64 -54q4 -10 4 -20v-4q0 -12 -10 -26q-10 -76 -44 -448q-32 -370 -72 -944q-8 -54 -42 -72q-34 -20 -56 6q-94 94 -202 256q-106 162 -208 340q-52 94 -102 186t-94 176q-84 156 -142 262q-56 106 -74 114 q-12 -204 -26 -460t-30 -498q-10 -130 -20 -248q-8 -120 -20 -216q2 -40 -44 -44h-4q-44 0 -60 64zM500 1824v2q0 50 42 98q38 42 88 42q10 0 22 -2q50 -8 74 -68q24 -58 64 -86q20 -16 50 -14q28 4 74 38q16 12 42 0q26 -10 26 -24q0 -2 -2 -4q0 -6 -12 -12q-10 -6 -34 -8 q-50 -40 -88 -46q-12 -2 -24 -2q-24 0 -42 8q-54 26 -84 84t-56 60q-30 2 -52 -20q-22 -24 -24 -52q-6 -46 -34 -38q-28 10 -30 44z" />
<glyph unicode="&#xd2;" horiz-adv-x="1398" d="M38 566q0 94 18 186q22 118 70 226q90 202 260 362t398 246q28 10 74 10q44 -2 56 -22q6 -10 2 -22t-20 -30q-202 -22 -370 -168q-170 -148 -268 -356q-54 -112 -82 -234q-26 -124 -24 -246q2 -76 26 -140q24 -66 64 -120q76 -100 198 -154q120 -54 258 -44q68 4 136 30 t130 68q118 78 200 202q84 124 94 264q20 224 -44 390t-172 280q-132 140 -298 208q-168 68 -304 76q-74 6 -132 -6q-58 -10 -90 -36q-28 -24 -40 -54t-10 -62q2 -34 16 -70q16 -36 42 -68q46 -64 114 -110q70 -48 132 -60q-84 2 -152 34q-70 30 -120 78q-92 90 -112 204 q-18 116 60 180q110 88 258 88q34 0 68 -6q194 -22 378 -140q100 -64 188 -150q90 -86 158 -190q82 -128 126 -276q30 -104 30 -214q0 -46 -6 -94q-22 -204 -122 -338q-98 -136 -228 -208q-70 -38 -144 -60t-144 -28q-34 -4 -68 -4q-62 0 -118 10q-90 14 -164 48 q-140 64 -226 184q-86 122 -94 280q-2 28 -2 56zM572 1978q0 30 38 42q14 4 24 4q24 0 16 -28q4 -40 78 -102t92 -58q10 2 6 14q-2 10 2 18q42 -6 50 -36q2 -8 2 -16q0 -18 -14 -30q-20 -12 -42 -12q-26 0 -54 14q-60 26 -110 70q-28 26 -50 52q-22 24 -34 46q-4 12 -4 22z " />
<glyph unicode="&#xd3;" horiz-adv-x="1380" d="M40 566q0 94 18 186q22 118 72 226q88 202 258 362t398 246q30 10 74 10q46 -2 58 -22q4 -10 2 -22q-4 -12 -22 -30q-200 -22 -370 -168q-170 -148 -268 -356q-52 -112 -80 -234q-28 -124 -24 -246q4 -140 78 -244q76 -106 190 -162q62 -30 132 -44t144 -8q126 8 250 86 q122 78 204 196q44 62 74 134q28 72 34 148q18 224 -46 390t-172 280q-70 76 -154 130t-168 88q-160 64 -300 68q-142 4 -200 -44q-30 -24 -42 -54t-10 -62q4 -64 52 -128q48 -66 112 -114q34 -24 70 -42q38 -18 72 -24q-84 2 -154 34q-68 30 -118 78q-94 90 -112 204 q-20 116 60 180q108 88 258 88q32 0 68 -6q192 -22 376 -140q100 -64 190 -150q88 -86 156 -190q84 -128 126 -276q30 -104 30 -214q0 -46 -4 -94q-12 -110 -48 -200t-90 -160q-98 -130 -234 -196q-136 -68 -266 -78q-36 -4 -72 -4q-140 0 -256 50q-148 60 -236 174 q-46 62 -74 138q-28 74 -34 160q-2 28 -2 56zM570 1822q0 10 4 20q10 28 52 32q4 -8 0 -18q-4 -12 6 -14q18 -6 94 52q78 58 86 98q-6 26 14 26q10 0 26 -4q36 -14 36 -42q0 -12 -6 -24q-14 -22 -38 -46q-22 -24 -52 -46q-52 -42 -112 -66q-28 -10 -50 -10q-26 0 -46 16 q-14 10 -14 26z" />
<glyph unicode="&#xd4;" horiz-adv-x="1382" d="M36 510v56q0 94 16 186q22 118 72 226q88 202 258 362t398 246q30 10 74 10q46 -2 58 -22q6 -10 2 -22t-20 -30q-202 -22 -372 -168q-170 -148 -268 -356q-52 -112 -80 -234q-28 -124 -24 -246q2 -76 26 -140q24 -66 64 -120q76 -100 196 -154q122 -54 258 -44 q68 4 136 30t132 68q116 78 200 202q82 124 94 264q18 224 -46 390t-172 280q-70 76 -154 130q-82 54 -168 88q-160 64 -300 68q-142 4 -200 -44q-30 -24 -42 -54t-10 -62q4 -64 52 -128q48 -66 112 -114q34 -24 70 -42q38 -18 72 -24q-84 2 -154 34q-68 30 -118 78 q-94 90 -112 204q-20 116 60 180q108 88 258 88q32 0 68 -6q192 -22 378 -140q98 -64 188 -150q88 -86 156 -190q84 -128 126 -276q30 -104 32 -214q0 -46 -6 -94q-22 -204 -122 -338q-100 -136 -230 -208q-70 -38 -142 -60q-74 -22 -144 -28q-36 -4 -70 -4q-60 0 -118 10 q-88 14 -162 48q-142 64 -226 184q-86 122 -96 280zM542 1800q0 16 48 26q52 48 100 126q48 76 78 82q4 2 8 2q30 0 60 -48q32 -52 68 -108q22 -14 22 -28q-2 -10 -18 -22q-38 -22 -52 8q-16 24 -44 64q-26 40 -40 50q-14 -6 -36 -50q-22 -46 -52 -84q-12 -16 -28 -28 q-14 -12 -30 -18q-16 -4 -28 -4q-28 0 -46 18q-10 6 -10 14z" />
<glyph unicode="&#xd5;" horiz-adv-x="1364" d="M26 566q0 94 18 186q22 118 70 226q90 202 260 362t398 246q28 10 74 10q44 -2 58 -22q4 -10 0 -22t-20 -30q-200 -22 -370 -168q-170 -148 -268 -356q-54 -112 -80 -234q-28 -124 -24 -246q2 -76 26 -140q22 -66 64 -120q74 -100 196 -154t258 -44q126 8 248 86 q124 78 206 196q44 62 72 134t36 148q18 224 -46 390t-172 280q-132 140 -298 208q-168 68 -304 76q-74 6 -132 -6q-58 -10 -90 -36q-28 -24 -40 -54t-10 -62q4 -64 52 -128q46 -66 112 -114q34 -24 70 -42t70 -24q-82 2 -152 34q-68 30 -118 78q-94 90 -114 204 q-18 116 62 180q108 88 256 88q34 0 68 -6q194 -22 378 -140q100 -64 188 -150q90 -86 158 -190q84 -128 126 -276q30 -104 30 -214q0 -46 -4 -94q-24 -204 -122 -338q-100 -136 -230 -208q-70 -38 -144 -60q-72 -22 -142 -28q-36 -4 -70 -4q-62 0 -118 10q-88 14 -164 48 q-140 64 -226 184q-86 122 -94 280q-2 28 -2 56zM512 1846q0 28 12 60q22 62 82 74q10 2 20 2q38 2 72 -36q44 -44 90 -56q24 -6 48 8q26 12 54 60q10 16 40 16q30 -2 30 -16v-2q0 -6 -6 -14q-8 -10 -28 -20q-30 -54 -62 -74q-32 -18 -64 -18q-56 4 -104 44q-48 42 -72 36 q-28 -8 -40 -38q-10 -28 -4 -54q12 -44 -16 -46h-6q-24 0 -36 28q-10 20 -10 46z" />
<glyph unicode="&#xd6;" horiz-adv-x="1358" d="M24 566q0 94 16 186q24 118 72 226q90 202 260 362t398 246q28 10 72 10q46 -2 58 -22q6 -10 2 -22t-20 -30q-202 -22 -372 -168q-170 -148 -268 -356q-52 -112 -80 -234q-28 -124 -24 -246q2 -76 26 -140q24 -66 64 -120q76 -100 196 -154q122 -54 260 -44q66 4 136 30 q68 26 130 68q116 78 200 202q82 124 94 264q18 224 -44 390q-64 166 -174 280q-130 140 -298 208q-166 68 -304 76q-72 6 -130 -6q-58 -10 -90 -36q-30 -24 -42 -54t-10 -62q4 -64 52 -128q48 -66 112 -114q34 -24 72 -42q36 -18 70 -24q-84 2 -152 34q-70 30 -120 78 q-92 90 -112 204q-20 116 60 180q108 88 258 88q32 0 68 -6q192 -22 378 -140q98 -64 188 -150t158 -190q82 -128 126 -276q30 -104 30 -214q0 -46 -6 -94q-22 -204 -122 -338q-100 -136 -230 -208q-68 -38 -142 -60t-144 -28q-36 -4 -70 -4q-60 0 -116 10q-90 14 -164 48 q-140 64 -226 184q-86 122 -94 280q-2 28 -2 56zM480 1852q0 22 14 44q22 30 52 30q24 0 40 -18q16 -20 16 -52q-2 -34 -8 -58q-6 -18 -30 -18h-4h-12q-26 2 -44 14q-16 12 -22 40q-2 8 -2 18zM806 1878q0 10 2 18q6 32 26 42q14 8 32 8q8 0 18 -2q22 -4 38 -18 q16 -12 18 -54v-6q0 -32 -14 -52q-16 -22 -42 -22h-2q-34 0 -58 32q-18 26 -18 54z" />
<glyph unicode="&#xd7;" horiz-adv-x="1004" d="M54 950q0 20 8 46q10 38 32 42q0 2 2 2q8 0 18 -8q12 -8 24 -28q10 -38 36 -82q26 -46 64 -96q70 -94 170 -198t202 -200q106 -98 202 -180q96 -80 152 -124q-162 88 -340 208q-178 118 -324 264q-78 78 -142 160q-62 84 -102 174q-2 8 -2 20zM74 196q-2 28 20 70 q32 60 64 110q0 -6 -18 -52q-16 -44 -12 -56q68 58 142 136q76 80 152 166q140 162 268 310q128 150 196 190q12 8 26 8q20 0 44 -16q16 -10 18 -22q0 -16 -34 -34q-80 -72 -166 -164t-170 -188q-54 -62 -106 -122t-98 -114q-88 -102 -152 -174q-66 -72 -92 -86 q-20 -4 -34 -4q-10 0 -18 2q-20 6 -26 18q-4 10 -4 22z" />
<glyph unicode="&#xd8;" horiz-adv-x="1374" d="M30 510v58q0 198 74 380q86 208 248 368q88 86 194 154t228 116q30 10 74 10q46 -2 58 -22q6 -10 2 -22t-20 -30q-202 -22 -372 -168q-170 -148 -268 -356q-52 -112 -80 -234q-28 -124 -24 -246q2 -76 26 -140q24 -66 64 -120q76 -100 196 -154q122 -54 258 -44 q68 4 136 30q70 26 132 68q116 78 200 202q82 124 94 264q18 224 -46 390q-62 166 -172 280q-70 76 -154 130q-82 54 -168 88q-158 64 -300 68t-200 -44q-30 -24 -42 -54t-10 -62q2 -34 18 -70t40 -68q48 -64 116 -110q68 -48 132 -60q-84 2 -152 34q-70 30 -120 78 q-94 90 -112 204q-20 116 60 180q108 88 258 88q32 0 68 -6q192 -22 378 -140q98 -64 188 -150q88 -86 156 -190q84 -128 126 -276q32 -104 32 -214q0 -46 -6 -94q-22 -204 -122 -338q-100 -136 -230 -208q-68 -38 -142 -60t-144 -28q-36 -4 -70 -4q-60 0 -118 10 q-88 14 -162 48q-140 64 -226 184q-86 122 -96 280zM156 -256q0 10 2 24q30 80 76 182q46 104 102 218q104 214 234 456q130 240 258 460q106 180 204 332q96 150 166 244q6 34 38 34q8 0 18 -2q32 -8 30 -46q0 -18 -8 -44q-86 -106 -184 -254q-98 -150 -198 -318 q-120 -202 -234 -414q-116 -210 -206 -386q-48 -94 -86 -172q-40 -80 -66 -138q16 0 14 -18q-2 -16 -8 -36q-38 -56 -50 -98t-26 -64q-12 -10 -28 -10q-12 0 -26 8q-22 14 -22 42z" />
<glyph unicode="&#xd9;" horiz-adv-x="1022" d="M46 792v68q4 182 18 362q12 180 24 330q-4 26 2 40q4 14 14 18q26 10 70 -40q44 -52 36 -94q-20 -128 -42 -306q-22 -176 -28 -356q-4 -94 -2 -184t12 -170q20 -148 76 -244q54 -98 160 -100q64 -2 120 22t104 68q88 84 150 222q60 140 94 298q24 104 36 210t14 202 q4 180 -24 304q-28 122 -84 122q-68 -2 -94 -72q-28 -68 -2 -156q14 -48 44 -94t78 -84q-54 20 -96 54q-40 34 -66 76q-28 44 -42 92t-14 94q0 86 46 148q48 64 134 66h2q106 0 158 -144t54 -356v-4q0 -112 -14 -234q-16 -124 -44 -246q-24 -100 -56 -196q-32 -94 -74 -178 q-78 -154 -186 -250q-104 -90 -232 -92q-8 0 -14 2q-76 2 -130 40t-92 104q-70 120 -92 314q-18 164 -18 344z" />
<glyph unicode="&#xda;" horiz-adv-x="1014" d="M50 792v68q4 182 16 362q14 180 24 330q-2 26 2 40q6 14 14 18q28 10 72 -40q42 -52 34 -94q-20 -128 -40 -306q-22 -176 -30 -356q-4 -94 -2 -184q4 -90 14 -170q20 -148 74 -244q56 -98 160 -100q66 -2 122 22t104 68q88 84 148 222q60 140 96 298q22 104 34 210 t16 202q4 180 -24 304q-28 122 -84 122q-70 -2 -96 -72q-26 -68 -2 -156q14 -48 44 -94t78 -84q-54 20 -94 54t-68 76q-28 44 -42 92t-14 94q2 86 48 148q46 64 134 66h2q106 0 158 -144t52 -356v-4q0 -112 -14 -234q-14 -124 -42 -246q-24 -100 -58 -196q-32 -94 -74 -178 q-78 -154 -186 -250q-102 -90 -230 -92q-8 0 -16 2q-74 2 -130 40q-54 38 -92 104q-70 120 -90 314q-18 164 -18 344zM338 1750q0 8 4 18q8 28 50 36q4 -8 0 -20q-2 -12 6 -14q18 -4 92 58t80 102q-8 28 14 28q10 0 24 -4q38 -10 38 -42q0 -10 -2 -20q-14 -22 -36 -48 t-50 -50q-50 -46 -108 -72q-30 -14 -54 -14q-24 2 -42 14q-14 10 -16 28z" />
<glyph unicode="&#xdb;" horiz-adv-x="1012" d="M26 792v68q4 182 18 362l22 330q-2 26 4 40q4 14 14 18q26 10 70 -40q44 -52 36 -94q-20 -128 -42 -306q-22 -176 -28 -356q-4 -94 -2 -184t12 -170q20 -148 76 -244q54 -98 160 -100q64 -2 120 22t104 68q88 84 148 222q62 140 96 298q22 104 36 210q12 106 14 202 q4 180 -24 304q-28 122 -84 122q-68 -2 -96 -72q-26 -68 0 -156q14 -48 44 -94t78 -84q-54 20 -96 54q-40 34 -66 76q-30 44 -42 92q-14 48 -14 94q0 86 46 148q46 64 134 66h2q106 0 158 -144t52 -356q2 -2 2 -4q0 -112 -16 -234q-14 -124 -42 -246q-24 -100 -56 -196 q-32 -94 -74 -178q-78 -154 -186 -250q-104 -90 -232 -92q-8 0 -14 2q-76 2 -130 40t-92 104q-70 120 -92 314q-18 164 -18 344zM308 1746q0 14 44 32q44 56 80 140t64 94q6 2 14 2q26 0 60 -38q40 -46 84 -96q26 -12 26 -26q0 -10 -16 -22q-34 -30 -50 -2q-22 22 -54 56 q-32 36 -46 44q-14 -8 -28 -56q-16 -46 -40 -90q-10 -18 -22 -32q-14 -14 -30 -22q-20 -8 -38 -8q-20 0 -36 10q-10 6 -12 14z" />
<glyph unicode="&#xdc;" horiz-adv-x="1054" d="M40 792q0 34 2 68q2 182 16 362t24 330q-2 26 2 40t14 18q26 10 70 -40q44 -52 36 -94q-20 -128 -42 -306q-22 -176 -28 -356q-4 -94 -2 -184t14 -170q18 -148 74 -244q54 -98 160 -100q64 -2 120 22t104 68q88 84 150 222q60 140 94 298q24 104 36 210t14 202 q4 180 -24 304q-28 122 -84 122q-68 -2 -94 -72q-28 -68 -2 -156q14 -48 44 -94t78 -84q-54 20 -96 54q-40 34 -66 76q-52 80 -56 172q-2 90 40 154q22 32 58 54q36 20 84 20h2q104 0 156 -144t54 -356v-4q0 -112 -14 -234q-14 -124 -44 -246q-22 -100 -56 -196 q-32 -94 -74 -178q-78 -154 -186 -250q-102 -90 -232 -92q-6 0 -14 2q-76 2 -130 40t-92 104q-70 120 -92 314q-18 164 -18 344zM318 1884v8q2 40 18 54q16 12 40 16q8 2 18 2q18 0 32 -8q18 -10 26 -42q8 -38 -18 -72q-22 -30 -52 -32h-4h-2q-28 0 -44 22q-14 20 -14 52z M582 1874v4q0 30 16 48q18 18 42 18q30 0 50 -30q16 -22 16 -44q0 -10 -2 -18q-6 -28 -24 -40q-18 -10 -44 -14h-10q-30 -2 -36 18q-6 24 -8 58z" />
<glyph unicode="&#xdf;" horiz-adv-x="1074" d="M30 848q10 -64 110 -36q100 30 232 114q70 46 142 104q74 58 140 122q100 96 172 198t82 188q6 44 -10 84q-16 38 -58 66q-30 20 -62 20q-68 0 -146 -90q-116 -136 -212 -468q-50 -178 -92 -414t-66 -530q-18 -20 -22 -32t0 -20q10 -16 48 -4t44 44q40 450 124 774 q84 326 170 488q44 88 86 124q40 36 68 14q24 -20 24 -52q-2 -32 -22 -72q-36 -78 -122 -172q-84 -96 -180 -184q-120 -112 -222 -184q-102 -74 -104 -56q-8 40 90 44q100 4 232 -40q70 -24 144 -64q72 -40 136 -98q78 -70 132 -168q54 -100 64 -232q6 -76 -14 -136 q-20 -58 -58 -102q-70 -80 -186 -104q-114 -22 -224 10q-30 68 -64 44q-32 -22 -10 -64q6 -14 22 -26q16 -14 42 -26q78 -30 156 -34h22q66 0 126 18q132 36 218 148q74 92 74 224q0 24 -2 48q-16 168 -88 288q-72 118 -172 196q-82 64 -174 102q-94 38 -186 54 q-168 32 -292 -2q-112 -30 -112 -94v-12z" />
<glyph unicode="&#xe0;" horiz-adv-x="842" d="M18 284q0 96 26 208q32 138 98 272q64 134 142 220q44 46 88 74q46 26 92 28h6q114 0 168 -82q56 -86 76 -156q-6 -58 -30 -52q-26 6 -14 56q-22 74 -70 114t-116 36q-76 -6 -158 -116q-82 -112 -140 -258q-46 -114 -72 -230q-24 -116 -14 -196q6 -44 24 -72t50 -36 q106 -26 190 80q84 104 136 250q34 98 54 198q20 98 20 172q12 46 60 2q46 -42 50 -88q-4 -46 -4 -108q-2 -62 -2 -130q2 -122 18 -234q18 -110 60 -134t76 -12q32 14 52 40q34 20 34 -16v-4q-2 -40 -26 -62q-34 -32 -82 -36q-46 -2 -94 34q-20 16 -36 48t-28 74 q-22 76 -34 164q-10 88 -12 136q-2 -16 -12 -46q-8 -30 -24 -68q-28 -70 -78 -150q-48 -82 -116 -136q-44 -36 -96 -54q-30 -10 -64 -10q-22 0 -44 4q-122 24 -146 166q-8 52 -8 110zM378 1370q0 32 40 44q14 4 22 4q24 0 16 -28q6 -42 78 -102q74 -62 94 -58q8 2 4 12 q-2 12 2 20q42 -6 50 -36q2 -10 2 -18q0 -16 -14 -28q-18 -12 -42 -12t-54 12q-58 28 -110 72q-26 24 -48 50q-24 26 -36 48q-4 12 -4 20z" />
<glyph unicode="&#xe1;" horiz-adv-x="932" d="M18 284q0 96 26 208q32 138 98 272q64 134 142 220q44 46 88 74q46 26 92 28h6q114 0 168 -82q56 -86 76 -156q-6 -58 -30 -52q-26 6 -14 56q-22 74 -70 114t-116 36q-76 -6 -158 -116q-82 -112 -140 -258q-46 -114 -72 -230q-24 -116 -14 -196q6 -44 24 -72t50 -36 q106 -26 190 80q84 104 136 250q34 98 54 198q20 98 20 172q12 46 60 2q46 -42 50 -88q-4 -46 -4 -108q-2 -62 -2 -130q2 -122 18 -234q18 -110 60 -134t76 -12q32 14 52 40q34 20 34 -16v-4q-2 -40 -26 -62q-34 -32 -82 -36q-46 -2 -94 34q-20 16 -36 48t-28 74 q-22 76 -34 164q-10 88 -12 136q-2 -16 -12 -46q-8 -30 -24 -68q-28 -70 -78 -150q-48 -82 -116 -136q-44 -36 -96 -54q-30 -10 -64 -10q-22 0 -44 4q-122 24 -146 166q-8 52 -8 110zM310 1260q0 8 2 16q8 30 50 36q4 -6 2 -18q-4 -12 4 -14q20 -4 94 58q72 62 78 102 q-8 28 16 28q8 0 22 -4q40 -12 40 -42q0 -10 -4 -20q-12 -22 -36 -48q-22 -26 -48 -50q-52 -46 -110 -72q-30 -14 -54 -14t-42 14q-14 10 -14 28z" />
<glyph unicode="&#xe2;" horiz-adv-x="938" d="M18 280q0 98 26 210q32 138 98 272q64 134 142 220q44 46 88 74q46 26 92 28h6q114 0 168 -82q56 -86 76 -156q-6 -58 -30 -52q-26 6 -14 56q-22 72 -70 114q-48 40 -116 36q-76 -6 -158 -116q-82 -112 -140 -258q-26 -62 -44 -126q-20 -64 -30 -122q-22 -110 -10 -190 q12 -82 72 -96q70 -18 132 28q60 44 110 122q72 118 114 278t44 272q12 46 60 2q46 -44 50 -88q-4 -46 -4 -108q-2 -62 -2 -130q2 -122 18 -234q18 -110 60 -134t76 -12q32 14 52 40q34 18 34 -16v-4q-2 -42 -26 -62q-34 -32 -82 -36q-46 -2 -94 34q-20 14 -36 48 q-16 32 -28 74q-22 76 -34 164q-10 88 -12 136q-2 -18 -12 -48q-8 -28 -24 -66q-28 -70 -78 -150q-48 -82 -116 -136q-44 -36 -96 -54q-30 -10 -64 -10q-22 0 -44 4q-122 22 -146 166q-8 52 -8 108zM258 1170q-2 16 50 22q56 42 114 114q56 72 86 74h4q32 0 58 -54 q28 -54 56 -116q18 -14 18 -26t-20 -22q-42 -20 -50 12q-16 26 -38 68q-22 44 -32 54q-16 -4 -42 -46q-28 -42 -62 -76q-14 -14 -30 -26q-16 -10 -34 -12q-8 -2 -18 -2q-32 0 -54 22q-6 8 -6 14z" />
<glyph unicode="&#xe3;" horiz-adv-x="924" d="M18 284q0 96 26 208q32 138 98 272q64 134 142 220q44 46 88 74q46 26 92 28h6q114 0 168 -82q56 -86 76 -156q-6 -58 -30 -52q-26 6 -14 56q-22 74 -70 114t-116 36q-76 -6 -158 -116q-82 -112 -140 -258q-46 -114 -72 -230q-24 -116 -14 -196q6 -44 24 -72t50 -36 q106 -26 190 80q84 104 136 250q34 98 54 198q20 98 20 172q12 46 60 2q46 -42 50 -88q-4 -46 -4 -108q-2 -62 -2 -130q2 -122 18 -234q18 -110 60 -134t76 -12q32 14 52 40q34 20 34 -16v-4q-2 -40 -26 -62q-34 -32 -82 -36q-46 -2 -94 34q-20 16 -36 48t-28 74 q-22 76 -34 164q-10 88 -12 136q-2 -16 -12 -46q-8 -30 -24 -68q-28 -70 -78 -150q-48 -82 -116 -136q-44 -36 -96 -54q-30 -10 -64 -10q-22 0 -44 4q-122 24 -146 166q-8 52 -8 110zM252 1226q0 32 16 70q26 58 88 68h12q42 0 78 -42q40 -48 82 -64q24 -8 52 4q26 10 58 54 q10 16 40 14q28 -4 30 -20q0 -6 -8 -14t-30 -18q-34 -52 -68 -68q-34 -18 -64 -12q-58 6 -102 52t-68 40q-30 -6 -42 -34q-14 -28 -10 -54q8 -44 -20 -44t-38 32q-6 16 -6 36z" />
<glyph unicode="&#xe4;" horiz-adv-x="922" d="M18 284q0 96 26 208q32 138 98 272q64 134 142 220q44 46 88 74q46 26 92 28h6q114 0 168 -82q56 -86 76 -156q-6 -58 -30 -52q-26 6 -14 56q-22 74 -70 114t-116 36q-62 -4 -126 -78t-120 -180q-28 -58 -54 -120q-26 -64 -44 -126q-44 -148 -42 -266q2 -120 76 -138 q106 -26 190 80q84 104 136 250q34 98 54 198q20 98 20 172q12 46 60 2q46 -42 50 -88q-4 -46 -4 -108q-2 -62 -2 -130q2 -122 18 -234q18 -110 60 -134t76 -12q32 14 52 40q34 20 34 -16v-4q-2 -40 -26 -62q-34 -32 -82 -36q-46 -2 -94 34q-20 16 -36 48t-28 74 q-22 76 -34 164q-10 88 -12 136q-2 -16 -12 -46q-8 -30 -24 -68q-28 -70 -78 -150q-48 -82 -116 -136q-44 -36 -96 -54q-30 -10 -64 -10q-22 0 -44 4q-122 24 -146 166q-8 52 -8 110zM286 1276q0 24 16 46q20 30 50 30q24 -2 40 -20q18 -18 16 -50q0 -36 -6 -58 q-6 -18 -30 -20h-4h-12q-26 4 -44 16t-24 38q-2 10 -2 18zM552 1274v16q8 30 26 40q12 6 30 6h16q22 -4 36 -16q16 -14 18 -52v-6q0 -30 -14 -48q-14 -20 -40 -22h-2q-32 0 -54 32q-16 24 -16 50z" />
<glyph unicode="&#xe5;" horiz-adv-x="928" d="M18 284q0 96 26 208q32 138 98 272q64 134 142 220q44 46 88 74q46 26 92 28h6q114 0 168 -82q56 -86 76 -156q-6 -58 -30 -52q-26 6 -14 56q-22 74 -70 114t-116 36q-76 -6 -158 -116q-82 -112 -140 -258q-26 -62 -44 -126q-20 -62 -30 -122q-22 -110 -10 -190t72 -96 q106 -26 190 80q84 104 136 250q34 98 54 198q20 98 20 172q12 46 60 2q46 -42 50 -88q-4 -46 -4 -108q-2 -62 -2 -130q2 -122 18 -234q18 -110 60 -134t76 -12q32 14 52 40q34 20 34 -16v-4q-2 -40 -26 -62q-34 -32 -82 -36q-46 -2 -94 34q-20 16 -36 48t-28 74 q-22 76 -34 164q-10 88 -12 136q-4 -32 -32 -104q-26 -72 -74 -148q-26 -42 -56 -80q-32 -38 -68 -68q-44 -36 -96 -54q-30 -10 -64 -10q-22 0 -44 4q-122 24 -146 166q-8 52 -8 110zM354 1344q0 46 42 82q30 24 70 14t60 -28q16 -2 0 -38q-16 -38 -32 -24q-14 22 -32 30 q-18 6 -26 -4q-30 -28 -16 -66q12 -38 60 -42q52 -4 72 48q18 50 -6 96q-8 16 -20 28q-14 12 -34 18q-6 4 -20 -2q-12 -6 -16 -20q-8 12 8 46q16 30 38 30h2q22 -2 40 -12q16 -8 30 -24q34 -42 34 -110v-14q-4 -76 -50 -118q-16 -12 -36 -20q-14 -6 -34 -6h-8q-84 6 -116 84 q-10 28 -10 52z" />
<glyph unicode="&#xe6;" horiz-adv-x="1306" d="M20 284q0 98 26 210q32 138 96 272t144 220q42 46 88 74q44 26 90 28h8q112 0 168 -82q56 -86 76 -156q-6 -58 -32 -52q-24 6 -12 56q-24 72 -72 112q-46 42 -116 38q-76 -6 -156 -116q-82 -112 -140 -258q-26 -62 -46 -126q-18 -64 -30 -122q-20 -110 -8 -190 q12 -82 70 -96q106 -26 190 80q84 104 136 250q36 98 56 196q18 100 20 174q12 46 58 2t50 -88q-2 -18 -6 -40q-2 -20 -6 -42q-18 -88 -40 -154q-22 -68 -26 -6q-4 -30 -30 -102q-28 -72 -76 -150q-10 -16 -22 -34q-16 -22 -34 -44q-30 -38 -66 -68q-46 -36 -96 -54 q-32 -10 -66 -10q-22 0 -44 4q-120 22 -144 166q-8 52 -8 108zM428 550q0 32 22 40q10 4 26 0q14 -6 34 -22q134 -32 246 -18q114 14 202 56q58 28 102 62q46 36 78 74q58 70 66 138t-46 98q-54 32 -152 -36q-96 -68 -188 -184q-72 -92 -128 -200q-56 -106 -70 -202 q-10 -52 -2 -98q6 -44 30 -80q38 -52 90 -78t110 -32q108 -10 220 38q110 48 168 116q16 58 44 26t-4 -76q-64 -74 -190 -132q-106 -48 -214 -48q-20 0 -40 2q-68 6 -130 36q-62 32 -108 96q-36 50 -48 110q-12 62 -6 130q8 94 48 192q40 100 100 190q38 58 84 110 q44 50 92 92q90 76 182 106q38 12 72 12q50 0 94 -26q78 -46 82 -132v-10q0 -82 -58 -166q-32 -48 -84 -92q-50 -44 -116 -82q-102 -56 -240 -82q-136 -28 -304 -6q-52 -2 -62 52q-2 14 -2 26z" />
<glyph unicode="&#xe7;" horiz-adv-x="896" d="M26 448q0 60 14 126q22 96 66 180q46 84 110 148q118 120 286 162q60 14 122 14q112 0 232 -48q30 -20 30 -50q0 -12 -6 -26q-16 -48 -36 -8q-86 44 -172 50q-84 6 -160 -16q-144 -42 -250 -160q-104 -116 -138 -254q-44 -176 22 -288q68 -114 178 -168q60 -28 126 -40 t126 -6q40 2 74 24q36 20 38 52q2 22 18 26t26 -24q4 -46 -36 -90t-100 -50q-40 -6 -78 -6q-122 0 -230 48q-140 64 -210 190q-38 68 -48 154q-4 30 -4 60z" />
<glyph unicode="&#xe8;" horiz-adv-x="926" d="M8 478q0 22 12 32q8 6 20 2q12 -2 28 -16q150 -12 266 22q116 32 196 90q54 38 92 82t62 90q44 82 36 154q-6 70 -66 92q-58 20 -142 -64q-82 -84 -152 -214q-56 -102 -90 -218q-36 -114 -34 -210q0 -52 16 -96q14 -44 44 -74q46 -44 100 -62q56 -16 114 -10 q108 10 208 76t146 144q6 58 40 32q20 -14 20 -38q0 -16 -10 -36q-26 -46 -74 -92q-46 -44 -106 -82q-110 -68 -244 -82h-30q-116 0 -208 90q-44 42 -68 100q-22 58 -28 124q-8 94 14 200q22 104 64 202q52 118 126 216q76 96 158 142q44 26 90 32q12 2 26 2q30 0 62 -12 q84 -32 104 -120q20 -90 -24 -194q-24 -54 -68 -110q-42 -56 -102 -106q-92 -74 -228 -122q-136 -50 -312 -48q-36 -10 -52 44q-6 22 -6 38zM448 1408q-2 32 38 44q14 4 22 4q24 -2 16 -30q6 -40 80 -102q72 -60 92 -58q8 2 6 14q-4 12 0 20q42 -6 50 -36q4 -10 2 -18 q0 -18 -14 -28q-18 -12 -42 -12t-54 12q-58 28 -108 72q-28 24 -50 50t-36 48q-2 12 -2 20z" />
<glyph unicode="&#xe9;" horiz-adv-x="930" d="M8 478q0 22 12 32q8 6 20 2q12 -2 28 -16q150 -12 266 22q116 32 196 90q54 38 92 82t62 90q44 82 36 154q-6 70 -66 92q-58 20 -142 -64q-82 -84 -152 -214q-56 -102 -90 -218q-36 -114 -34 -210q0 -52 16 -96q14 -44 44 -74q46 -44 100 -62q56 -16 114 -10 q108 10 208 76t146 144q6 58 40 32q20 -14 20 -38q0 -16 -10 -36q-50 -84 -164 -162q-114 -80 -240 -92q-18 -2 -36 -2q-50 0 -100 16q-66 18 -122 74q-44 42 -68 100q-22 58 -28 124q-8 94 14 200q22 104 64 202q28 64 64 122q34 60 74 108q74 90 160 136q50 26 98 26 q34 0 66 -12q46 -16 72 -52q28 -36 36 -82q14 -86 -36 -196q-50 -108 -162 -200q-92 -74 -228 -122q-136 -50 -312 -48q-36 -10 -52 44q-6 22 -6 38zM460 1282q0 8 2 16q8 30 50 36q4 -8 2 -18q-4 -12 4 -14q20 -4 94 58q72 62 78 102q-8 28 16 28q8 0 22 -4q40 -12 40 -42 q0 -10 -4 -20q-12 -22 -34 -48q-24 -26 -50 -52q-52 -44 -110 -70q-30 -14 -54 -14t-42 14q-14 10 -14 28z" />
<glyph unicode="&#xea;" horiz-adv-x="940" d="M8 478q0 22 12 32q8 6 20 2q12 -2 28 -16q150 -12 266 22q116 32 196 90q54 38 92 82t62 90q44 82 36 154q-6 70 -66 92q-58 20 -142 -64q-82 -84 -152 -214q-30 -54 -54 -116q-26 -60 -42 -118q-32 -112 -28 -210t60 -154q46 -44 100 -62q56 -16 114 -10q108 10 208 76 t146 144q6 58 40 32q20 -14 20 -38q0 -16 -10 -36q-26 -46 -74 -92q-46 -44 -106 -82q-110 -68 -244 -82h-30q-116 0 -208 90q-44 42 -68 100q-22 58 -28 124q-8 94 14 200q22 104 64 202q52 118 126 216q76 96 158 142q44 26 90 32q12 2 26 2q30 0 62 -12q84 -32 104 -120 q20 -90 -24 -194q-24 -54 -68 -110q-42 -56 -102 -106q-92 -74 -228 -122q-136 -50 -312 -48q-36 -10 -52 44q-6 22 -6 38zM392 1166q0 16 42 34q46 54 80 138q36 84 66 94q6 2 12 2q28 0 60 -36q42 -46 84 -98q26 -10 26 -24q0 -12 -14 -24q-34 -28 -52 0q-20 20 -54 56 q-32 34 -46 44q-14 -8 -28 -56t-38 -90q-12 -18 -24 -34q-12 -14 -28 -20q-20 -10 -40 -10q-18 0 -36 10q-10 8 -10 14z" />
<glyph unicode="&#xeb;" horiz-adv-x="924" d="M8 478q0 22 12 32q8 6 20 2q12 -2 28 -16q150 -12 266 22q116 32 196 90q54 38 92 82t62 90q44 82 36 154q-6 70 -66 92q-58 20 -142 -64q-82 -84 -152 -214q-56 -102 -90 -218q-36 -114 -34 -210q0 -52 16 -96q14 -44 44 -74q46 -44 100 -62q56 -16 114 -10 q108 10 208 76t146 144q6 58 40 32q20 -14 20 -38q0 -16 -10 -36q-26 -46 -74 -92q-46 -44 -106 -82q-110 -68 -244 -82h-30q-116 0 -208 90q-44 42 -68 100q-22 58 -28 124q-8 94 14 200q22 104 64 202q28 64 64 122q34 60 74 108q74 90 160 136q50 26 98 26q34 0 66 -12 q84 -32 104 -120q20 -90 -24 -194q-24 -54 -68 -110q-42 -56 -102 -106q-92 -74 -228 -122q-136 -50 -312 -48q-36 -10 -52 44q-6 22 -6 38zM410 1310q0 24 16 46q20 30 52 30q22 0 40 -20q16 -18 16 -50q-2 -36 -8 -58q-6 -20 -32 -20h-2q-6 0 -12 2q-26 2 -44 14 q-16 12 -24 40q-2 8 -2 16zM706 1294q0 8 2 18q6 28 24 38q12 6 30 6q6 0 14 -2q22 -2 36 -14q16 -12 16 -50v-8q0 -28 -12 -46q-14 -20 -38 -20h-4q-30 0 -52 30q-16 22 -16 48z" />
<glyph unicode="&#xec;" horiz-adv-x="344" d="M16 1352q0 32 38 42q14 6 24 6q24 -2 16 -30q4 -40 78 -102q74 -60 92 -58q10 2 6 14t0 20q42 -6 52 -36q8 -30 -12 -46q-10 -6 -22 -10q-10 -2 -22 -2q-24 -2 -54 12q-58 28 -108 72q-28 24 -50 50t-34 48q-4 12 -4 20zM62 266v20q0 46 2 94l8 116q10 114 24 214 q14 98 26 154q6 52 34 52q10 0 24 -8q48 -30 36 -94q-8 -20 -22 -108q-14 -90 -28 -198q-16 -132 -24 -250t8 -130q14 -10 26 4t28 18q18 -38 10 -70q-2 -16 -10 -30q-22 -38 -58 -38q-8 -2 -16 0q-36 12 -50 84q-16 70 -18 170z" />
<glyph unicode="&#xed;" horiz-adv-x="360" d="M26 1242q0 8 2 16q8 30 50 36q4 -6 0 -18q-2 -12 6 -14q20 -4 92 58q74 62 80 102q-8 28 16 28q8 0 22 -4q50 -14 36 -62q-14 -22 -36 -48t-48 -50q-52 -46 -110 -72q-12 -6 -26 -10t-28 -4q-24 0 -42 14q-14 10 -14 28zM88 266v20q0 46 2 94q2 58 6 116q10 114 24 214 q14 98 26 154q8 52 34 52q10 0 24 -8q50 -30 36 -94q-8 -20 -22 -108q-14 -90 -28 -198q-16 -132 -24 -250t8 -130q14 -10 26 4t28 18q22 -44 8 -84l-8 -16q-22 -38 -58 -38q-8 -2 -14 0q-38 12 -52 84q-16 70 -16 170z" />
<glyph unicode="&#xee;" horiz-adv-x="226" d="M34 280v10q2 106 10 214q10 114 24 212q14 100 26 156q6 52 34 52q10 0 24 -8q38 -24 38 -70q0 -12 -2 -24q-8 -20 -22 -110q-14 -88 -28 -196q-16 -132 -24 -250t8 -130q14 -10 26 4t28 18q26 -54 0 -100q-22 -38 -58 -40q-8 0 -16 2q-18 6 -32 30q-14 26 -22 64 q-14 66 -14 166z" />
<glyph unicode="&#xef;" horiz-adv-x="386" d="M14 1214q0 16 10 36q16 32 44 38h10q18 0 34 -12q20 -16 24 -48q4 -22 4 -40q0 -10 -2 -18q-2 -24 -42 -26h-8q-20 0 -38 6q-18 10 -30 36q-4 12 -6 28zM80 272v20q0 44 2 92q2 60 8 118q8 112 24 212q14 100 26 154q6 54 32 54q12 0 26 -8q38 -24 38 -70q0 -12 -2 -26 q-8 -20 -24 -108q-14 -88 -28 -198q-16 -130 -24 -250q-6 -118 10 -128q12 -10 24 4q12 12 28 18q26 -56 0 -102q-22 -38 -58 -38q-6 0 -14 2q-36 10 -52 82t-16 172zM238 1222q0 6 2 14q6 30 24 38q12 8 28 6h16q20 -4 36 -16q14 -12 16 -48v-8q0 -28 -14 -46t-38 -20h-2 q-30 0 -52 30q-16 24 -16 50z" />
<glyph unicode="&#xf0;" />
<glyph unicode="&#xf1;" horiz-adv-x="736" d="M30 196q2 88 12 216q10 126 32 256q12 70 26 138q16 66 34 124q8 50 32 64q22 16 52 -12q10 -12 4 -32q-4 -18 -8 -40q10 24 50 76t104 88q34 18 76 28q22 4 46 6q22 0 44 -4q74 -14 114 -64t56 -126q12 -62 14 -136v-4q0 -72 -8 -152q-12 -150 -30 -304 q-20 -154 -8 -266q24 -2 34 -28t4 -44q-14 -38 -38 -38q-16 0 -34 14q-50 36 -52 68q-6 136 0 262q8 126 16 238q18 204 18 338q-2 132 -92 148q-64 12 -120 -18q-58 -30 -106 -92q-88 -114 -138 -320q-52 -208 -54 -454q8 -64 -32 -48q-40 14 -48 118zM216 1270q0 34 20 74 q28 58 92 64h8q44 0 70 -44q26 -50 60 -68q20 -8 42 2q24 10 58 52q12 16 40 12q30 -4 30 -20q0 -6 -8 -16q-10 -8 -30 -16q-38 -50 -68 -64q-30 -16 -56 -10q-48 8 -82 56q-32 48 -56 44q-30 -6 -44 -32q-14 -28 -10 -54q6 -44 -20 -44h-2q-30 2 -38 32q-6 16 -6 32z" />
<glyph unicode="&#xf2;" horiz-adv-x="902" d="M28 400q0 74 16 156q16 74 44 136q30 62 70 110q74 92 168 138q96 46 180 42q22 0 42 -26q18 -24 6 -34q-6 -4 -18 -4q-14 2 -36 10q-30 0 -68 -10q-36 -10 -76 -32q-72 -40 -138 -122q-66 -84 -94 -226q-38 -186 28 -314q66 -130 214 -142q144 -10 246 78 q100 88 144 194q28 66 36 148q8 80 -4 162q-20 150 -100 266q-80 114 -206 100q-62 -8 -96 -26q-32 -16 -48 -38q-26 -40 -12 -86q16 -46 20 -64q2 -36 -44 -34q-46 4 -58 46q-36 126 46 200t210 78h6q76 0 136 -32q62 -34 108 -92q68 -86 100 -206q32 -122 32 -232v-2 q0 -60 -8 -110q-10 -52 -24 -90q-74 -174 -204 -262q-118 -78 -258 -78q-16 0 -36 2q-190 12 -270 166q-54 100 -54 230zM372 1370q0 30 38 42q14 4 24 4q22 0 14 -28q6 -40 80 -102t92 -58q8 2 6 14q-4 12 0 18q42 -6 50 -36q4 -8 4 -16q-2 -18 -16 -28q-18 -14 -42 -14 t-54 14q-58 26 -108 72q-28 24 -50 50t-36 48q-2 10 -2 20z" />
<glyph unicode="&#xf3;" horiz-adv-x="876" d="M12 400q0 74 16 156q14 74 44 136t70 110q74 92 168 138q96 46 178 42q24 0 42 -26q20 -24 8 -34q-6 -4 -20 -4q-12 2 -34 10q-32 0 -68 -10q-38 -10 -76 -32q-72 -40 -138 -122q-66 -84 -94 -226q-38 -186 28 -314q66 -130 214 -142q144 -10 244 78q102 88 146 194 q28 66 36 148q6 80 -4 162q-20 150 -100 266q-80 114 -206 100q-62 -8 -96 -26q-34 -16 -48 -38q-28 -40 -12 -86t20 -64q2 -36 -44 -34q-48 4 -60 46q-34 126 48 200q80 74 208 78h8q76 0 136 -32q62 -34 106 -92q70 -86 102 -206q30 -122 30 -232v-2q0 -60 -8 -110 q-8 -52 -24 -90q-72 -174 -204 -262q-116 -78 -256 -78q-18 0 -36 2q-190 12 -272 166q-52 100 -52 230zM312 1216q0 8 2 18q8 30 50 36q4 -8 2 -20q-4 -10 6 -12q18 -4 92 58q74 60 78 102q-8 28 16 28q10 0 24 -4q38 -12 38 -44q0 -8 -4 -20q-12 -22 -34 -48t-50 -50 q-50 -44 -110 -72q-28 -12 -54 -12q-22 0 -42 12q-14 12 -14 28z" />
<glyph unicode="&#xf4;" horiz-adv-x="878" d="M12 400q0 74 16 156q14 74 44 136t70 110q74 92 168 138q96 46 178 42q24 0 42 -26q20 -24 8 -34q-6 -4 -20 -4q-12 2 -34 10q-32 0 -68 -10q-38 -10 -76 -32q-72 -40 -138 -122q-66 -84 -94 -226q-38 -186 28 -314q66 -130 214 -142q144 -10 244 78q102 88 146 194 q28 66 36 148q6 80 -4 162q-20 150 -100 266q-80 114 -206 100q-62 -8 -96 -26q-34 -16 -48 -38q-28 -40 -12 -86t20 -64q2 -36 -44 -34q-48 4 -60 46q-34 126 48 200q80 74 208 78h8q76 0 136 -32q62 -34 106 -92q70 -86 102 -206q30 -122 30 -232v-2q0 -60 -8 -110 q-8 -52 -24 -90q-72 -174 -204 -262q-116 -78 -256 -78q-18 0 -36 2q-190 12 -272 166q-52 100 -52 230zM276 1162q-2 14 42 32q44 54 80 138t66 96q6 2 12 2q26 0 60 -38q42 -46 84 -98q26 -10 26 -24q0 -10 -14 -24q-34 -28 -52 0q-20 20 -54 56q-32 36 -46 44 q-14 -8 -28 -56t-40 -90q-10 -18 -22 -32t-28 -22q-22 -10 -40 -8q-18 0 -36 10q-10 6 -10 14z" />
<glyph unicode="&#xf5;" horiz-adv-x="890" d="M12 400q0 74 16 156q14 74 44 136t70 110q74 92 168 138q96 46 178 42q24 0 42 -26q20 -24 8 -34q-6 -4 -20 -4q-12 2 -34 10q-32 0 -68 -10q-38 -10 -76 -32q-72 -40 -138 -122q-66 -84 -94 -226q-38 -186 28 -314q66 -130 214 -142q144 -10 244 78q102 88 146 194 q28 66 36 148q6 80 -4 162q-20 150 -100 266q-80 114 -206 100q-62 -8 -96 -26q-34 -16 -48 -38q-28 -40 -12 -86t20 -64q2 -36 -44 -34q-48 4 -60 46q-34 126 48 200q80 74 208 78h8q76 0 136 -32q62 -34 106 -92q70 -86 102 -206q30 -122 30 -232v-2q0 -60 -8 -110 q-8 -52 -24 -90q-72 -174 -204 -262q-116 -78 -256 -78q-18 0 -36 2q-190 12 -272 166q-52 100 -52 230zM242 1230q0 32 16 70q26 58 88 68h12q42 0 78 -42q38 -48 82 -64q24 -8 50 4q28 10 60 54q10 16 40 14q28 -4 30 -20q0 -6 -8 -14t-30 -18q-34 -52 -68 -68t-64 -12 q-58 6 -102 52t-68 40q-30 -6 -42 -34q-14 -26 -10 -54q8 -44 -20 -44t-40 32q-6 18 -4 36z" />
<glyph unicode="&#xf6;" horiz-adv-x="878" d="M16 400q0 74 16 156q28 138 104 232q74 96 164 144q50 26 100 40q48 12 94 10q22 0 42 -26q18 -24 6 -34q-6 -4 -18 -4q-14 2 -36 10q-30 0 -68 -10q-36 -10 -76 -32q-72 -40 -138 -122q-66 -84 -94 -226q-38 -186 28 -314q66 -130 214 -142q144 -10 246 78 q100 88 144 194q28 66 36 148q8 80 -4 162q-20 150 -100 266q-80 114 -206 100q-62 -8 -94 -26q-34 -16 -50 -38q-26 -40 -12 -86q16 -46 20 -64q2 -36 -44 -34q-46 4 -58 46q-36 126 46 200t210 78h6q76 0 136 -32q62 -34 108 -92q68 -86 100 -206q32 -122 32 -232v-2 q0 -60 -8 -110q-8 -52 -24 -90q-74 -174 -204 -262q-116 -78 -256 -78q-18 0 -36 2q-192 12 -272 166q-52 100 -54 230zM292 1256q0 18 8 36q16 32 46 38h8q18 0 34 -12q20 -16 24 -48q6 -34 2 -58q-2 -22 -36 -26h-6h-6q-22 0 -38 8q-20 8 -30 34q-6 14 -6 28zM562 1256 q0 6 2 14q6 30 24 38q12 6 28 6h16q20 -4 36 -16q14 -12 16 -48v-8q0 -28 -12 -46q-14 -18 -40 -20h-2q-30 0 -50 30q-18 24 -18 50z" />
<glyph unicode="&#xf7;" horiz-adv-x="1194" d="M20 794v6q4 24 26 36q44 6 60 -14q18 -20 32 -38q16 -8 52 -10t86 0q92 4 218 20q126 14 248 26q156 18 274 22h24q96 0 106 -28q2 -8 2 -16q0 -38 -72 -56q-88 -22 -132 -28q4 4 34 16q32 12 48 24q-90 -4 -198 -14t-218 -20q-202 -18 -372 -20h-12q-158 0 -190 52 q-16 22 -16 42zM488 390q0 10 2 18q8 32 28 46q18 14 48 18q10 2 18 2q30 -2 36 -22q8 -26 10 -68v-4q0 -34 -18 -54q-18 -22 -44 -22h-4q-32 0 -56 32q-20 26 -20 54zM554 1110q0 26 18 52q24 34 58 34q28 0 58 -22q28 -20 28 -56v-2q-2 -40 -16 -74q-8 -22 -32 -22 q-14 0 -34 8q-28 8 -50 20q-20 10 -28 42q-2 10 -2 20z" />
<glyph unicode="&#xf8;" horiz-adv-x="1108" d="M44 -436q0 12 4 26q30 82 72 178q44 98 94 204q96 198 210 416q116 218 232 416q96 164 186 304q88 140 160 232q6 30 34 40q10 2 16 2q18 0 28 -16q6 -10 6 -26v-4q0 -14 -6 -36q-56 -68 -114 -152q-60 -84 -120 -176q-110 -174 -220 -366q-108 -192 -202 -372 q-76 -148 -140 -274q-64 -128 -104 -218q16 0 14 -16q-2 -18 -8 -38q-38 -54 -50 -98q-12 -42 -26 -64q-14 -10 -26 -10t-22 8q-18 12 -18 40zM124 400q0 74 16 156q16 74 46 136q28 62 68 110q74 92 168 138q96 46 180 42q22 0 42 -26q18 -24 6 -34q-6 -4 -18 -4 q-14 2 -36 10q-30 0 -68 -10q-36 -10 -76 -32q-72 -40 -138 -122q-66 -84 -94 -226q-38 -186 28 -314q66 -130 214 -142q144 -10 246 78q100 88 144 194q28 66 36 148q8 80 -4 162q-20 150 -100 266q-80 114 -206 100q-62 -8 -94 -26q-34 -16 -50 -38q-26 -40 -12 -86 q16 -46 20 -64q2 -36 -44 -34q-46 4 -58 46q-36 126 46 200t210 78h6q76 0 136 -32q62 -34 108 -92q68 -86 100 -206q32 -122 32 -232v-2q0 -60 -8 -110q-8 -52 -24 -90q-74 -174 -204 -262q-116 -78 -256 -78q-18 0 -36 2q-192 12 -272 166q-52 100 -54 230z" />
<glyph unicode="&#xf9;" horiz-adv-x="688" d="M12 462v32q4 100 18 196q14 98 36 182q-2 62 36 28q36 -32 22 -90q-10 -46 -22 -130t-16 -180q-4 -142 22 -270q24 -126 110 -140q96 -16 170 90q74 108 122 256q20 62 36 128q16 64 28 124q20 112 24 192q2 78 -12 82q-32 10 -64 -50t-30 -110q-24 18 -28 70 q-4 54 8 106q8 28 20 54t30 42q16 16 38 22q10 4 20 4q12 0 26 -4q62 -18 70 -172q2 -28 2 -56q0 -130 -32 -282q-16 -80 -40 -158q-24 -80 -56 -150q-60 -132 -146 -214q-72 -68 -158 -68q-20 0 -38 4q-112 18 -156 164q-40 134 -40 298zM166 1360q-2 32 38 44q14 4 22 4 q24 -2 16 -30q6 -40 80 -102q72 -60 92 -58q8 2 6 14q-4 12 0 20q42 -6 50 -36q4 -10 2 -18q0 -18 -14 -28q-18 -12 -42 -12t-54 12q-58 28 -108 72q-28 24 -50 50t-36 48q-2 12 -2 20z" />
<glyph unicode="&#xfa;" horiz-adv-x="698" d="M22 452v34q2 98 16 196t36 182q0 62 36 28q38 -32 24 -90q-12 -46 -22 -130q-12 -84 -16 -180q-4 -142 20 -270q26 -126 112 -140q96 -18 170 90t122 256q38 116 60 236q22 118 26 196q4 42 0 68q-2 24 -12 26q-32 10 -62 -50q-32 -60 -32 -110q-22 18 -26 70 q-6 52 8 106q8 28 20 54t30 42q16 16 38 22q8 4 18 4q14 0 28 -4q60 -18 70 -172v-58q2 -128 -30 -280q-16 -80 -40 -158q-24 -80 -58 -150q-60 -132 -146 -214q-70 -68 -156 -68q-20 0 -40 4q-110 18 -154 164q-40 134 -40 296zM188 1184q0 8 4 18q8 28 50 36q4 -8 0 -20 q-2 -12 6 -14q18 -4 92 58t80 102q-8 28 14 28q10 0 24 -4q38 -10 38 -42q0 -10 -2 -20q-14 -22 -36 -48t-50 -50q-50 -46 -108 -72q-30 -14 -54 -14t-42 14q-14 10 -16 28z" />
<glyph unicode="&#xfb;" horiz-adv-x="702" d="M12 442q0 34 2 72q10 196 52 350q-2 62 36 28q36 -32 22 -90q-10 -46 -22 -130t-16 -180q-4 -142 22 -270q24 -126 110 -140q96 -18 170 90t122 256q38 116 60 236q22 118 28 196q2 42 -2 68q-2 24 -10 26q-32 10 -64 -50t-30 -110q-24 18 -28 70t8 106q8 28 20 54t30 42 q16 16 38 22q10 4 20 4q12 0 26 -4q62 -18 70 -172q2 -28 2 -58q0 -128 -32 -280q-16 -80 -40 -158q-24 -80 -56 -150q-60 -132 -146 -214q-72 -68 -158 -68q-20 0 -38 4q-60 10 -100 60t-62 126q-34 114 -34 264zM180 1178q0 16 48 26q54 46 104 124q50 76 80 82h6 q30 0 58 -48q34 -52 68 -110q20 -14 20 -26t-18 -24q-38 -22 -52 8q-16 24 -42 64q-26 42 -38 52q-14 -6 -38 -50q-22 -44 -54 -82q-12 -16 -28 -28q-14 -12 -32 -16q-14 -4 -26 -4q-28 0 -48 18q-8 8 -8 14z" />
<glyph unicode="&#xfc;" horiz-adv-x="694" d="M8 452v34q2 98 16 196t36 182q0 62 36 28q38 -32 24 -90q-12 -46 -22 -130q-12 -84 -16 -180q-4 -142 20 -270q26 -126 112 -140q96 -18 170 90q72 108 122 256q38 116 60 236q22 118 26 196q2 42 0 68q-2 24 -12 26q-32 10 -62 -50q-32 -60 -32 -110q-22 18 -26 70 q-6 52 8 106q8 28 20 54t30 42q16 16 38 22q8 4 18 4q14 0 28 -4q60 -18 70 -172v-58q0 -128 -30 -280q-16 -80 -40 -158q-24 -80 -58 -150q-60 -132 -146 -214q-70 -68 -156 -68q-20 0 -40 4q-110 18 -154 164q-40 134 -40 296zM134 1162q0 18 8 36q16 34 46 38h8 q18 2 34 -12q20 -16 24 -48q6 -34 2 -58q-2 -18 -26 -24q-6 -2 -16 -2h-6q-22 0 -38 8q-20 8 -30 34q-6 14 -6 28zM378 1218q0 8 2 16q6 28 24 38q12 6 28 6q8 0 16 -2q20 -4 34 -16q16 -12 18 -48v-8q-2 -28 -14 -44q-14 -20 -38 -22h-2q-30 2 -52 30q-16 24 -16 50z" />
<glyph unicode="&#x152;" horiz-adv-x="2462" d="M44 574q0 94 18 186q22 118 70 226q90 202 260 362t398 246q28 10 74 10q44 -2 56 -22q6 -10 2 -22t-20 -30q-202 -22 -372 -168q-168 -148 -266 -356q-54 -112 -82 -234q-28 -124 -24 -246q2 -76 26 -140q24 -66 64 -120q76 -100 198 -154q120 -54 258 -44q68 4 136 30 t130 68q116 78 200 202q82 124 94 264q18 222 -44 390q-64 166 -174 280q-70 76 -154 130q-82 52 -168 88q-158 64 -300 68q-142 2 -200 -44q-30 -24 -42 -54t-10 -62q4 -34 18 -70q16 -36 42 -68q46 -64 114 -110q68 -48 132 -60q-84 2 -152 34q-70 30 -120 78 q-92 90 -112 204q-20 116 60 180q110 88 258 88q34 0 68 -6q194 -24 378 -140q98 -64 188 -150t158 -190q82 -128 126 -276q30 -104 30 -214q0 -46 -6 -94q-12 -110 -48 -200t-88 -160q-98 -130 -236 -196q-136 -68 -266 -78q-36 -4 -72 -4q-138 0 -256 48q-146 62 -234 176 q-48 62 -76 138q-28 74 -32 160q-2 28 -2 56zM1182 724q0 34 58 72q88 16 186 28q100 12 202 28q188 26 368 74q178 46 292 148q-30 -78 -98 -130q-68 -54 -160 -90q-170 -66 -388 -96t-398 -76h-12q-40 0 -48 32q-2 6 -2 10zM1262 544v22q0 216 72 422q78 218 188 388 q60 92 126 166q64 74 128 124q16 14 30 18q8 2 16 2h6q32 -8 34 -54q0 -44 -40 -56q-78 -68 -144 -148q-68 -82 -122 -174q-102 -168 -156 -354q-52 -186 -48 -352q6 -192 196 -324q190 -134 512 -146q102 -4 134 60q30 64 14 124q52 -28 64 -94q2 -12 2 -24q0 -50 -36 -90 q-24 -28 -66 -46q-42 -16 -104 -16q-346 0 -574 144q-226 144 -232 408zM1546 1480q0 18 14 44q28 50 92 40q62 2 132 2q70 -2 144 -2q136 0 270 8q136 10 238 46q10 -2 10 -8q0 -2 -2 -4q-4 -10 -8 -24q-164 -84 -408 -114q-160 -22 -310 -22q-82 0 -160 6q-12 10 -12 28z " />
<glyph unicode="&#x153;" horiz-adv-x="1558" d="M20 402q0 72 16 156q14 74 44 136t68 110q74 92 170 138q94 44 178 42q22 -2 42 -26q18 -26 6 -36q-6 -4 -18 -2q-12 0 -36 10q-56 -2 -132 -38q-76 -34 -140 -114q-34 -44 -62 -104q-26 -58 -42 -136q-38 -184 28 -314q66 -128 214 -140q146 -12 246 78q100 88 144 192 q28 68 36 148q8 82 -4 162q-20 152 -100 266q-80 116 -206 100q-60 -6 -94 -24q-34 -16 -48 -38q-28 -42 -12 -88q16 -44 18 -62q4 -36 -44 -34q-46 2 -58 46q-34 126 46 200q82 74 210 76h6q78 0 136 -32q62 -34 108 -90q36 -46 62 -104t42 -120q28 -106 28 -212v-20 q-2 -114 -32 -186q-74 -172 -204 -260q-116 -78 -256 -78h-36q-190 14 -272 168q-52 98 -52 230zM628 474q0 22 14 32q6 4 18 2t30 -16q150 -12 266 22q116 32 196 90q52 38 90 82q40 44 62 90q44 82 38 154q-8 70 -66 92q-60 20 -142 -64q-84 -84 -152 -214 q-30 -56 -56 -116q-24 -60 -40 -118q-32 -112 -28 -210q2 -98 58 -154q86 -84 198 -74q114 10 212 68q52 32 94 72t66 82q4 58 38 32q20 -16 20 -38q0 -16 -10 -36q-48 -84 -162 -162q-114 -80 -242 -92q-16 -2 -34 -2q-50 0 -100 16q-68 18 -124 74q-42 42 -66 100 q-22 58 -28 124q-8 94 14 198q20 106 64 204q28 64 62 122q36 60 76 108q74 90 158 136q50 26 100 26q32 0 64 -12q46 -16 74 -52q26 -36 34 -82q14 -86 -36 -196q-48 -110 -160 -200q-94 -74 -228 -124q-136 -48 -312 -46q-36 -10 -52 44q-8 22 -8 38z" />
<glyph unicode="&#x2c6;" horiz-adv-x="450" d="M18 1556q0 16 48 26q52 48 100 126t78 84h8q30 0 60 -46q32 -52 68 -110q22 -14 22 -26q-2 -12 -18 -22q-38 -24 -52 6q-18 24 -44 64t-40 50q-14 -6 -36 -50q-22 -46 -52 -84q-12 -16 -28 -28q-14 -12 -30 -18q-16 -4 -28 -4q-28 0 -46 18q-10 8 -10 14z" />
<glyph unicode="&#x2dc;" horiz-adv-x="508" d="M34 1574q0 30 18 68q26 58 88 68h12q42 0 76 -42q40 -48 84 -64q24 -8 50 4q26 10 58 54q12 18 40 14q30 -4 30 -20q2 -6 -8 -14q-8 -8 -28 -18q-36 -52 -68 -68q-34 -16 -66 -12q-56 8 -100 52q-46 46 -68 42q-30 -6 -44 -34q-12 -28 -8 -54q8 -46 -20 -46q-30 0 -40 32 q-6 18 -6 38z" />
<glyph unicode="&#x2000;" horiz-adv-x="1039" />
<glyph unicode="&#x2001;" horiz-adv-x="2078" />
<glyph unicode="&#x2002;" horiz-adv-x="1039" />
<glyph unicode="&#x2003;" horiz-adv-x="2078" />
<glyph unicode="&#x2004;" horiz-adv-x="692" />
<glyph unicode="&#x2005;" horiz-adv-x="519" />
<glyph unicode="&#x2006;" horiz-adv-x="346" />
<glyph unicode="&#x2007;" horiz-adv-x="346" />
<glyph unicode="&#x2008;" horiz-adv-x="259" />
<glyph unicode="&#x2009;" horiz-adv-x="415" />
<glyph unicode="&#x200a;" horiz-adv-x="115" />
<glyph unicode="&#x2010;" horiz-adv-x="830" d="M54 704v4q2 26 36 28q70 -10 144 -12q76 -4 148 -6q136 -2 244 -2q110 -2 142 -16q20 -20 24 -32q2 -8 4 -14q0 -6 -4 -10q-12 -24 -64 -32q-52 -6 -98 -8q6 4 42 10q38 6 56 14q-122 32 -248 28q-128 -4 -232 -6q-56 0 -102 4q-44 4 -76 20q-16 8 -16 30z" />
<glyph unicode="&#x2011;" horiz-adv-x="830" d="M54 704v4q2 26 36 28q70 -10 144 -12q76 -4 148 -6q136 -2 244 -2q110 -2 142 -16q20 -20 24 -32q2 -8 4 -14q0 -6 -4 -10q-12 -24 -64 -32q-52 -6 -98 -8q6 4 42 10q38 6 56 14q-122 32 -248 28q-128 -4 -232 -6q-56 0 -102 4q-44 4 -76 20q-16 8 -16 30z" />
<glyph unicode="&#x2012;" horiz-adv-x="830" d="M54 704v4q2 26 36 28q70 -10 144 -12q76 -4 148 -6q136 -2 244 -2q110 -2 142 -16q20 -20 24 -32q2 -8 4 -14q0 -6 -4 -10q-12 -24 -64 -32q-52 -6 -98 -8q6 4 42 10q38 6 56 14q-122 32 -248 28q-128 -4 -232 -6q-56 0 -102 4q-44 4 -76 20q-16 8 -16 30z" />
<glyph unicode="&#x2013;" horiz-adv-x="744" d="M12 768v8q0 16 14 16q10 0 26 -10q228 -28 410 -32q180 -4 230 -32q20 -18 24 -30q4 -6 4 -12t-2 -12q-12 -22 -64 -30q-52 -6 -96 -10q4 4 42 12q38 6 54 12q-64 18 -128 26q-64 6 -126 10q-114 4 -210 6q-94 0 -154 30q-20 10 -24 48z" />
<glyph unicode="&#x2014;" d="M22 858q0 8 4 16q10 20 36 24q78 -24 170 -40q90 -14 188 -22q178 -14 362 -8q182 6 324 20q40 -6 40 -38q0 -12 -4 -28q-16 -42 -48 -42q-10 0 -22 6q-16 6 -52 10q-36 2 -88 4q-94 2 -226 2t-262 4q-134 4 -248 18q-112 14 -166 46q-8 14 -8 28z" />
<glyph unicode="&#x2019;" horiz-adv-x="210" d="M12 1744q0 12 18 30q18 20 36 20t34 -16q16 -22 28 -52q14 -32 24 -68q18 -64 16 -128t-42 -88q-4 0 -6 -2q-8 -2 -14 -2q-14 0 -30 12q-26 18 -14 58q10 0 18 -6q10 -8 16 -2q10 16 -8 110q-20 96 -54 118q-22 4 -22 16z" />
<glyph unicode="&#x201c;" horiz-adv-x="404" d="M40 1636v12q0 68 20 128q22 60 66 72h8q20 0 38 -22q20 -24 -4 -60q-8 2 -16 12q-6 10 -14 6q-14 -12 -24 -108q-8 -98 18 -130q36 -18 -8 -44q-8 -6 -16 -8t-16 -2q-22 0 -38 28q-8 24 -12 58q-2 28 -2 58zM224 1690v32q6 64 48 86q6 2 14 2q16 0 34 -12q26 -20 10 -60 q-8 0 -16 8q-10 10 -16 2q-12 -14 4 -110q14 -98 46 -120q40 -10 4 -46q-16 -16 -30 -18q-4 -2 -8 0q-18 0 -34 18q-14 22 -26 54t-20 66q-10 50 -10 98z" />
<glyph unicode="&#x201d;" horiz-adv-x="394" d="M20 1766q0 10 18 28t36 18t36 -18q12 -22 24 -54t20 -68q16 -66 10 -130q-6 -62 -46 -84q-2 0 -6 -2t-10 -2q-16 0 -34 14q-24 20 -10 60q8 0 18 -10q8 -8 14 0q12 14 -2 110q-16 96 -48 120q-20 6 -20 18zM214 1520q0 18 12 36q10 -2 16 -12t14 -4q14 10 24 108 q8 96 -18 128q-36 18 8 44q16 10 30 10q24 2 40 -26q8 -24 12 -58t2 -70q0 -68 -20 -130q-20 -60 -66 -70q-4 -2 -8 -2q-20 0 -38 22q-8 12 -8 24z" />
<glyph unicode="&#x202f;" horiz-adv-x="415" />
<glyph unicode="&#x205f;" horiz-adv-x="519" />
<glyph unicode="&#x20ac;" horiz-adv-x="1588" d="M24 764q0 24 24 24q12 0 28 -4q42 -28 112 -42q70 -16 156 -26q158 -14 328 -14q172 2 264 -2q-138 -24 -288 -50q-132 -24 -260 -24h-34q-78 2 -152 16t-142 44q-24 16 -34 66q-2 8 -2 12zM74 1004v2q0 22 34 22q80 -16 168 -26q90 -12 176 -18q160 -14 290 -20 q128 -6 160 -22q20 -18 24 -32q4 -6 4 -12t-2 -12q-12 -24 -64 -30q-54 -8 -100 -10q6 4 44 10t54 14q-64 18 -144 26q-78 8 -160 12q-152 8 -286 14q-136 6 -182 44q-14 14 -16 38zM230 664q0 34 4 70q16 144 80 274q66 128 166 236q188 202 458 318q264 114 522 114h14 q32 -16 52 -46q8 -12 8 -26q0 -18 -16 -36q-92 6 -186 -6t-186 -38q-172 -50 -330 -146q-156 -94 -272 -214q-98 -100 -158 -212q-62 -112 -72 -226q-10 -108 26 -196q38 -88 106 -156q44 -46 98 -84t114 -68q108 -56 222 -84q112 -30 198 -34q-6 20 -4 28q0 8 8 8 q14 4 46 -14q30 -18 44 -14q18 -32 2 -72q-18 -40 -66 -40q-56 8 -122 22t-136 34q-128 38 -256 102q-128 62 -218 158q-76 78 -118 182q-28 76 -28 166z" />
<glyph unicode="&#x2122;" horiz-adv-x="1294" d="M52 1522q0 22 22 28q20 4 30 -8q10 -14 16 -24q24 -10 112 6q86 14 178 30q74 12 134 18h24q38 0 46 -12q22 -34 -22 -54q-32 -16 -68 -20h-20q2 2 24 12q22 8 30 14q-44 -4 -98 -12l-104 -16q-98 -14 -182 -20q-18 -2 -34 -2q-54 0 -70 18q-18 18 -18 42zM322 900v36v90 q4 128 10 276t-2 244q-2 22 38 22t18 -24q4 -26 2 -148q-2 -120 -6 -252q-2 -86 -2 -162q-2 -74 2 -112q0 -4 6 2l12 12q6 -8 -2 -34q-10 -26 -10 -46q2 -8 -8 -10q-6 -4 -18 -4h-2q-28 0 -32 24q-6 30 -6 86zM470 856q0 34 20 100q36 108 82 232q26 70 48 136q24 66 40 120 q2 20 26 34q26 14 34 -12q2 -8 16 -14q16 -6 2 -18q-8 -94 -4 -190q2 -98 22 -132q12 0 60 88q48 86 106 200q30 62 62 124t58 116q10 14 26 14q8 0 16 -2q28 -8 26 -24q26 -166 38 -344t46 -308v-4q-2 -36 -32 -32q-32 6 -38 30q-6 68 -24 188q-16 120 -32 398 q-74 -134 -150 -290t-136 -228q-12 -8 -32 -10q-22 0 -30 14q-30 34 -34 98q-4 66 -6 166q-70 -208 -112 -314q-40 -106 -18 -166q-6 -12 -34 -16q-4 -2 -10 -2q-20 0 -26 14q-10 10 -10 34z" />
<glyph unicode="&#x25fc;" horiz-adv-x="1120" d="M0 0v1120h1120v-1120h-1120z" />
</font>
</defs>
</svg>
