<?xml version="1.0" standalone="no"?>
<!DOCTYPE svg PUBLIC "-//W3C//DTD SVG 1.1//EN" "http://www.w3.org/Graphics/SVG/1.1/DTD/svg11.dtd" >
<svg xmlns="http://www.w3.org/2000/svg" xmlns:xlink="http://www.w3.org/1999/xlink" version="1.1">
<metadata></metadata>
<defs>
<font id="marker_sdregular" horiz-adv-x="1128" >
<font-face units-per-em="2048" ascent="1638" descent="-410" />
<missing-glyph horiz-adv-x="819" />
<glyph horiz-adv-x="0" />
<glyph unicode="&#xd;" horiz-adv-x="819" />
<glyph unicode=" "  horiz-adv-x="819" />
<glyph unicode="&#x09;" horiz-adv-x="819" />
<glyph unicode="&#xa0;" horiz-adv-x="819" />
<glyph unicode="!" horiz-adv-x="442" d="M51 588q0 137 33 430q45 412 111 412q45 0 71 -44q23 -34 23 -81q0 -2 -19 -189q-18 -199 -22 -280q-6 -227 -12 -455q-4 -121 -58 -121q-127 0 -127 328zM80 111q0 16 14 36q18 29 47 29q41 0 84 -53q35 -45 35 -70q0 -70 -61 -69q-53 0 -90 51q-29 41 -29 76z" />
<glyph unicode="&#x22;" horiz-adv-x="417" d="M1 1264.5q-1 29.5 1 70.5q6 96 31 103q27 4 51.5 -21.5t30.5 -52.5q2 -8 1 -36t-3 -75q-10 -111 -29 -116q-2 -2 -10 -2q-18 0 -43 34q-20 27 -25 48q-4 18 -5 47.5zM143 1331q2 111 31 117q27 6 55 -25q23 -26 29 -51q6 -33 -6 -145q-12 -123 -35 -129q-45 -8 -67 96 q-8 45 -7 137z" />
<glyph unicode="#" horiz-adv-x="1179" d="M6 592q39 29 133 47q143 29 160 35q27 119 57 315q16 94 39 96q66 8 66 -131q0 -16 -12.5 -105t-12.5 -116q0 -14 2 -18q14 2 113 14q74 10 115 29q10 6 26.5 163.5t42.5 157.5q63 0 64 -112q0 -31 -5.5 -85.5t-5.5 -70.5q0 -35 13 -35q4 0 80.5 11.5t83.5 11.5 q18 0 39.5 -20.5t21.5 -47.5q0 -38 -59 -65q-117 -2 -191 -21q-8 -37 -22 -125q25 0 60.5 4t45.5 4q25 0 53.5 -37.5t28.5 -56.5q0 -33 -86 -43q-104 -14 -130 -33.5t-50 -195.5q-20 -168 -39 -168q-80 2 -80 129q0 20 2 45t2 27t8 57q8 49 4 57q-25 4 -67 -12 q-33 -12 -68 -25q-18 -2 -39 -4q-27 -4 -36 -16t-19 -94t-7 -126t-34 -44q-59 0 -59 118q0 37 6 85.5t6 46.5q-104 -27 -109 -27q-121 0 -120 84q0 41 36 63q68 10 201 37q0 27 7.5 50.5t7.5 46.5v22q-12 2 -99.5 -18.5t-93.5 -20.5q-35 0 -60.5 34t-19.5 83zM393 430 q10 -4 99 10q96 18 141 39q2 21 4 62v67h-39q4 0 -190 -57q-6 -43 -15 -121z" />
<glyph unicode="$" horiz-adv-x="1275" d="M0 121q0 18 6 37q39 31 82 30q12 0 127 -30q88 213 129 401q-78 25 -131 87.5t-47 133.5q12 139 315 230q8 72 17.5 148.5t48.5 107.5q119 2 119 -146q0 -27 -4 -55q47 0 69 10q31 14 53 19v100q8 41 58 53q82 18 108 -73q2 -8 -16 -99q33 -14 67 -28q37 -25 27 -78 q-6 -39 -53 -47q-33 -4 -68 -7q-25 -66 -49 -129q-29 -86 -33 -153q111 -4 204 -95t85 -200q-8 -86 -102 -174q-88 -80 -195 -115q-92 -29 -147 -31q-27 0 -43 -18q-14 -41 -27 -82q-31 -80 -57 -86q-14 -4 -27 -4q-49 0 -60.5 86t-54.5 84q-53 -2 -86.5 -99.5t-83.5 -97.5 q-31 0 -63.5 40t-26.5 59q4 8 27 45q14 23 10 53q-178 25 -178 123zM336 731q0 -12 18 -16q20 -8 41 2q35 18 35 49t-41 31q-57 0 -53 -66zM410 164q6 0 42.5 -3t43.5 -3q29 68 79 213q48 131 50 141q-61 29 -119 10q-6 -27 -51 -168q-35 -104 -45 -190zM567 686 q72 -18 68 -18q27 0 53 80q25 65 29 108q-2 16 -2 43q-18 6 -33 6q-57 0 -82 -90q-16 -63 -33 -129zM692 186q119 31 172 62q80 47 119 137q2 6 2 12q0 35 -84 58q-68 18 -117 18q-8 -41 -49 -147q-39 -94 -43 -140z" />
<glyph unicode="%" horiz-adv-x="1216" d="M0 850q0 86 125 158q104 59 180 59q14 0 43 -2t45 -2q70 0 121 -68q45 -62 45 -125q0 -59 -108 -125q-96 -61 -150 -61q-6 0 -52 -2t-54 -2q-68 0 -127 47q-68 51 -68 123zM98 92q0 45 357.5 478.5t404.5 433.5q25 0 44.5 -27t19.5 -47q0 -31 -320 -422 q-356 -436 -405 -512q-31 4 -66 31.5t-35 64.5zM143 819q37 -12 50 -12q31 0 129 35q114 39 114 76t-33 36q-78 0 -165 -55q-78 -47 -95 -80zM498 176q0 88 108.5 187.5t198.5 99.5q68 0 163 -81t95 -142q0 -90 -135 -172q-117 -72 -191 -72q-82 0 -151 41q-88 51 -88 139z M645 141l62 -8q68 14 137 55q84 52 80 97l-80 45q-55 0 -129 -84q-66 -74 -70 -105z" />
<glyph unicode="&#x26;" horiz-adv-x="1374" d="M0 233q0 88 51 166q33 49 99 111q53 49 53 63q0 2 -12.5 39t-12.5 109q0 162 146 264q121 86 251 86q59 0 119 -51t60 -119q0 -92 -160 -235q20 -10 24 -11h164l346 31q25 0 59 -21.5t34 -50.5q0 -8 -4 -16q-20 -20 -191 -35q-195 -18 -248 -35q117 -102 117 -219 q0 -82 -33 -131q18 -16 51 -22q25 -2 66 0q55 2 58 2t38 11t41 11q16 0 49 -27.5t33 -46.5q0 -27 -68 -47q-53 -16 -77 -16q-113 0 -99 -2q-100 16 -200 33q-168 -88 -312 -88q-6 0 -61 2t-59 2q-115 0 -203 47q-119 63 -119 196zM117 209q0 -109 192 -109q4 0 67.5 -2 t69.5 -2q18 0 78 19q54 18 62 22q-152 70 -344 291q-51 -35 -88 -101.5t-37 -117.5zM297 713q0 -27 8 -72q82 35 176 96q154 105 154 185q0 39 -33 39q-100 0 -190 -56q-115 -70 -115 -192zM342 498q0 -76 170 -195q156 -111 205 -110q27 0 47 57q18 46 18 69q0 76 -37 117 q-51 45 -102 88q-31 6 -61 13q-53 14 -78 69q-43 -23 -86 -45q-76 -43 -76 -63z" />
<glyph unicode="'" horiz-adv-x="301" d="M0 1311q0 129 39 137q45 6 74 -25q20 -20 26 -47q8 -49 -4 -155q-16 -123 -53 -129q-55 -10 -74 92q-8 47 -8 127z" />
<glyph unicode="(" horiz-adv-x="638" d="M0 641q0 182 113 467q127 317 252 330q47 6 77 -11q43 -22 35 -81q-84 -147 -168 -295q-133 -254 -123 -471q10 -199 58 -371q27 -102 84 -242q49 -115 55 -157q2 -23 -20.5 -38.5t-36.5 -15.5q-143 0 -244 359q-82 289 -82 526z" />
<glyph unicode=")" horiz-adv-x="540" d="M-94 -190q86 141 170 282q133 248 121 483q-8 178 -56 363q-27 106 -86 270q-47 135 -53 178q-4 23 23 39q18 14 34 15q141 0 244 -381q80 -301 82 -527q2 -180 -113 -477q-127 -326 -252 -340q-47 -4 -79 13q-43 23 -35 82z" />
<glyph unicode="*" horiz-adv-x="710" d="M2 1106q2 27 98 29h60q-8 10 -21 24q-51 59 -51 90q0 14 7 25.5t34 13.5q27 0 39 -8q29 -31 59 -61q2 14 4 30q6 88 48 97q14 2 33.5 -15.5t23.5 -32.5v-88q18 23 45 50q31 31 72 30q34 1 34 -26q0 -25 -69 -93q-27 -25 -41 -43h20q33 4 76 7q27 -2 55.5 -19.5 t26.5 -38.5q0 -29 -76 -33h-82q23 -23 56 -49q53 -47 53 -69q0 -29 -41 -37q-37 -8 -59 6q-12 8 -74 66q0 -20 4 -68q2 -45 -2 -64q-4 -25 -25 -28q-25 -4 -49 15.5t-29 41.5q-4 12 -8 111q-29 -25 -76 -66q-10 -8 -26 -8q-41 0 -53 14q-4 4 -5 11q0 23 64 88q16 16 29 28 q-39 4 -103 8q-18 2 -37 31q-16 23 -14 31z" />
<glyph unicode="+" d="M0 535q0 51 158 77q193 33 200 39q25 14 50 123q35 147 51 191q39 98 102 98q29 0 61.5 -42t32.5 -71q0 -10 -26.5 -118.5t-26.5 -116.5q0 -29 21 -33q-20 4 32 4q8 0 74 7t74 7q55 0 113.5 -32.5t58.5 -75.5q0 -53 -105 -72q-14 -2 -196 -18q-111 -10 -123 -39 q-25 -66 -55 -311q-20 -168 -84 -168q-47 0 -88 48t-41 93q0 -8 45 274l-11 41q-35 -4 -122 -14q-74 -8 -84 -8q-37 0 -78 53q-33 45 -33 64z" />
<glyph unicode="," horiz-adv-x="321" d="M0 -133q0 -6 14 24q35 63 35 115q0 16 -5 45t-3 43q2 8 40 28.5t52 14.5q35 -20 35 -84q0 -71 -35 -137q-10 -20 -47 -48t-61 -28q-25 0 -25 27z" />
<glyph unicode="-" horiz-adv-x="1220" d="M102 705q0 53 183 75q141 0 286.5 8.5t286.5 8.5q31 0 72 -56q35 -50 35 -75q0 -84 -244 -84l-485 -15q-37 0 -85.5 46t-48.5 92z" />
<glyph unicode="." horiz-adv-x="309" d="M0 78q0 39 26.5 71.5t65.5 32.5q18 0 35 -10q29 -20 29 -72q-1 -42 -21 -71q-25 -37 -65 -37q-70 0 -70 86z" />
<glyph unicode="/" horiz-adv-x="1312" d="M0 57q0 27 350 455q381 467 436 555q49 80 127 172q115 133 172 133q74 1 74 -65q0 -51 -502 -682q-506 -639 -565 -639q-92 0 -92 71z" />
<glyph unicode="0" d="M0 375q0 29 6 49q41 193 150 358q131 203 321 285q35 8 78 0q408 -141 416 -424q4 -111 -33 -219q-45 -129 -135 -211q-229 -205 -410 -205h-102q-66 0 -172 90q-119 102 -119 277zM162 309q6 -184 157 -184q147 0 314 127q72 55 112 127q4 10 54 117q24 55 20 184 q-4 84 -37 125q-16 20 -100 82q-45 31 -115 28q-150 -8 -281.5 -209.5t-123.5 -396.5z" />
<glyph unicode="1" horiz-adv-x="276" d="M0 121q0 25 2 59v41q4 467 10 543l15 147q2 18 0 50q-4 41 -4 51q0 49 34 65q66 -29 66 -274q0 -80 -6 -148l-11 -116q2 -20 0 -131q-2 -27 -2 -271q0 -6 5.5 -35.5t5.5 -48.5q0 -63 -66 -63q-49 0 -49 131z" />
<glyph unicode="2" horiz-adv-x="1114" d="M0 846q0 82 221 164q193 70 311 71q145 0 242 -131q88 -119 84 -250q-2 -133 -102.5 -289.5t-229.5 -238.5q92 -35 308 -59q127 -16 127 -82q0 -18 -15.5 -31.5t-32.5 -13.5q8 0 -362 41l-410 -41q-39 -6 -80 21.5t-41 53.5q0 18 187 97q227 94 348 198q188 164 188 387 q0 70 -38 138q-49 82 -132 82q-100 0 -227 -50q-86 -35 -184 -94l-84 -49q-31 0 -54.5 25.5t-23.5 50.5z" />
<glyph unicode="3" horiz-adv-x="1148" d="M2 969q4 63 178 92q102 16 195 16q508 0 477 -358q-8 -82 -96 -135q10 -20 67 -47q68 -31 84 -48q47 -39 70 -106q18 -55 14 -102q-14 -174 -315 -256q-174 -45 -318 -45q-57 0 -117.5 -3.5t-56.5 -3.5q-76 0 -67 95q2 39 80 49h100q96 10 190 18q162 18 256 55 q131 51 138 138q6 63 -154 116q-133 45 -180 43l-309 -43q-27 6 -48 48q-14 33 -12 53q2 29 146 55q215 39 266 55q145 45 151 119q12 125 -153 162q-63 14 -219 14q-90 0 -206 -30.5t-102 -30.5q-27 0 -45 35q-16 29 -14 45z" />
<glyph unicode="4" horiz-adv-x="905" d="M0 621v383q0 18 12 47q16 37 39 36q102 -2 103 -200q0 -27 -2 -79t-2 -77q0 -102 28 -129q137 0 192.5 -3t102.5 -3q37 0 38 237.5t52 237.5q37 0 66 -45q20 -35 20 -63q-8 -70 -4 -181q4 -193 4 -176q76 -6 92 -28q11 -13 11 -68q0 -37 -37 -45q-53 -12 -60 -19 q0 -94 -5 -281.5t-77 -184.5q-76 0 -75 135l16 334q-23 14 -125 14q-51 0 -141 -4t-107 -4q-141 0 -141 166z" />
<glyph unicode="5" horiz-adv-x="890" d="M0 176q0 57 47 53q20 -4 100 -53q72 -45 160 -45q109 0 199 59q104 68 104 168q0 82 -92 138q-80 45 -168 45q-63 0 -151 -37t-86 -37q-74 0 -97 182l-12 334q0 59 164 74q109 6 219 12l244 4q27 -10 57 -49q23 -31 23 -39q0 -49 -58 -49q-522 0 -522 -53l10 -232 q51 8 176 19q205 8 318 -103q102 -98 102 -256q0 -121 -120.5 -219t-247.5 -98h-39q-88 0 -195 43q-135 55 -135 139z" />
<glyph unicode="6" horiz-adv-x="962" d="M0 307q0 139 125 334q113 176 270.5 311t255.5 135q23 0 46.5 -37.5t23.5 -54.5q-18 -51 -31 -57q-287 -145 -403 -332q8 -8 18 -8q6 0 18.5 5t19.5 5t48 5t47 5q133 0 238 -65q133 -86 133 -244q0 -152 -193 -248q-145 -72 -254 -71q-137 0 -243 80q-119 90 -119 237z M123 289q0 -78 74 -121q59 -33 143 -33q80 0 197 62q145 76 145 176q0 47 -57 73q-45 20 -90 21q-113 0 -198 -24.5t-73 -24.5q-6 0 -33 16q-33 20 -41 25q-68 -109 -67 -170z" />
<glyph unicode="7" horiz-adv-x="952" d="M0 1024q0 16 6 31q104 27 289 26q53 0 184 -2q125 -4 197 -4q33 0 78 -27.5t43 -52.5q-127 -188 -312 -487q-279 -545 -309 -545q-33 0 -55 47q-16 37 -15 53q4 51 449 871q-27 10 -45 8q-41 -4 -39 -4q-94 0 -241.5 2t-153.5 2q-33 0 -54.5 24.5t-21.5 57.5z" />
<glyph unicode="8" horiz-adv-x="1054" d="M12 242q8 106 178 229q-145 70 -145 203q0 137 184 270q176 123 318 123q135 -2 228 -84t83 -205q-12 -143 -215 -264q90 -2 158 -39q100 -55 90 -172q-12 -147 -232 -246q-168 -74 -288 -73q-147 0 -246 53q-125 70 -113 205zM164 655q39 -37 123 -53q59 -10 86 -8 q113 12 213 51q154 62 162 164q6 57 -86 88q-78 27 -144 18q-84 -10 -207 -84q-150 -88 -147 -176zM166 193q0 -66 211 -66q104 0 227 55q135 59 129 129q-4 70 -276 70q-127 0 -189 -27q-102 -43 -102 -161z" />
<glyph unicode="9" horiz-adv-x="886" d="M12 811q12 145 234 213q164 51 297 39q43 -4 94 -37q66 -43 88 -106q8 -27 8 -84q0 -45 -6 -135.5t-6 -114.5q2 -172 7 -285t5 -129q0 -43 -6 -123q-6 -68 -72 -61q-39 2 -45 209q-8 311 -24 417q-172 -78 -228 -73q-109 10 -208 61q-150 80 -138 209zM172 786 q0 -37 61 -63q53 -25 111 -31q72 -6 148 45q85 56 110 146q-2 4 -36 17t-44 15q-25 2 -53 3q-113 0 -197 -29q-102 -37 -100 -103z" />
<glyph unicode=":" horiz-adv-x="309" d="M0 174q0 39 26.5 72t65.5 33q18 0 35 -11q29 -20 29 -71q-1 -45 -21 -72q-25 -37 -65 -37q-70 0 -70 86zM0 524q0 39 26.5 73t65.5 34q18 0 35 -13q29 -20 29 -69q-1 -45 -21 -74q-25 -37 -65 -37q-70 0 -70 86z" />
<glyph unicode=";" horiz-adv-x="313" d="M0 -8q0 -25 25 -25q20 0 49 26.5t41 49.5q35 63 35 137q0 63 -37 82q-12 8 -40 -13.5t-30 -29.5q-2 -14 2 -39q4 -33 4 -49q0 -49 -33 -115q-16 -29 -16 -24zM6 543q0 39 26.5 72.5t65.5 33.5q18 0 33 -10q29 -20 29 -72q-1 -44 -19 -73q-27 -37 -67 -37q-68 0 -68 86z " />
<glyph unicode="&#x3c;" horiz-adv-x="849" d="M0 555q0 16 2 31.5t305 254t326 234.5q35 -8 49 -46t8 -71q-6 -41 -510 -436q51 -61 150 -141q104 -86 155 -141q61 -37 121 -76q84 -59 72 -137q-8 -59 -55 -50q-27 4 -211 150q-170 135 -191 158q-70 57 -139 116q-82 74 -82 154z" />
<glyph unicode="=" horiz-adv-x="964" d="M0 664q0 29 25 55q37 4 272 45q211 37 326 37q10 0 39 2h43q90 -1 90 -60q0 -43 -43 -43q-6 0 -60.5 -9t-60.5 -9q-88 0 -311.5 -44t-239.5 -44q-29 0 -54.5 23.5t-25.5 46.5zM8 416q0 55 51 55q4 0 19.5 -5t23.5 -5l496 53q6 0 71.5 14.5t69.5 14.5q29 0 50.5 -28 t21.5 -56q0 -43 -43 -43q25 0 -88 -17l-543 -69q-129 4 -129 86z" />
<glyph unicode="&#x3e;" horiz-adv-x="847" d="M4 965q-4 33 10.5 70.5t48.5 45.5q23 4 325 -234.5t304 -253.5t2 -32q0 -80 -82 -153q-70 -59 -139 -117q-20 -23 -190 -158q-182 -145 -211 -149q-47 -10 -56 49q-12 78 72 137q61 39 121 76q51 55 156 141q98 80 149 141q-504 396 -510 437z" />
<glyph unicode="?" horiz-adv-x="960" d="M0 1251q0 94 160 142q131 41 317 37q104 -2 205 -78q125 -95 125 -238q0 -137 -109 -225q-31 -23 -202 -115q-59 -33 -146 -145q-49 -61 -55 -119v-191q-6 -133 -66 -131q-61 4 -61 142q0 -12 4 76q12 268 154 405q47 45 256 158q133 70 131 178q0 49 -66 102 q-53 45 -74 45q-86 6 -139 6q-127 0 -221 -32q-66 -23 -115 -64l-43 -33q-23 0 -39 33q-16 27 -16 47zM188 92q0 61 48 62q23 0 44 -41t21 -70q0 -61 -43 -61q-29 0 -51 45q-18 39 -19 65z" />
<glyph unicode="@" horiz-adv-x="1265" d="M0 494q0 254 190 428q184 166 437 165q193 0 293 -109.5t94 -297.5q-2 -92 -82 -207q-92 -129 -195 -129q-115 0 -207 113q-45 -27 -92 -54q-57 -33 -100 -32q-41 0 -88 36.5t-47 77.5q0 90 127 177q111 76 184 75q23 0 45.5 -27.5t18.5 -45.5q45 -47 59 -140 q10 -63 63 -63q184 2 193 293q2 84 -74 155.5t-160 71.5q-223 0 -374 -143q-158 -147 -158 -369q0 -174 133 -262q100 -66 299 -94q68 -10 111 -4q135 16 358 161q39 -2 61.5 -24.5t22.5 -40.5q0 -51 -180 -131q-162 -74 -197 -74q-350 6 -508 84q-227 111 -227 410z M342 528q-18 -47 4 -49q14 -4 62.5 27t56.5 51q20 47 -2 49q-27 4 -68 -22.5t-53 -55.5z" />
<glyph unicode="A" horiz-adv-x="1275" d="M0 43q0 47 201 487q-18 -2 -35 -6q-43 -6 -60 -6h-9q-77 0 -77 70q0 41 137.5 98t137.5 62q43 135 127 333q125 297 139 332q31 29 55 29q45 0 86 -88q74 -250 132 -430q25 0 60.5 17t55.5 15q90 -8 90 -63q0 -27 -22 -80q-18 -6 -76.5 -37t-60.5 -31q45 -176 112 -356 q53 -145 109 -291l10 -20q10 -21 10 -29q0 -63 -55 -63q-53 0 -102 47q-27 25 -113 254q-84 215 -96 276q-2 16 -23 68q-22 57 -34 57h-1q-180 -51 -260 -86q-31 -25 -96 -190q-82 -213 -121 -285q-78 -145 -149 -145q-72 0 -72 61zM514 823q6 0 72 19q43 12 69 28 q-37 119 -53 170q-61 -125 -88 -217z" />
<glyph unicode="B" horiz-adv-x="1411" d="M8 1307q29 29 90.5 61.5t235.5 48.5q107 10 179 10q56 0 91 -6q129 -8 225 -59q203 -129 203 -296q0 -15 -2 -30q-10 -86 -76 -170q-35 -43 -67 -84q88 -8 86 -8q265 -54 265 -299q0 -17 -1 -35q-2 -55 -86 -176q-59 -88 -195 -158q-96 -39 -168 -55q-256 -57 -397 -57 q-6 0 -6 -4q-70 -1 -128 -1q-143 0 -204 7q-37 25 -37 79v11q2 25 27 59q27 6 197 7q6 27 6 213q0 307 -15 557q-14 317 -43 317q-23 0 -67.5 -14.5t-71.5 -14.5l-22 2q-21 41 -21 75q0 10 2 20zM356 1266v-10q0 -85 27 -476q10 2 176 37q111 25 225 68q49 29 92.5 83 t43.5 105q-1 39 -19 68q-35 51 -127 99t-147 48q-252 0 -271 -22zM381 362q-1 -38 -1 -74q0 -72 3 -136q4 0 149 10q94 6 191 28q172 25 299 127q92 62 115 183q-2 45 -43 69q-95 72 -202 72h-11q-20 2 -45 2q-38 0 -86 -4q-63 -4 -127 -10q-47 -2 -234 -41v1l-3 -69 q-3 -78 -5 -158z" />
<glyph unicode="C" horiz-adv-x="1312" d="M0 535v165q0 254 193 469q186 205 403 226q23 4 158 16q96 2 102 2q229 0 229 -137q0 -80 -73 -80q-23 0 -69 13.5t-64 13.5q-56 4 -99.5 4t-72.5 -4q-59 -16 -119 -32.5t-92 -39.5q-158 -59 -287 -260q-20 -49 -41 -96q-10 -23 -18 -70q23 -195 40 -256 q51 -168 193 -246q127 -39 313 -39q40 0 82 2q57 2 156.5 45t157.5 45q27 -16 47 -51.5t14 -60.5q-18 -88 -143 -119q-127 -45 -361 -45h-168q-61 0 -160.5 45t-144.5 94q-176 193 -176 396z" />
<glyph unicode="D" horiz-adv-x="1771" d="M0 68q0 27 10 69q57 47 367 74q12 68 29 465q10 274 10 374q0 43 -2 54q-2 31 0 59l4 37q0 23 -29 33q-12 6 -29 6q-47 0 -141 -43q-90 -41 -103 -41h-1q-68 6 -88.5 28.5t-22.5 92.5q78 76 250 117q141 34 294 34h9q53 0 96 -4q82 -4 230 -22q213 -23 301 -58 q197 -76 272 -137q147 -119 147 -311q0 -19 -1 -39q-10 -141 -136 -293q-86 -106 -223 -209q-59 -43 -119 -84q-180 -92 -465 -182q-334 -104 -520 -104q-55 0 -92 10q-47 35 -47 74zM518 295q0 -37 19 -41l36 2q102 35 203 70q135 47 193 82q217 127 313 225 q134 135 152 303v7q0 46 -72 120q-86 88 -186 104q-137 59 -302 74q-127 12 -313 31q-43 -615 -43 -849q0 -53 2 -87q-2 -20 -2 -41z" />
<glyph unicode="E" horiz-adv-x="1067" d="M0 1122q0 25 23 56q31 39 335 122q211 55 424 113q23 4 43 4q72 0 72 -57q0 -35 -27 -80q-47 -10 -317 -84q-250 -68 -260 -68q-16 -49 -19 -153v-158q-4 -43 13 -43q10 0 30 12q193 49 275 86q14 3 25 3q59 0 59 -68q0 -41 -31 -84q-27 -6 -366 -119q-2 -37 -3 -76 q0 -54 10 -164q8 -91 7 -148v-23q66 10 219 59q168 53 295 106q106 -6 106 -59q0 -24 -22 -59q-121 -51 -393 -136q-164 -51 -328 -100h-84q-12 8 -25 14q-27 18 -30 66q14 18 49 37q86 10 86 65q0 8 -2 22.5t-2 20.5q-8 113 -17 336q-7 -2 -18 -2q-19 0 -53 6q-45 0 -45 47 q0 37 26 70q25 6 49.5 12.5t36.5 24.5q0 123 11 356q-10 -2 -56 -10q-37 -6 -59 -4q-37 27 -37 57z" />
<glyph unicode="F" horiz-adv-x="827" d="M0 1106q0 12 6 31q18 59 117 98q61 27 256 76q229 61 375 110q90 -14 90 -69q-1 -25 -13 -68q-37 -27 -249 -86q-227 -61 -279 -88q-11 -50 -11 -148q0 -79 7 -188q35 4 156 62q105 47 163 47h5q73 -2 73 -68q0 -35 -28 -61q-29 -10 -330 -138q-51 -21 -51 -66v-7 q-8 -100 -8 -248q0 -105 4 -234q-2 -2 -21 -47q-6 -16 -41 -18h-4q-42 0 -59 90q-13 57 -13 116v9q12 275 12 326q0 11 -1 12q-10 4 -19 4q-6 0 -29.5 -6t-48.5 -2q-36 30 -36 58q0 13 7 30.5t40.5 37t70.5 38.5q6 39 17 354q-41 -18 -60 -19q-29 4 -57 9q-41 31 -41 53z " />
<glyph unicode="G" horiz-adv-x="1726" d="M6 670v16q0 192 137 371q59 78 207 207q133 115 393 149q45 7 85 7q33 0 63 -5h4q39 0 71 -38q35 -40 35 -87q0 -14 -4 -26q2 0 -4 -15q-6 -20 -22 -24q-70 7 -124 7q-74 0 -118 -13q-168 -47 -256 -107q-145 -100 -223 -220t-94 -265q-1 -11 -1 -24q0 -51 17 -148 q14 -84 129 -181q27 -23 107 -55q90 -37 143 -41h25q73 0 174 10q120 11 163 25q291 96 326 287q0 6 -115 8q-55 2 -86 12q-63 47 -63 84q0 23 20 53q25 39 226 39q197 0 282 -28q27 -8 48.5 -38t21.5 -61q0 -42 -45 -67q-12 1 -26 1q-36 0 -89 -7q-4 -96 -61 -201 q-61 -113 -199 -193q-180 -106 -322 -106h-253q-109 0 -265.5 93t-216.5 185q-80 133 -90 396z" />
<glyph unicode="H" horiz-adv-x="1427" d="M0 621q0 25 10 49q51 39 183 45q0 412 28 626q20 66 72 66q45 0 67 -68q0 -90 -4 -198q-4 -115 -4 -154q0 -109 17 -242q123 41 536 103v23q0 243 41 501q35 59 74 60q82 0 82 -187q0 -59 -12.5 -177t-12.5 -179q35 0 75 15.5t67 15.5h5q67 0 87 -48q14 -31 14 -55 q0 -45 -47 -61q-72 -25 -203 -39q0 -53 6 -207q2 -133 2 -209q0 -68 -26 -285q-31 -25 -56 -24q-37 0 -86 69q-9 88 -9 176q0 100 12 199q2 17 2 47q0 64 -9 187q-246 -33 -542 -107q12 -174 22 -467q0 -94 -63 -94q-37 0 -52 27q-39 119 -47 260q-2 18 -4 262l-119 -14 q-106 0 -106 84z" />
<glyph unicode="I" horiz-adv-x="976" d="M0 1122q0 16 10 72q299 115 647 221q20 8 45 8q47 0 84 -23.5t37 -56.5q0 -39 -59 -71q-150 -78 -236 -92q29 -403 29 -602q0 -143 -10 -283q37 6 67 22q25 12 58 15q10 1 19 1q44 0 63 -16q16 -22 34 -47q-2 -31 -30 -51q-51 -35 -53 -37q-55 -16 -273 -104 q-180 -72 -254 -80q-25 -4 -49 -6q-16 -2 -53 14q-37 0 -37 53q0 27 8 54q90 29 328 116q13 270 13 487q0 249 -17 429q-43 -6 -240 -74q-80 2 -105.5 11.5t-25.5 39.5z" />
<glyph unicode="J" horiz-adv-x="899" d="M0 250q8 90 70 90q51 0 59 -64q61 -124 162 -124h2q113 0 162 96q29 55 49 196q4 23 4 64q0 82 -21 295q-27 258 -30 344h-5q-34 0 -79 -23q-70 -31 -90 -37q-37 -12 -66 -12q-74 0 -74 53q0 43 52 95q84 45 225 90q182 59 260 92q84 25 106 25q33 0 62 -68l-4 -53 q-18 -10 -53 -37q-66 -25 -195 -68q20 -180 39 -362q22 -208 22 -351v-12l-8 -106q-6 -25 -22 -90q-6 -31 -13.5 -64t-35.5 -80q-18 -29 -66 -63q-76 -55 -145 -72q-30 -5 -58 -5q-45 0 -88 13q-139 47 -186 158q-10 16 -35 80z" />
<glyph unicode="K" horiz-adv-x="1118" d="M16 1319q8 31 19 61q14 43 51 45h9q49 0 69 -39q24 -61 24 -139v-6q0 -33 -6 -105.5t-6 -113.5q8 -12 17 -12q14 0 38 37q37 16 295 200q246 174 291 187q37 0 70 -34q31 -32 31 -69q0 -48 -64 -90q-80 -51 -96 -74q-27 -10 -132.5 -85.5t-105.5 -86.5q53 -80 117 -200 q78 -147 121 -215q41 -78 106 -244q33 -84 101 -291q-18 -68 -68 -68q-20 0 -45 9q-76 98 -156 316t-145 312q-2 12 -68.5 136t-87.5 155q-74 -47 -205 -147q0 -506 -8 -699q-29 -73 -68 -73h-1q-47 0 -78 86q-24 305 -24 778q0 217 5 469z" />
<glyph unicode="L" horiz-adv-x="987" d="M2 1319q0 123 21 123h7q134 0 134 -283q0 -6 -4 -135q-1 -39 -1 -81q0 -104 7 -222q12 -244 14 -295q4 -139 23 -244q307 53 510 64q118 -21 118 -110q0 -26 -32 -64q-92 -6 -330 -49q-209 -37 -309 -37q-96 2 -121 100q-18 70 -31 457q-3 104 -3 174q0 141 11 149 q-2 84 -8 262q-6 137 -6 191z" />
<glyph unicode="M" horiz-adv-x="1325" d="M2 1153q-1 35 -1 64t1 51q2 63 15.5 105t66.5 42q41 0 72 -29q61 -90 186 -233q100 -113 201 -227q45 27 291 434q49 43 108 43q33 0 55 -12q43 -70 50 -119q3 -15 3 -76q0 -30 -1 -72q-1 -55 -1 -167q0 -225 5 -681q2 -29 8 -62.5t6 -80.5q1 -17 1 -31q0 -42 -5 -55 q-10 -29 -53 -47q-92 23 -111 240q-10 229 -18 458q0 156 -17 324q-82 -127 -260 -375q-27 -14 -51 -14q-23 0 -37 12q-45 41 -45 92q0 23 4 60q-47 47 -287 336q-28 -101 -28 -516v-29q0 -319 16 -525q1 -6 1 -12q0 -57 -56 -57h-2q-68 0 -82 74q-33 106 -33 983 q0 6 -2 102z" />
<glyph unicode="N" horiz-adv-x="1306" d="M2 1366q4 76 84 76q27 0 47 -12q100 -53 248 -318q53 -96 252 -506q147 -303 221 -393q2 59 6 178q15 280 15 490q0 163 -9 284q-2 27 -14 99q-12 61 -12 98q23 70 57 70q23 0 57 -35q12 -14 41 -64q53 -113 54 -415q0 -456 1 -456l1 11q-4 -326 -31 -420 q-16 -55 -86 -55q-63 0 -105 39q-23 27 -45 55q-170 227 -327 547q-193 387 -269 508q-14 -53 -14 -232v-217q25 -245 25 -437q0 -58 -2 -111q8 -2 8 -60q0 -98 -55 -104h-8q-34 0 -54 30q-22 34 -43 72q-27 393 -27 625q0 217 2 432q0 33 -10 110q-8 60 -8 97v14z" />
<glyph unicode="O" horiz-adv-x="1269" d="M0 498q0 37 6 65q45 260 162 484q145 274 352 387q20 4 41 4t45 -4q445 -193 455 -574v-27q0 -136 -37 -270q-49 -176 -147 -284q-252 -281 -447 -281h-113q-72 0 -186 125q-63 66 -98 178q-33 100 -33 197zM176 410q6 -252 174 -252q100 0 189 51q63 37 153 123 q76 72 121 170q6 12 57 157q24 63 24 193q0 27 -1 57q-2 115 -37 170q-18 27 -111 109q-8 8 -45 22q-46 17 -78 17h-4q-162 -9 -306 -283q-136 -259 -136 -507v-27z" />
<glyph unicode="P" horiz-adv-x="1083" d="M2 1200q4 57 53 90q4 2 90 43q117 53 304 82q123 19 239 19q37 0 74 -2q356 -21 368 -332v-13q0 -86 -49 -153q-8 -12 -125 -127q-51 -53 -274 -156q-43 -20 -140.5 -46.5t-119.5 -37.5q-1 -16 -1 -38q0 -44 3 -113q4 -111 4 -164q0 -127 -16 -217q-6 -31 -70 -31 q-14 0 -25 4q-51 49 -51 590q0 133 4 354q2 88 2 147q0 88 -4 111q-168 -84 -189 -84h-1q-27 4 -52.5 28t-23.5 46zM403 1251q-1 -49 -1 -104q0 -180 10 -432q49 2 114 26q59 25 119 50q100 39 224 128t139 214q4 23 -15 60.5t-37 49.5q-39 25 -59 31q-8 2 -82 8 q-38 4 -82.5 4t-95.5 -4q-164 -14 -234 -31z" />
<glyph unicode="Q" horiz-adv-x="1409" d="M0 475q0 354 201 627q176 238 430 328q11 4 34 4t58 -4q213 -135 334 -308q112 -163 112 -443q0 -101 -47 -210q-33 -76 -88 -154q-45 -66 -45 -63q4 -12 141 -137q116 -105 116 -165q0 -4 -1 -9q-8 -51 -45 -52q-14 0 -39 7q-41 8 -287 247q-74 -45 -202 -91 q-124 -44 -267 -44h-12q-78 2 -190 82q-59 41 -123 129q-74 104 -78 187q-2 35 -2 69zM129 444q27 -117 100 -186q57 -53 115 -61q52 -8 119 -8q20 0 41 1q135 27 250 89q-4 14 -49 75q-31 46 -31 77v7q6 72 51 72q16 0 37 -8q29 -10 59 -49q31 -45 41 -52q59 6 150 213 q8 23 10 78q2 37 2 72q4 25 4 51q0 199 -180 352q-115 95 -171 95h-5q-57 -14 -95 -44t-73 -61q-39 -39 -113 -108q-221 -193 -262 -605z" />
<glyph unicode="R" horiz-adv-x="1425" d="M0 1247q0 37 33 72q10 10 63 35q104 47 217 59q137 14 259 14q79 0 151 -6q55 0 145 -8q106 -23 174 -102q73 -86 73 -209q0 -15 -1 -31q-6 -100 -47 -158q-23 -31 -98 -94q-47 -37 -162 -78q123 -172 395 -528q64 -79 64 -164v-14v-7q0 -40 -47 -40q-16 0 -35 6 q-74 113 -262 346q-178 223 -252 340q-35 -4 -115 -29q-83 -26 -168 -26h-6q-20 0 -35 2q8 -109 8 -249q0 -158 -10 -355q-20 -37 -74 -37q-31 0 -49 20q-34 192 -34 496q0 47 1 96q9 494 9 587v15h-3q-14 0 -60 -16q-50 -18 -73 -21q-61 31 -61 84zM349 921q0 -68 -3 -124 q16 -6 43 -6q70 0 162 32q76 25 149 49q96 37 160 84q74 51 78 58q41 43 43 119v3q0 55 -68 95q-57 33 -127 41q-16 2 -45 2q-45 0 -121 -4q-128 -6 -192 -15l-90 -14z" />
<glyph unicode="S" horiz-adv-x="1622" d="M0 174q0 55 86 55q18 0 41 -4q186 -10 475 -35q13 -2 30 -2q114 0 380 74q72 18 162 103q100 90 100 161q0 100 -94 146q-49 23 -224 55q-125 20 -395 78q-281 70 -346 149q-68 86 -68 154q0 96 123 162q66 37 260 96q215 64 457 70h13q93 0 204 -27q47 -12 99 -47 q73 -50 73 -83t-22 -55q-14 -14 -54 -14q-23 0 -53 4q-207 33 -286 33h-9q-141 -4 -164 -6q-76 -8 -176 -37q-219 -65 -219 -117q0 -40 80 -69q23 -8 164 -47q129 -23 418 -82q413 -98 413 -378q0 -26 -4 -52q-20 -156 -145 -252q-96 -73 -305 -143q-178 -59 -395 -60 q-37 0 -76 2q-446 18 -510 94q-33 39 -33 74z" />
<glyph unicode="T" horiz-adv-x="825" d="M0 1206q0 33 27 47q88 33 352 105q286 78 366 84q9 1 17 1q44 0 76 -26q40 -31 39 -67q0 -16 -12.5 -33t-129.5 -47q-92 -23 -184 -45q-12 -207 -14 -670q-2 -436 -5 -457q-25 -98 -75 -98q-55 0 -70.5 93t-17.5 546q0 426 8 522q-33 0 -127 -31q-55 -16 -111 -34h-12 q-53 0 -88 32q-39 36 -39 78z" />
<glyph unicode="U" horiz-adv-x="1329" d="M16 713q31 201 70 299q27 70 96 184q76 131 144 207q39 35 77 35q72 0 82 -97v-6q0 -35 -20 -65q-29 -37 -55 -72q-111 -178 -193 -430q-33 -168 -33 -238q0 -66 15 -120q33 -125 69 -174q51 -68 143 -68h15q156 12 346 170q168 139 205 389q24 141 24 200q0 45 -6 81 q-16 96 -57 182l-82 160q10 86 68 86h2q77 0 159 -170q86 -173 86 -353v-16q-6 -201 -41 -328q-47 -166 -167 -317q-59 -76 -207 -156q-168 -90 -301 -96h-21q-346 0 -414 461q-11 77 -11 146q0 56 7 106z" />
<glyph unicode="V" horiz-adv-x="980" d="M2 1300q0 10 2 17v16q0 103 51 103q39 0 78 -70q59 -229 119 -461q106 -406 203 -565q152 340 215 487q170 401 209 549q23 57 59 58q31 0 59.5 -39t26.5 -64q1 -8 1 -18q0 -78 -58 -258q-51 -158 -111 -295q-123 -279 -293 -676q-39 -84 -86 -84q-55 0 -125 115 q-92 268 -198 608q-152 487 -152 577z" />
<glyph unicode="W" horiz-adv-x="1519" d="M0 1370q0 18 6 37q39 33 66 33q18 0 34.5 -17.5t30.5 -33.5q78 -70 273 -787q18 -78 36 -158q13 -43 44 -43h6q68 137 200 408q39 25 78 25q80 0 119 -105q10 -12 90 -186q74 -164 94 -215q82 154 160 540q78 381 168 541q35 25 70 25q45 0 71 -35q21 -28 20 -65 q0 -9 -1 -17q-4 -43 -27 -92q-29 -68 -37 -92q-33 -109 -76 -287q-51 -215 -69 -287q-57 -223 -152 -528q-29 -29 -47 -29q-25 0 -59 27q-57 49 -170 258q-119 219 -140 241q-39 -37 -126 -239q-78 -182 -99 -252q-41 -39 -76 -39q-51 0 -92 82q-29 72 -59 143 q-25 147 -150 545q-96 303 -161 485q2 14 -11.5 53.5t-13.5 63.5z" />
<glyph unicode="X" horiz-adv-x="1255" d="M0 78q0 14 4 31q186 299 406 667q-45 98 -154 295q-119 215 -168 277q-10 20 -10 34q0 45 72 45q33 0 47 -10q57 -37 178 -239q117 -191 137 -199q25 18 126 218t118 218q23 10 45 10q47 1 77 -37q22 -28 22 -48q0 -7 -3 -13q-39 -47 -137 -256q-106 -225 -142 -278 q53 -66 240 -349q193 -289 209 -335q35 -45 35 -74q0 -35 -45 -35q-68 0 -117 59q-94 141 -190 283q-172 250 -213 272q-23 -14 -185 -270q-170 -270 -205 -309q-37 -31 -73 -31q-74 0 -74 74z" />
<glyph unicode="Y" horiz-adv-x="935" d="M0 1372q0 47 55 47q51 0 99 -45q33 -33 63 -82q47 -86 109 -227q80 -178 104 -227q39 2 216 295.5t247 298.5h11q37 0 58 -12q25 -15 21 -50q-6 -96 -180 -348q-229 -330 -244 -358q-27 -180 -27 -326q0 -31 5 -133q1 -41 1 -77t-1 -67q-2 -55 -66 -63q-18 -4 -33 -4 q-47 0 -59 63q-22 113 -22 279q0 100 8 219q0 12 -2.5 57t-2.5 56q-16 43 -71 131q-68 109 -76 123q-33 63 -92 204q-47 113 -90 174q-31 43 -31 72z" />
<glyph unicode="Z" horiz-adv-x="1490" d="M0 102q0 23 12 41q145 242 301 435q94 117 283 317q199 211 313 350l-55 2q-118 5 -249 5q-175 0 -372 -9q-88 12 -88 98q0 47 37 62q131 18 305 18q308 0 308 -2h-2q72 2 132 2q159 0 228 -12q31 -4 63.5 -31.5t32.5 -58.5q0 -12 -4 -25q-236 -229 -547 -567 q-393 -428 -452 -547q397 18 487 19q129 0 234 -11l280 -24q41 -4 65 -41q20 -30 20 -61q0 -8 -1 -15q-6 -45 -106 -45q-45 0 -122 10.5t-87 10.5q-78 0 -262 -5q-171 -2 -265 -2q-53 0 -143 -16t-168 -16q-39 0 -84 2q-94 43 -94 116z" />
<glyph unicode="[" horiz-adv-x="632" d="M0 786q0 127 6 304q8 213 8 280q20 29 185 47q123 16 176 15q31 0 60.5 -18.5t29.5 -49.5q-2 -27 -123 -41q-98 -8 -199 -16q-16 -152 -24 -533q8 -365 10 -964q94 -20 164 -25q98 -8 129 -16q57 -14 57 -56q-2 -39 -24 -43q-59 -10 -125 -10q-115 0 -232 25 q-57 10 -82 53q-6 12 -6 74q2 98 4 86q-14 647 -14 888z" />
<glyph unicode="\" horiz-adv-x="1312" d="M0 1307q0 66 74 65q57 0 172 -133q78 -92 127 -172q55 -88 436 -555q350 -428 350 -455q0 -72 -92 -71q-59 0 -565 639q-502 631 -502 682z" />
<glyph unicode="]" horiz-adv-x="632" d="M0 -307q0 41 57 55q31 8 129 16q70 4 162 25q4 610 12 985q-8 381 -24 533q-100 8 -201 16q-121 14 -121 41q0 31 33 51q27 16 55 17q53 2 179 -15q164 -18 182 -47q2 -68 10 -280q6 -176 6 -304q0 -262 -14 -909q0 12 2 -86q2 -62 -6 -74q-23 -43 -78 -53 q-117 -25 -236 -24q-63 0 -122 10q-25 4 -25 43z" />
<glyph unicode="^" horiz-adv-x="903" d="M0 956q0 23 117 111q72 53 143 107q106 90 131 94q27 2 66 -20.5t157 -139.5q132 -127 134 -164q2 -25 -29 -24q-23 0 -92 67q-127 121 -199 184q-37 -23 -195 -145q-125 -96 -163 -106q-33 0 -47 6q-23 8 -23 30z" />
<glyph unicode="_" horiz-adv-x="2019" d="M0 -96q0 53 182 76q141 0 788.5 8t788.5 8q31 0 72 -55q35 -51 35 -76q0 -84 -244 -84l-1489 -14q-37 0 -85 46t-48 91z" />
<glyph unicode="`" horiz-adv-x="876" d="M0 1360q0 14 35 37.5t55 23.5q12 0 49 -26q27 -23 56 -43q152 -109 401 -287q35 -23 70 -45q57 -37 57 -55q0 -23 -39 -46.5t-57 -19.5q-59 12 -334 199q-293 199 -293 262z" />
<glyph unicode="a" d="M0 244q0 150 238 321q219 158 348 158q43 0 71 -31q37 -41 71 -79t79 -205q14 -59 91 -186.5t77 -125.5q0 -23 -20.5 -47t-47.5 -24q-37 0 -94 69q-43 51 -84 103q-84 -96 -197.5 -154.5t-205.5 -58.5q-6 0 -21.5 6t-23.5 6q-119 0 -200 75.5t-81 172.5zM172 186 q42 -30 116 -30h5q131 0 227 102q92 96 92 213q0 29 -28 80q-123 -53 -234 -141q-137 -111 -178 -224z" />
<glyph unicode="b" horiz-adv-x="1021" d="M0 1378q2 56 51 56h2q70 -4 94 -123q16 -74 21 -262q6 -197 20 -271q37 0 131 8q86 6 95 7q150 -6 286 -101q160 -109 160 -267v-15q-6 -127 -186 -242q-135 -84 -342 -152q-160 -53 -204 -53h-3q-111 6 -111 139q0 35 9 52q4 211 10 217zM184 541q6 -72 13 -160l-9 -182 l48 -2h8q89 0 250 84q200 105 200 215q0 44 -104 90q-94 41 -156 45h-13q-64 0 -132 -17q-102 -25 -105 -73z" />
<glyph unicode="c" horiz-adv-x="849" d="M0 283q0 150 229 295q205 127 340 127q41 0 82 -31t41 -70q0 -45 -59 -51q-102 -2 -221 -57q-63 -31 -154 -99q-123 -92 -123 -147t148 -90q102 -25 155 -25q6 0 91 10.5t92 10.5q27 0 51 -37.5t24 -55.5q0 -43 -96 -65q-70 -16 -139 -16q-6 0 -26.5 2t-26.5 2 q-133 0 -254 67q-154 84 -154 230z" />
<glyph unicode="d" horiz-adv-x="1085" d="M0 332q0 115 162 231q119 84 278 144q127 47 232 47q19 0 37 -2q24 171 24 337v13q0 51 -2 119.5t-2 89.5q0 61 14.5 84.5t57.5 23.5q131 0 131 -549l-33 -372v-267l12 -223q0 -86 -59 -86q-72 0 -129 86q-57 0 -175 -3l-118 -3q-184 0 -303 86q-127 92 -127 244z M186 254q39 -23 131 -51q82 -25 86 -31h234q31 0 50.5 23t19.5 41q0 27 -7.5 117.5t-7.5 135.5q0 66 15 84q-127 0 -314 -96q-207 -105 -207 -215v-8z" />
<glyph unicode="e" horiz-adv-x="976" d="M0 322q0 133 231 294q213 150 336 150q57 0 113.5 -47t56.5 -101q0 -90 -133 -184q-104 -72 -258 -127q-120 -44 -161 -44q-5 0 -9 1q51 -96 268 -125q9 -1 21 -1q72 0 250 42q25 0 66.5 -38t41.5 -54q0 -53 -116 -80q-70 -16 -144 -18t-121 -4q-37 -2 -41 -2 q-129 0 -260 98q-141 106 -141 240zM240 446q0 -12 12 -14q8 -1 16 -1q105 0 219 97q39 33 39 58q0 18 -28 24q-4 1 -8 1q-40 0 -132 -51q-102 -56 -100 -56l-2 2l8 8q16 18 19 18q0 2 -21.5 -32.5t-21.5 -53.5z" />
<glyph unicode="f" horiz-adv-x="735" d="M0 600q0 55 111 86q119 33 120 39q8 190 15 383q16 170 80 242q76 84 252 84q55 0 108 -61t53 -122q0 -33 -12 -39q-4 -2 -31 -2q2 0 -43 26t-106 26q-100 0 -137 -80q-27 -57 -27 -185v-53v-53q0 -80 -8 -123q4 -4 12 -4q18 0 66.5 20.5t54.5 20.5q84 -8 84 -78v-20 q-2 -10 -2 -13q0 -43 -88 -78q-115 -45 -133 -63v-14q0 -31 6 -97q8 -47 8 -387q0 -63 -55 -67h-2q-55 0 -76 112q-12 68 -17 234q-4 150 -14 180q-25 0 -72 -8t-53 -8q-39 0 -66.5 35.5t-27.5 66.5z" />
<glyph unicode="g" horiz-adv-x="835" d="M-13 -377h1q2 0 82 -40t153 -40q188 0 281 246q62 163 62 342q0 18 -1 37q-94 -82 -209 -90h-14q-98 0 -201 76q-133 98 -137 256v4q0 183 195 254q116 43 310 43h17q49 0 76 -9q51 -12 70 -49q-5 -37 -5 -71q0 -17 1 -33q14 -152 14 -166l-12 -416q0 -113 -66.5 -269.5 t-148.5 -227.5q-111 -66 -131 -74q-41 -14 -146 -14q-47 0 -131 40q-110 53 -110 131q0 70 50 70zM129 410q0 -86 68 -148q59 -53 129 -57h9q127 0 204 110q8 38 8 86q0 67 -15 152q-37 22 -117 22h-7q-109 0 -187 -36q-92 -45 -92 -129z" />
<glyph unicode="h" horiz-adv-x="968" d="M0 991q0 393 33 434h80q39 -25 41 -258q6 -342 18 -448q66 29 131 57q59 23 150 23q135 0 254 -166q108 -156 108 -301q0 -102 -18 -195q-31 -149 -100 -149h-1q-35 0 -57 51q-18 39 -18 67q47 207 47 259q0 74 -45 163q-55 106 -129 107q-113 0 -207 -62 q-109 -70 -109 -184l6 -336q0 -63 -57 -69h-5q-76 0 -93 186q-2 12 -6 270q-2 37 -13 295q-10 250 -10 256z" />
<glyph unicode="i" horiz-adv-x="454" d="M0 889q0 16 18.5 37.5t40.5 21.5q37 0 70 -48t33 -73q0 -20 -19.5 -33.5t-40.5 -13.5q-35 0 -68.5 39t-33.5 70zM25 313l6 320q0 20 17.5 42.5t39.5 22.5q37 0 74 -57q31 -49 31 -70v-178q0 -90 3 -195.5t3 -150.5q0 -20 -20.5 -38.5t-37.5 -18.5q-116 0 -116 318v5z" />
<glyph unicode="j" horiz-adv-x="477" d="M-471 -406q0 49 49 50q16 0 100 -52.5t144 -52.5q150 0 203 236q14 61 24 245q-3 118 -3 179t3 65q-31 279 -31 350q0 109 64 109q139 -1 139 -660q0 -276 -37 -393q-72 -227 -309 -293q-76 2 -186 50q-160 68 -160 167zM43 979q0 45 57 45q37 0 76 -42t39 -75 q0 -53 -63 -53q-39 0 -74 45t-35 80z" />
<glyph unicode="k" horiz-adv-x="880" d="M0 393q0 83 4 179l4 86v-1q0 66 10 301q12 313 27 443q4 25 59 35q100 0 101 -140l-33 -649q0 -37 21 -45l428 180q106 -29 106 -84q0 -49 -137 -116q-80 -33 -160 -68q37 -90 156 -278q108 -168 108 -179q0 -23 -16 -42t-35 -19q-63 0 -151 113q-41 55 -136 213 q-67 112 -86 112q-35 0 -59.5 -18.5t-24.5 -44.5q0 -8 -12 -163t-12 -161q0 -27 -23.5 -49.5t-42.5 -20.5q-96 14 -96 416z" />
<glyph unicode="l" horiz-adv-x="460" d="M0 1184v157q0 78 66 78q104 0 104 -164q0 -35 -6 -137q-4 -68 -4 -112v-27q8 -303 45 -924q0 -65 -62 -65h-2q-80 0 -110 239q-2 14 -25 351q-6 90 -6 604z" />
<glyph unicode="m" horiz-adv-x="1570" d="M0 401v93q2 49 2 45q0 184 84 184q68 0 104 -113q152 100 261 101q70 0 127 -33q37 -20 75 -62q33 -31 39 -30l45 30q53 35 107 58q76 31 151 31q176 0 260 -170q60 -120 60 -267q0 -76 -19 -157q-25 -117 -67 -117q-25 0 -65 54t-40 77q0 8 12.5 95t12.5 95 q0 238 -119 238q-188 0 -252 -145q-31 -74 -43 -273q-8 -147 -61 -147q-100 0 -101 207q0 27 2.5 82t2.5 81q0 201 -97 201q-94 0 -184 -78q-80 -68 -117 -153q-1 -37 -1 -71q0 -139 20 -208q4 -20 -28 -42.5t-58 -22.5q-113 0 -113 417z" />
<glyph unicode="n" horiz-adv-x="1204" d="M0 469q0 117 2 145q14 119 68 119q72 0 118 -115q72 29 146 58q117 43 196 43q170 0 294 -125t124 -283q0 -57 -37 -176q-51 -162 -123 -162q-27 0 -65.5 45t-38.5 68q80 137 80 266q0 211 -258 211q-29 0 -166 -68.5t-143 -86.5q-8 -33 -11 -50q0 -10 2 -30q2 -27 2 -56 q0 -72 6.5 -129t6.5 -82q0 -69 -68 -69h-2q-133 0 -133 477z" />
<glyph unicode="o" horiz-adv-x="919" d="M0 217q0 131 154.5 310.5t279.5 179.5q49 0 82 -17q27 -16 55 -33q123 -63 166 -153q29 -58 29 -150q0 -135 -160 -260q-146 -114 -262 -114h-2h-41q-86 0 -184 61q-117 72 -117 176zM160 195q0 -61 100 -62q88 0 207 66q147 79 147 188q0 59 -41 111.5t-104 52.5 q-68 0 -188.5 -138.5t-120.5 -217.5z" />
<glyph unicode="p" horiz-adv-x="913" d="M0 567q0 176 57 176q53 -2 62 -24q20 -59 20 -60q219 51 264 52q123 0 240 -105.5t117 -232.5q0 -188 -164 -293q-127 -82 -279 -82q-55 0 -92 20q-27 14 -51 29q-4 -31 -4 -125v-155l-6 -316q-6 -23 -13.5 -42t-33.5 -23q-8 -1 -15 -1q-66 0 -71 80q-27 428 -31 1102z M156 379q0 -158 10 -213q18 4 59 -1t39 -5q98 0 203 55q147 76 147 213q0 53 -48 93t-105 40q-76 0 -170 -37q-135 -51 -135 -145z" />
<glyph unicode="q" horiz-adv-x="1015" d="M0 373q0 127 116.5 232.5t239.5 105.5q45 0 265 -52l20 60q8 23 61 24q57 0 58 -176q-4 -674 -31 -1102q-5 -80 -69 -80q-8 0 -17 1q-27 4 -34 23.5t-13 41.5l-6 316v155q0 94 -4 125q-25 -14 -51 -29q-37 -20 -93 -20q-152 0 -278 82q-164 105 -164 293zM145 428 q0 -137 148 -213q104 -55 203 -55q-2 0 38.5 5t59.5 1q10 55 10 213q0 94 -135 145q-94 37 -170 37q-57 0 -105.5 -40t-48.5 -93z" />
<glyph unicode="r" horiz-adv-x="710" d="M0 453v276q0 16 29 33q23 14 30 14q45 0 68 -53q2 -4 25 -82q59 47 167 92q117 49 187 49q43 0 92 -24q61 -31 61 -78q0 -51 -49 -51q-8 0 -40.5 9t-39.5 9q-76 0 -211 -88q-147 -94 -147 -178q0 -6 -10 -168t-10 -168q0 -29 -31 -47q-23 -14 -43 -14q-70 0 -70 141 q0 23 2 50.5t2 25.5v166q0 6 -6 42.5t-6 43.5z" />
<glyph unicode="s" horiz-adv-x="835" d="M0 205q0 59 59 59q16 0 39 -6q4 0 39 -35t84 -53q82 -31 150 -31q153 0 153 121q0 56 -121 86q-117 29 -231 57q-127 45 -127 142q0 16 4 35q14 68 168 110q105 28 157 28q12 0 21 -1q57 -12 107 -43q58 -38 58 -86q0 -7 -1 -13q-4 -27 -49 -26q-29 0 -57 12 q-61 25 -113 25q-45 0 -94 -17q35 -51 125 -63q121 -16 149 -33q72 -33 117 -105.5t45 -144.5q0 -123 -117 -188q-96 -51 -227 -51q-66 0 -123 12q-66 12 -137 76q-78 70 -78 133z" />
<glyph unicode="t" horiz-adv-x="819" d="M0 528q0 35 106 76q72 27 142 51q-6 27 -6 103q0 47 51 59q8 2 16 2q38 0 60 -41q16 -45 34 -88q33 8 68 17q39 8 80 8h16q91 -6 91 -92q0 -7 -1 -15q-4 -51 -110 -73q-129 -29 -144 -41q-4 -4 -4 -27t8.5 -135.5t8.5 -173.5q0 -168 -51 -168t-78 96q-14 57 -31 201 q-12 131 -25 168q-74 -35 -127 -35q-47 0 -75.5 33.5t-28.5 74.5z" />
<glyph unicode="u" horiz-adv-x="966" d="M0 293q0 94 35 221q55 203 164 203q45 0 75.5 -33t30.5 -72q0 -6 -33 -63q-39 -68 -61 -127q-33 -92 -33 -189q0 -43 2 -47q6 -16 41 -24q174 61 256 270q43 137 86 273q23 8 43 8q96 0 96 -125l-43 -355q0 -74 26 -135t26 -71q0 -47 -62 -47q-43 0 -78 38q-4 6 -57 82 q-25 -6 -104 -61q-68 -45 -140 -45q-129 0 -207 115q-63 92 -63 184z" />
<glyph unicode="v" horiz-adv-x="741" d="M0 698q31 27 66 27q57 -2 124 -184q37 -106 74 -215q63 96 156 280q61 121 88 121q39 0 61 -45q19 -34 17 -59q-4 -53 -135 -334q-135 -289 -174 -289h-1q-68 8 -167 303q-84 244 -109 395z" />
<glyph unicode="w" horiz-adv-x="1388" d="M49 723q94 0 148 -182q35 -143 69 -285q20 25 123 258q92 209 119 209q80 -2 121 -82q51 -119 102 -235q14 -37 45 -78q59 -78 60 -80q96 137 196 344q61 123 103 123q45 0 73 -34q24 -30 24 -60q0 -4 -1 -9q-4 -51 -174 -340q-174 -295 -217 -295q-31 0 -158 185 q-68 102 -133 205q-53 -80 -107 -197q-47 -104 -71 -133q-41 -49 -111 -49q-61 0 -129 174q-49 129 -94 327q-35 157 -35 186q0 48 47 48z" />
<glyph unicode="x" horiz-adv-x="776" d="M79 212q75 105 75 114q0 12 -67 135q-62 114 -62 163v7q2 20 18 36.5t29 16.5q59 0 110 -78q35 -66 72 -129q27 16 108 131q74 104 101 105q41 0 69 -21q35 -22 35 -62v-9q-6 -66 -100 -190t-96 -142q4 -6 92 -107q61 -69 61 -121v-8q-4 -53 -57 -53q-37 0 -188 162 q-16 -8 -88 -101.5t-85 -93.5q-30 0 -68 42q-36 40 -36 66q0 29 77 137z" />
<glyph unicode="y" horiz-adv-x="937" d="M0 -510q0 6 25 47q27 49 34 70q98 260 199 420q76 121 76 125q0 8 -33 45q-39 49 -57 79q-27 47 -105 193q-88 170 -88 186q0 59 51 60q45 0 158 -203q129 -225 143 -240q18 23 166 256q119 193 150 193q65 0 65 -88q0 -59 -49 -148q-41 -70 -80 -141q-4 -10 -200 -313 q-186 -289 -226 -400q-88 -249 -139 -249q-33 0 -63 47q-27 39 -27 61z" />
<glyph unicode="z" horiz-adv-x="876" d="M0 109q0 20 143 196q154 188 170 225q-27 14 -61 15q-23 0 -67 -9.5t-64 -9.5q-35 0 -72 26t-37 64q0 43 133 62q76 12 142 12l248 15q37 0 73.5 -30t36.5 -65q0 -10 -170 -198q-199 -221 -219 -248q20 -14 86 -14q39 0 113.5 6t91.5 6q172 0 172 -108q0 -28 -20.5 -45 t-45.5 -17q-227 0 -463 -19h-16q-57 0 -104 25q-70 37 -70 111z" />
<glyph unicode="{" horiz-adv-x="845" d="M0 -16q0 170 193 374q-6 8 -25 9q-16 0 -46 -6.5t-36 -6.5q-27 0 -50.5 28t-23.5 62q0 45 158 86q180 47 199 60q-16 20 -86 75.5t-103 100.5q-49 68 -49 154q0 135 180 327q172 182 258 183q35 0 64 -34t29 -91q-57 -8 -224 -138q-197 -152 -196 -272q0 -31 65 -90 q104 -90 123 -111q66 -72 66 -139q0 -57 -33 -86q-16 -14 -57 -31q-31 -10 -33 -24q-2 -74 -68 -152q-63 -68 -125 -135q-66 -86 -65 -178q0 -76 80 -131q66 -43 110 -43h305q18 0 50 -39t32 -66q0 -14 -11 -35.5t-22 -21.5h-268q-115 0 -233 78q-158 104 -158 293z" />
<glyph unicode="|" horiz-adv-x="299" d="M0 -176q0 133 6 518t6 530q0 154 -5 200t-5 120q0 184 43 217q18 16 39 16q25 0 41 -20q20 -27 20 -733q0 -1008 -43 -1041q-27 -23 -53 -22q-25 0 -41 22q-8 10 -8 193z" />
<glyph unicode="}" horiz-adv-x="845" d="M0 -330q0 27 33 66t49 39h305q45 0 111 43q82 55 82 131q0 92 -68 178q-61 68 -123 135q-68 78 -70 152q0 14 -32 24q-41 16 -58 31q-31 29 -30 86q0 68 65 139q16 20 121 111q68 59 68 90q0 121 -199 272q-164 129 -221 138q-2 57 26.5 91t63.5 34q88 0 258 -183 q180 -193 180 -327q0 -86 -49 -154q-33 -45 -102.5 -100.5t-83.5 -75.5q16 -12 198 -60q156 -41 156 -86q0 -35 -22.5 -62.5t-49.5 -27.5q-8 0 -37.5 6.5t-46.5 6.5q-18 0 -24 -9q193 -205 192 -374q0 -188 -157 -293q-117 -78 -232 -78h-268q-10 0 -22.5 21.5t-12.5 35.5z " />
<glyph unicode="~" horiz-adv-x="1163" d="M0 553q0 102 117 201q109 90 184 90q80 0 176 -80t170 -80q41 0 138.5 83t152.5 83q25 0 48.5 -16.5t23.5 -45.5q0 -47 -142.5 -141t-189.5 -94q-76 0 -166 43q-63 31 -135 80q-61 43 -62 43q-53 0 -149 -116t-103 -116q-23 0 -43 22.5t-20 43.5z" />
<glyph unicode="&#xa1;" horiz-adv-x="391" d="M-102 109q0 2 18 188q18 199 23 281l12 454q4 121 57 121q127 0 127 -328q0 -137 -33 -430q-45 -412 -110 -411q-45 0 -72 43q-22 35 -22 82zM-74 1360q0 70 62 70q53 0 90 -52q29 -41 28 -75q0 -16 -14 -37q-18 -29 -47 -29q-41 0 -84 53q-35 45 -35 70z" />
<glyph unicode="&#xa2;" horiz-adv-x="849" d="M0 283q0 150 229 295q57 35 111 61q39 84 72 201q41 154 94 172q69 26 92 -35q14 -39 -55 -275q14 2 26 3q41 0 82 -31t41 -70q0 -45 -59 -51q-70 -2 -146 -27q-76 -225 -131 -383q49 -8 82 -8q6 0 91 10.5t92 10.5q27 0 51 -37t24 -56q0 -43 -96 -65q-70 -16 -139 -16 q-6 0 -26.5 2t-26.5 2q-55 0 -107 12q-84 -219 -113 -229q-86 -33 -110 34q-8 16 69 252q-147 84 -147 228zM135 250q0 -35 58 -62q27 74 57 162q10 29 18 56l-10 -9q-123 -92 -123 -147z" />
<glyph unicode="&#xa3;" horiz-adv-x="1335" d="M0 827q0 53 182 56q90 0 180 2q-2 86 -6 243q-6 137 -6 191q0 123 21 123q141 8 141 -283q0 -6 -4 -155q-2 -57 -2 -111q127 6 250 6q31 0 71 -55q35 -31 35 -56q0 -63 -244 -63l-104 -4q12 -246 14 -295q4 -139 23 -244q307 53 510 64q106 -18 119 -107q2 -27 -33 -67 q-92 -6 -330 -49q-209 -37 -309 -37q-96 2 -121 100q-18 70 -31 457q-4 111 -4 174l-219 -6q-37 0 -85 35.5t-48 80.5z" />
<glyph unicode="&#xa4;" horiz-adv-x="919" d="M0 586q0 131 154.5 310t279.5 179q49 0 82 -16q27 -16 55 -33q123 -63 166 -154q29 -57 29 -149q0 -135 -160 -260q-147 -115 -264 -115h-41q-86 0 -184 62q-117 72 -117 176zM160 563q0 -61 100 -61q88 0 207 65q147 80 147 189q0 59 -41 111.5t-104 52.5 q-68 0 -188.5 -138.5t-120.5 -218.5z" />
<glyph unicode="&#xa5;" horiz-adv-x="1140" d="M0 1372q0 47 55 47q51 0 99 -45q33 -33 63 -82q47 -86 109 -227q80 -178 104 -227q39 2 216 295.5t247 298.5q45 2 69.5 -12.5t20.5 -49.5q-6 -96 -180 -348q-211 -303 -240 -352q72 8 123 8q10 0 39 2h43q90 0 90 -59q0 -43 -43 -43q-6 0 -60.5 -9.5t-60.5 -9.5 q-51 0 -151 -16q-8 -88 -11 -166l130 14q6 0 71.5 14.5t69.5 14.5q29 0 50 -27.5t21 -56.5q0 -41 -38 -43q6 -2 -93 -17l-208 -26q0 -20 2 -45q2 -82 0 -144q-2 -55 -66 -63q-18 -4 -33 -4q-47 0 -59 63q-14 74 -21 170l-157 -20q-129 4 -129 86q0 55 51 55q4 0 19.5 -5 t23.5 -5l190 20q0 72 4 152q-203 -39 -217 -39q-29 0 -54.5 23.5t-25.5 46.5q0 29 25 55q37 4 272 45v27q-16 43 -71 131q-68 109 -76 123q-33 63 -92 204q-47 113 -90 174q-31 43 -31 72z" />
<glyph unicode="&#xa6;" horiz-adv-x="438" d="M0 1341q0 31 55 72q51 35 76 35q84 0 84 -244l14 -485q0 -37 -46 -85t-91 -48q-53 0 -76 182q0 141 -8 286.5t-8 286.5zM55 412q0 31 56 71q50 35 75 35q84 0 84 -244l15 -485q0 -37 -46 -85t-92 -48q-53 0 -75 182q0 141 -8.5 286.5t-8.5 287.5z" />
<glyph unicode="&#xa7;" horiz-adv-x="1642" d="M0 -92q0 55 86 55q18 0 41 -4q186 -10 475 -35q106 -12 410 72q72 18 162 102q100 90 100 162q0 100 -94 146q-49 23 -224 55q-125 20 -395 78q-281 70 -346 149q-70 88 -68 158q4 94 123 158q-23 16 -34 32q-70 88 -68 158q4 94 123 158q66 37 260 96q215 64 457 70 q98 2 217 -27q47 -12 98 -47q74 -51 74 -84t-21.5 -54.5t-107.5 -9.5q-219 35 -295 33q-141 -4 -164 -6q-76 -8 -176 -37q-223 -66 -219 -119q2 -39 80 -67q23 -8 163 -47q111 -20 336 -66l35 -4h-12q29 -6 59 -12q414 -98 414 -379q0 -25 -4 -51q-12 -84 -51 -150 q35 -66 34 -147q0 -25 -4 -51q-20 -156 -145 -252q-96 -74 -305 -143.5t-471 -57.5q-446 18 -510 94q-33 39 -33 74zM393 819q2 -39 80 -67q23 -8 164 -47q129 -23 418 -82q131 -31 219 -82q20 35 20 67q0 100 -94 146q-49 23 -223 55q-125 20 -395 78q-37 8 -70 18 q-123 -47 -119 -86z" />
<glyph unicode="&#xa8;" horiz-adv-x="681" d="M0 1315q0 49 34 90t81 41q25 0 45 -12q35 -27 35 -91q0 -53 -25 -90q-31 -45 -82 -45q-88 0 -88 107zM334 1315q0 49 32.5 90t82.5 41q23 0 43 -12q37 -27 36 -91q1 -53 -26 -90q-31 -45 -82 -45q-86 0 -86 107z" />
<glyph unicode="&#xa9;" d="M0 743q0 29 6 50q41 193 150 358q131 203 321 285q35 8 78 0q408 -141 416 -424q4 -111 -33 -219q-45 -129 -135 -211q-229 -205 -410 -205h-102q-66 0 -172 90q-119 102 -119 276zM162 678q6 -184 157 -184q147 0 314 127q72 55 112 127q4 10 54 116q24 56 20 185 q-4 84 -37 125q-16 20 -100 81q-45 31 -115 29q-150 -8 -281.5 -210t-123.5 -396zM199 864q0 102 166 197q150 84 247 84q31 0 60.5 -20.5t29.5 -45.5q0 -31 -45 -35q-72 0 -159 -38q-47 -20 -111 -64q-90 -61 -90 -98t106 -60q76 -16 113 -16q4 0 66.5 7t68.5 7 q16 0 35 -25.5t19 -35.5q0 -31 -70 -43q-49 -12 -100 -12q-4 0 -19.5 1t-19.5 1q-98 0 -187 45q-111 55 -110 151z" />
<glyph unicode="&#xaa;" d="M0 961q0 150 238 321q219 158 348 158q43 0 71 -31q37 -41 71 -79t79 -206q14 -59 91 -186t77 -125q0 -23 -20.5 -47.5t-47.5 -24.5q-37 0 -94 70q-43 51 -84 102q-84 -96 -197.5 -154.5t-205.5 -58.5q-6 0 -21.5 6.5t-23.5 6.5q-119 0 -200 75.5t-81 172.5zM172 903 q43 -31 121 -31q131 0 227 103q92 96 92 213q0 29 -28 80q-123 -53 -234 -142q-137 -111 -178 -223z" />
<glyph unicode="&#xab;" horiz-adv-x="1320" d="M0 555q0 16 2 31.5t305 254t326 234.5q35 -8 49 -46t8 -71q-6 -41 -510 -436q51 -61 150 -141q104 -86 155 -141q61 -37 121 -76q84 -59 72 -137q-8 -59 -55 -50q-27 4 -211 150q-170 135 -191 158q-70 57 -139 116q-82 74 -82 154zM471 555q0 16 2 31.5t305 254 t326 234.5q35 -8 49 -46t8 -71q-6 -41 -510 -436q51 -61 150 -141q104 -86 155 -141q61 -37 121 -76q84 -59 72 -137q-8 -59 -55 -50q-27 4 -211 150q-170 135 -191 158q-70 57 -139 116q-82 74 -82 154z" />
<glyph unicode="&#xac;" horiz-adv-x="1617" d="M8 723q0 20 123 20q53 0 191 -6q178 -6 262 -8q12 16 323 8q387 -12 457 -30q98 -25 100 -121q0 -100 -37 -310q-43 -238 -49 -329q-40 -35 -67 -33q-88 12 -107 119q10 203 64 510q-104 18 -244 22q-51 2 -295 15q-166 10 -303 6q-129 -4 -135 -4q-291 0 -283 141z" />
<glyph unicode="&#xad;" horiz-adv-x="1015" d="M0 705q0 53 182 75q141 0 286.5 8.5t287.5 8.5q31 0 71 -56q35 -50 35 -75q0 -84 -244 -84l-485 -15q-37 0 -85 46t-48 92z" />
<glyph unicode="&#xae;" d="M0 743q0 29 6 50q41 193 150 358q131 203 321 285q35 8 78 0q408 -141 416 -424q4 -111 -33 -219q-45 -129 -135 -211q-229 -205 -410 -205h-102q-66 0 -172 90q-119 102 -119 276zM162 678q6 -184 157 -184q147 0 314 127q72 55 112 127q4 10 54 116q24 56 20 185 q-4 84 -37 125q-16 20 -100 81q-45 31 -115 29q-150 -8 -281.5 -210t-123.5 -396zM301 883v188q0 12 21 23q18 10 24 10q35 0 53 -37q0 -2 19 -57q43 35 127 63q90 35 143 35q33 0 70 -16q47 -23 47 -54q0 -35 -39 -34q-4 0 -29.5 5t-29.5 5q-57 0 -162 -60 q-113 -63 -113 -120q0 -4 -7 -115t-7 -115q0 -20 -25 -33q-18 -8 -33 -8q-53 0 -53 96q0 14 2 33l2 19v112q0 4 -5 30t-5 30z" />
<glyph unicode="&#xaf;" horiz-adv-x="1015" d="M0 1339q0 53 182 76q141 0 286.5 8.5t287.5 8.5q31 0 71 -56q35 -51 35 -76q0 -84 -244 -83l-485 -15q-37 0 -85 46t-48 91z" />
<glyph unicode="&#xb0;" horiz-adv-x="919" d="M0 954q0 131 154.5 310.5t279.5 179.5q49 0 82 -17q27 -16 55 -32q123 -63 166 -154q29 -57 29 -149q0 -135 -160 -261q-147 -115 -264 -114h-41q-86 0 -184 61q-117 72 -117 176zM160 932q0 -61 100 -62q88 0 207 66q147 79 147 188q0 59 -41 111.5t-104 52.5 q-68 0 -188.5 -138t-120.5 -218z" />
<glyph unicode="&#xb1;" d="M0 862q0 51 158 78q193 33 200 39q25 14 50 123q35 147 51 190q39 98 102 99q29 0 61.5 -42t32.5 -71q0 -10 -26.5 -118.5t-26.5 -117.5q0 -29 21 -32q-20 4 32 4q8 0 74 7t74 7q55 0 113.5 -32.5t58.5 -75.5q0 -53 -105 -72q-14 -2 -196 -19q-111 -10 -123 -38 q-25 -66 -55 -312q-20 -168 -84 -168q-47 0 -88 48.5t-41 93.5q0 -8 45 274l-11 41q-35 -4 -122 -14q-74 -8 -84 -9q-37 0 -78 54q-33 45 -33 63zM4 152q0 53 182 75q141 0 286.5 8.5t287.5 8.5q31 0 71 -56q35 -50 35 -75q0 -84 -243 -84l-486 -15q-37 0 -85 46t-48 92z " />
<glyph unicode="&#xb2;" horiz-adv-x="874" d="M0 1270q0 61 166 123q145 51 233 53q109 0 183 -98q66 -90 61 -189q0 -98 -75.5 -216t-172.5 -179q70 -27 230 -45q96 -13 96 -62q0 -14 -11.5 -23t-23.5 -9q6 0 -272 30l-308 -30q-29 -6 -59.5 15.5t-30.5 39.5q0 14 140 74q170 70 260 147q141 123 141 291 q0 53 -29 102q-37 61 -98 62q-76 0 -170 -37q-66 -25 -139 -70q-61 -37 -62 -37q-25 0 -42 19.5t-17 38.5z" />
<glyph unicode="&#xb3;" horiz-adv-x="899" d="M0 1362q4 47 135 68q76 12 146 12q381 0 358 -268q-6 -61 -74 -101q8 -16 51 -37q51 -23 64 -35q35 -29 51 -79q14 -41 12 -76q-12 -131 -237 -193q-131 -35 -238 -35q-43 0 -88 -2t-43 -2q-57 0 -51 72q2 29 61 37h74q74 6 144 12q121 14 192 43q98 37 102 103 q4 47 -114 88q-100 33 -135 30l-232 -30q-20 4 -37 35q-10 25 -8 38q2 23 109 43q162 29 200 41q109 33 113 88q10 94 -115 123q-47 10 -164 11q-68 0 -154.5 -24t-76.5 -24q-20 0 -33 27q-12 23 -12 35z" />
<glyph unicode="&#xb4;" horiz-adv-x="876" d="M0 965q0 18 57 55q35 23 70 45q250 178 401 287q29 20 56 43q37 27 49 26q20 0 55 -23.5t35 -37.5q0 -63 -293 -262q-274 -186 -334 -199q-18 -4 -57 19.5t-39 46.5z" />
<glyph unicode="&#xb5;" horiz-adv-x="864" d="M0 293q0 94 35 221q55 203 164 203q45 0 75.5 -33t30.5 -72q0 -6 -33 -63q-39 -68 -61 -127q-33 -92 -33 -189q0 -43 2 -47q6 -16 41 -24q174 61 256 270q43 137 86 273q23 8 43 8q96 0 96 -125l-43 -355q0 -74 26 -135t26 -71q0 -47 -62 -47q-43 0 -78 38q-4 6 -57 82 q-25 -6 -104 -61q-68 -45 -140 -45q-66 0 -118 29l-9 -95q2 -20 0 -131q-2 -27 -2 -270q0 -6 5.5 -36t5.5 -48q0 -63 -66 -64q-49 0 -49 132q0 25 2 59v41q4 418 8 522q-47 80 -47 160z" />
<glyph unicode="&#xb6;" horiz-adv-x="913" d="M0 373q0 127 116.5 232.5t239.5 105.5q45 0 265 -52l20 60q8 23 61 24q57 0 58 -176q-4 -674 -31 -1102q-6 -90 -86 -79q-27 4 -34 23.5t-13 41.5l-6 316v155q0 94 -4 125q-25 -14 -51 -29q-37 -20 -93 -20q-152 0 -278 82q-164 105 -164 293z" />
<glyph unicode="&#xb7;" horiz-adv-x="309" d="M0 672q0 39 26.5 71.5t65.5 32.5q18 0 35 -10q29 -20 29 -72q-1 -42 -21 -71q-25 -37 -65 -37q-70 0 -70 86z" />
<glyph unicode="&#xb8;" horiz-adv-x="303" d="M0 -274q0 -4 16 24q33 66 33 115q0 16 -4 49q-4 25 -2 39q2 8 29.5 29.5t40.5 13.5q37 -18 37 -82q0 -74 -35 -137q-12 -23 -41 -49.5t-49 -26.5q-25 0 -25 25z" />
<glyph unicode="&#xb9;" horiz-adv-x="245" d="M0 741q0 18 2 45v31q4 350 8 408l10 110q2 12 0 37q-2 31 -2 37q0 37 25 49q49 -20 49 -205q0 -59 -4 -110l-8 -88q2 -14 0 -99v-202q0 -4 3 -26.5t3 -37.5q0 -47 -49 -47q-37 0 -37 98z" />
<glyph unicode="&#xba;" horiz-adv-x="919" d="M0 969q0 131 154.5 310t279.5 179q49 0 82 -16q27 -16 55 -33q123 -63 166 -154q29 -57 29 -149q0 -135 -160 -260q-147 -115 -264 -115h-41q-86 0 -184 62q-117 72 -117 176zM160 946q0 -61 100 -61q88 0 207 65q147 80 147 189q0 59 -41 111.5t-104 52.5 q-68 0 -188.5 -138.5t-120.5 -218.5z" />
<glyph unicode="&#xbb;" horiz-adv-x="1318" d="M4 965q-4 33 10.5 70.5t48.5 45.5q23 4 325 -234.5t304 -253.5t2 -32q0 -80 -82 -153q-70 -59 -139 -117q-20 -23 -190 -158q-182 -145 -211 -149q-47 -10 -56 49q-12 78 72 137q61 39 121 76q51 55 156 141q98 80 149 141q-504 396 -510 437zM475 965q-4 33 10.5 70.5 t49.5 45.5q23 4 324.5 -234.5t303.5 -253.5t2 -32q0 -80 -82 -153q-70 -59 -139 -117q-20 -23 -190 -158q-182 -145 -211 -149q-47 -10 -56 49q-12 78 72 137q61 39 121 76q51 55 156 141q98 80 149 141q-504 396 -510 437z" />
<glyph unicode="&#xbc;" horiz-adv-x="1544" d="M0 43q0 20 262 340q287 350 328 418q37 59 96 129q86 98 129 98q55 0 55 -49q0 -37 -376 -510q-379 -479 -424 -479q-70 0 -70 53zM53 459q0 18 2 45v31q4 350 8 407l11 111q2 12 0 37q-2 31 -2 36q0 37 24 50q49 -20 49 -205q0 -60 -4 -111l-8 -88q2 -14 0 -98v-203 q0 -4 3 -26.5t3 -36.5q0 -47 -49 -48q-37 0 -37 99zM827 465v287q0 14 9 36q12 27 28 27q78 -2 78 -149q0 -20 -2 -59.5t-2 -57.5q0 -78 23 -98q102 0 144 -2.5t77 -2.5q27 0 27.5 178.5t39.5 178.5q27 0 49 -33q14 -27 15 -49q-6 -51 -2 -135q2 -143 2 -131q57 -4 69 -23 q9 -8 9 -49q0 -29 -29 -35q-39 -8 -43 -14q0 -70 -4 -210t-58 -140q-57 0 -57 102l12 250q-16 10 -94 10q-39 0 -106.5 -3t-79.5 -3q-104 0 -105 125z" />
<glyph unicode="&#xbd;" horiz-adv-x="1576" d="M0 43q0 20 262 340q287 350 328 418q37 59 96 129q86 98 129 98q55 0 55 -49q0 -37 -376 -510q-379 -479 -424 -479q-70 0 -70 53zM84 428q0 18 2 45v31q4 350 8 407l10 111q2 12 0 37q-2 31 -2 37q0 37 25 49q49 -20 49 -205q0 -60 -4 -111l-8 -88q2 -14 0 -98v-203 q0 -4 3 -26.5t3 -36.5q0 -47 -49 -47q-37 0 -37 98zM705 635q0 61 165 123q143 51 234 53q109 0 180 -98q66 -90 64 -189q-2 -98 -77 -216t-173 -179q70 -27 231 -45q94 -12 94 -61q0 -14 -11 -23.5t-23 -9.5q6 0 -273 30l-307 -30q-29 -6 -59.5 15.5t-30.5 39.5 q0 14 139 74q172 70 262 147q141 123 142 291q0 53 -29 102q-37 61 -98 62q-76 0 -172 -37q-63 -25 -138 -70q-63 -37 -63 -36q-23 0 -40 19t-17 38z" />
<glyph unicode="&#xbe;" horiz-adv-x="2086" d="M2 1004q2 47 133 67q78 12 146 12q381 0 358 -268q-6 -61 -72 -100q8 -16 51 -37q49 -23 62 -35q37 -29 53 -80q14 -41 10 -76q-10 -131 -235 -192q-131 -35 -240 -35q-43 0 -88 -2t-41 -2q-57 0 -51 72q2 29 59 37h76l144 12q121 14 190 43q98 37 105 102q4 47 -117 88 q-98 33 -135 31l-232 -31q-20 4 -35 35q-10 25 -10 39q2 23 111 43q160 29 198 41q109 33 115 88q8 94 -117 123q-47 10 -164 10q-68 0 -154.5 -23.5t-74.5 -23.5q-20 0 -35 27q-12 23 -10 35zM559 43q0 20 262 340q287 350 328 418q37 59 96 129q86 98 129 98q56 0 56 -49 q0 -37 -377 -510q-379 -479 -424 -479q-70 0 -70 53zM1370 465v287q0 14 10 36q12 27 29 27q76 -2 76 -149q0 -20 -1 -59.5t-1 -57.5q0 -78 20 -98q104 0 145.5 -2.5t75.5 -2.5q29 0 30 178.5t38 178.5q29 0 49 -33q16 -27 17 -49q-6 -51 -5 -135q4 -143 5 -131 q57 -4 69 -23q6 -8 6 -49q0 -29 -26 -35q-41 -8 -45 -14q0 -70 -4.5 -210t-57.5 -140q-57 0 -57 102l12 250q-16 10 -92 10q-39 0 -106.5 -3t-79.5 -3q-106 0 -107 125z" />
<glyph unicode="&#xbf;" horiz-adv-x="960" d="M0 301q0 137 109 225q31 23 202 115q59 33 146 145q49 61 55 119v191q6 133 66 131q61 -4 61 -142q0 12 -4 -75q-12 -268 -154 -406q-47 -45 -256 -158q-133 -70 -131 -178q0 -49 66 -102q53 -45 73 -45q86 -6 140 -6q127 0 221 32q66 23 115 64l43 33q23 0 39 -33 q16 -27 16 -47q0 -94 -160 -141q-131 -41 -317 -37q-104 2 -205 77q-125 95 -125 238zM506 1372q0 61 43 62q29 0 51 -45q18 -39 18 -66q0 -61 -47 -61q-23 0 -44 40.5t-21 69.5z" />
<glyph unicode="&#xc0;" horiz-adv-x="1275" d="M0 43q0 47 201 487q-18 -2 -35 -6q-43 -6 -60 -6q-86 -4 -86 70q0 41 137.5 98t137.5 62q43 135 127 333q125 297 139 332q31 29 55 29q45 0 86 -88q74 -250 132 -430q25 0 60.5 17t55.5 15q90 -8 90 -63q0 -27 -22 -80q-18 -6 -76.5 -37t-60.5 -31q45 -176 112 -356 q53 -145 109 -291l10 -20q10 -21 10 -29q0 -63 -55 -63q-53 0 -102 47q-27 25 -113 254q-84 215 -96 276q-2 16 -23 68q-23 59 -35 57q-180 -51 -260 -86q-31 -25 -96 -190q-82 -213 -121 -285q-78 -145 -149 -145q-72 0 -72 61zM217 2021q0 14 35 38t55 24q12 0 49 -27 q27 -23 56 -43q152 -109 401 -287q35 -23 70 -45q57 -37 57 -55q0 -23 -39 -46.5t-57 -18.5q-59 12 -334 198q-293 199 -293 262zM514 823q6 0 72 19q43 12 69 28q-37 119 -53 170q-61 -125 -88 -217z" />
<glyph unicode="&#xc1;" horiz-adv-x="1275" d="M0 43q0 47 201 487q-18 -2 -35 -6q-43 -6 -60 -6q-86 -4 -86 70q0 41 137.5 98t137.5 62q43 135 127 333q125 297 139 332q31 29 55 29q45 0 86 -88q74 -250 132 -430q25 0 60.5 17t55.5 15q90 -8 90 -63q0 -27 -22 -80q-18 -6 -76.5 -37t-60.5 -31q45 -176 112 -356 q53 -145 109 -291l10 -20q10 -21 10 -29q0 -63 -55 -63q-53 0 -102 47q-27 25 -113 254q-84 215 -96 276q-2 16 -23 68q-23 59 -35 57q-180 -51 -260 -86q-31 -25 -96 -190q-82 -213 -121 -285q-78 -145 -149 -145q-72 0 -72 61zM209 1626q0 18 57 55q35 23 70 45 q250 178 401 287q29 20 56 43q37 27 49 27q20 0 55 -23.5t35 -38.5q0 -63 -293 -262q-274 -186 -334 -198q-18 -4 -57 19t-39 46zM514 823q6 0 72 19q43 12 69 28q-37 119 -53 170q-61 -125 -88 -217z" />
<glyph unicode="&#xc2;" horiz-adv-x="1275" d="M0 43q0 47 201 487q-18 -2 -35 -6q-43 -6 -60 -6q-86 -4 -86 70q0 41 137.5 98t137.5 62q43 135 127 333q125 297 139 332q31 29 55 29q45 0 86 -88q74 -250 132 -430q25 0 60.5 17t55.5 15q90 -8 90 -63q0 -27 -22 -80q-18 -6 -76.5 -37t-60.5 -31q45 -176 112 -356 q53 -145 109 -291l10 -20q10 -21 10 -29q0 -63 -55 -63q-53 0 -102 47q-27 25 -113 254q-84 215 -96 276q-2 16 -23 68q-23 59 -35 57q-180 -51 -260 -86q-31 -25 -96 -190q-82 -213 -121 -285q-78 -145 -149 -145q-72 0 -72 61zM199 1587q0 23 116 111l144 106 q106 90 131 94q27 2 65.5 -20.5t157.5 -138.5q131 -127 133 -164q2 -25 -28 -25q-23 0 -93 68q-127 121 -198 184q-37 -23 -195 -145q-125 -96 -164 -107q-33 0 -47 6q-23 8 -22 31zM514 823q6 0 72 19q43 12 69 28q-37 119 -53 170q-61 -125 -88 -217z" />
<glyph unicode="&#xc3;" horiz-adv-x="1294" d="M0 43q0 47 201 487q-18 -2 -35 -6q-43 -6 -60 -6q-86 -4 -86 70q0 41 137.5 98t137.5 62q43 135 127 333q125 297 139 332q31 29 55 29q45 0 86 -88q74 -250 132 -430q25 0 60.5 17t55.5 15q90 -8 90 -63q0 -27 -22 -80q-18 -6 -76.5 -37t-60.5 -31q45 -176 112 -356 q53 -145 109 -291l10 -20q10 -21 10 -29q0 -63 -55 -63q-53 0 -102 47q-27 25 -113 254q-84 215 -96 276q-2 16 -23 68q-23 59 -35 57q-180 -51 -260 -86q-31 -25 -96 -190q-82 -213 -121 -285q-78 -145 -149 -145q-72 0 -72 61zM123 1622q0 102 117 201q109 90 184 90 q80 0 176 -80t170 -80q41 0 138.5 83t152.5 83q25 0 48.5 -16t23.5 -45q0 -47 -142.5 -141.5t-189.5 -94.5q-76 0 -166 43q-63 31 -135 80q-61 43 -62 43q-53 0 -149 -116t-103 -116q-23 0 -43 23t-20 43zM514 823q6 0 72 19q43 12 69 28q-37 119 -53 170q-61 -125 -88 -217 z" />
<glyph unicode="&#xc4;" horiz-adv-x="1275" d="M0 43q0 47 201 487q-18 -2 -35 -6q-43 -6 -60 -6q-86 -4 -86 70q0 41 137.5 98t137.5 62q43 135 127 333q125 297 139 332q31 29 55 29q45 0 86 -88q74 -250 132 -430q25 0 60.5 17t55.5 15q90 -8 90 -63q0 -27 -22 -80q-18 -6 -76.5 -37t-60.5 -31q45 -176 112 -356 q53 -145 109 -291l10 -20q10 -21 10 -29q0 -63 -55 -63q-53 0 -102 47q-27 25 -113 254q-84 215 -96 276q-2 16 -23 68q-23 59 -35 57q-180 -51 -260 -86q-31 -25 -96 -190q-82 -213 -121 -285q-78 -145 -149 -145q-72 0 -72 61zM354 1663q0 49 34 90t81 41q25 0 45 -12 q35 -27 35 -90q0 -53 -25 -90q-31 -45 -82 -46q-88 0 -88 107zM514 823q6 0 72 19q43 12 69 28q-37 119 -53 170q-61 -125 -88 -217zM688 1663q0 49 33 90t82 41q23 0 43 -12q37 -27 37 -90q0 -53 -27 -90q-31 -45 -82 -46q-86 0 -86 107z" />
<glyph unicode="&#xc5;" horiz-adv-x="1275" d="M0 43q0 -61 72 -61t149 145q39 72 121 285q66 166 96 190q80 35 260 86q12 2 35 -57q20 -51 23 -68q12 -61 96 -276q86 -229 113 -254q49 -47 102 -47q55 0 55 63q0 8 -10 29l-10 20q-55 145 -109 291q-68 180 -112 356q2 0 60 31t77 37q23 53 22 80q0 55 -90 63 q-20 2 -56 -15t-60 -17q-57 180 -132 430q-41 88 -86 88q-25 0 -55 -29q-14 -35 -139 -332q-84 -199 -127 -333q0 -4 -137.5 -61.5t-137.5 -98.5q0 -74 86 -70q16 0 60 6q16 4 35 6q-201 -440 -201 -487zM338 1735q0 98 115.5 233t210.5 135q37 0 61 -12q18 -12 41 -25 q92 -49 125 -116q20 -43 20 -111q0 -102 -118 -197q-111 -86 -199 -86h-31q-66 0 -139 48q-86 53 -86 131zM457 1718q0 -45 75 -45q66 0 156 49q111 60 111 142q0 43 -31 83t-80 40t-140 -104.5t-91 -164.5zM514 823q27 92 88 217q16 -51 53 -170q-27 -16 -69 -28 q-66 -19 -72 -19z" />
<glyph unicode="&#xc6;" horiz-adv-x="1677" d="M12 -41q12 43 305 449q-20 -2 -34 -7q-41 -6 -58 -6q-80 -4 -61 66q10 37 150.5 90t140.5 55q72 125 198 307q63 92 107 156h-2q-37 -6 -60 -4q-37 27 -36 57q0 25 22 56q31 39 336 122q211 55 424 113q23 4 43 4q72 0 72 -57q0 -35 -27 -80q-47 -10 -318 -84 q-250 -68 -260 -68q-16 -49 -18 -153v-158q-4 -43 12 -43q10 0 31 12q193 49 274 86q84 16 84 -65q0 -41 -30 -84q-27 -6 -367 -119q-2 -37 -2 -76q0 -53 9 -163.5t7 -171.5q66 10 220 59q168 53 294 106q106 -6 107 -57q0 -24 -23 -61q-121 -51 -393 -136 q-164 -51 -328 -100h-83q-12 8 -25 14q-27 18 -31 66q14 18 49 37q86 10 86 65q0 8 -2 22.5t-2 20.5q-8 109 -16 322q-174 -47 -254 -78q-35 -23 -137 -176q-125 -195 -178 -262q-106 -133 -172 -133t-54 57zM676 676q2 0 41 10h4q10 4 24 8q16 4 31 8q16 6 27 21 q0 59 2 147q-84 -110 -129 -194z" />
<glyph unicode="&#xc7;" horiz-adv-x="1312" d="M0 535v165q0 254 193 469q186 205 403 226q23 4 158 16q96 2 102 2q229 0 229 -137q0 -80 -73 -80q-23 0 -69 13.5t-64 13.5q-113 8 -172 0q-59 -16 -119 -32.5t-92 -39.5q-158 -59 -287 -260q-20 -49 -41 -96q-10 -23 -18 -70q23 -195 40 -256q51 -168 193 -246 q154 -47 395 -37q57 2 156.5 45t157.5 45q27 -16 47 -51.5t14 -60.5q-18 -88 -143 -119q-127 -45 -361 -45h-168q-61 0 -160.5 45t-144.5 94q-176 193 -176 396zM670 -274q0 -25 24 -25q20 0 49 26.5t41 49.5q35 63 35 137q0 63 -37 82q-12 8 -39.5 -13.5t-29.5 -29.5 q-2 -14 2 -39q4 -33 4 -49q0 -49 -33 -115q-16 -29 -16 -24z" />
<glyph unicode="&#xc8;" horiz-adv-x="1067" d="M0 1122q0 25 23 56q31 39 335 122q211 55 424 113q23 4 43 4q72 0 72 -57q0 -35 -27 -80q-47 -10 -317 -84q-250 -68 -260 -68q-16 -49 -19 -153v-158q-4 -43 13 -43q10 0 30 12q193 49 275 86q84 16 84 -65q0 -41 -31 -84q-27 -6 -366 -119q-2 -37 -3 -76 q0 -53 9.5 -163.5t7.5 -171.5q66 10 219 59q168 53 295 106q106 -6 106 -57q1 -24 -22 -61q-121 -51 -393 -136q-164 -51 -328 -100h-84q-12 8 -25 14q-27 18 -30 66q14 18 49 37q86 10 86 65q0 8 -2 22.5t-2 20.5q-8 113 -17 336q-18 -6 -71 4q-45 0 -45 47q0 37 26 70 q25 6 49.5 12.5t36.5 24.5q0 123 11 356q-10 -2 -56 -10q-37 -6 -59 -4q-37 27 -37 57zM80 2021q0 14 35 38t55 24q12 0 49 -27q27 -23 55 -43q152 -109 402 -287q35 -23 69 -45q58 -37 58 -55q0 -23 -39 -46.5t-57 -18.5q-59 12 -334 198q-293 199 -293 262z" />
<glyph unicode="&#xc9;" horiz-adv-x="1067" d="M0 1120q0 25 23 56q31 39 335 122q211 55 424 113q23 4 43 4q72 0 72 -57q0 -35 -27 -80q-47 -10 -317 -84q-250 -68 -260 -68q-16 -49 -19 -153v-158q-4 -43 13 -43q10 0 30 12q193 49 275 86q84 16 84 -65q0 -41 -31 -84q-27 -6 -366 -119q-2 -37 -3 -76 q0 -53 9.5 -163.5t7.5 -172.5q66 10 219 60q168 53 295 106q106 -6 106 -57q1 -24 -22 -61q-121 -51 -393 -136q-164 -51 -328 -100h-84q-12 8 -25 14q-27 18 -30 66q14 18 49 37q86 10 86 65q0 8 -2 22.5t-2 20.5q-8 113 -17 336q-18 -6 -71 4q-45 0 -45 47q0 37 26 70 q25 6 49.5 12t36.5 25q0 123 11 356q-10 -2 -56 -10q-37 -6 -59 -4q-37 27 -37 57zM55 1622q0 18 58 55q35 23 69 45q250 178 402 287q29 20 55 43q37 27 49 27q20 0 55 -23.5t35 -38.5q0 -63 -293 -262q-274 -186 -333 -199q-18 -4 -57.5 19.5t-39.5 46.5z" />
<glyph unicode="&#xca;" horiz-adv-x="1067" d="M0 1124q0 25 23 56q31 39 335 123q211 55 424 112q23 4 43 4q72 0 72 -57q0 -35 -27 -80q-47 -10 -317 -84q-250 -68 -260 -68q-16 -49 -19 -153v-158q-4 -43 13 -43q10 0 30 12q193 49 275 86q84 16 84 -65q0 -41 -31 -84q-27 -6 -366 -119q-2 -37 -3 -76 q0 -53 9.5 -163.5t7.5 -171.5q66 10 219 59q168 53 295 106q106 -6 106 -57q1 -24 -22 -61q-121 -51 -393 -136q-164 -51 -328 -100h-84q-12 8 -25 14q-27 18 -30 66q14 18 49 37q86 10 86 65q0 8 -2 22.5t-2 20.5q-8 113 -17 336q-18 -6 -71 4q-45 0 -45 47q0 37 26 70 q25 6 49.5 12.5t36.5 24.5q0 123 11 356q-10 -2 -56 -10q-37 -6 -59 -4q-37 27 -37 57zM43 1587q0 23 117 111q72 53 143 106q106 90 131 94q27 2 66 -20.5t157 -138.5q132 -127 134 -164q2 -25 -29 -25q-23 0 -92 68q-127 121 -199 184q-37 -23 -195 -145 q-125 -96 -163 -107q-33 0 -47 6q-23 8 -23 31z" />
<glyph unicode="&#xcb;" horiz-adv-x="1067" d="M0 1122q0 25 23 56q31 39 335 122q211 55 424 113q23 4 43 4q72 0 72 -57q0 -35 -27 -80q-47 -10 -317 -84q-250 -68 -260 -68q-16 -49 -19 -153v-158q-4 -43 13 -43q10 0 30 12q193 49 275 86q84 16 84 -65q0 -41 -31 -84q-27 -6 -366 -119q-2 -37 -3 -76 q0 -53 9.5 -163.5t7.5 -171.5q66 10 219 59q168 53 295 106q106 -6 106 -57q1 -24 -22 -61q-121 -51 -393 -136q-164 -51 -328 -100h-84q-12 8 -25 14q-27 18 -30 66q14 18 49 37q86 10 86 65q0 8 -2 22.5t-2 20.5q-8 113 -17 336q-18 -6 -71 4q-45 0 -45 47q0 37 26 70 q25 6 49.5 12.5t36.5 24.5q0 123 11 356q-10 -2 -56 -10q-37 -6 -59 -4q-37 27 -37 57zM158 1659q0 49 33.5 90t80.5 41q25 0 45 -12q35 -27 35 -90q1 -54 -24 -91q-31 -45 -82 -45q-88 0 -88 107zM492 1659q0 49 32.5 90t81.5 41q23 0 43 -12q37 -27 37 -90q0 -54 -27 -91 q-31 -45 -81 -45q-86 0 -86 107z" />
<glyph unicode="&#xcc;" horiz-adv-x="976" d="M0 1122q0 16 10 72q299 115 647 221q20 8 45 8q47 0 84 -23.5t37 -56.5q0 -39 -59 -71q-150 -78 -236 -92q29 -403 29 -602q0 -143 -10 -283q37 6 67 22q25 12 58 15q59 4 82 -15q16 -22 34 -47q-2 -31 -30 -51q-51 -35 -53 -37q-55 -16 -273 -104q-180 -72 -254 -80 q-25 -4 -49 -6q-16 -2 -53 14q-37 0 -37 53q0 27 8 54q90 29 328 116q27 580 -4 916q-43 -6 -240 -74q-80 2 -105.5 11.5t-25.5 39.5zM88 2001q0 14 35 37.5t55 23.5q12 0 49 -26q27 -23 56 -43q152 -109 401 -287q35 -23 70 -45q57 -37 57 -55q0 -23 -39 -46.5t-57 -19.5 q-59 12 -334 199q-293 199 -293 262z" />
<glyph unicode="&#xcd;" horiz-adv-x="976" d="M0 1122q0 16 10 72q299 115 647 221q20 8 45 8q47 0 84 -23.5t37 -56.5q0 -39 -59 -71q-150 -78 -236 -92q29 -403 29 -602q0 -143 -10 -283q37 6 67 22q25 12 58 15q59 4 82 -15q16 -22 34 -47q-2 -31 -30 -51q-51 -35 -53 -37q-55 -16 -273 -104q-180 -72 -254 -80 q-25 -4 -49 -6q-16 -2 -53 14q-37 0 -37 53q0 27 8 54q90 29 328 116q27 580 -4 916q-43 -6 -240 -74q-80 2 -105.5 11.5t-25.5 39.5zM18 1626q0 18 58 55q35 23 69 45q250 178 402 287q29 20 55 43q37 27 49 27q20 0 55 -23.5t35 -38.5q0 -63 -292 -262 q-274 -186 -334 -198q-18 -4 -57.5 19t-39.5 46z" />
<glyph unicode="&#xce;" horiz-adv-x="976" d="M0 1122q0 16 10 72q299 115 647 221q20 8 45 8q47 0 84 -23.5t37 -56.5q0 -39 -59 -71q-150 -78 -236 -92q29 -403 29 -602q0 -143 -10 -283q37 6 67 22q25 12 58 15q59 4 82 -15q16 -22 34 -47q-2 -31 -30 -51q-51 -35 -53 -37q-55 -16 -273 -104q-180 -72 -254 -80 q-25 -4 -49 -6q-16 -2 -53 14q-37 0 -37 53q0 27 8 54q90 29 328 116q27 580 -4 916q-43 -6 -240 -74q-80 2 -105.5 11.5t-25.5 39.5zM10 1593q0 23 117 111q72 53 143 106q106 90 131 95q27 2 66 -20.5t158 -139.5q131 -127 133 -164q2 -25 -29 -25q-23 0 -92 68 q-127 121 -199 184q-37 -23 -194 -145q-125 -96 -164 -107q-33 0 -47 7q-23 8 -23 30z" />
<glyph unicode="&#xcf;" horiz-adv-x="976" d="M0 1122q0 16 10 72q299 115 647 221q20 8 45 8q47 0 84 -23.5t37 -56.5q0 -39 -59 -71q-150 -78 -236 -92q29 -403 29 -602q0 -143 -10 -283q37 6 67 22q25 12 58 15q59 4 82 -15q16 -22 34 -47q-2 -31 -30 -51q-51 -35 -53 -37q-55 -16 -273 -104q-180 -72 -254 -80 q-25 -4 -49 -6q-16 -2 -53 14q-37 0 -37 53q0 27 8 54q90 29 328 116q27 580 -4 916q-43 -6 -240 -74q-80 2 -105.5 11.5t-25.5 39.5zM166 1669q0 49 33.5 90t81.5 41q25 0 45 -12q35 -27 34 -90q1 -53 -24 -90q-31 -45 -82 -45q-88 0 -88 106zM500 1669q0 49 32.5 90 t81.5 41q23 0 43 -12q37 -27 37 -90q1 -53 -26 -90q-31 -45 -82 -45q-86 0 -86 106z" />
<glyph unicode="&#xd0;" horiz-adv-x="1771" d="M0 68q0 27 10 69q57 47 367 74q10 61 26 410l-260 -9q-37 0 -85 46.5t-48 91.5q0 53 183 75q106 0 217 4q8 246 4 275q-2 31 0 59l4 37q0 23 -29 33q-12 6 -29 6q-47 0 -141 -43t-104 -41q-68 6 -88.5 28.5t-22.5 92.5q78 76 250 117q145 35 303 34q53 0 96 -4 q82 -4 230 -22q213 -23 301 -58q197 -76 272 -137q162 -131 146 -350q-10 -141 -136 -293q-86 -106 -223 -209q-59 -43 -119 -84q-180 -92 -465 -182q-334 -104 -520 -104q-55 0 -92 10q-47 35 -47 74zM518 295q0 -37 19 -41l36 2q102 35 203 70q135 47 193 82 q217 127 313 225q133 135 152 303q6 47 -72 127q-86 88 -186 104q-137 59 -302 74q-127 12 -313 31q-18 -250 -29 -436q119 6 234 6q31 0 72 -56q34 -50 34 -75q0 -84 -243 -84l-107 -4q-8 -205 -2 -287q-2 -20 -2 -41z" />
<glyph unicode="&#xd1;" horiz-adv-x="1220" d="M18 1366q4 76 84 76q27 0 48 -12q100 -53 247 -318q53 -96 252 -506q147 -303 221 -393q2 59 7 178q27 498 6 774q-2 27 -15 99q-12 61 -12 98q23 70 57 70q23 0 58 -35q12 -14 41 -64q53 -113 53 -415q0 -528 2 -445q-4 -326 -31 -420q-16 -55 -86 -55q-63 0 -104 39 q-23 27 -45 55q-170 227 -328 547q-193 387 -268 508q-14 -53 -15 -232v-217q33 -319 23 -548q8 -2 8 -60q0 -98 -55 -104q-39 -4 -61.5 30.5t-43.5 71.5q-27 393 -26 625q0 217 2 432q0 33 -10 110q-10 72 -9 111zM20 1618q0 102 117 201q109 90 185 90q80 0 176 -80 t170 -80q41 0 138 83t152 83q25 0 48.5 -16.5t23.5 -45.5q0 -47 -142.5 -141t-189.5 -94q-76 0 -166 43q-63 31 -135 80l-61 43q-53 0 -149.5 -116t-102.5 -116q-23 0 -43.5 22.5t-20.5 43.5z" />
<glyph unicode="&#xd2;" horiz-adv-x="1218" d="M0 498q0 37 6 65q45 260 162 484q145 274 352 387q39 8 86 0q445 -193 455 -574q4 -150 -37 -297q-49 -176 -147 -284q-252 -281 -447 -281h-113q-72 0 -186 125q-63 66 -98 178q-33 100 -33 197zM176 410q6 -252 174 -252q100 0 189 51q63 37 153 123q76 72 121 170 q6 12 57 157q29 76 23 250q-2 115 -37 170q-18 27 -111 109q-8 8 -45 22q-49 18 -82 17q-162 -10 -306 -283.5t-136 -533.5zM201 2021q0 14 34.5 38t55.5 24q12 0 49 -27q27 -23 55 -43q152 -109 402 -287q35 -23 69 -45q58 -37 58 -55q0 -23 -39 -46.5t-58 -18.5 q-59 12 -333 198q-293 199 -293 262z" />
<glyph unicode="&#xd3;" horiz-adv-x="1218" d="M0 498q0 37 6 65q45 260 162 484q145 274 352 387q39 8 86 0q445 -193 455 -574q4 -150 -37 -297q-49 -176 -147 -284q-252 -281 -447 -281h-113q-72 0 -186 125q-63 66 -98 178q-33 100 -33 197zM131 1626q0 18 57 55q35 23 70 45q250 178 401 287q29 20 56 43 q37 27 49 27q20 0 55 -23.5t35 -38.5q0 -63 -293 -262q-274 -186 -334 -198q-18 -4 -57 19t-39 46zM176 410q6 -252 174 -252q100 0 189 51q63 37 153 123q76 72 121 170q6 12 57 157q29 76 23 250q-2 115 -37 170q-18 27 -111 109q-8 8 -45 22q-49 18 -82 17 q-162 -10 -306 -283.5t-136 -533.5z" />
<glyph unicode="&#xd4;" horiz-adv-x="1218" d="M0 498q0 37 6 65q45 260 162 484q145 274 352 387q39 8 86 0q445 -193 455 -574q4 -150 -37 -297q-49 -176 -147 -284q-252 -281 -447 -281h-113q-72 0 -186 125q-63 66 -98 178q-33 100 -33 197zM141 1585q0 23 117 111q72 53 143 106q106 90 131 94q27 2 66 -20.5 t158 -138.5q131 -127 133 -164q2 -25 -29 -25q-23 0 -92 68q-127 121 -199 184q-37 -23 -194 -145q-125 -96 -164 -107q-33 0 -47 6q-23 8 -23 31zM176 410q6 -252 174 -252q100 0 189 51q63 37 153 123q76 72 121 170q6 12 57 157q29 76 23 250q-2 115 -37 170 q-18 27 -111 109q-8 8 -45 22q-49 18 -82 17q-162 -10 -306 -283.5t-136 -533.5z" />
<glyph unicode="&#xd5;" horiz-adv-x="1245" d="M0 498q0 37 6 65q45 260 162 484q145 274 352 387q39 8 86 0q445 -193 455 -574q4 -150 -37 -297q-49 -176 -147 -284q-252 -281 -447 -281h-113q-72 0 -186 125q-63 66 -98 178q-33 100 -33 197zM86 1620q0 102 117 201q109 90 184 90q80 0 176 -80t170 -80 q41 0 138.5 83t152.5 83q25 0 48.5 -16.5t23.5 -45.5q0 -47 -142.5 -141t-189.5 -94q-76 0 -166 43q-63 31 -135 80q-61 43 -62 43q-53 0 -149 -116t-102 -116q-23 0 -43.5 22.5t-20.5 43.5zM176 410q6 -252 174 -252q100 0 189 51q63 37 153 123q76 72 121 170q6 12 57 157 q29 76 23 250q-2 115 -37 170q-18 27 -111 109q-8 8 -45 22q-49 18 -82 17q-162 -10 -306 -283.5t-136 -533.5z" />
<glyph unicode="&#xd6;" horiz-adv-x="1218" d="M0 498q0 37 6 65q45 260 162 484q145 274 352 387q39 8 86 0q445 -193 455 -574q4 -150 -37 -297q-49 -176 -147 -284q-252 -281 -447 -281h-113q-72 0 -186 125q-63 66 -98 178q-33 100 -33 197zM176 410q6 -252 174 -252q100 0 189 51q63 37 153 123q76 72 121 170 q6 12 57 157q29 76 23 250q-2 115 -37 170q-18 27 -111 109q-8 8 -45 22q-49 18 -82 17q-162 -10 -306 -283.5t-136 -533.5zM276 1661q0 49 34 90t81 41q25 0 45 -12q35 -27 35 -90q0 -54 -25 -91q-31 -45 -81 -45q-88 0 -89 107zM610 1661q0 49 33 90t82 41q23 0 43 -12 q37 -27 37 -90q0 -54 -27 -91q-31 -45 -82 -45q-86 0 -86 107z" />
<glyph unicode="&#xd7;" horiz-adv-x="1077" d="M5 455.5q5 62.5 38 95.5q-6 -6 225 162l23 37q-29 20 -98 75q-57 47 -66 54q-25 27 -16 92q8 55 22 69q35 35 166 -57q160 -113 170 -115q27 -6 121 54q129 80 170 98q98 41 143 -4q20 -20 13 -72.5t-27 -73.5q-6 -8 -101.5 -65t-101.5 -64q-20 -20 -10 -36 q-10 16 26 -21q6 -6 57.5 -47t57.5 -47q39 -39 57.5 -103.5t-12.5 -95.5q-37 -37 -125 23q-10 8 -151 127q-86 70 -115 59q-63 -29 -260 -182q-133 -104 -176 -60q-35 35 -30 97.5z" />
<glyph unicode="&#xd8;" horiz-adv-x="1368" d="M0 57q0 27 350 455q381 467 436 555q49 80 127 172q115 133 172 133q74 1 74 -65q0 -51 -502 -682q-506 -639 -565 -639q-92 0 -92 71zM150 498q0 37 6 65q45 260 161 484q145 274 353 387q39 8 86 0q444 -193 454 -574q4 -150 -36 -297q-49 -176 -148 -284 q-252 -281 -446 -281h-113q-72 0 -186 125q-63 66 -99 178q-33 100 -32 197zM326 410q6 -252 174 -252q100 0 188 51q63 37 154 123q76 72 121 170q6 12 57 157q28 76 22 250q-2 115 -36 170q-18 27 -111 109q-8 8 -45 22q-49 18 -82 17q-162 -10 -306.5 -283.5 t-135.5 -533.5z" />
<glyph unicode="&#xd9;" horiz-adv-x="1329" d="M16 713q31 201 70 299q27 70 96 184q76 131 144 207q39 35 77 35q72 0 82 -97q2 -39 -20 -71q-29 -37 -55 -72q-111 -178 -193 -430q-33 -168 -33 -238q0 -66 15 -120q33 -125 69 -174q55 -74 158 -68q156 12 346 170q168 139 205 389q25 147 24 205q0 41 -6 76 q-16 96 -57 182l-82 160q10 86 68 86q78 2 161 -170q90 -181 86 -369q-6 -201 -41 -328q-47 -166 -167 -317q-59 -76 -207 -156q-168 -90 -301 -96q-365 -14 -435 461q-20 139 -4 252zM242 2015q0 14 34.5 38t55.5 24q12 0 49 -27q27 -23 55 -43q152 -109 402 -287 q35 -23 69 -45q58 -37 58 -55q0 -23 -39 -46.5t-58 -19.5q-59 12 -333 199q-293 199 -293 262z" />
<glyph unicode="&#xda;" horiz-adv-x="1329" d="M16 713q31 201 70 299q27 70 96 184q76 131 144 207q39 35 77 35q72 0 82 -97q2 -39 -20 -71q-29 -37 -55 -72q-111 -178 -193 -430q-33 -168 -33 -238q0 -66 15 -120q33 -125 69 -174q55 -74 158 -68q156 12 346 170q168 139 205 389q25 147 24 205q0 41 -6 76 q-16 96 -57 182l-82 160q10 86 68 86q78 2 161 -170q90 -181 86 -369q-6 -201 -41 -328q-47 -166 -167 -317q-59 -76 -207 -156q-168 -90 -301 -96q-365 -14 -435 461q-20 139 -4 252zM287 1626q0 18 57 55q35 23 70 45q250 178 401 287q29 20 55 43q37 27 50 27 q20 0 55 -23.5t35 -38.5q0 -63 -293 -262q-274 -186 -334 -198q-18 -4 -57 19t-39 46z" />
<glyph unicode="&#xdb;" horiz-adv-x="1329" d="M16 713q31 201 70 299q27 70 96 184q76 131 144 207q39 35 77 35q72 0 82 -97q2 -39 -20 -71q-29 -37 -55 -72q-111 -178 -193 -430q-33 -168 -33 -238q0 -66 15 -120q33 -125 69 -174q55 -74 158 -68q156 12 346 170q168 139 205 389q25 147 24 205q0 41 -6 76 q-16 96 -57 182l-82 160q10 86 68 86q78 2 161 -170q90 -181 86 -369q-6 -201 -41 -328q-47 -166 -167 -317q-59 -76 -207 -156q-168 -90 -301 -96q-365 -14 -435 461q-20 139 -4 252zM223 1585q0 23 117 111q72 53 143 106q106 90 131 94q27 2 66 -20.5t158 -138.5 q131 -127 133 -164q2 -25 -29 -25q-23 0 -92 68q-127 121 -199 184q-37 -23 -194 -145q-125 -96 -164 -107q-33 0 -47 6q-23 8 -23 31z" />
<glyph unicode="&#xdc;" horiz-adv-x="1329" d="M16 713q31 201 70 299q27 70 96 184q76 131 144 207q39 35 77 35q72 0 82 -97q2 -39 -20 -71q-29 -37 -55 -72q-111 -178 -193 -430q-33 -168 -33 -238q0 -66 15 -120q33 -125 69 -174q55 -74 158 -68q156 12 346 170q168 139 205 389q25 147 24 205q0 41 -6 76 q-16 96 -57 182l-82 160q10 86 68 86q78 2 161 -170q90 -181 86 -369q-6 -201 -41 -328q-47 -166 -167 -317q-59 -76 -207 -156q-168 -90 -301 -96q-365 -14 -435 461q-20 139 -4 252zM420 1663q0 49 33.5 90t81.5 41q25 0 45 -12q35 -27 34 -90q1 -53 -24 -90 q-31 -45 -82 -46q-88 0 -88 107zM754 1663q0 49 32.5 90t81.5 41q23 0 43 -12q37 -27 37 -90q1 -53 -26 -90q-31 -45 -82 -46q-86 0 -86 107z" />
<glyph unicode="&#xdd;" horiz-adv-x="1140" d="M0 1372q0 47 55 47q51 0 99 -45q33 -33 63 -82q47 -86 109 -227q80 -178 104 -227q39 2 216 295.5t247 298.5q45 2 69.5 -12.5t20.5 -49.5q-6 -96 -180 -348q-229 -330 -244 -358q-27 -180 -27 -326q0 -31 5 -133q2 -82 0 -144q-2 -55 -66 -63q-18 -4 -33 -4 q-47 0 -59 63q-35 180 -14 498q0 12 -2.5 57t-2.5 56q-16 43 -71 131q-68 109 -76 123q-33 63 -92 204q-47 113 -90 174q-31 43 -31 72zM94 1620q0 18 58 55q35 23 69 45q250 178 402 287q29 20 55 43q37 27 49 27q20 0 55 -23.5t35 -38.5q0 -63 -293 -262 q-274 -186 -334 -199q-18 -4 -57 19.5t-39 46.5z" />
<glyph unicode="&#xde;" horiz-adv-x="1288" d="M2 1200q4 57 53 90q4 2 90 43q45 20 101 37q-2 90 -8 221l-5 307q0 20 17.5 43t40.5 23q37 0 74 -57q31 -49 30 -70v-178q0 -90 2 -197q2 -29 2 -55l50 8q162 25 313 17q356 -21 368 -332q4 -94 -49 -166q-8 -12 -125 -127q-51 -53 -274 -156q-43 -20 -140.5 -46.5 t-119.5 -37.5q-2 -47 2 -151q4 -111 4 -164q0 -127 -16 -217q-6 -31 -70 -31q-14 0 -25 4q-51 49 -51 590q0 133 4 354t-2 258q-172 -86 -190 -84q-27 4 -52.5 28t-23.5 46zM403 1251q-4 -207 9 -536q49 2 114 26l119 50q100 39 224 128t139 214q4 23 -15 60.5t-37 49.5 q-39 25 -59 31q-8 2 -82 8q-76 8 -178 0q-164 -14 -234 -31z" />
<glyph unicode="&#xdf;" horiz-adv-x="1253" d="M0 252q0 55 111 86q119 33 120 39q8 190 15 383q16 170 80 241q76 84 272 89q53 2 92 2q31 2 66 0q131 2 227 -50q117 -66 117 -188q0 -72 -45 -144.5t-117 -105.5q-29 -16 -150 -33q-59 -8 -96 -32q37 -25 96 -33t97 -17q2 0 4 -2q35 -6 49 -14q72 -33 117 -105.5 t45 -144.5q0 -123 -117 -188q-96 -51 -227 -51q-66 0 -123 12q-66 12 -137 76q-78 70 -78 133q0 59 59 59q16 0 39 -6q4 0 39 -35t84 -53q82 -31 149 -31q150 0 154 117q4 59 -121 90l-59 14q-49 4 -127 27q-154 43 -168 111q-4 18 -4 34v9v4q0 16 4 35q14 68 168 110 q80 20 129 27q29 6 57 14q125 31 121 90q-4 117 -154 117q-68 4 -137 4q-47 -4 -69 -6q-14 0 -29 -2q-106 -20 -143 -100q-27 -57 -27 -185v-106q-4 -74 -6 -123q-2 -6 -2 -29l-2 -76q2 -74 0 -122q-2 -27 0 -91q4 -55 10 -395q0 -63 -55 -67q-57 -2 -78 112q-12 68 -17 234 q-4 150 -14 180q-25 0 -72 -8t-53 -8q-39 0 -66.5 35.5t-27.5 66.5zM967 424q2 -8 4 -18q6 18 -4 18zM1012 739q0 5 2 11q-2 -4 -2 -11z" />
<glyph unicode="&#xe0;" d="M0 244q0 150 238 321q219 158 348 158q43 0 71 -31q37 -41 71 -79t79 -205q14 -59 91 -186.5t77 -125.5q0 -23 -20.5 -47t-47.5 -24q-37 0 -94 69q-43 51 -84 103q-84 -96 -197.5 -154.5t-205.5 -58.5q-6 0 -21.5 6t-23.5 6q-119 0 -200 75.5t-81 172.5zM78 1380 q0 14 34.5 38t55.5 24q12 0 49 -27q27 -23 55 -43q152 -109 402 -287q35 -23 69 -45q58 -37 58 -55q0 -23 -39 -46.5t-57 -18.5q-59 12 -334 198q-293 199 -293 262zM172 186q43 -31 121 -30q131 0 227 102q92 96 92 213q0 29 -28 80q-123 -53 -234 -141 q-137 -111 -178 -224z" />
<glyph unicode="&#xe1;" horiz-adv-x="1130" d="M-10 985q0 18 57 55q35 23 70 45q250 178 401 287q29 20 55 43q37 27 50 27q20 0 55 -23.5t35 -38.5q0 -63 -293 -262q-274 -186 -334 -198q-18 -4 -57 19t-39 46zM2 244q0 150 238 321q219 158 348 158q43 0 71 -31q37 -41 71 -79t79 -205q14 -59 91 -186.5t77 -125.5 q0 -23 -20.5 -47t-47.5 -24q-37 0 -94 69q-43 51 -84 103q-84 -96 -197.5 -154.5t-205.5 -58.5q-6 0 -21.5 6t-23.5 6q-119 0 -200 75.5t-81 172.5zM174 186q43 -31 121 -30q131 0 227 102q92 96 92 213q0 29 -28 80q-123 -53 -234 -141q-137 -111 -178 -224z" />
<glyph unicode="&#xe2;" d="M0 244q0 150 238 321q219 158 348 158q43 0 71 -31q37 -41 71 -79t79 -205q14 -59 91 -186.5t77 -125.5q0 -23 -20.5 -47t-47.5 -24q-37 0 -94 69q-43 51 -84 103q-84 -96 -197.5 -154.5t-205.5 -58.5q-6 0 -21.5 6t-23.5 6q-119 0 -200 75.5t-81 172.5zM0 1141 q0 23 117 110q72 53 143 107q106 90 131 94q27 2 66 -20.5t157 -139.5q132 -127 134 -164q2 -25 -29 -24q-23 0 -92 67q-127 121 -199 185q-37 -23 -195 -146q-125 -96 -163 -106q-33 0 -47 6q-23 8 -23 31zM172 186q43 -31 121 -30q131 0 227 102q92 96 92 213q0 29 -28 80 q-123 -53 -234 -141q-137 -111 -178 -224z" />
<glyph unicode="&#xe3;" horiz-adv-x="1124" d="M-123 1147q0 102 117 201q109 90 184 90q80 0 176.5 -80t169.5 -80q41 0 138.5 83t152.5 83q25 0 48.5 -16.5t23.5 -45.5q0 -47 -142.5 -141t-189.5 -94q-76 0 -166 43q-63 31 -135 80l-61 43q-53 0 -149.5 -116t-102.5 -116q-23 0 -43.5 22.5t-20.5 43.5zM-4 244 q0 150 237 321q219 158 349 158q43 0 71 -31q37 -41 71 -79t79 -205q14 -59 91 -186.5t77 -125.5q0 -23 -20.5 -47t-47.5 -24q-37 0 -94 69q-43 51 -84 103q-84 -96 -197.5 -154.5t-205.5 -58.5q-6 0 -21.5 6t-24.5 6q-119 0 -199.5 75.5t-80.5 172.5zM168 186 q43 -31 121 -30q131 0 227 102q92 96 92 213q0 29 -28 80q-123 -53 -234 -141q-137 -111 -178 -224z" />
<glyph unicode="&#xe4;" d="M0 244q0 150 238 321q219 158 348 158q43 0 71 -31q37 -41 71 -79t79 -205q14 -59 91 -186.5t77 -125.5q0 -23 -20.5 -47t-47.5 -24q-37 0 -94 69q-43 51 -84 103q-84 -96 -197.5 -154.5t-205.5 -58.5q-6 0 -21.5 6t-23.5 6q-119 0 -200 75.5t-81 172.5zM115 1315 q0 49 33.5 90t80.5 41q25 0 45 -12q35 -27 35 -91q1 -53 -24 -90q-31 -45 -82 -45q-88 0 -88 107zM172 186q43 -31 121 -30q131 0 227 102q92 96 92 213q0 29 -28 80q-123 -53 -234 -141q-137 -111 -178 -224zM449 1315q0 49 32.5 90t81.5 41q23 0 43 -12q37 -27 37 -91 q0 -53 -27 -90q-31 -45 -81 -45q-86 0 -86 107z" />
<glyph unicode="&#xe5;" d="M0 244q0 150 238 321q219 158 348 158q43 0 71 -31q37 -41 71 -79t79 -205q14 -59 91 -186.5t77 -125.5q0 -23 -20.5 -47t-47.5 -24q-37 0 -94 69q-43 51 -84 103q-84 -96 -197.5 -154.5t-205.5 -58.5q-6 0 -21.5 6t-23.5 6q-119 0 -200 75.5t-81 172.5zM94 1083 q0 98 116 233.5t210 135.5q37 0 61 -12q18 -12 41 -25q92 -49 125 -117q21 -42 21 -110q0 -102 -119 -197q-111 -86 -199 -86h-31q-66 0 -139 47q-86 53 -86 131zM172 186q43 -31 121 -30q131 0 227 102q92 96 92 213q0 29 -28 80q-123 -53 -234 -141q-137 -111 -178 -224z M213 1067q0 -45 76 -45q66 0 155 49q111 59 111 141q0 43 -30.5 83t-80.5 40q-49 0 -140 -104.5t-91 -163.5z" />
<glyph unicode="&#xe6;" horiz-adv-x="1728" d="M0 244q0 150 238 321q219 158 348 158q43 0 71 -31q37 -41 71 -79t79 -205q14 -59 91 -186.5t77 -125.5q0 -23 -20.5 -47t-47.5 -24q-37 0 -94 69q-43 51 -84 103q-84 -96 -197.5 -154.5t-205.5 -58.5q-6 0 -21.5 6t-23.5 6q-119 0 -200 75.5t-81 172.5zM172 186 q43 -31 121 -30q131 0 227 102q92 96 92 213q0 29 -28 80q-123 -53 -234 -141q-137 -111 -178 -224zM752 260q0 133 231 295q213 150 336 150q57 0 113.5 -47.5t56.5 -100.5q0 -90 -133 -184q-104 -72 -258 -127q-135 -49 -170 -43q51 -96 268 -125q63 -8 270 41 q25 0 67 -38t42 -54q0 -53 -117 -80q-70 -16 -143.5 -18.5t-120.5 -4.5q-37 -2 -41 -2q-129 0 -260 98q-141 106 -141 240zM991 385q0 -12 13 -14q112 -8 235 96q39 33 39 57q0 18 -29 25q-39 6 -140 -50.5t-99 -56.5l-2 2q2 2 8 9q16 18 18 18q0 2 -21.5 -33t-21.5 -53z " />
<glyph unicode="&#xe7;" horiz-adv-x="849" d="M0 283q0 150 229 295q205 127 340 127q41 0 82 -31t41 -70q0 -45 -59 -51q-102 -2 -221 -57q-63 -31 -154 -99q-123 -92 -123 -147t148 -90q102 -25 155 -25q6 0 91 10.5t92 10.5q27 0 51 -37.5t24 -55.5q0 -43 -96 -65q-70 -16 -139 -16q-6 0 -26.5 2t-26.5 2 q-133 0 -254 67q-154 84 -154 230zM328 -295q0 -25 24 -24q20 0 49 26t41 49q35 63 35 138q0 63 -37 81q-12 8 -39.5 -13t-29.5 -30q-2 -14 2 -38q4 -33 4 -50q0 -49 -33 -114q-16 -29 -16 -25z" />
<glyph unicode="&#xe8;" horiz-adv-x="972" d="M-4 322q0 133 231 294q213 150 336 150q57 0 113.5 -47t56.5 -101q0 -90 -133 -184q-104 -72 -258 -127q-135 -49 -170 -43q51 -96 268 -125q63 -8 271 41q25 0 66.5 -38t41.5 -54q0 -53 -117 -80q-70 -16 -143.5 -18t-120.5 -4q-37 -2 -41 -2q-129 0 -260 98 q-141 106 -141 240zM20 1380q0 14 35 38t56 24q12 0 49 -27q27 -23 55 -43q152 -109 401 -287q35 -23 70 -45q57 -37 57 -55q0 -23 -38.5 -46.5t-57.5 -18.5q-59 12 -334 198q-293 199 -293 262zM236 446q0 -12 12 -14q112 -8 235 96q39 33 39 58q0 18 -28 24 q-39 6 -140.5 -50t-99.5 -56l-2 2l8 8q16 18 19 18q0 2 -21.5 -32.5t-21.5 -53.5z" />
<glyph unicode="&#xe9;" horiz-adv-x="980" d="M4 322q0 133 232 294q213 150 335 150q57 0 113.5 -47t56.5 -101q0 -90 -133 -184q-104 -72 -258 -127q-135 -49 -170 -43q51 -96 269 -125q63 -8 270 41q25 0 66.5 -38t41.5 -54q0 -53 -116 -80q-70 -16 -143.5 -18t-121.5 -4q-37 -2 -40 -2q-129 0 -261 98 q-141 106 -141 240zM20 985q0 18 58 55q35 23 69 45q250 178 402 287q29 20 55 43q37 27 49 27q20 0 55 -23.5t35 -38.5q0 -63 -292 -262q-274 -186 -334 -198q-18 -4 -57.5 19t-39.5 46zM244 446q0 -12 12 -14q113 -8 236 96q39 33 38 58q0 18 -28 24q-39 6 -140.5 -50 t-99.5 -56l-2 2l8 8q16 18 19 18q0 2 -21.5 -32.5t-21.5 -53.5z" />
<glyph unicode="&#xea;" horiz-adv-x="970" d="M-6 322q0 133 231 294q213 150 336 150q57 0 113.5 -47t56.5 -101q0 -90 -133 -184q-104 -72 -258 -127q-135 -49 -170 -43q51 -96 268 -125q63 -8 271 41q25 0 66.5 -38t41.5 -54q0 -53 -117 -80q-70 -16 -143.5 -18t-120.5 -4q-37 -2 -41 -2q-129 0 -260 98 q-141 106 -141 240zM0 956q0 23 117 111q72 53 143 107q106 90 131 94q27 2 66 -20.5t157 -139.5q132 -127 134 -164q2 -25 -29 -24q-23 0 -92 67q-127 121 -199 184q-37 -23 -195 -145q-125 -96 -163 -106q-33 0 -47 6q-23 8 -23 30zM233 446q0 -12 13 -14q112 -8 235 96 q39 33 39 58q0 18 -28 24q-39 6 -140.5 -50t-99.5 -56l-2 2l8 8q16 18 18 18q0 2 -21.5 -32.5t-21.5 -53.5z" />
<glyph unicode="&#xeb;" horiz-adv-x="976" d="M0 322q0 133 231 294q213 150 336 150q57 0 113.5 -47t56.5 -101q0 -90 -133 -184q-104 -72 -258 -127q-135 -49 -170 -43q51 -96 268 -125q63 -8 271 41q25 0 66.5 -38t41.5 -54q0 -53 -116 -80q-70 -16 -144 -18t-121 -4q-37 -2 -41 -2q-129 0 -260 98 q-141 106 -141 240zM182 1315q0 49 34 90t81 41q25 0 45 -12q35 -27 35 -91q0 -53 -25 -90q-31 -45 -82 -45q-88 0 -88 107zM240 446q0 -12 12 -14q112 -8 235 96q39 33 39 58q0 18 -28 24q-39 6 -140.5 -50t-99.5 -56l-2 2l8 8q16 18 19 18q0 2 -21.5 -32.5t-21.5 -53.5z M516 1315q0 49 33 90t82 41q23 0 43 -12q37 -27 37 -91q0 -53 -27 -90q-31 -45 -82 -45q-86 0 -86 107z" />
<glyph unicode="&#xec;" horiz-adv-x="391" d="M-287 1380q0 14 35 38t55 24q12 0 50 -27q27 -23 55 -43q152 -109 401 -287q35 -23 70 -45q57 -37 57 -55q0 -23 -39 -46.5t-57 -18.5q-59 12 -334 198q-293 199 -293 262zM-23 889q0 16 18.5 37.5t41.5 21.5q37 0 69.5 -48t32.5 -73q0 -20 -19.5 -33.5t-39.5 -13.5 q-35 0 -69 39t-34 70zM2 313l6 320q0 20 17.5 42.5t40.5 22.5q37 0 73 -57q31 -49 31 -70v-178q0 -90 3 -195.5t3 -150.5q0 -20 -20.5 -38.5t-36.5 -18.5q-117 0 -117 323z" />
<glyph unicode="&#xed;" horiz-adv-x="376" d="M-328 1006q0 18 58 55q35 23 69 45q250 178 402 287q29 20 55 43q37 27 49 26q20 0 55 -23.5t35 -37.5q0 -63 -293 -262q-274 -186 -333 -199q-18 -4 -57.5 19.5t-39.5 46.5zM-14 889q0 16 18.5 37.5t40.5 21.5q37 0 69.5 -48t32.5 -73q0 -20 -19 -33.5t-40 -13.5 q-35 0 -68.5 39t-33.5 70zM10 313l6 320q0 20 17.5 42.5t40.5 22.5q37 0 73 -57q31 -49 31 -70v-178q0 -90 3 -195.5t3 -150.5q0 -20 -20.5 -38.5t-36.5 -18.5q-117 0 -117 323z" />
<glyph unicode="&#xee;" horiz-adv-x="352" d="M-328 1141q0 23 117 110q72 53 143 107q106 90 131 94q27 2 66 -20.5t158 -139.5q131 -127 133 -164q2 -25 -29 -24q-23 0 -92 67q-127 121 -199 185q-37 -23 -194 -146q-125 -96 -164 -106q-33 0 -47 6q-23 8 -23 31zM-27 889q0 16 18.5 37.5t41.5 21.5q37 0 69.5 -48 t32.5 -73q0 -20 -19.5 -33.5t-39.5 -13.5q-35 0 -69 39t-34 70zM-2 313l6 320q0 20 17.5 42.5t39.5 22.5q37 0 74 -57q31 -49 31 -70v-178q0 -90 3 -195.5t3 -150.5q0 -20 -20.5 -38.5t-36.5 -18.5q-117 0 -117 323z" />
<glyph unicode="&#xef;" horiz-adv-x="362" d="M-184 1315q0 49 33.5 90t80.5 41q25 0 45 -12q35 -27 35 -91q1 -53 -24 -90q-31 -45 -82 -45q-88 0 -88 107zM-18 889q0 16 18 37.5t41 21.5q37 0 69.5 -48t32.5 -73q0 -20 -19.5 -33.5t-39.5 -13.5q-35 0 -68.5 39t-33.5 70zM6 313l6 320q0 20 17.5 42.5t40.5 22.5 q37 0 73 -57q31 -49 31 -70v-178q0 -90 3 -195.5t3 -150.5q0 -20 -20.5 -38.5t-36.5 -18.5q-117 0 -117 323zM150 1315q0 49 32.5 90t81.5 41q23 0 43 -12q37 -27 37 -91q0 -53 -27 -90q-31 -45 -81 -45q-86 0 -86 107z" />
<glyph unicode="&#xf0;" horiz-adv-x="1153" d="M0 332q0 115 162 231q119 84 278 144q150 55 269 45q12 96 18 190q-127 -78 -164 -86q-18 -4 -57 19.5t-39 46.5q0 18 57 55l70 45q74 51 139 98q0 45 -2 101q-2 70 -2 90q0 61 14.5 84.5t57.5 23.5q74 0 106 -174q47 35 88 64q29 20 56 43q37 27 49 26q20 0 55 -23.5 t35 -37.5q0 -61 -264 -244q6 -90 6 -203l-33 -372v-267l12 -223q0 -86 -59 -86q-72 0 -129 86q-57 0 -176 -4l-117 -2q-184 0 -303 86q-127 92 -127 244zM186 254q39 -23 131 -51q82 -25 86 -31h234q31 0 50.5 23t19.5 41q0 27 -7.5 117.5t-7.5 135.5q0 66 15 84 q-127 0 -314 -96q-215 -109 -207 -223z" />
<glyph unicode="&#xf1;" horiz-adv-x="1114" d="M-20 1126q0 102 116 201q109 90 185 90q80 0 176 -80t170 -80q41 0 138 83t153 83q25 0 48 -16t23 -45q0 -47 -142 -141.5t-190 -94.5q-76 0 -165 43q-63 31 -136 80l-61 43q-53 0 -149.5 -115.5t-102.5 -115.5q-23 0 -43 22.5t-20 42.5zM8 469q0 117 2 145 q14 119 68 119q72 0 119 -115q72 29 145 58q117 43 197 43q170 0 293.5 -125t123.5 -283q0 -57 -36 -176q-51 -162 -123 -162q-27 0 -66 45t-39 68q80 137 80 266q0 211 -258 211q-29 0 -166 -68.5t-143 -86.5q-8 -33 -10 -50q0 -10 2 -30q2 -27 2 -56q0 -72 6 -129t6 -82 q0 -70 -70 -69q-133 0 -133 477z" />
<glyph unicode="&#xf2;" horiz-adv-x="919" d="M0 217q0 131 154.5 310.5t279.5 179.5q49 0 82 -17q27 -16 55 -33q123 -63 166 -153q29 -58 29 -150q0 -135 -160 -260q-147 -115 -264 -114h-41q-86 0 -184 61q-117 72 -117 176zM20 1380q0 14 35 38t56 24q12 0 49 -27q27 -23 55 -43q152 -109 401 -287q35 -23 70 -45 q57 -37 57 -55q0 -23 -38.5 -46.5t-57.5 -18.5q-59 12 -334 198q-293 199 -293 262zM160 195q0 -61 100 -62q88 0 207 66q147 79 147 188q0 59 -41 111.5t-104 52.5q-68 0 -188.5 -138.5t-120.5 -217.5z" />
<glyph unicode="&#xf3;" horiz-adv-x="927" d="M0 985q0 18 57 55q35 23 70 45q250 178 401 287q29 20 56 43q37 27 49 27q20 0 55 -23.5t35 -38.5q0 -63 -293 -262q-274 -186 -334 -198q-18 -4 -57 19t-39 46zM8 217q0 131 154.5 310.5t279.5 179.5q49 0 82 -17q27 -16 56 -33q123 -63 165 -153q29 -58 29 -150 q0 -135 -160 -260q-147 -115 -264 -114h-41q-86 0 -184 61q-117 72 -117 176zM168 195q0 -61 100 -62q88 0 207 66q148 79 148 188q0 59 -41 111.5t-105 52.5q-68 0 -188.5 -138.5t-120.5 -217.5z" />
<glyph unicode="&#xf4;" horiz-adv-x="915" d="M-4 217q0 131 154.5 310.5t279.5 179.5q49 0 82 -17q27 -16 55 -33q123 -63 166 -153q29 -58 29 -150q0 -135 -160 -260q-147 -115 -264 -114h-41q-86 0 -184 61q-117 72 -117 176zM0 1120q0 23 117 111q72 53 143 106q106 90 131 95q27 2 66 -20.5t157 -139.5 q132 -127 134 -164q2 -25 -29 -25q-23 0 -92 68q-127 121 -199 184q-37 -23 -195 -145q-125 -96 -163 -107q-33 0 -47 7q-23 8 -23 30zM156 195q0 -61 100 -62q88 0 207 66q147 79 147 188q0 59 -41 111.5t-104 52.5q-68 0 -188.5 -138.5t-120.5 -217.5z" />
<glyph unicode="&#xf5;" horiz-adv-x="931" d="M-119 1147q0 102 117 201q109 90 184 90q80 0 176.5 -80t169.5 -80q41 0 138.5 83t152.5 83q25 0 48.5 -16.5t23.5 -45.5q0 -47 -142.5 -141t-189.5 -94q-76 0 -166 43q-63 31 -135 80l-61 43q-53 0 -149.5 -116t-102.5 -116q-23 0 -43.5 22.5t-20.5 43.5zM-6 217 q0 131 154.5 310.5t279.5 179.5q49 0 82 -17q27 -16 55 -33q123 -63 166 -153q29 -58 29 -150q0 -135 -160 -260q-147 -115 -264 -114h-41q-86 0 -184 61q-117 72 -117 176zM154 195q0 -61 100 -62q88 0 207 66q147 79 147 188q0 59 -41 111.5t-104 52.5 q-68 0 -188.5 -138.5t-120.5 -217.5z" />
<glyph unicode="&#xf6;" horiz-adv-x="919" d="M0 217q0 131 154.5 310.5t279.5 179.5q49 0 82 -17q27 -16 55 -33q123 -63 166 -153q29 -58 29 -150q0 -135 -160 -260q-147 -115 -264 -114h-41q-86 0 -184 61q-117 72 -117 176zM119 1315q0 49 33.5 90t80.5 41q25 0 46 -12q35 -27 34 -91q1 -53 -24 -90 q-31 -45 -82 -45q-88 0 -88 107zM160 195q0 -61 100 -62q88 0 207 66q147 79 147 188q0 59 -41 111.5t-104 52.5q-68 0 -188.5 -138.5t-120.5 -217.5zM453 1315q0 49 32.5 90t81.5 41q23 0 43 -12q37 -27 37 -91q1 -53 -26 -90q-31 -45 -82 -45q-86 0 -86 107z" />
<glyph unicode="&#xf7;" horiz-adv-x="956" d="M0 623q0 55 51 55q4 0 19.5 -5t23.5 -5l496 53q6 0 71.5 14.5t69.5 14.5q29 0 50.5 -28t21.5 -56q0 -43 -43 -43q25 0 -88 -17l-543 -69q-129 4 -129 86zM293 346q0 39 26.5 72t65.5 33q18 0 35 -11q29 -20 29 -71q-1 -43 -21 -72q-25 -37 -66 -37q-70 0 -69 86zM293 899 q0 39 26.5 72t65.5 33q18 0 35 -11q29 -20 29 -71q-1 -43 -21 -72q-25 -37 -66 -37q-70 0 -69 86z" />
<glyph unicode="&#xf8;" horiz-adv-x="919" d="M0 217q0 131 154.5 310.5t279.5 179.5q49 0 82 -17q14 23 25 41l32 62q23 41 33 45q18 8 60.5 0.5t48.5 -19.5q16 -41 -72 -207q66 -49 94 -108q29 -57 29 -150q0 -135 -160 -260q-147 -115 -264 -114h-41q-23 0 -45 4q-98 -147 -121 -164q-14 -12 -59.5 -7t-55.5 25 q-6 16 31 74q23 35 45 72l31 51l-10 6q-117 72 -117 176zM160 195q0 -35 33 -52q145 248 235 398q-59 -27 -147 -129q-121 -137 -121 -217zM365 152q47 16 102 47q147 79 147 188q0 57 -39 107q-10 -16 -20 -35q-111 -178 -190 -307z" />
<glyph unicode="&#xf9;" horiz-adv-x="872" d="M-6 1380q0 14 34.5 38t55.5 24q12 0 49 -27q27 -23 55 -43q152 -109 402 -287q35 -23 69 -45q58 -37 58 -55q0 -23 -39 -46.5t-57 -18.5q-59 12 -334 198q-293 199 -293 262zM8 293q0 94 35 221q55 203 164 203q45 0 75.5 -33t30.5 -72q0 -6 -32 -63q-39 -68 -62 -127 q-33 -92 -33 -189q0 -43 2 -47q6 -16 41 -24q174 61 256 270q43 137 86 273q23 8 43 8q96 0 97 -125l-43 -355q0 -74 25.5 -135t25.5 -71q0 -47 -62 -47q-43 0 -77 38q-4 6 -58 82q-25 -6 -104 -61q-68 -45 -139 -45q-129 0 -207 115q-63 92 -64 184z" />
<glyph unicode="&#xfa;" horiz-adv-x="858" d="M-20 985q0 18 57 55q35 23 69 45q250 178 402 287q29 20 55 43q37 27 49 27q20 0 55 -23.5t35 -38.5q0 -63 -292 -262q-274 -186 -334 -198q-18 -4 -57 19t-39 46zM2 293q0 94 35 221q55 203 164 203q45 0 75.5 -33t30.5 -72q0 -6 -33 -63q-39 -68 -61 -127 q-33 -92 -33 -189q0 -43 2 -47q6 -16 41 -24q174 61 256 270q43 137 86 273q23 8 43 8q96 0 97 -125l-43 -355q0 -74 25.5 -135t25.5 -71q0 -47 -62 -47q-43 0 -78 38q-4 6 -57 82q-25 -6 -104 -61q-68 -45 -140 -45q-129 0 -206 115q-63 92 -64 184z" />
<glyph unicode="&#xfb;" horiz-adv-x="849" d="M-6 293q0 94 35 221q55 203 164 203q45 0 75.5 -33t30.5 -72q0 -6 -33 -63q-39 -68 -61 -127q-33 -92 -33 -189q0 -43 2 -47q6 -16 41 -24q174 61 256 270q43 137 86 273q23 8 43 8q96 0 96 -125l-43 -355q0 -74 26 -135t26 -71q0 -47 -62 -47q-43 0 -78 38q-4 6 -57 82 q-25 -6 -105 -61q-68 -45 -139 -45q-129 0 -207 115q-63 92 -63 184zM2 1141q0 23 117 110q72 53 143 107q106 90 131 94q27 2 66 -20.5t157 -139.5q132 -127 134 -164q2 -25 -29 -24q-23 0 -92 67q-127 121 -199 185q-37 -23 -194 -146q-125 -96 -164 -106q-33 0 -47 6 q-23 8 -23 31z" />
<glyph unicode="&#xfc;" horiz-adv-x="864" d="M0 293q0 94 35 221q55 203 164 203q45 0 75.5 -33t30.5 -72q0 -6 -33 -63q-39 -68 -61 -127q-33 -92 -33 -189q0 -43 2 -47q6 -16 41 -24q174 61 256 270q43 137 86 273q23 8 43 8q96 0 96 -125l-43 -355q0 -74 26 -135t26 -71q0 -47 -62 -47q-43 0 -78 38q-4 6 -57 82 q-25 -6 -104 -61q-68 -45 -140 -45q-129 0 -207 115q-63 92 -63 184zM123 1315q0 49 33.5 90t81.5 41q25 0 45 -12q35 -27 34 -91q1 -53 -24 -90q-31 -45 -82 -45q-88 0 -88 107zM457 1315q0 49 32.5 90t81.5 41q23 0 43 -12q37 -27 37 -91q1 -53 -26 -90q-31 -45 -82 -45 q-86 0 -86 107z" />
<glyph unicode="&#xfd;" horiz-adv-x="894" d="M-43 -510q0 6 25 47q27 49 34 70q98 260 199 420q76 121 76 125q0 8 -33 45q-39 49 -57 79q-27 47 -105 193q-88 170 -88 186q0 59 51 60q45 0 158 -203q129 -225 143 -240q18 23 166 256q119 193 150 193q65 0 65 -88q0 -59 -49 -148q-41 -70 -80 -141q-4 -10 -200 -313 q-186 -289 -226 -400q-88 -250 -139 -249q-33 0 -63 47q-27 39 -27 61zM0 985q0 18 57 55q35 23 70 45q250 178 401 287q29 20 56 43q37 27 49 27q20 0 55 -23.5t35 -38.5q0 -63 -293 -262q-274 -186 -334 -198q-18 -4 -57 19t-39 46z" />
<glyph unicode="&#xfe;" horiz-adv-x="919" d="M0 758l6 319q0 20 17.5 43t39.5 23q37 0 74 -58q31 -49 31 -69v-178q0 -80 2 -172q197 45 240 45q123 0 239.5 -105.5t116.5 -232.5q0 -188 -164 -293q-127 -82 -278 -82q-55 0 -93 20q-27 14 -51 29q-4 -31 -4 -125v-155l-6 -316q-6 -23 -13 -42t-34 -23q-80 -10 -86 79 q-27 428 -31 1102v49q-6 59 -6 142zM162 379q0 -158 10 -213q18 4 59 -1t39 -5q98 0 203 55q148 76 148 213q0 53 -48.5 93t-105.5 40q-76 0 -170 -37q-135 -51 -135 -145z" />
<glyph unicode="&#xff;" horiz-adv-x="897" d="M-41 -510q0 6 25 47q27 49 34 70q98 260 199 420q76 121 76 125q0 8 -33 45q-39 49 -57 79q-27 47 -105 193q-88 170 -88 186q0 59 51 60q45 0 158 -203q129 -225 143 -240q18 23 166 256q119 193 150 193q65 0 65 -88q0 -59 -49 -148q-41 -70 -80 -141q-4 -10 -200 -313 q-186 -289 -226 -400q-88 -250 -139 -249q-33 0 -63 47q-27 39 -27 61zM106 1315q0 49 34 90t81 41q25 0 45 -12q35 -27 35 -91q0 -53 -25 -90q-31 -45 -81 -45q-88 0 -89 107zM440 1315q0 49 33 90t82 41q23 0 43 -12q37 -27 37 -91q0 -53 -27 -90q-31 -45 -82 -45 q-86 0 -86 107z" />
<glyph unicode="&#x152;" horiz-adv-x="1794" d="M0 459v141q0 219 178 404q170 176 371 192q20 4 145 14q88 2 94 2q35 0 66 -4q82 37 283 92q211 55 424 113q23 4 43 4q72 0 71 -57q0 -35 -26 -80q-47 -10 -318 -84q-250 -68 -260 -68q-16 -49 -18 -153v-158q-4 -43 12 -43q10 0 31 12q193 49 274 86q84 16 84 -65 q0 -41 -31 -84q-27 -6 -366 -119q-2 -37 -2 -76q0 -53 9 -163.5t7 -171.5q66 10 219 59q168 53 295 106q106 -6 107 -57q0 -24 -23 -61q-121 -51 -393 -136q-164 -51 -328 -100h-84q-12 6 -22 12q-98 -16 -244 -16h-156q-55 0 -147 39t-133 80q-162 166 -162 340zM137 623 q20 -168 39 -220q47 -145 176 -210q141 -41 365 -33q53 2 143 39q45 16 80 26v4q-8 113 -16 336q-18 -6 -72 4q-45 0 -45 47q0 37 27 70l49 12q25 6 37 25q0 109 6 303q-20 0 -58 10q-43 12 -59 13q-104 8 -158 0q-55 -14 -110.5 -27.5t-83.5 -34.5q-145 -51 -264 -223 q-18 -41 -39 -82q-8 -18 -17 -59z" />
<glyph unicode="&#x153;" horiz-adv-x="1634" d="M0 217q0 131 154.5 310.5t279.5 179.5q49 0 82 -17q27 -16 55 -33q123 -63 166 -153q29 -58 29 -150q0 -135 -160 -260q-147 -115 -264 -114h-41q-86 0 -184 61q-117 72 -117 176zM160 195q0 -61 100 -62q88 0 207 66q147 79 147 188q0 59 -41 111.5t-104 52.5 q-68 0 -188.5 -138.5t-120.5 -217.5zM657 322q0 133 232 294q213 150 336 150q57 0 113.5 -47t56.5 -101q0 -90 -133 -184q-104 -72 -258 -127q-135 -49 -170 -43q51 -96 268 -125q63 -8 270 41q25 0 67 -38t42 -54q0 -53 -117 -80q-70 -16 -143.5 -18t-120.5 -4 q-37 -2 -41 -2q-129 0 -260 98q-141 106 -142 240zM897 446q0 -12 12 -14q113 -8 236 96q39 33 39 58q0 18 -29 24q-39 6 -140.5 -50t-99.5 -56l-2 2q2 2 9 8q16 18 18 18q0 2 -21.5 -32.5t-21.5 -53.5z" />
<glyph unicode="&#x178;" horiz-adv-x="1140" d="M0 1372q0 47 55 47q51 0 99 -45q33 -33 63 -82q47 -86 109 -227q80 -178 104 -227q39 2 216 295.5t247 298.5q45 2 69.5 -12.5t20.5 -49.5q-6 -96 -180 -348q-229 -330 -244 -358q-27 -180 -27 -326q0 -31 5 -133q2 -82 0 -144q-2 -55 -66 -63q-18 -4 -33 -4 q-47 0 -59 63q-35 180 -14 498q0 12 -2.5 57t-2.5 56q-16 43 -71 131q-68 109 -76 123q-33 63 -92 204q-47 113 -90 174q-31 43 -31 72zM201 1657q0 49 33.5 90t80.5 41q25 0 45 -12q35 -27 35 -90q1 -54 -24 -91q-31 -45 -82 -45q-88 0 -88 107zM535 1657q0 49 32.5 90 t81.5 41q23 0 43 -12q37 -27 37 -90q0 -54 -27 -91q-31 -45 -81 -45q-86 0 -86 107z" />
<glyph unicode="&#x2c6;" horiz-adv-x="903" d="M0 956q0 23 117 111q72 53 143 107q106 90 131 94q27 2 66 -20.5t157 -139.5q132 -127 134 -164q2 -25 -29 -24q-23 0 -92 67q-127 121 -199 184q-37 -23 -195 -145q-125 -96 -163 -106q-33 0 -47 6q-23 8 -23 30z" />
<glyph unicode="&#x2dc;" horiz-adv-x="1163" d="M0 1147q0 102 117 201q109 90 184 90q80 0 176 -80t170 -80q41 0 138.5 83t152.5 83q25 0 48.5 -16.5t23.5 -45.5q0 -47 -142.5 -141t-189.5 -94q-76 0 -166 43q-63 31 -135 80q-61 43 -62 43q-53 0 -149 -116t-103 -116q-23 0 -43 22.5t-20 43.5z" />
<glyph unicode="&#x2000;" horiz-adv-x="1051" />
<glyph unicode="&#x2001;" horiz-adv-x="2103" />
<glyph unicode="&#x2002;" horiz-adv-x="1051" />
<glyph unicode="&#x2003;" horiz-adv-x="2103" />
<glyph unicode="&#x2004;" horiz-adv-x="701" />
<glyph unicode="&#x2005;" horiz-adv-x="525" />
<glyph unicode="&#x2006;" horiz-adv-x="350" />
<glyph unicode="&#x2007;" horiz-adv-x="350" />
<glyph unicode="&#x2008;" horiz-adv-x="262" />
<glyph unicode="&#x2009;" horiz-adv-x="420" />
<glyph unicode="&#x200a;" horiz-adv-x="116" />
<glyph unicode="&#x2010;" horiz-adv-x="1220" d="M102 705q0 53 183 75q141 0 286.5 8.5t286.5 8.5q31 0 72 -56q35 -50 35 -75q0 -84 -244 -84l-485 -15q-37 0 -85.5 46t-48.5 92z" />
<glyph unicode="&#x2011;" horiz-adv-x="1220" d="M102 705q0 53 183 75q141 0 286.5 8.5t286.5 8.5q31 0 72 -56q35 -50 35 -75q0 -84 -244 -84l-485 -15q-37 0 -85.5 46t-48.5 92z" />
<glyph unicode="&#x2012;" horiz-adv-x="1220" d="M102 705q0 53 183 75q141 0 286.5 8.5t286.5 8.5q31 0 72 -56q35 -50 35 -75q0 -84 -244 -84l-485 -15q-37 0 -85.5 46t-48.5 92z" />
<glyph unicode="&#x2013;" horiz-adv-x="1650" d="M102 705q0 53 273 75q213 0 431 8.5t429 8.5q47 0 108 -56q52 -50 52 -75q0 -84 -365 -84l-729 -15q-55 0 -127 46t-72 92z" />
<glyph unicode="&#x2014;" horiz-adv-x="2512" d="M102 705q0 53 455 75q354 0 717.5 8.5t716.5 8.5q78 0 180 -56q86 -50 86 -75q0 -84 -608 -84l-1215 -15q-92 0 -212 46t-120 92z" />
<glyph unicode="&#x2018;" horiz-adv-x="358" d="M35 1290q-35 125 2 144q41 16 78 -7q25 -13 37 -38q20 -45 36 -150q16 -123 -18 -139q-51 -25 -94 69q-20 43 -41 121z" />
<glyph unicode="&#x2019;" horiz-adv-x="339" d="M8 1204q6 47 27 125q33 123 71 121q45 -4 66 -43q14 -24 14 -51q-6 -49 -45 -150q-47 -115 -84 -110q-57 4 -49 108z" />
<glyph unicode="&#x201a;" horiz-adv-x="321" d="M0 -133q0 -6 14 24q35 63 35 115q0 16 -5 45t-3 43q2 8 40 28.5t52 14.5q35 -20 35 -84q0 -71 -35 -137q-10 -20 -47 -48t-61 -28q-25 0 -25 27z" />
<glyph unicode="&#x201c;" horiz-adv-x="460" d="M18 1292q-18 94 5 107q25 10 54.5 -8t43.5 -43q4 -6 10 -34t16 -73q18 -111 3 -121q-2 -2 -11 -4q-16 -4 -49 23q-27 20 -37 39q-8 16 -17 44.5t-18 69.5zM156 1323q-27 109 0 121q25 14 59 -8q29 -20 41 -43q14 -29 33 -142q18 -123 0 -133q-43 -20 -90 74 q-20 43 -43 131z" />
<glyph unicode="&#x201d;" horiz-adv-x="440" d="M2 1247q2 18 8 47t19 68q31 92 57 92q27 -4 43 -34.5t16 -57.5q0 -8 -8 -35t-22 -72q-39 -104 -58 -106q-4 0 -10 2q-18 4 -33 45q-14 31 -12 51zM135 1188q4 45 29 135q31 104 61 104q27 -2 47 -38q15 -31 15 -58q-4 -33 -45 -137q-43 -117 -66 -117q-47 4 -41 111z" />
<glyph unicode="&#x201e;" horiz-adv-x="567" d="M0 -133q0 -6 14 24q35 63 35 115q0 16 -5 45t-3 43q2 8 40 28.5t52 14.5q35 -20 35 -84q0 -71 -35 -137q-10 -20 -47 -48t-61 -28q-25 0 -25 27zM246 -133q0 -6 14 24q35 63 35 115q0 16 -5 45t-3 43q2 8 40 28.5t52 14.5q35 -20 35 -84q0 -71 -35 -137q-10 -20 -47 -48 t-62 -28t-24 27z" />
<glyph unicode="&#x2022;" horiz-adv-x="464" d="M0 709q0 78 53 143.5t131 65.5q37 0 70 -21q57 -41 57 -143q0 -87 -41 -144q-49 -74 -131 -73q-139 0 -139 172z" />
<glyph unicode="&#x2026;" horiz-adv-x="862" d="M0 78q0 39 26.5 71.5t65.5 32.5q18 0 35 -10q29 -20 29 -72q-1 -42 -21 -71q-25 -37 -65 -37q-70 0 -70 86zM266 78q0 39 26.5 71.5t65.5 32.5q18 0 35 -10q29 -20 29 -72q-1 -42 -21 -71q-25 -37 -65 -37q-70 0 -70 86zM553 78q0 39 26.5 71.5t65.5 32.5q18 0 35 -10 q29 -20 29 -72q-1 -42 -21 -71q-25 -37 -65 -37q-70 0 -70 86z" />
<glyph unicode="&#x202f;" horiz-adv-x="420" />
<glyph unicode="&#x2039;" horiz-adv-x="849" d="M0 555q0 16 2 31.5t305 254t326 234.5q35 -8 49 -46t8 -71q-6 -41 -510 -436q51 -61 150 -141q104 -86 155 -141q61 -37 121 -76q84 -59 72 -137q-8 -59 -55 -50q-27 4 -211 150q-170 135 -191 158q-70 57 -139 116q-82 74 -82 154z" />
<glyph unicode="&#x203a;" horiz-adv-x="847" d="M4 965q-4 33 10.5 70.5t48.5 45.5q23 4 325 -234.5t304 -253.5t2 -32q0 -80 -82 -153q-70 -59 -139 -117q-20 -23 -190 -158q-182 -145 -211 -149q-47 -10 -56 49q-12 78 72 137q61 39 121 76q51 55 156 141q98 80 149 141q-504 396 -510 437z" />
<glyph unicode="&#x205f;" horiz-adv-x="525" />
<glyph unicode="&#x20ac;" horiz-adv-x="1605" d="M0 745q0 29 25 56q37 4 272 45q6 0 12 2q41 170 176 321q186 205 404 226q23 4 158 16q96 2 102 2q229 0 229 -137q0 -80 -73 -80q-23 0 -69 13.5t-65 13.5q-113 8 -172 0l-118 -33q-59 -16 -93 -39q-158 -59 -286 -260q-4 -8 -8 -17q76 8 129 9q10 0 39 2h43 q90 -1 90 -60q0 -43 -43 -43q-6 0 -60.5 -9t-60.5 -9q-61 0 -187 -21q0 -8 -2 -18q10 -84 19 -143l137 14q6 0 71.5 14.5t69.5 14.5q29 0 50.5 -28t21.5 -56q0 -41 -39 -43q6 -2 -92 -17l-193 -24q51 -160 189 -234q154 -47 395 -37q57 2 156.5 45t156.5 45q27 -16 47.5 -52 t14.5 -60q-18 -88 -143 -119q-127 -45 -361 -45h-168q-61 0 -160.5 45t-144.5 94q-133 143 -166 293l-166 -20q-129 4 -129 86q0 55 51 55q4 0 19.5 -5t23.5 -5l191 20v137v15q-197 -39 -213 -39q-29 0 -54.5 23.5t-25.5 45.5z" />
<glyph unicode="&#x2122;" horiz-adv-x="1611" d="M0 1274q0 25 18 35q68 25 265 77q215 60 276 64q39 4 68.5 -18.5t29.5 -51.5q0 -12 -9 -24.5t-97 -34.5q-70 -16 -139 -35q-8 -154 -11 -502q-2 -328 -2 -342q-18 -74 -57 -73q-41 0 -53.5 69.5t-12.5 409.5q0 319 7 391q-25 0 -97 -22q-41 -12 -82 -27 q-47 -2 -75.5 25.5t-28.5 58.5zM657 1233v86q2 47 12.5 79t49.5 32q31 0 55 -21q45 -68 139 -176q76 -84 150 -170q35 20 219 326q37 33 82 32q25 0 41 -10q33 -51 37 -88q2 -18 2 -111q-4 -123 2 -637q2 -20 6 -45.5t4 -60.5q2 -51 -2 -66q-8 -20 -41 -34q-68 16 -82 180 q-8 172 -14 344q0 117 -12 242q-61 -94 -195 -281q-20 -10 -39 -10q-16 0 -27 8q-35 31 -34 70q0 16 4 45q-37 35 -215 252q-23 -80 -23 -410q0 -240 12 -393q4 -51 -43 -51q-51 0 -61 55q-25 80 -25 737q0 4 -2 76z" />
<glyph unicode="&#x25fc;" horiz-adv-x="716" d="M0 0v717h717v-717h-717z" />
</font>
</defs>
</svg>
